<svg width="176" height="176" viewBox="0 0 176 176" fill="none" xmlns="http://www.w3.org/2000/svg">
<g id="new_password">
<path id="circle-blur2" opacity="0.2" d="M87.9951 175.99C136.593 175.99 175.99 136.593 175.99 87.9951C175.99 39.3967 136.593 0 87.9951 0C39.3967 0 0 39.3967 0 87.9951C0 136.593 39.3967 175.99 87.9951 175.99Z" fill="#585490"/>
<path id="circle-blur1" opacity="0.2" d="M87.9951 149.966C122.221 149.966 149.966 122.221 149.966 87.9951C149.966 53.7696 122.221 26.0244 87.9951 26.0244C53.7696 26.0244 26.0244 53.7696 26.0244 87.9951C26.0244 122.221 53.7696 149.966 87.9951 149.966Z" fill="#585490"/>
<g id="lock">
<path id="circle" d="M87.9951 128.898C110.585 128.898 128.898 110.585 128.898 87.9952C128.898 65.4054 110.585 47.0928 87.9951 47.0928C65.4053 47.0928 47.0927 65.4054 47.0927 87.9952C47.0927 110.585 65.4053 128.898 87.9951 128.898Z" fill="#585490"/>
<path id="key" d="M94.6162 80.2081C94.6204 79.0881 94.3403 77.9854 93.8023 77.0031C93.2643 76.0208 92.4859 75.191 91.54 74.5914C90.594 73.9918 89.5114 73.6419 88.3934 73.5745C87.2755 73.5071 86.1587 73.7244 85.1476 74.2061C84.1364 74.6877 83.264 75.418 82.6119 76.3286C81.9598 77.2392 81.5494 78.3003 81.4189 79.4127C81.2885 80.525 81.4424 81.6523 81.8662 82.689C82.29 83.7257 82.9698 84.638 83.8421 85.3405L81.4032 102.413H94.6162L92.1774 85.3405C92.942 84.722 93.558 83.9398 93.9801 83.0515C94.4022 82.1632 94.6196 81.1916 94.6162 80.2081Z" fill="white"/>
</g>
</g>
</svg>
