<!DOCTYPE svg PUBLIC "-//W3C//DTD SVG 20010904//EN" "http://www.w3.org/TR/2001/REC-SVG-20010904/DTD/svg10.dtd">
<svg version="1.0" xmlns="http://www.w3.org/2000/svg" width="210px" height="383px" viewBox="0 0 2100 3830" preserveAspectRatio="xMidYMid meet">
<g id="layer101" fill="#15203d" stroke="none">
<path d="M590 3824 c-136 -10 -362 -36 -430 -50 -110 -23 -160 -47 -160 -78 0 -21 9 -28 54 -45 62 -23 196 -48 310 -58 59 -5 85 -11 105 -28 36 -30 86 -55 111 -55 l21 0 -21 -29 c-42 -60 -80 -158 -96 -251 -27 -158 -3 -331 52 -367 23 -14 24 -21 24 -117 0 -55 5 -121 11 -146 12 -52 58 -160 69 -160 4 0 10 57 13 128 7 176 16 190 39 61 32 -187 51 -381 52 -534 1 -178 -6 -199 -104 -310 -142 -161 -192 -267 -226 -480 -11 -66 -14 -126 -10 -176 5 -63 3 -84 -13 -120 -81 -183 -20 -574 136 -871 38 -72 91 -138 112 -138 49 0 102 168 191 613 11 55 21 66 47 49 10 -6 10 -33 2 -122 -13 -132 -5 -183 28 -188 15 -2 24 -13 28 -35 9 -42 23 -57 50 -57 47 0 88 88 101 216 l7 63 27 -19 c63 -45 96 -13 87 81 -6 55 -6 57 19 63 15 4 27 6 29 4 1 -2 7 -32 14 -68 27 -147 85 -391 112 -476 44 -136 77 -154 136 -71 70 98 147 286 194 477 19 79 23 121 23 250 0 138 -2 161 -23 213 -19 48 -23 79 -25 200 -5 241 -65 401 -216 577 -45 52 -89 108 -98 125 -36 67 -23 409 27 707 11 62 23 155 27 206 l7 92 25 -25 c37 -37 91 -32 111 10 27 56 41 140 41 254 0 133 -17 209 -66 299 -19 34 -34 64 -34 66 0 2 12 6 28 9 15 3 43 17 62 31 54 39 67 43 184 56 126 14 261 44 293 66 37 24 29 52 -21 75 -47 20 -213 51 -381 70 -95 11 -968 21 -1085 13z"/>
</g>
<g id="layer102" fill="#1c2540" stroke="none">
<path d="M590 3824 c-136 -10 -362 -36 -430 -50 -110 -23 -160 -47 -160 -78 0 -21 9 -28 54 -45 63 -23 185 -45 341 -62 61 -6 117 -17 125 -24 24 -20 85 -34 130 -28 40 6 51 16 28 27 -17 8 24 -1 87 -19 28 -7 43 -14 34 -14 -13 -1 -20 -34 -38 -183 -12 -101 -31 -232 -42 -293 -24 -140 -24 -260 0 -405 53 -322 73 -658 43 -743 -8 -21 -54 -86 -103 -145 -96 -115 -168 -242 -193 -345 -29 -112 -41 -248 -28 -313 19 -96 67 -181 146 -260 79 -78 143 -114 255 -141 66 -16 72 -16 110 2 54 24 66 40 86 110 25 92 22 87 45 75 25 -13 74 -98 91 -157 12 -44 12 -45 48 -38 147 25 278 107 357 222 85 124 103 234 69 427 -28 162 -83 274 -204 414 -107 124 -115 142 -119 299 -4 144 15 359 50 553 27 155 27 329 0 480 -11 63 -29 186 -39 274 -13 114 -22 160 -32 164 -8 3 8 11 35 18 27 8 59 16 72 20 17 5 21 3 17 -8 -13 -34 105 -28 159 7 12 8 66 19 121 25 275 30 395 63 395 111 0 41 -145 78 -425 110 -95 11 -968 21 -1085 13z m394 -274 c-12 -5 -25 -14 -29 -20 -4 -6 -8 -100 -8 -208 -2 -189 -3 -201 -31 -284 -16 -49 -31 -86 -33 -84 -2 2 8 50 23 107 25 98 26 112 22 301 l-4 198 41 -1 c33 0 36 -2 19 -9z m189 -187 c-5 -192 -5 -201 22 -296 14 -54 24 -101 22 -104 -3 -3 -18 33 -34 79 -27 79 -28 91 -29 278 0 108 -4 202 -8 209 -5 7 -18 16 -30 21 -17 7 -13 9 21 9 l41 1 -5 -197z m-327 -1943 c37 -23 74 -91 74 -136 0 -16 -9 -48 -20 -71 -10 -24 -15 -43 -10 -43 17 0 52 -82 57 -134 4 -45 2 -56 -26 -93 -17 -23 -39 -47 -50 -52 -17 -10 -20 -7 -26 28 l-6 39 -57 -25 c-75 -33 -149 -40 -189 -19 -43 21 -73 67 -73 108 0 48 23 65 100 71 36 3 78 10 94 16 l28 11 -33 23 c-51 34 -79 82 -79 136 0 123 119 200 216 141z m550 0 c37 -23 74 -91 74 -136 0 -49 -40 -116 -84 -141 l-39 -21 53 -16 c30 -9 75 -16 102 -16 40 0 50 -4 64 -25 40 -61 -25 -154 -114 -163 -46 -4 -79 5 -189 54 -8 4 -13 -9 -15 -38 l-3 -43 -47 48 c-45 44 -48 51 -48 97 0 52 19 112 46 141 14 15 14 20 0 48 -9 16 -16 49 -16 73 0 120 120 197 216 138z"/>
<path d="M719 1406 c-80 -45 -89 -170 -18 -231 54 -45 142 -26 175 37 26 50 15 132 -23 169 -36 36 -94 47 -134 25z m71 -31 c0 -8 -8 -15 -17 -15 -25 0 -53 -30 -53 -57 0 -14 -6 -23 -15 -23 -17 0 -19 9 -5 44 19 52 90 92 90 51z m10 -89 c0 -22 -17 -46 -32 -46 -4 0 -12 9 -18 21 -16 28 14 77 36 58 8 -6 14 -21 14 -33z m50 4 c0 -76 -40 -120 -96 -106 -37 10 -29 25 10 19 29 -4 37 -1 51 21 12 19 16 38 12 66 -4 30 -2 40 9 40 10 0 14 -12 14 -40z"/>
<path d="M805 1119 c-78 -34 -190 -63 -216 -56 -25 7 -49 -11 -49 -38 0 -35 55 -93 94 -100 35 -7 137 22 193 55 l32 19 7 -34 c8 -42 26 -37 49 14 14 32 15 45 5 80 -14 51 -31 91 -39 90 -3 0 -37 -14 -76 -30z"/>
<path d="M1270 1403 c-45 -23 -76 -93 -66 -149 11 -54 63 -104 110 -104 81 0 126 50 126 140 0 43 -5 55 -32 85 -41 44 -88 54 -138 28z m70 -28 c0 -8 -9 -15 -19 -15 -22 0 -51 -35 -51 -62 0 -10 -7 -18 -16 -18 -11 0 -14 5 -10 16 3 9 6 21 6 28 0 20 50 66 71 66 11 0 19 -7 19 -15z m10 -85 c0 -49 -30 -67 -50 -29 -16 28 14 77 36 58 8 -6 14 -20 14 -29z m50 0 c0 -76 -40 -120 -96 -106 -37 10 -29 25 10 19 29 -4 37 -1 51 21 12 19 16 38 12 66 -4 30 -2 40 9 40 10 0 14 -12 14 -40z"/>
<path d="M1195 1113 c-28 -58 -30 -112 -6 -150 27 -43 41 -42 41 2 0 19 2 35 4 35 2 0 23 -11 47 -24 24 -14 70 -32 104 -41 55 -15 65 -15 98 -2 34 15 77 67 77 94 0 19 -31 45 -47 39 -31 -12 -150 21 -289 80 -6 3 -19 -12 -29 -33z"/>
<path d="M680 3526 c-110 -40 -199 -301 -171 -506 12 -93 27 -129 57 -136 29 -8 56 8 92 53 24 30 33 57 46 133 25 150 58 439 52 455 -6 18 -29 18 -76 1z"/>
<path d="M1344 3532 c-9 -5 -5 -58 12 -197 41 -334 45 -352 105 -420 45 -51 73 -47 93 11 79 232 2 559 -142 602 -46 14 -53 14 -68 4z"/>
<path d="M646 2901 c-17 -17 -36 -31 -44 -31 -12 0 -14 -23 -10 -135 4 -164 20 -193 37 -71 6 46 21 119 32 161 26 100 23 116 -15 76z"/>
<path d="M421 1009 c-27 -73 -35 -123 -34 -234 1 -139 17 -229 74 -398 41 -124 125 -301 139 -292 14 8 58 153 79 255 18 90 51 323 51 358 0 10 -23 30 -51 47 -68 40 -176 156 -216 230 -31 59 -32 59 -42 34z"/>
<path d="M1631 972 c-44 -81 -119 -163 -198 -214 l-65 -43 7 -85 c13 -168 64 -417 105 -515 l17 -40 27 44 c63 99 141 319 171 480 19 107 19 270 0 345 -25 95 -28 96 -64 28z"/>
<path d="M1068 864 c-3 -5 -11 -33 -18 -61 -13 -57 -58 -107 -105 -119 -14 -3 -25 -11 -25 -18 0 -6 -5 -62 -11 -125 -6 -63 -8 -125 -4 -139 6 -25 7 -25 30 14 l24 39 1 -70 c0 -81 10 -105 37 -89 26 16 50 97 64 215 l13 104 41 -44 c57 -60 70 -50 60 43 -4 39 -16 99 -27 133 -20 62 -70 135 -80 117z"/>
<path d="M745 653 c-27 -239 -66 -427 -111 -537 -18 -44 -21 -62 -13 -73 18 -21 25 -16 47 35 42 98 153 596 135 612 -4 4 -18 11 -30 14 -20 6 -22 3 -28 -51z"/>
<path d="M1308 697 l-26 -12 38 -185 c43 -210 83 -364 111 -429 18 -42 20 -43 38 -27 19 17 19 19 -5 71 -14 29 -35 95 -48 147 -24 94 -66 360 -66 417 0 34 -3 36 -42 18z"/>
</g>
<g id="layer103" fill="#342e3b" stroke="none">
<path d="M590 3824 c-136 -10 -362 -36 -430 -50 -110 -23 -160 -47 -160 -78 0 -21 9 -28 54 -45 63 -23 184 -45 341 -62 60 -6 119 -18 131 -25 53 -35 162 -39 149 -6 -4 11 0 13 17 9 13 -3 48 -12 78 -20 38 -9 49 -15 35 -19 -18 -4 -23 -23 -43 -192 -13 -102 -32 -241 -44 -309 -21 -127 -20 -272 2 -371 26 -115 53 -391 54 -551 1 -202 -4 -218 -106 -336 -149 -172 -198 -280 -229 -506 -15 -112 -5 -183 41 -276 59 -121 165 -217 285 -260 116 -41 138 -42 195 -11 47 25 52 32 70 92 11 35 20 73 20 83 0 28 14 23 53 -20 32 -36 77 -132 77 -166 0 -19 8 -19 84 1 110 28 177 67 254 148 100 106 135 181 140 306 9 215 -60 405 -213 589 -47 57 -93 117 -103 135 -36 67 -12 583 38 801 13 53 12 279 0 333 -8 31 -70 488 -70 509 0 2 -8 3 -17 4 -10 0 7 7 37 15 104 28 101 28 94 10 -11 -28 92 -26 143 4 17 10 62 21 100 25 195 19 368 53 411 81 36 24 28 52 -22 75 -47 20 -213 51 -381 70 -95 11 -968 21 -1085 13z m392 -279 l-33 -14 2 -188 c3 -202 -3 -243 -55 -368 -33 -80 -32 -61 5 81 31 119 31 120 26 312 l-6 192 47 0 47 -1 -33 -14z m192 -172 l-7 -188 32 -124 c18 -68 30 -128 28 -134 -2 -6 -19 34 -38 89 l-34 99 -2 205 -1 205 -34 17 -33 18 48 0 48 0 -7 -187z m-305 -1966 c49 -45 64 -126 36 -194 -13 -32 -14 -38 -1 -52 26 -29 46 -89 46 -140 0 -44 -4 -54 -45 -98 -37 -40 -46 -45 -55 -33 -5 8 -10 26 -10 39 0 18 -4 22 -17 16 -74 -31 -130 -45 -172 -45 -42 0 -56 5 -85 30 -45 40 -62 89 -44 127 12 26 19 29 83 35 39 3 83 11 99 17 l30 12 -32 19 c-48 29 -72 76 -72 138 0 58 15 95 53 131 48 44 135 43 186 -2z m530 14 c50 -35 66 -68 66 -136 0 -71 -17 -103 -74 -142 l-32 -22 52 -15 c29 -9 71 -16 93 -16 70 0 96 -52 61 -121 -37 -71 -132 -88 -240 -44 -63 26 -75 23 -75 -22 0 -13 -3 -23 -8 -23 -18 0 -54 34 -78 76 -31 53 -28 98 12 181 20 41 23 57 15 72 -16 28 -13 117 3 149 43 83 137 112 205 63z"/>
<path d="M723 1404 c-44 -22 -78 -91 -68 -141 20 -106 118 -147 191 -80 66 60 56 171 -19 217 -39 24 -62 25 -104 4z m67 -29 c0 -8 -9 -15 -19 -15 -22 0 -51 -35 -51 -62 0 -10 -7 -18 -15 -18 -8 0 -15 5 -15 10 0 23 29 79 47 89 26 15 53 13 53 -4z m10 -85 c0 -48 -30 -67 -50 -31 -10 20 -4 51 14 63 14 9 36 -10 36 -32z m50 0 c0 -74 -40 -119 -96 -108 -9 1 -19 9 -22 17 -3 10 3 12 26 7 48 -11 83 40 68 99 -5 18 -2 25 9 25 11 0 15 -11 15 -40z"/>
<path d="M785 1103 c-56 -22 -116 -38 -160 -42 -69 -6 -70 -6 -73 -37 -2 -25 4 -37 34 -64 34 -30 41 -32 87 -27 41 5 90 24 190 75 4 2 7 -10 7 -27 0 -37 13 -40 34 -9 18 26 20 49 6 98 -20 71 -24 72 -125 33z"/>
<path d="M1290 1413 c-54 -20 -97 -99 -84 -155 22 -102 119 -140 190 -75 66 60 56 171 -19 217 -32 20 -58 24 -87 13z m50 -38 c0 -8 -9 -15 -19 -15 -22 0 -51 -35 -51 -62 0 -10 -7 -18 -15 -18 -8 0 -15 5 -15 10 0 23 29 79 47 89 26 15 53 13 53 -4z m10 -85 c0 -48 -30 -67 -50 -31 -10 20 -4 51 14 63 14 9 36 -10 36 -32z m50 0 c0 -74 -40 -119 -96 -108 -9 1 -19 9 -22 17 -3 9 2 11 17 6 49 -15 90 34 77 95 -4 22 -2 30 9 30 11 0 15 -11 15 -40z"/>
<path d="M1196 1100 c-21 -53 -20 -109 3 -139 l18 -24 7 36 7 36 59 -30 c83 -42 163 -58 197 -39 40 23 67 64 59 93 -5 22 -12 25 -73 29 -45 4 -100 18 -162 42 -51 20 -94 36 -96 36 -2 0 -10 -18 -19 -40z"/>
<path d="M686 3525 c-48 -14 -78 -49 -121 -140 -42 -90 -58 -167 -59 -280 0 -149 33 -236 82 -221 11 4 38 26 60 49 36 41 40 50 55 148 14 91 57 421 57 440 0 13 -35 15 -74 4z"/>
<path d="M1358 3532 c-24 -5 -23 -20 7 -248 36 -271 39 -287 65 -325 64 -93 91 -101 120 -36 25 56 43 197 35 271 -12 119 -67 258 -118 303 -25 22 -83 41 -109 35z"/>
<path d="M1067 863 c-2 -4 -10 -32 -17 -60 -13 -57 -58 -107 -105 -119 -14 -3 -25 -11 -25 -18 0 -6 -5 -63 -10 -126 -6 -63 -8 -126 -5 -139 6 -24 7 -23 29 14 l24 39 3 -77 c5 -82 11 -97 37 -81 23 15 51 111 64 224 l11 96 42 -45 c66 -70 80 -41 49 106 -21 103 -80 216 -97 186z"/>
</g>
<g id="layer104" fill="#303349" stroke="none">
<path d="M590 3824 c-136 -10 -362 -36 -430 -50 -110 -23 -160 -47 -160 -78 0 -21 9 -28 54 -45 63 -23 184 -45 341 -62 60 -6 119 -18 131 -25 53 -35 162 -39 149 -6 -4 11 0 13 17 9 13 -3 48 -12 78 -20 38 -9 49 -15 35 -19 -18 -4 -23 -23 -43 -192 -13 -102 -32 -241 -44 -309 -21 -127 -20 -272 2 -371 26 -115 53 -391 54 -551 1 -192 -6 -221 -79 -306 l-38 -44 42 45 c23 25 54 59 69 75 33 36 144 96 224 120 55 18 57 18 127 -5 71 -22 221 -103 221 -119 0 -4 27 -40 59 -78 l59 -71 -56 39 c-200 138 -555 129 -732 -17 -21 -17 -29 -21 -20 -9 15 20 14 20 -9 0 -34 -29 -99 -127 -131 -199 -57 -125 -91 -326 -72 -426 31 -168 166 -326 327 -383 116 -41 138 -42 195 -11 47 25 52 32 70 92 11 35 20 73 20 83 0 28 14 23 53 -20 32 -36 77 -132 77 -166 0 -19 8 -19 84 1 110 28 177 67 254 148 100 106 135 181 140 306 9 215 -60 405 -213 589 -47 57 -93 117 -103 135 -36 67 -12 583 38 801 13 53 12 279 0 333 -8 31 -70 488 -70 509 0 2 -8 3 -17 4 -10 0 7 7 37 15 104 28 101 28 94 10 -11 -28 92 -26 143 4 17 10 62 21 100 25 195 19 368 53 411 81 36 24 28 52 -22 75 -47 20 -213 51 -381 70 -95 11 -968 21 -1085 13z m258 -164 l62 -29 0 -48 c0 -26 4 -43 8 -37 4 7 54 11 134 11 l127 0 4 -26 c2 -14 5 2 6 37 l1 63 65 30 c35 16 74 29 85 29 32 0 23 -27 -11 -34 -42 -8 -104 -72 -118 -121 -6 -22 -14 -82 -17 -133 -4 -56 -10 -88 -15 -80 -5 8 -9 -21 -9 -67 0 -57 9 -114 30 -195 16 -63 30 -122 29 -130 0 -23 -28 46 -54 135 -13 44 -24 74 -24 66 -1 -8 -12 0 -25 18 -54 73 -98 75 -145 6 -13 -19 -27 -33 -31 -30 -4 3 -11 -12 -15 -32 -7 -40 -64 -185 -64 -167 -1 7 10 56 24 109 21 81 26 125 29 259 1 89 0 134 -3 101 l-6 -60 -8 89 c-4 49 -16 108 -26 130 -21 49 -72 95 -112 103 -34 7 -39 33 -6 33 12 0 50 -13 85 -30z m-210 -12 c3 -14 -2 -15 -37 -6 -53 14 -56 37 -4 29 24 -4 39 -12 41 -23z m67 22 c3 -5 -1 -10 -10 -10 -9 0 -13 5 -10 10 3 6 8 10 10 10 2 0 7 -4 10 -10z m715 -10 c0 -5 -7 -7 -15 -4 -8 4 -12 10 -9 15 6 11 24 2 24 -11z m117 -7 c-10 -9 -62 -8 -65 2 -3 12 61 24 67 12 1 -5 1 -11 -2 -14z m-1007 7 c0 -5 -4 -10 -10 -10 -5 0 -10 5 -10 10 0 6 5 10 10 10 6 0 10 -4 10 -10z m1060 0 c0 -5 -4 -10 -10 -10 -5 0 -10 5 -10 10 0 6 5 10 10 10 6 0 10 -4 10 -10z m-588 -2085 c-5 -28 -22 -24 -22 6 0 10 6 19 14 19 9 0 12 -8 8 -25z m103 15 c3 -6 3 -20 -1 -33 -7 -21 -7 -21 -15 -2 -4 11 -8 26 -8 33 -1 14 15 16 24 2z m-236 -183 c49 -45 64 -126 36 -194 -13 -32 -14 -38 -1 -52 26 -29 46 -89 46 -140 0 -44 -4 -54 -45 -98 -37 -40 -46 -45 -55 -33 -5 8 -10 26 -10 39 0 18 -4 22 -17 16 -74 -31 -130 -45 -172 -45 -42 0 -56 5 -85 30 -45 40 -62 89 -44 127 12 26 19 29 83 35 39 3 83 11 99 17 l30 12 -32 19 c-48 29 -72 76 -72 138 0 58 15 95 53 131 48 44 135 43 186 -2z m530 14 c50 -35 66 -68 66 -136 0 -71 -17 -103 -74 -142 l-32 -22 52 -15 c29 -9 71 -16 93 -16 70 0 96 -52 61 -121 -37 -71 -132 -88 -240 -44 -63 26 -75 23 -75 -22 0 -13 -3 -23 -8 -23 -18 0 -54 34 -78 76 -31 53 -28 98 12 181 20 41 23 57 15 72 -16 28 -13 117 3 149 43 83 137 112 205 63z"/>
<path d="M954 3528 c-4 -7 -3 -8 4 -4 7 4 12 9 12 12 0 8 -9 4 -16 -8z"/>
<path d="M1141 3523 c7 -12 15 -20 18 -17 3 2 -3 12 -13 22 -17 16 -18 16 -5 -5z"/>
<path d="M953 3370 c0 -47 2 -66 4 -42 2 23 2 61 0 85 -2 23 -4 4 -4 -43z"/>
<path d="M1173 3375 c0 -22 2 -30 4 -17 2 12 2 30 0 40 -3 9 -5 -1 -4 -23z"/>
<path d="M1144 3280 c0 -69 1 -97 3 -62 2 34 2 90 0 125 -2 34 -3 6 -3 -63z"/>
<path d="M952 3175 c0 -16 2 -22 5 -12 2 9 2 23 0 30 -3 6 -5 -1 -5 -18z"/>
<path d="M723 1404 c-44 -22 -78 -91 -68 -141 20 -106 118 -147 191 -80 66 60 56 171 -19 217 -39 24 -62 25 -104 4z m67 -29 c0 -8 -9 -15 -19 -15 -22 0 -51 -35 -51 -62 0 -10 -7 -18 -15 -18 -8 0 -15 5 -15 10 0 23 29 79 47 89 26 15 53 13 53 -4z m-1 -59 c18 -21 10 -70 -11 -74 -25 -5 -44 39 -29 67 14 25 24 26 40 7z m61 -26 c0 -74 -40 -119 -96 -108 -9 1 -19 9 -22 17 -3 10 3 12 25 7 42 -10 68 22 66 80 -1 32 2 44 13 44 10 0 14 -12 14 -40z"/>
<path d="M1290 1413 c-54 -20 -97 -99 -84 -155 22 -102 119 -140 190 -75 66 60 56 171 -19 217 -32 20 -58 24 -87 13z m50 -38 c0 -8 -9 -15 -19 -15 -22 0 -51 -35 -51 -62 0 -10 -7 -18 -15 -18 -8 0 -15 5 -15 10 0 23 29 79 47 89 26 15 53 13 53 -4z m-1 -59 c18 -21 10 -70 -11 -74 -25 -5 -44 39 -29 67 14 25 24 26 40 7z m61 -26 c0 -74 -40 -119 -96 -108 -9 1 -19 9 -22 17 -3 10 3 12 25 7 42 -10 68 22 67 80 -1 31 3 44 13 44 9 0 13 -13 13 -40z"/>
<path d="M673 3523 c-48 -9 -128 -149 -154 -268 -27 -127 -10 -323 31 -360 24 -22 47 -14 94 34 32 33 41 52 52 108 20 101 19 116 -7 108 -31 -10 -39 9 -38 100 0 97 22 227 44 261 8 13 12 23 8 23 -5 -1 -18 -4 -30 -6z"/>
<path d="M1398 3517 c27 -33 49 -193 44 -329 -2 -40 -5 -48 -22 -48 -10 0 -24 8 -29 18 -14 22 -13 13 3 -84 12 -79 30 -116 79 -171 49 -55 87 -3 107 146 18 135 -3 261 -62 373 -35 66 -62 93 -102 102 -24 6 -28 5 -18 -7z"/>
<path d="M752 3500 c0 -14 2 -19 5 -12 2 6 2 18 0 25 -3 6 -5 1 -5 -13z"/>
<path d="M1342 3465 c0 -16 2 -22 5 -12 2 9 2 23 0 30 -3 6 -5 -1 -5 -18z"/>
<path d="M742 3415 c0 -16 2 -22 5 -12 2 9 2 23 0 30 -3 6 -5 -1 -5 -18z"/>
<path d="M1352 3380 c0 -14 2 -19 5 -12 2 6 2 18 0 25 -3 6 -5 1 -5 -13z"/>
<path d="M732 3330 c0 -14 2 -19 5 -12 2 6 2 18 0 25 -3 6 -5 1 -5 -13z"/>
<path d="M1362 3300 c0 -14 2 -19 5 -12 2 6 2 18 0 25 -3 6 -5 1 -5 -13z"/>
<path d="M722 3250 c0 -14 2 -19 5 -12 2 6 2 18 0 25 -3 6 -5 1 -5 -13z"/>
<path d="M1372 3220 c0 -14 2 -19 5 -12 2 6 2 18 0 25 -3 6 -5 1 -5 -13z"/>
<path d="M712 3180 c0 -14 2 -19 5 -12 2 6 2 18 0 25 -3 6 -5 1 -5 -13z"/>
<path d="M660 2905 c-8 -9 -27 -23 -43 -32 l-29 -15 4 -129 c4 -150 21 -191 32 -78 4 40 18 115 32 168 13 52 22 96 20 98 -2 2 -9 -4 -16 -12z"/>
<path d="M417 993 c-62 -156 -34 -424 73 -697 42 -106 95 -206 109 -206 12 0 57 141 80 255 17 83 51 324 51 360 0 5 -21 21 -46 34 -67 36 -175 149 -216 226 l-35 67 -16 -39z"/>
<path d="M1626 962 c-35 -66 -163 -199 -218 -225 -45 -21 -45 -25 -23 -202 26 -199 89 -445 114 -445 12 0 73 119 111 214 17 44 45 132 62 195 28 104 31 132 32 266 1 121 -2 160 -17 203 -10 28 -22 52 -25 52 -4 0 -20 -26 -36 -58z"/>
<path d="M1051 802 c-21 -70 -23 -73 -76 -103 -30 -17 -55 -36 -55 -42 0 -7 -5 -61 -10 -122 -6 -60 -8 -121 -5 -134 6 -24 7 -23 29 14 l24 39 3 -77 c5 -82 11 -97 37 -81 23 15 51 111 64 226 l11 96 43 -46 c34 -38 45 -45 55 -34 29 28 -25 251 -75 309 l-23 27 -22 -72z"/>
<path d="M746 643 c-28 -240 -74 -462 -114 -540 -16 -30 -18 -43 -9 -52 6 -6 15 -11 19 -11 22 0 77 195 133 469 37 181 36 190 -6 191 -13 0 -18 -14 -23 -57z"/>
<path d="M1301 691 c-12 -8 -9 -35 18 -173 61 -305 115 -485 143 -475 18 6 14 31 -16 110 -33 86 -72 277 -88 429 -13 122 -19 133 -57 109z"/>
</g>
<g id="layer105" fill="#433d4b" stroke="none">
<path d="M590 3824 c-136 -10 -362 -36 -430 -50 -110 -23 -160 -47 -160 -78 0 -21 9 -28 54 -45 73 -27 222 -52 394 -66 29 -2 67 -13 86 -24 23 -15 50 -21 90 -21 52 0 73 11 44 23 -32 13 34 4 97 -13 39 -10 60 -19 48 -19 -26 -1 -24 5 -53 -231 -11 -91 -28 -203 -37 -250 -18 -96 -21 -299 -4 -370 28 -125 54 -393 55 -570 1 -175 0 -187 -22 -229 l-24 -43 34 34 c40 40 150 99 230 124 56 17 58 17 125 -5 81 -27 188 -84 220 -119 l23 -25 -22 49 c-19 44 -22 64 -20 194 1 162 22 368 58 580 18 109 18 264 -1 362 -13 68 -65 457 -65 486 0 6 -10 13 -22 15 -21 4 -20 4 3 6 15 0 46 8 69 16 38 13 104 21 72 8 -26 -10 1 -23 51 -23 35 0 63 7 86 21 22 13 58 23 95 25 162 12 370 52 414 80 36 24 28 52 -22 75 -47 20 -213 51 -381 70 -95 11 -968 21 -1085 13z m258 -164 c59 -28 62 -31 62 -65 l0 -35 140 0 140 0 0 36 c0 34 3 36 65 65 35 16 74 29 85 29 32 0 23 -27 -11 -34 -43 -8 -105 -73 -117 -121 -13 -50 -32 -248 -32 -335 0 -38 11 -102 25 -155 43 -155 29 -168 -20 -19 -27 80 -66 144 -105 171 -52 36 -118 -38 -171 -192 -41 -121 -50 -102 -15 34 17 66 26 126 26 179 0 116 -18 281 -36 329 -18 49 -73 101 -115 110 -34 7 -39 33 -6 33 12 0 50 -13 85 -30z m-210 -12 c3 -14 -2 -15 -37 -6 -53 14 -56 37 -4 29 24 -4 39 -12 41 -23z m67 22 c3 -5 -1 -10 -10 -10 -9 0 -13 5 -10 10 3 6 8 10 10 10 2 0 7 -4 10 -10z m715 -10 c0 -5 -7 -7 -15 -4 -8 4 -12 10 -9 15 6 11 24 2 24 -11z m117 -6 c-2 -3 -21 -8 -42 -11 -30 -5 -37 -3 -33 8 5 15 71 29 77 16 1 -5 1 -10 -2 -13z m-1007 6 c0 -5 -4 -10 -10 -10 -5 0 -10 5 -10 10 0 6 5 10 10 10 6 0 10 -4 10 -10z m1060 0 c0 -5 -4 -10 -10 -10 -5 0 -10 5 -10 10 0 6 5 10 10 10 6 0 10 -4 10 -10z"/>
<path d="M629 3488 c-82 -90 -124 -238 -117 -416 7 -197 51 -237 141 -132 26 31 36 53 41 93 3 29 9 68 12 86 7 31 6 33 -16 26 -15 -5 -25 -2 -31 6 -22 35 1 292 30 348 19 35 -25 27 -60 -11z"/>
<path d="M1421 3453 c16 -66 24 -167 21 -267 -2 -46 -3 -48 -28 -43 l-26 5 7 -62 c8 -74 31 -130 72 -173 38 -40 58 -42 77 -5 37 73 49 288 21 395 -28 108 -98 217 -139 217 l-22 0 17 -67z"/>
<path d="M660 2905 c-8 -9 -27 -23 -43 -32 l-30 -15 5 -122 c3 -67 10 -131 16 -142 10 -16 11 -13 12 23 0 51 25 181 46 246 17 52 15 67 -6 42z"/>
<path d="M874 1841 c-82 -22 -156 -58 -205 -98 -23 -19 -30 -22 -20 -8 7 11 -3 2 -23 -20 -95 -103 -154 -244 -181 -426 -14 -92 -15 -124 -5 -178 16 -90 71 -191 145 -265 73 -73 134 -107 238 -136 76 -21 77 -21 119 -2 58 26 72 45 93 127 10 39 20 72 22 74 2 3 17 -9 34 -25 32 -30 89 -136 89 -166 0 -29 15 -29 106 -2 104 30 163 65 231 137 132 139 163 255 128 472 -26 162 -88 299 -174 384 -25 25 -37 39 -26 31 11 -8 7 0 -9 18 -17 18 -32 32 -34 32 -3 0 3 -9 13 -20 25 -27 12 -25 -34 6 -21 14 -72 37 -112 51 -103 35 -291 42 -395 14z m132 -257 c-3 -9 -6 -20 -6 -25 0 -6 -4 -7 -10 -4 -16 10 -12 45 6 45 11 0 14 -5 10 -16z m99 6 c3 -6 3 -20 -1 -33 -7 -21 -7 -21 -15 -2 -4 11 -8 26 -8 33 -1 14 15 16 24 2z m-270 -160 c53 -26 85 -80 85 -146 0 -27 -6 -61 -13 -75 -12 -22 -11 -29 9 -59 13 -18 28 -58 34 -87 10 -48 9 -58 -10 -98 -22 -46 -62 -85 -86 -85 -7 0 -14 14 -16 34 l-3 34 -60 -25 c-117 -50 -217 -29 -251 53 -32 77 -6 116 79 119 29 1 70 8 90 14 l37 13 -32 21 c-49 32 -82 106 -74 161 9 56 41 104 86 127 44 24 74 24 125 -1z m550 0 c105 -51 116 -218 18 -285 l-35 -23 38 -12 c21 -7 62 -14 91 -15 64 -2 87 -20 87 -70 0 -38 -24 -77 -68 -109 -38 -28 -113 -26 -193 6 l-61 25 -6 -40 c-6 -38 -7 -39 -29 -25 -12 9 -37 35 -56 59 -31 40 -33 48 -28 97 3 29 17 73 31 99 26 45 26 46 9 92 -28 79 4 164 77 202 44 24 74 24 125 -1z"/>
<path d="M1290 1413 c-8 -3 -27 -17 -42 -31 -94 -87 -25 -251 95 -228 81 15 124 129 77 204 -28 45 -88 70 -130 55z m50 -38 c0 -8 -9 -15 -19 -15 -22 0 -51 -35 -51 -62 0 -10 -7 -18 -15 -18 -8 0 -15 5 -15 10 0 23 29 79 47 89 26 15 53 13 53 -4z m-1 -59 c18 -21 10 -70 -11 -74 -25 -5 -44 39 -29 67 14 25 24 26 40 7z m61 -35 c0 -67 -28 -103 -78 -99 -19 2 -37 9 -40 17 -3 10 3 12 25 7 42 -10 68 22 67 80 -1 31 3 44 13 44 9 0 13 -15 13 -49z"/>
<path d="M1360 1836 c0 -2 8 -10 18 -17 15 -13 16 -12 3 4 -13 16 -21 21 -21 13z"/>
<path d="M699 1803 l-24 -28 28 24 c25 23 32 31 24 31 -2 0 -14 -12 -28 -27z"/>
<path d="M742 588 c-17 -148 -55 -336 -88 -429 -30 -85 -34 -110 -17 -116 13 -5 44 73 74 189 22 87 99 451 96 454 -1 2 -13 5 -27 9 l-26 6 -12 -113z"/>
<path d="M1302 691 c-11 -7 -9 -33 13 -142 51 -256 114 -491 133 -503 5 -3 13 -1 20 3 8 5 4 27 -17 81 -33 86 -74 271 -90 410 -20 170 -22 175 -59 151z"/>
</g>
<g id="layer106" fill="#4b563d" stroke="none">
<path d="M740 1413 c-8 -3 -27 -17 -42 -31 -94 -87 -25 -251 95 -228 81 15 124 129 77 204 -28 45 -88 70 -130 55z m50 -38 c0 -8 -9 -15 -19 -15 -22 0 -51 -35 -51 -62 0 -10 -7 -18 -15 -18 -8 0 -15 5 -15 10 0 23 29 79 47 89 26 15 53 13 53 -4z m-1 -59 c18 -21 10 -70 -11 -74 -25 -5 -44 39 -29 67 14 25 24 26 40 7z m61 -35 c0 -67 -28 -103 -78 -99 -19 2 -37 9 -40 17 -3 10 3 12 25 7 42 -10 68 22 66 80 -1 32 2 44 13 44 10 0 14 -13 14 -49z"/>
<path d="M1290 1413 c-8 -3 -27 -17 -42 -31 -94 -87 -25 -251 95 -228 81 15 124 129 77 204 -28 45 -88 70 -130 55z m50 -38 c0 -8 -8 -15 -19 -15 -23 0 -37 -16 -46 -53 -7 -25 -35 -39 -35 -17 0 23 29 79 47 89 26 15 53 13 53 -4z m-1 -59 c18 -21 10 -70 -11 -74 -25 -5 -44 39 -29 67 14 25 24 26 40 7z m61 -35 c0 -67 -28 -103 -78 -99 -19 2 -37 9 -40 17 -3 10 3 12 25 7 42 -10 68 22 66 80 -1 32 2 44 13 44 10 0 14 -13 14 -49z"/>
<path d="M1051 802 c-21 -70 -23 -73 -76 -103 -30 -17 -55 -36 -55 -42 0 -7 -5 -61 -10 -122 -6 -60 -8 -121 -5 -135 7 -24 7 -24 28 15 l22 40 5 -77 c6 -84 9 -91 33 -82 29 11 60 118 73 251 l7 72 42 -47 c35 -38 46 -45 56 -34 29 28 -25 251 -75 309 l-23 27 -22 -72z"/>
</g>
<g id="layer107" fill="#393f67" stroke="none">
<path d="M590 3824 c-136 -10 -362 -36 -430 -50 -110 -23 -160 -47 -160 -78 0 -21 9 -28 54 -45 73 -27 223 -52 392 -65 28 -3 68 -14 90 -25 41 -22 128 -29 139 -11 3 6 1 10 -6 10 -7 0 -9 3 -6 6 8 9 167 -28 167 -38 0 -5 -9 -8 -20 -8 -22 0 -20 9 -50 -235 -12 -93 -28 -204 -36 -245 -16 -87 -18 -274 -4 -350 43 -227 70 -685 46 -779 l-8 -34 33 26 c47 34 144 82 208 101 50 15 56 14 114 -5 74 -25 150 -63 196 -98 31 -23 34 -24 27 -6 -17 43 -26 145 -20 240 7 130 43 469 55 520 21 92 22 265 1 385 -11 63 -31 197 -43 297 -20 164 -24 183 -43 189 -15 5 -1 11 49 25 88 23 106 23 99 4 -10 -24 83 -20 131 6 22 11 67 22 100 25 167 13 369 52 413 80 36 24 28 52 -22 75 -47 20 -213 51 -381 70 -95 11 -968 21 -1085 13z m260 -163 c49 -23 56 -30 60 -61 l5 -35 135 0 135 0 3 33 c2 20 12 38 26 47 34 23 139 56 147 48 12 -12 -2 -26 -56 -54 -67 -35 -90 -82 -104 -217 -16 -146 -14 -304 4 -365 21 -73 34 -147 25 -147 -3 0 -19 37 -34 83 -30 86 -86 181 -118 198 -54 29 -113 -40 -170 -195 -39 -107 -49 -89 -19 32 34 130 25 421 -15 530 -17 45 -61 86 -106 97 -19 5 -28 14 -28 26 0 24 29 19 110 -20z m-140 15 c0 -16 -18 -31 -27 -22 -8 8 5 36 17 36 5 0 10 -6 10 -14z m710 -12 c0 -16 -16 -19 -25 -4 -8 13 4 32 16 25 5 -4 9 -13 9 -21z m-890 -4 c0 -11 -4 -20 -10 -20 -5 0 -10 9 -10 20 0 11 5 20 10 20 6 0 10 -9 10 -20z m79 14 c21 -5 31 -12 31 -25 0 -11 -6 -19 -14 -19 -29 0 -66 20 -66 35 0 17 4 18 49 9z m934 -10 c-6 -16 -43 -34 -69 -34 -24 0 -16 38 9 43 50 10 67 7 60 -9z m47 -4 c0 -11 -4 -20 -10 -20 -5 0 -10 9 -10 20 0 11 5 20 10 20 6 0 10 -9 10 -20z"/>
<path d="M740 1413 c-8 -3 -27 -17 -42 -31 -94 -87 -25 -251 95 -228 81 15 124 129 77 204 -28 45 -88 70 -130 55z m50 -37 c0 -8 -11 -17 -24 -20 -16 -4 -29 -18 -37 -41 -12 -32 -39 -49 -39 -25 0 23 29 79 47 89 26 15 53 13 53 -3z m-1 -60 c18 -22 10 -70 -13 -74 -32 -7 -50 50 -24 76 16 16 23 15 37 -2z m61 -35 c0 -67 -28 -103 -79 -99 -24 2 -36 8 -36 18 0 11 9 14 32 12 39 -4 57 23 51 79 -3 32 0 39 14 39 15 0 18 -9 18 -49z"/>
<path d="M1290 1413 c-8 -3 -27 -17 -42 -31 -94 -87 -25 -251 95 -228 81 15 124 129 77 204 -28 45 -88 70 -130 55z m50 -37 c0 -8 -11 -17 -24 -20 -16 -4 -29 -18 -37 -41 -12 -32 -39 -49 -39 -25 0 23 29 79 47 89 26 15 53 13 53 -3z m-1 -60 c18 -22 10 -70 -13 -74 -32 -7 -50 50 -24 76 16 16 23 15 37 -2z m61 -35 c0 -67 -28 -103 -79 -99 -24 2 -36 8 -36 18 0 11 9 14 32 12 39 -4 57 23 51 79 -3 32 0 39 14 39 15 0 18 -9 18 -49z"/>
<path d="M420 996 c-38 -102 -45 -262 -16 -410 29 -152 127 -414 179 -481 15 -19 16 -18 36 25 38 87 83 308 106 525 l6 60 -46 24 c-65 34 -175 148 -214 220 -18 34 -34 61 -37 61 -2 0 -9 -11 -14 -24z"/>
<path d="M1631 969 c-31 -65 -133 -174 -204 -219 -67 -42 -67 -39 -37 -245 32 -214 85 -415 111 -415 15 0 105 199 143 317 51 161 69 275 63 408 -4 101 -28 205 -46 205 -3 0 -17 -23 -30 -51z"/>
</g>
<g id="layer108" fill="#4c4652" stroke="none">
<path d="M590 3824 c-136 -10 -362 -36 -430 -50 -110 -23 -160 -47 -160 -78 0 -21 9 -28 54 -45 77 -28 276 -61 386 -63 38 -1 64 -7 84 -21 30 -21 113 -34 143 -23 15 6 15 9 3 16 -30 19 -2 18 59 0 34 -11 71 -20 82 -20 10 0 19 -4 19 -10 0 -5 -9 -10 -20 -10 -22 0 -20 9 -50 -235 -12 -93 -28 -204 -36 -245 -16 -87 -18 -274 -4 -350 43 -227 70 -685 46 -779 l-8 -34 33 26 c47 34 144 82 208 101 50 15 56 14 114 -5 74 -25 150 -63 196 -98 31 -23 34 -24 27 -6 -17 43 -26 145 -20 240 7 130 43 469 55 520 21 92 22 265 1 385 -11 63 -31 197 -43 297 -20 164 -24 183 -43 189 -14 5 -1 12 50 25 38 10 80 21 94 25 21 6 23 4 13 -7 -24 -25 -13 -31 47 -27 39 3 70 11 88 24 19 15 44 21 88 22 129 3 365 48 412 78 36 24 28 52 -22 75 -47 20 -213 51 -381 70 -95 11 -968 21 -1085 13z m260 -163 c48 -23 55 -30 58 -58 2 -25 8 -33 23 -33 10 -1 64 -1 119 -1 55 0 109 0 120 1 15 0 20 7 20 30 0 35 21 51 105 80 56 19 83 17 67 -5 -4 -6 -30 -22 -57 -36 -67 -35 -90 -82 -104 -217 -16 -146 -14 -304 4 -365 21 -73 34 -147 25 -147 -3 0 -19 37 -34 83 -30 86 -86 181 -118 198 -54 29 -113 -40 -170 -195 -39 -107 -49 -89 -19 32 34 130 25 421 -15 530 -17 45 -61 86 -106 97 -19 5 -28 14 -28 26 0 24 29 19 110 -20z m-140 15 c0 -16 -18 -31 -27 -22 -8 8 5 36 17 36 5 0 10 -6 10 -14z m710 -12 c0 -16 -16 -19 -25 -4 -8 13 4 32 16 25 5 -4 9 -13 9 -21z m-890 -4 c0 -11 -4 -20 -10 -20 -5 0 -10 9 -10 20 0 11 5 20 10 20 6 0 10 -9 10 -20z m79 14 c21 -5 31 -12 31 -25 0 -11 -6 -19 -14 -19 -29 0 -66 20 -66 35 0 17 4 18 49 9z m934 -10 c-6 -16 -43 -34 -69 -34 -24 0 -16 38 9 43 50 10 67 7 60 -9z m47 -4 c0 -11 -4 -20 -10 -20 -5 0 -10 9 -10 20 0 11 5 20 10 20 6 0 10 -9 10 -20z"/>
<path d="M661 3513 c-43 -17 -111 -140 -136 -244 -19 -84 -20 -250 0 -317 20 -66 44 -81 84 -53 51 37 77 82 85 146 4 32 9 70 13 83 5 22 4 23 -15 11 -39 -24 -47 -1 -45 124 2 99 15 186 38 240 7 17 1 20 -24 10z"/>
<path d="M1414 3504 c35 -87 50 -340 22 -363 -7 -6 -21 -9 -30 -5 -19 7 -19 1 -3 -87 19 -94 89 -187 126 -165 38 24 65 270 42 388 -22 110 -89 228 -140 243 -21 6 -23 5 -17 -11z"/>
<path d="M627 2881 l-38 -26 4 -115 c4 -143 21 -187 30 -79 3 41 16 111 27 157 12 46 20 85 18 86 -1 2 -20 -9 -41 -23z"/>
<path d="M952 1849 c-74 -9 -116 -22 -192 -57 -173 -80 -267 -226 -311 -482 -17 -101 -19 -132 -10 -188 17 -106 67 -196 159 -284 82 -78 124 -101 250 -133 52 -14 56 -13 104 11 53 27 66 47 88 142 6 28 15 52 19 52 33 0 87 -78 116 -167 19 -61 12 -60 144 -16 129 42 236 140 300 273 35 73 36 78 35 190 -2 286 -119 513 -310 600 -118 53 -266 76 -392 59z m52 -273 c-3 -14 -10 -23 -15 -20 -13 8 -11 42 4 47 17 6 19 3 11 -27z m106 5 c0 -9 -4 -22 -9 -29 -7 -11 -10 -10 -15 3 -11 31 -7 55 9 49 8 -4 15 -14 15 -23z m-270 -150 c72 -38 103 -122 76 -203 -16 -44 -15 -47 9 -91 37 -66 43 -136 16 -181 -23 -36 -76 -86 -92 -86 -5 0 -9 16 -9 35 0 19 -2 35 -5 35 -2 0 -39 -12 -82 -26 -114 -38 -179 -24 -223 49 -26 42 -26 91 0 117 15 15 33 20 74 20 29 0 68 5 86 11 l32 12 -30 19 c-17 11 -41 39 -53 64 -68 142 69 296 201 225z m568 -8 c91 -68 88 -216 -5 -279 l-32 -21 38 -12 c21 -6 59 -11 85 -11 36 0 52 -5 71 -25 31 -30 31 -59 2 -109 -46 -80 -136 -95 -252 -42 l-55 25 0 -33 c0 -43 -7 -49 -39 -30 -45 27 -81 87 -81 136 1 49 21 111 44 137 15 16 15 21 0 57 -20 48 -14 126 13 162 38 51 83 74 136 69 27 -2 61 -13 75 -24z"/>
<path d="M755 688 c-2 -7 -6 -47 -10 -88 -11 -122 -54 -339 -86 -430 -17 -47 -31 -92 -32 -100 -4 -30 18 -22 35 12 20 41 87 313 120 481 19 103 20 119 8 127 -20 13 -30 12 -35 -2z"/>
<path d="M1308 693 c-10 -2 -18 -6 -18 -8 0 -2 16 -82 35 -177 67 -325 114 -479 141 -457 11 9 11 15 0 38 -41 81 -86 273 -111 474 -8 67 -15 125 -15 129 0 8 -4 9 -32 1z"/>
</g>
<g id="layer109" fill="#443f65" stroke="none">
<path d="M590 3824 c-136 -10 -362 -36 -430 -50 -110 -23 -160 -47 -160 -78 0 -21 9 -28 54 -45 77 -28 277 -61 386 -63 38 -1 67 -8 96 -24 29 -17 55 -24 90 -23 27 1 38 3 24 6 -80 12 -107 25 -124 59 -18 39 -21 74 -6 74 6 0 10 -9 10 -20 0 -25 43 -70 66 -70 15 0 13 5 -9 28 -46 48 -32 73 30 56 17 -5 23 -15 25 -47 l3 -41 75 -22 c84 -25 136 -31 80 -9 l-35 13 53 1 53 1 -18 25 c-10 14 -39 35 -65 48 -31 14 -48 28 -48 40 0 21 28 16 113 -21 50 -22 57 -28 57 -53 0 -15 5 -31 10 -34 8 -5 131 -8 247 -5 17 0 22 7 25 33 3 28 10 35 58 59 74 36 120 45 120 23 0 -9 -18 -23 -42 -34 -24 -10 -56 -33 -72 -50 l-30 -31 55 -1 54 -1 -35 -14 -35 -14 40 6 c22 3 65 13 95 23 54 18 55 19 58 58 3 43 16 53 69 53 27 0 22 -22 -15 -62 -32 -35 -25 -43 16 -18 21 13 35 31 39 50 3 17 9 30 14 30 19 0 19 -24 -1 -64 -21 -44 -32 -50 -125 -70 -11 -2 0 -4 25 -5 30 0 58 7 85 22 29 17 58 24 102 25 129 4 364 48 411 78 36 24 28 52 -22 75 -47 20 -213 51 -381 70 -95 11 -968 21 -1085 13z m120 -154 c0 -11 -7 -20 -15 -20 -15 0 -21 21 -8 33 12 13 23 7 23 -13z m710 -6 c0 -8 -7 -14 -15 -14 -15 0 -21 21 -9 33 10 9 24 -2 24 -19z"/>
<path d="M1002 1578 c-10 -31 -11 -32 -17 -10 -4 12 -11 22 -15 22 -9 0 -56 -54 -62 -70 -2 -8 -30 -7 -93 3 -50 8 -92 13 -94 11 -8 -8 7 -15 65 -30 32 -8 101 -40 152 -71 110 -66 114 -66 241 6 47 28 114 58 148 67 80 22 73 36 -9 19 -129 -26 -138 -27 -138 -12 0 8 -14 30 -32 48 l-31 34 -10 -29 c-7 -21 -12 -25 -18 -15 -5 8 -9 24 -9 37 0 18 -5 22 -34 22 -29 0 -35 -4 -44 -32z"/>
<path d="M731 1402 c-50 -25 -74 -63 -74 -117 0 -56 17 -90 61 -117 78 -48 172 17 172 119 0 50 -32 101 -75 119 -43 18 -43 18 -84 -4z m59 -26 c0 -8 -11 -17 -24 -20 -16 -4 -29 -18 -37 -41 -13 -35 -39 -48 -39 -20 0 24 28 73 47 84 26 15 53 13 53 -3z m-1 -60 c18 -22 10 -70 -13 -74 -32 -7 -50 50 -24 76 16 16 23 15 37 -2z m63 -8 c5 -35 -8 -87 -28 -109 -22 -24 -89 -23 -89 1 0 11 9 14 32 12 39 -4 57 23 51 79 -3 32 0 39 14 39 10 0 18 -9 20 -22z"/>
<path d="M1284 1406 c-52 -23 -74 -61 -74 -125 0 -50 4 -61 31 -89 37 -37 60 -46 103 -38 54 10 96 68 96 133 0 50 -32 101 -75 119 -41 17 -42 17 -81 0z m60 -30 c-3 -8 -16 -17 -29 -20 -15 -4 -28 -18 -36 -41 -13 -35 -39 -48 -39 -20 0 24 28 73 47 84 27 16 63 14 57 -3z m-5 -60 c18 -22 10 -70 -13 -74 -32 -7 -50 50 -24 76 16 16 23 15 37 -2z m64 -12 c6 -35 -9 -87 -32 -108 -24 -22 -86 -18 -86 4 0 11 9 14 32 12 39 -4 57 23 51 79 -3 31 0 39 13 39 10 0 19 -10 22 -26z"/>
<path d="M426 1011 c-20 -31 -36 -139 -36 -234 0 -129 24 -260 76 -408 37 -106 109 -265 125 -275 24 -15 80 186 109 391 35 247 35 229 -2 247 -86 40 -207 168 -244 256 -15 34 -19 37 -28 23z"/>
<path d="M1631 967 c-28 -61 -178 -215 -230 -237 l-33 -13 6 -71 c9 -96 43 -307 62 -381 19 -77 54 -175 63 -175 12 0 78 134 115 233 66 176 89 294 90 447 1 103 -3 149 -17 193 -10 31 -21 57 -25 57 -4 -1 -18 -24 -31 -53z"/>
</g>
<g id="layer110" fill="#525271" stroke="none">
<path d="M590 3824 c-136 -10 -362 -36 -430 -50 -110 -23 -160 -47 -160 -78 0 -21 9 -28 54 -45 77 -28 277 -61 386 -63 38 -1 67 -8 96 -24 29 -17 55 -24 90 -23 27 1 38 3 24 6 -89 13 -110 25 -130 71 -13 28 -17 49 -11 55 13 13 34 -2 27 -20 -7 -17 36 -63 60 -63 12 0 9 8 -15 35 -38 44 -39 55 -3 55 58 0 69 -8 68 -52 l-1 -40 79 -24 c85 -26 134 -31 76 -9 l-35 13 53 1 53 1 -18 25 c-10 14 -39 35 -65 47 -26 13 -50 29 -53 36 -9 25 23 23 96 -5 69 -27 74 -31 82 -66 6 -24 15 -37 25 -37 98 -3 234 0 242 5 5 3 10 19 10 34 0 25 7 32 59 55 81 36 121 43 121 22 0 -10 -17 -24 -42 -35 -24 -10 -56 -33 -72 -50 l-30 -31 55 -1 54 -1 -35 -14 -35 -14 40 6 c22 3 65 14 95 24 53 18 55 20 58 57 4 43 14 53 60 53 40 0 40 -10 1 -55 -38 -43 -35 -51 9 -25 21 13 35 31 39 50 3 17 12 30 19 30 19 0 17 -24 -5 -69 -20 -38 -35 -46 -126 -65 -11 -2 0 -4 25 -5 30 0 58 7 85 22 29 17 58 24 102 25 129 4 364 48 411 78 36 24 28 52 -22 75 -47 20 -213 51 -381 70 -95 11 -968 21 -1085 13z m120 -154 c0 -11 -7 -20 -15 -20 -15 0 -21 21 -8 33 12 13 23 7 23 -13z m708 -3 c2 -10 -3 -17 -12 -17 -10 0 -16 9 -16 21 0 24 23 21 28 -4z"/>
<path d="M624 3478 c-76 -91 -118 -245 -111 -408 7 -187 44 -223 132 -129 54 58 54 77 -1 30 -50 -45 -76 -39 -87 19 -16 89 29 350 82 473 11 26 19 47 17 47 -3 0 -17 -15 -32 -32z"/>
<path d="M1450 3508 c0 -4 13 -47 30 -96 39 -116 59 -216 66 -321 9 -149 -17 -181 -94 -116 -49 42 -54 34 -13 -21 38 -53 67 -77 84 -71 25 9 49 108 54 222 6 124 -10 211 -53 298 -24 49 -74 120 -74 105z"/>
<path d="M599 2848 c-8 -15 -10 -55 -6 -126 9 -158 25 -151 29 12 2 75 0 136 -4 136 -4 0 -13 -10 -19 -22z"/>
<path d="M1342 2500 c0 -14 2 -19 5 -12 2 6 2 18 0 25 -3 6 -5 1 -5 -13z"/>
<path d="M750 2494 c0 -5 7 -67 15 -139 17 -147 20 -384 6 -433 -5 -17 -6 -32 -2 -32 17 0 29 26 36 75 13 106 15 114 36 120 28 9 22 49 -8 53 -15 2 -23 10 -23 23 0 15 7 19 35 19 28 0 35 -4 35 -20 0 -11 7 -20 15 -20 18 0 19 -14 3 -39 -15 -24 -4 -51 22 -51 26 0 37 27 22 51 -7 10 -12 28 -12 39 0 11 -7 20 -15 20 -8 0 -15 5 -15 10 0 6 14 10 30 10 20 0 30 -5 30 -15 0 -10 11 -15 35 -15 33 0 35 2 35 35 0 32 -2 35 -29 35 -17 0 -33 -4 -36 -10 -3 -5 -19 -10 -36 -10 -32 0 -38 17 -17 50 10 16 10 23 -4 36 -14 14 -20 15 -32 4 -18 -14 -22 -50 -6 -50 6 0 10 -9 10 -20 0 -16 -7 -20 -35 -20 -32 0 -35 3 -40 38 -22 137 -56 294 -55 256z m147 -231 c-4 -3 -10 -3 -14 0 -3 4 0 7 7 7 7 0 10 -3 7 -7z m113 -78 c0 -8 -7 -15 -15 -15 -8 0 -15 7 -15 15 0 8 7 15 15 15 8 0 15 -7 15 -15z"/>
<path d="M1317 2388 c-9 -46 -19 -107 -23 -135 l-7 -53 -38 0 c-32 0 -39 4 -39 19 0 11 5 23 10 26 16 10 12 42 -7 49 -9 4 -23 0 -32 -9 -13 -12 -13 -19 -3 -35 21 -34 15 -50 -18 -50 -16 0 -30 5 -30 10 0 6 -16 10 -35 10 -33 0 -35 -2 -35 -35 0 -33 2 -35 35 -35 24 0 35 5 35 15 0 10 10 15 30 15 17 0 30 -4 30 -10 0 -5 -7 -10 -15 -10 -10 0 -15 -10 -15 -28 0 -15 -5 -33 -11 -39 -18 -18 -3 -43 25 -43 29 0 39 22 21 47 -19 24 -19 43 0 43 8 0 15 9 15 20 0 16 7 20 35 20 28 0 35 -4 35 -19 0 -13 -8 -21 -22 -23 -15 -2 -23 -10 -23 -23 0 -11 10 -24 23 -30 16 -7 22 -18 22 -42 0 -51 20 -131 36 -144 13 -10 14 -6 7 32 -11 63 -8 296 7 422 7 60 10 110 7 113 -2 2 -11 -33 -20 -78z m-207 -203 c0 -8 -7 -15 -15 -15 -8 0 -15 7 -15 15 0 8 7 15 15 15 8 0 15 -7 15 -15z"/>
<path d="M1411 1734 c78 -87 141 -199 185 -331 22 -65 26 -95 26 -183 -1 -232 -83 -365 -287 -467 -49 -25 -77 -42 -62 -39 199 45 368 234 384 432 6 65 -17 225 -44 309 -30 95 -93 203 -146 251 -69 62 -102 78 -56 28z"/>
<path d="M670 1739 c-124 -100 -193 -237 -220 -437 -27 -194 5 -312 117 -433 74 -79 124 -113 216 -144 106 -35 117 -31 21 8 -216 88 -316 224 -331 452 -5 73 -2 106 16 175 25 102 94 247 152 321 23 30 46 60 52 67 14 17 6 14 -23 -9z"/>
<path d="M1002 1573 c-9 -34 -11 -36 -17 -15 -4 12 -13 22 -20 22 -13 0 -50 -40 -57 -61 -2 -7 -35 -5 -93 4 -50 8 -92 13 -94 11 -8 -8 7 -15 65 -30 32 -8 101 -40 152 -71 110 -66 114 -66 241 6 47 28 114 58 148 67 80 22 73 36 -9 19 -122 -25 -138 -26 -138 -14 0 18 -40 69 -55 69 -7 0 -15 -10 -19 -22 -5 -19 -8 -21 -16 -8 -5 8 -10 25 -10 38 0 18 -5 22 -34 22 -31 0 -35 -3 -44 -37z"/>
<path d="M590 1475 c0 -40 110 -42 118 -2 3 15 -5 17 -57 17 -48 0 -61 -3 -61 -15z"/>
<path d="M1386 1481 c-4 -6 5 -18 19 -27 21 -14 34 -15 63 -8 60 15 48 38 -20 42 -31 2 -59 -2 -62 -7z"/>
<path d="M730 1402 c-46 -23 -71 -60 -72 -108 -3 -56 18 -100 59 -125 76 -47 173 15 173 111 0 97 -84 161 -160 122z m60 -26 c0 -8 -11 -17 -24 -20 -16 -4 -29 -18 -37 -41 -7 -19 -19 -35 -27 -35 -21 0 -7 58 20 87 24 25 68 31 68 9z m59 -124 c-4 -19 -15 -42 -25 -53 -18 -20 -68 -25 -93 -10 -19 12 6 26 41 22 34 -3 51 27 46 80 -3 28 0 39 12 41 19 4 28 -35 19 -80z m-60 64 c18 -22 10 -70 -13 -74 -32 -7 -50 50 -24 76 16 16 23 15 37 -2z"/>
<path d="M1284 1406 c-49 -22 -74 -61 -74 -118 0 -59 22 -100 65 -124 76 -41 165 25 165 123 0 88 -82 150 -156 119z m60 -30 c-3 -8 -16 -17 -29 -20 -15 -4 -28 -18 -36 -41 -13 -35 -39 -48 -39 -20 0 24 28 73 47 84 27 16 63 14 57 -3z m56 -127 c-13 -49 -40 -71 -82 -67 -21 2 -33 8 -33 18 0 11 9 14 32 12 39 -4 57 23 51 79 -3 28 0 39 12 41 21 5 32 -39 20 -83z m-61 67 c18 -22 10 -70 -13 -74 -32 -7 -50 50 -24 76 16 16 23 15 37 -2z"/>
<path d="M426 1011 c-20 -31 -36 -139 -36 -234 0 -129 24 -260 76 -408 41 -120 121 -282 134 -274 11 7 45 110 70 215 18 77 64 400 58 405 -2 1 -21 11 -43 21 -57 27 -185 159 -219 227 -30 60 -32 62 -40 48z"/>
<path d="M1631 967 c-28 -61 -178 -215 -230 -237 l-33 -13 6 -71 c21 -224 96 -556 126 -556 13 0 100 190 135 292 53 160 70 256 70 398 0 91 -5 141 -18 183 -10 31 -21 57 -25 57 -4 -1 -18 -24 -31 -53z"/>
<path d="M1223 703 c4 -3 10 -3 14 0 3 4 0 7 -7 7 -7 0 -10 -3 -7 -7z"/>
</g>
<g id="layer111" fill="#665c70" stroke="none">
<path d="M686 3638 c4 -7 16 -23 27 -35 24 -27 12 -30 -22 -6 -18 12 -23 13 -19 2 6 -17 45 -37 89 -45 26 -4 30 -3 19 5 -11 8 -2 11 40 11 l55 1 -42 39 c-23 22 -52 40 -64 40 -21 0 -21 -1 -4 -26 16 -24 16 -25 -3 -15 -10 5 -24 17 -32 25 -15 19 -55 22 -44 4z"/>
<path d="M1275 3619 c-19 -17 -35 -35 -35 -40 0 -5 24 -9 53 -10 l52 -1 -35 -13 c-19 -7 -30 -14 -24 -14 17 -1 118 30 132 41 21 18 13 30 -10 14 -36 -26 -42 -18 -12 17 23 28 25 32 10 35 -10 2 -28 -5 -39 -16 -34 -29 -56 -40 -34 -15 22 25 22 33 -3 33 -10 0 -35 -14 -55 -31z"/>
<path d="M480 3624 c0 -16 52 -61 83 -73 16 -6 45 -10 65 -10 36 1 36 2 -9 9 -57 10 -103 33 -123 62 -9 12 -16 18 -16 12z"/>
<path d="M1597 3603 c-21 -27 -52 -41 -117 -53 l-45 -8 39 -1 c46 -1 122 32 137 61 16 29 7 30 -14 1z"/>
<path d="M803 3543 c4 -3 10 -3 14 0 3 4 0 7 -7 7 -7 0 -10 -3 -7 -7z"/>
<path d="M616 3467 c-72 -94 -110 -240 -103 -392 5 -119 27 -185 61 -185 21 0 115 84 105 94 -2 3 -24 -9 -49 -25 -40 -27 -45 -28 -59 -14 -13 12 -16 38 -15 118 1 114 21 225 64 352 16 47 27 85 25 85 -2 0 -15 -15 -29 -33z"/>
<path d="M1486 3402 c38 -116 64 -260 64 -353 0 -67 -12 -119 -27 -119 -8 0 -44 23 -93 57 l-25 18 24 -35 c35 -50 73 -90 87 -90 15 0 39 60 55 139 14 75 7 235 -15 304 -18 57 -62 140 -85 161 -12 11 -8 -10 15 -82z"/>
<path d="M600 2846 c-11 -31 -12 -119 -1 -186 6 -37 8 -22 14 79 4 68 5 126 2 129 -2 3 -9 -7 -15 -22z"/>
<path d="M752 2470 c0 -14 2 -19 5 -12 2 6 2 18 0 25 -3 6 -5 1 -5 -13z"/>
<path d="M1316 2373 c-8 -48 -18 -107 -22 -130 -6 -42 -7 -43 -45 -43 -32 0 -39 4 -39 19 0 11 5 23 10 26 15 9 12 42 -4 48 -8 3 -22 -1 -33 -8 -15 -12 -16 -17 -5 -34 21 -35 15 -51 -18 -51 -16 0 -30 5 -30 10 0 6 -16 10 -35 10 -33 0 -35 -2 -35 -35 0 -33 2 -35 35 -35 24 0 35 5 35 15 0 10 10 15 30 15 17 0 30 -4 30 -10 0 -5 -7 -10 -15 -10 -10 0 -15 -10 -15 -28 0 -15 -5 -33 -11 -39 -17 -17 -3 -43 21 -43 26 0 37 27 22 51 -16 25 -15 39 3 39 8 0 15 9 15 20 0 17 7 20 41 20 33 0 40 -3 37 -17 -2 -9 -14 -20 -28 -23 -31 -7 -34 -41 -4 -54 18 -8 23 -24 33 -90 6 -47 18 -87 27 -96 14 -14 15 -11 7 25 -11 55 -7 308 6 429 6 54 10 101 7 103 -2 2 -11 -36 -20 -84z m-206 -188 c0 -8 -7 -15 -15 -15 -8 0 -15 7 -15 15 0 8 7 15 15 15 8 0 15 -7 15 -15z m157 -82 c-4 -3 -7 0 -7 7 0 7 3 10 7 7 3 -4 3 -10 0 -14z"/>
<path d="M765 2400 c12 -124 17 -450 7 -479 -6 -17 -7 -31 -2 -31 18 0 32 43 37 114 5 61 9 74 27 82 29 12 28 48 -1 52 -15 2 -23 10 -23 23 0 15 7 19 35 19 28 0 35 -4 35 -20 0 -11 7 -20 15 -20 18 0 19 -14 3 -39 -16 -26 -3 -53 24 -49 23 3 40 48 19 48 -6 0 -11 14 -11 30 0 20 -5 30 -15 30 -8 0 -15 5 -15 10 0 6 14 10 30 10 20 0 30 -5 30 -15 0 -11 11 -15 36 -15 34 0 35 1 32 33 -2 25 -8 33 -27 35 -13 2 -28 -1 -34 -7 -6 -6 -24 -11 -39 -11 -30 0 -39 25 -17 47 17 17 3 43 -21 43 -24 0 -38 -26 -21 -43 6 -6 11 -19 11 -29 0 -14 -8 -18 -35 -18 -40 0 -38 -4 -55 110 -15 99 -32 161 -25 90z m132 -137 c-4 -3 -10 -3 -14 0 -3 4 0 7 7 7 7 0 10 -3 7 -7z m113 -78 c0 -8 -7 -15 -15 -15 -8 0 -15 7 -15 15 0 8 7 15 15 15 8 0 15 -7 15 -15z m-173 -72 c-4 -3 -10 -3 -14 0 -3 4 0 7 7 7 7 0 10 -3 7 -7z m90 -40 c-4 -3 -10 -3 -14 0 -3 4 0 7 7 7 7 0 10 -3 7 -7z"/>
<path d="M627 1700 c-101 -92 -172 -277 -184 -475 -9 -151 23 -243 123 -354 59 -65 127 -114 188 -135 71 -23 70 -20 -11 23 -135 71 -199 141 -245 267 -17 48 -21 82 -22 189 -1 112 2 139 22 195 38 104 78 183 137 264 30 42 52 76 50 76 -2 0 -28 -23 -58 -50z"/>
<path d="M1410 1746 c0 -4 15 -25 33 -46 80 -95 159 -267 178 -391 18 -116 -3 -255 -53 -352 -44 -86 -148 -174 -267 -223 -73 -30 -50 -31 33 0 163 59 302 232 322 400 7 58 -7 182 -32 281 -21 84 -86 213 -131 261 -46 49 -83 80 -83 70z"/>
<path d="M1003 1573 c-10 -35 -11 -36 -18 -15 -10 31 -35 24 -60 -16 -19 -31 -22 -32 -65 -27 -25 3 -67 8 -95 11 l-50 4 61 -18 c33 -10 91 -36 129 -58 38 -21 82 -47 99 -57 40 -22 61 -17 161 40 44 25 112 56 150 69 80 25 62 30 -35 9 -91 -20 -92 -20 -118 25 -26 45 -36 49 -53 19 -9 -17 -13 -19 -20 -8 -5 8 -9 24 -9 37 0 18 -5 22 -33 22 -30 0 -35 -4 -44 -37z"/>
<path d="M595 1480 c-9 -15 2 -27 31 -33 35 -6 84 11 84 29 0 17 -105 20 -115 4z"/>
<path d="M1392 1474 c4 -24 55 -36 86 -21 39 19 27 32 -34 35 -48 3 -55 1 -52 -14z"/>
<path d="M735 1406 c-73 -32 -100 -125 -58 -196 17 -30 67 -60 98 -60 29 0 76 30 95 63 61 100 -34 236 -135 193z m59 -30 c-3 -8 -16 -17 -29 -20 -15 -4 -28 -18 -36 -41 -7 -19 -19 -35 -27 -35 -21 0 -7 58 20 87 24 26 81 33 72 9z m58 -68 c6 -40 -6 -84 -28 -109 -18 -20 -69 -25 -94 -9 -21 13 -4 24 35 22 42 -3 59 22 53 79 -3 35 2 46 23 48 4 1 9 -14 11 -31z m-63 8 c18 -22 10 -70 -13 -74 -32 -7 -50 50 -24 76 16 16 23 15 37 -2z"/>
<path d="M1285 1406 c-47 -21 -67 -51 -73 -107 -6 -64 16 -111 63 -133 41 -20 58 -20 96 -1 132 69 50 300 -86 241z m59 -30 c-3 -8 -16 -17 -29 -20 -15 -4 -28 -18 -36 -41 -7 -19 -19 -35 -27 -35 -21 0 -7 58 20 87 24 26 81 33 72 9z m59 -65 c8 -37 -8 -93 -32 -115 -24 -22 -86 -18 -86 4 0 11 9 14 32 12 39 -4 57 23 51 79 -3 35 2 46 23 48 4 1 9 -12 12 -28z m-64 5 c18 -22 10 -70 -13 -74 -32 -7 -50 50 -24 76 16 16 23 15 37 -2z"/>
<path d="M823 713 c4 -3 10 -3 14 0 3 4 0 7 -7 7 -7 0 -10 -3 -7 -7z"/>
</g>
<g id="layer112" fill="#585393" stroke="none">
<path d="M590 3824 c-136 -10 -362 -36 -430 -50 -110 -23 -160 -47 -160 -78 0 -21 9 -28 54 -45 57 -21 188 -46 296 -56 36 -3 75 -8 88 -11 21 -4 23 -2 17 30 -4 19 -2 43 4 55 16 29 75 42 141 32 42 -7 60 -5 75 5 33 24 113 17 180 -14 71 -34 82 -46 87 -92 2 -29 6 -34 23 -30 26 6 144 6 170 0 17 -4 21 1 23 30 5 46 16 58 87 92 68 32 147 38 182 13 17 -12 31 -13 73 -5 64 12 125 -1 141 -31 6 -12 8 -36 5 -54 -7 -33 -6 -34 26 -30 18 3 74 9 123 16 115 14 253 45 282 65 37 24 29 52 -21 75 -47 20 -213 51 -381 70 -95 11 -968 21 -1085 13z"/>
<path d="M1003 1573 c-10 -34 -11 -36 -18 -15 -4 12 -13 22 -21 22 -18 0 -64 -69 -57 -86 12 -33 174 -46 238 -20 42 18 44 36 6 78 l-28 32 -12 -22 c-15 -29 -31 -19 -31 19 0 26 -3 29 -33 29 -30 0 -35 -4 -44 -37z"/>
<path d="M422 993 c-55 -140 -40 -370 39 -608 37 -111 126 -298 139 -290 27 17 100 333 115 500 3 39 8 79 10 91 4 16 -9 29 -60 62 -76 51 -161 142 -202 218 l-30 56 -11 -29z"/>
<path d="M1629 960 c-40 -76 -145 -185 -212 -220 -26 -14 -47 -32 -47 -40 0 -40 32 -268 50 -356 24 -121 70 -255 83 -247 17 10 105 204 135 298 51 157 67 248 66 390 -1 104 -5 141 -21 185 l-20 54 -34 -64z"/>
</g>
<g id="layer113" fill="#909d1e" stroke="none">
<path d="M735 1406 c-84 -37 -104 -149 -39 -217 95 -100 240 27 178 156 -27 57 -87 83 -139 61z m59 -30 c-3 -8 -16 -17 -29 -20 -15 -4 -28 -18 -36 -41 -7 -19 -19 -35 -27 -35 -21 0 -7 58 20 87 24 26 81 33 72 9z m58 -68 c6 -40 -6 -84 -28 -109 -18 -20 -69 -25 -93 -10 -23 15 -3 30 33 24 28 -4 36 -1 46 17 7 12 10 40 8 61 -3 35 2 46 23 48 4 1 9 -14 11 -31z m-63 8 c18 -22 10 -70 -13 -74 -32 -7 -50 50 -24 76 16 16 23 15 37 -2z"/>
<path d="M1285 1406 c-50 -22 -68 -51 -73 -115 -4 -54 -2 -60 28 -94 56 -64 136 -57 180 16 61 100 -34 236 -135 193z m59 -30 c-3 -8 -16 -17 -28 -20 -22 -5 -46 -43 -46 -71 0 -9 -6 -12 -16 -8 -21 8 -11 59 18 90 24 26 81 33 72 9z m59 -65 c7 -35 -6 -87 -29 -112 -18 -20 -69 -25 -93 -10 -23 15 -3 30 33 24 28 -4 36 -1 46 17 7 12 10 40 8 61 -3 35 2 46 23 48 4 1 9 -12 12 -28z m-64 5 c18 -22 10 -70 -13 -74 -32 -7 -50 50 -24 76 16 16 23 15 37 -2z"/>
<path d="M1055 808 c-18 -66 -57 -113 -101 -124 -13 -4 -27 -16 -30 -28 -10 -40 -21 -251 -13 -260 4 -4 17 10 28 33 12 22 23 41 24 41 2 0 1 -28 -1 -62 -4 -72 10 -121 32 -112 29 11 55 108 71 263 l7 63 47 -48 46 -49 3 55 c4 67 -12 148 -44 216 -39 83 -48 84 -69 12z"/>
</g>
<g id="layer114" fill="#6e6a76" stroke="none">
<path d="M863 2274 c-3 -8 -1 -20 6 -27 6 -6 11 -19 11 -29 0 -15 -9 -18 -50 -18 -27 0 -50 -4 -50 -10 0 -5 23 -10 50 -10 43 0 50 -3 50 -20 0 -11 7 -20 15 -20 18 0 20 -31 4 -47 -17 -17 -3 -43 21 -43 24 0 38 26 21 43 -6 6 -11 21 -11 34 0 13 -7 26 -15 29 -25 10 -17 24 15 24 20 0 30 -5 30 -15 0 -10 11 -15 35 -15 33 0 35 2 35 31 l0 31 -65 -7 c-59 -6 -65 -5 -65 12 0 11 5 24 11 30 17 17 3 43 -21 43 -11 0 -23 -7 -27 -16z m34 -11 c-4 -3 -10 -3 -14 0 -3 4 0 7 7 7 7 0 10 -3 7 -7z m113 -78 c0 -8 -7 -15 -15 -15 -8 0 -15 7 -15 15 0 8 7 15 15 15 8 0 15 -7 15 -15z m-85 -105 c3 -5 1 -10 -4 -10 -6 0 -11 5 -11 10 0 6 2 10 4 10 3 0 8 -4 11 -10z"/>
<path d="M1173 2274 c-3 -8 -1 -20 6 -27 6 -6 11 -19 11 -29 0 -13 -8 -18 -30 -18 -16 0 -30 5 -30 11 0 6 -14 9 -32 7 -29 -3 -33 -6 -33 -33 0 -27 4 -30 33 -33 24 -2 32 1 32 12 0 11 9 16 30 16 32 0 40 -14 15 -24 -8 -3 -15 -16 -15 -29 0 -13 -5 -28 -10 -33 -17 -17 0 -45 24 -42 22 3 37 48 17 48 -6 0 -11 9 -11 20 0 11 7 20 15 20 8 0 15 9 15 20 0 18 7 20 55 20 30 0 55 5 55 10 0 6 -25 10 -55 10 -46 0 -55 3 -55 18 0 10 5 23 11 29 17 17 3 43 -21 43 -11 0 -23 -7 -27 -16z m34 -11 c-4 -3 -10 -3 -14 0 -3 4 0 7 7 7 7 0 10 -3 7 -7z m-97 -78 c0 -8 -7 -15 -15 -15 -8 0 -15 7 -15 15 0 8 7 15 15 15 8 0 15 -7 15 -15z m70 -105 c0 -5 -5 -10 -11 -10 -5 0 -7 5 -4 10 3 6 8 10 11 10 2 0 4 -4 4 -10z"/>
<path d="M796 2125 c-22 -16 -21 -17 13 -35 19 -10 26 -9 39 3 34 34 -12 62 -52 32z m44 -9 c0 -3 -4 -8 -10 -11 -5 -3 -10 -1 -10 4 0 6 5 11 10 11 6 0 10 -2 10 -4z"/>
<path d="M1236 2123 c-4 -9 0 -23 7 -31 13 -12 19 -11 48 4 26 14 30 19 17 22 -10 2 -18 8 -18 13 0 16 -48 10 -54 -8z m34 -13 c0 -5 -2 -10 -4 -10 -3 0 -8 5 -11 10 -3 6 -1 10 4 10 6 0 11 -4 11 -10z"/>
<path d="M1000 1564 c-18 -54 -33 -58 -40 -12 l-5 33 -27 -39 c-14 -21 -24 -45 -21 -52 12 -33 174 -46 238 -20 41 18 44 35 10 73 l-24 28 -1 -27 c0 -15 -4 -29 -9 -33 -14 -8 -41 36 -41 67 0 25 -4 28 -32 28 -30 0 -34 -4 -48 -46z m50 9 c0 -22 -2 -25 -10 -13 -13 20 -13 40 0 40 6 0 10 -12 10 -27z"/>
</g>
<g id="layer115" fill="#7b8852" stroke="none">
<path d="M735 1406 c-84 -37 -104 -149 -39 -217 95 -100 240 27 178 156 -27 57 -87 83 -139 61z m59 -30 c-3 -8 -16 -17 -29 -20 -15 -4 -28 -18 -36 -41 -7 -19 -19 -35 -27 -35 -21 0 -7 58 20 87 24 26 81 33 72 9z m58 -68 c11 -69 -25 -128 -76 -128 -49 0 -62 13 -43 40 10 15 14 33 10 51 -5 28 10 59 28 59 5 0 16 -11 25 -25 15 -23 15 -27 0 -50 -11 -16 -22 -22 -34 -18 -13 5 -15 3 -5 -7 26 -29 70 27 60 77 -4 20 4 30 24 32 4 1 9 -14 11 -31z"/>
<path d="M1285 1406 c-50 -22 -68 -51 -73 -115 -4 -54 -2 -60 28 -94 56 -64 136 -57 180 16 61 100 -34 236 -135 193z m59 -30 c-3 -8 -16 -17 -28 -20 -22 -5 -46 -43 -46 -71 0 -9 -6 -12 -16 -8 -21 8 -11 59 18 90 24 26 81 33 72 9z m59 -65 c13 -65 -26 -131 -77 -131 -49 0 -62 13 -43 40 10 15 14 33 10 51 -5 28 10 59 28 59 5 0 16 -11 25 -25 15 -23 15 -27 0 -50 -11 -16 -22 -22 -34 -18 -13 5 -15 3 -5 -7 26 -29 70 27 60 77 -4 20 4 30 24 32 4 1 9 -12 12 -28z"/>
<path d="M1060 749 c0 -36 -40 -196 -54 -215 -12 -16 -16 -12 -32 40 l-18 59 -13 -29 -12 -29 -2 35 -1 35 -8 -40 c-11 -52 -16 -202 -8 -211 4 -3 16 12 28 35 11 23 22 41 23 41 2 0 2 -29 0 -64 -4 -72 9 -118 31 -110 29 11 55 108 72 263 l6 64 47 -48 46 -49 3 29 c3 19 -12 59 -45 121 -49 95 -63 111 -63 73z"/>
</g>
<g id="layer116" fill="#6c6889" stroke="none">
<path d="M690 3636 c0 -8 14 -26 31 -40 25 -21 41 -26 85 -26 60 0 65 6 32 37 -51 46 -100 58 -73 17 16 -24 16 -25 -3 -15 -10 5 -24 17 -32 25 -16 20 -40 21 -40 2z"/>
<path d="M1293 3630 c-17 -10 -37 -28 -43 -39 -10 -20 -8 -21 44 -21 44 0 60 5 85 26 32 27 41 54 17 54 -7 0 -19 -7 -26 -16 -8 -8 -22 -20 -32 -25 -19 -10 -19 -9 -3 15 22 32 5 35 -42 6z"/>
<path d="M863 2274 c-3 -8 -1 -20 6 -27 6 -6 11 -22 11 -35 0 -24 -2 -25 -50 -19 -29 4 -50 2 -50 -3 0 -6 23 -10 50 -10 43 0 50 -3 50 -20 0 -11 7 -20 15 -20 18 0 20 -31 4 -47 -16 -16 -4 -43 20 -43 22 0 36 29 21 44 -5 5 -10 20 -10 33 0 14 -6 23 -15 23 -8 0 -15 7 -15 15 0 10 10 15 30 15 20 0 30 -5 30 -15 0 -10 11 -15 35 -15 32 0 35 2 35 30 0 27 -3 30 -29 30 -17 0 -33 -4 -36 -10 -3 -5 -19 -10 -36 -10 -24 0 -29 4 -29 23 0 13 5 28 11 34 17 17 3 43 -21 43 -11 0 -23 -7 -27 -16z m34 -11 c-4 -3 -10 -3 -14 0 -3 4 0 7 7 7 7 0 10 -3 7 -7z m113 -78 c0 -8 -7 -15 -15 -15 -8 0 -15 7 -15 15 0 8 7 15 15 15 8 0 15 -7 15 -15z m-85 -105 c3 -5 1 -10 -4 -10 -6 0 -11 5 -11 10 0 6 2 10 4 10 3 0 8 -4 11 -10z"/>
<path d="M1177 2276 c-3 -7 1 -23 10 -35 8 -12 12 -28 9 -36 -6 -17 -66 -21 -66 -5 0 6 -13 10 -30 10 -27 0 -30 -3 -30 -30 0 -27 3 -30 30 -30 20 0 30 5 30 15 0 10 11 15 35 15 35 0 47 -16 20 -26 -8 -4 -15 -14 -15 -24 0 -11 -4 -22 -10 -25 -16 -10 -12 -45 6 -52 25 -9 41 14 26 37 -16 27 -15 50 3 50 8 0 15 9 15 20 0 18 7 20 56 20 30 0 53 4 50 9 -3 4 -28 6 -56 3 -48 -4 -50 -3 -50 20 0 13 5 29 11 35 7 7 9 19 6 27 -8 20 -43 21 -50 2z m33 -16 c0 -5 -2 -10 -4 -10 -3 0 -8 5 -11 10 -3 6 -1 10 4 10 6 0 11 -4 11 -10z m-90 -75 c0 -8 -9 -15 -20 -15 -11 0 -20 7 -20 15 0 8 9 15 20 15 11 0 20 -7 20 -15z m60 -105 c0 -5 -5 -10 -11 -10 -5 0 -7 5 -4 10 3 6 8 10 11 10 2 0 4 -4 4 -10z"/>
<path d="M798 2126 c-21 -16 -5 -36 28 -36 27 0 36 12 28 34 -7 19 -33 20 -56 2z m42 -10 c0 -3 -4 -8 -10 -11 -5 -3 -10 -1 -10 4 0 6 5 11 10 11 6 0 10 -2 10 -4z"/>
<path d="M1247 2133 c-4 -3 -7 -15 -7 -25 0 -20 34 -25 60 -8 13 8 12 11 -5 24 -22 17 -38 20 -48 9z m23 -23 c0 -5 -2 -10 -4 -10 -3 0 -8 5 -11 10 -3 6 -1 10 4 10 6 0 11 -4 11 -10z"/>
<path d="M1000 1564 c-18 -54 -33 -58 -40 -12 l-5 33 -27 -39 c-15 -22 -25 -44 -21 -49 31 -50 261 -47 271 4 2 9 -8 30 -22 45 l-25 29 -1 -27 c0 -15 -4 -29 -9 -33 -14 -8 -41 36 -41 67 0 25 -4 28 -32 28 -30 0 -34 -4 -48 -46z m50 9 c0 -22 -2 -25 -10 -13 -13 20 -13 40 0 40 6 0 10 -12 10 -27z"/>
<path d="M735 1406 c-84 -37 -104 -149 -39 -217 95 -100 240 27 178 156 -27 57 -87 83 -139 61z m59 -29 c-2 -7 -14 -17 -27 -22 -12 -6 -28 -25 -36 -42 -8 -18 -21 -33 -29 -33 -21 0 -8 58 20 87 23 25 81 33 72 10z m58 -69 c11 -69 -25 -128 -76 -128 -49 0 -62 13 -43 40 10 15 14 33 10 51 -10 54 39 81 58 33 12 -34 -12 -77 -39 -67 -13 5 -15 3 -5 -7 26 -29 70 27 60 77 -4 20 4 30 24 32 4 1 9 -14 11 -31z"/>
<path d="M1285 1406 c-50 -22 -68 -51 -73 -115 -4 -54 -2 -60 28 -94 56 -64 136 -57 180 16 61 100 -34 236 -135 193z m59 -31 c-4 -8 -12 -15 -19 -15 -17 0 -42 -31 -50 -62 -5 -18 -12 -25 -22 -21 -20 8 -10 60 19 90 25 27 81 33 72 8z m59 -64 c13 -65 -26 -131 -77 -131 -49 0 -62 13 -43 40 10 15 14 33 10 51 -10 54 39 81 58 33 12 -34 -12 -77 -39 -67 -13 5 -15 3 -5 -7 26 -29 70 27 60 77 -4 20 4 30 24 32 4 1 9 -12 12 -28z"/>
</g>
<g id="layer117" fill="#635f9c" stroke="none">
<path d="M590 3824 c-136 -10 -362 -36 -430 -50 -110 -23 -160 -47 -160 -78 0 -21 9 -28 54 -45 57 -21 188 -46 296 -56 36 -3 75 -8 88 -11 20 -4 22 -1 16 21 -20 80 58 126 163 96 24 -7 40 -5 71 10 50 25 98 18 184 -25 62 -30 63 -32 66 -75 l3 -43 37 8 c47 10 97 10 145 0 l37 -8 0 35 c0 45 25 70 99 98 69 27 143 29 169 6 15 -13 25 -15 53 -7 53 16 101 12 138 -11 31 -19 33 -23 29 -64 l-5 -43 31 4 c17 2 72 8 121 15 115 14 253 45 282 65 37 24 29 52 -21 75 -47 20 -213 51 -381 70 -95 11 -968 21 -1085 13z"/>
<path d="M1010 1590 c0 -29 -29 -82 -40 -75 -6 4 -10 18 -10 33 l-1 27 -25 -29 c-14 -15 -24 -35 -22 -44 10 -50 231 -55 261 -5 3 5 -4 25 -15 44 -19 29 -22 31 -26 14 -2 -11 -5 -26 -8 -34 -7 -22 -32 6 -44 50 -9 34 -14 39 -40 39 -24 0 -30 -4 -30 -20z m40 -17 c0 -22 -2 -25 -10 -13 -13 20 -13 40 0 40 6 0 10 -12 10 -27z"/>
<path d="M1653 1003 c4 -3 10 -3 14 0 3 4 0 7 -7 7 -7 0 -10 -3 -7 -7z"/>
<path d="M410 955 c-11 -35 -15 -92 -14 -195 1 -128 5 -158 32 -261 35 -131 77 -242 130 -343 l36 -70 8 35 c3 19 10 95 13 169 9 159 -6 298 -38 378 -24 61 -47 79 -47 38 0 -14 -5 -49 -11 -78 l-12 -53 -19 55 c-38 109 -50 167 -56 270 l-7 105 -15 -50z"/>
<path d="M1671 939 c-1 -30 -6 -82 -11 -115 -15 -84 -61 -234 -71 -228 -4 2 -11 26 -14 52 -11 76 -14 85 -31 71 -29 -24 -56 -140 -61 -265 -6 -139 5 -354 18 -354 29 0 149 309 185 475 22 105 23 312 1 375 l-15 45 -1 -56z"/>
<path d="M1371 684 c0 -11 3 -14 6 -6 3 7 2 16 -1 19 -3 4 -6 -2 -5 -13z"/>
<path d="M1380 590 c0 -7 3 -10 7 -7 3 4 3 10 0 14 -4 3 -7 0 -7 -7z"/>
<path d="M1390 510 c0 -7 3 -10 7 -7 3 4 3 10 0 14 -4 3 -7 0 -7 -7z"/>
</g>
<g id="layer118" fill="#9fae25" stroke="none">
<path d="M712 1394 c-33 -23 -52 -67 -52 -119 0 -38 6 -52 34 -82 29 -32 41 -38 75 -38 109 0 161 144 80 225 -24 24 -39 30 -73 30 -23 0 -52 -7 -64 -16z m82 -19 c-4 -8 -12 -15 -19 -15 -17 0 -42 -31 -50 -62 -5 -17 -12 -25 -21 -21 -42 16 15 113 67 113 21 0 27 -4 23 -15z m61 -68 c8 -43 -15 -100 -49 -122 -22 -15 -31 -15 -56 -5 -34 14 -35 17 -15 44 8 11 12 30 8 47 -10 54 39 82 58 33 12 -34 -12 -77 -39 -67 -13 5 -15 3 -5 -7 26 -29 70 27 60 77 -4 20 4 30 25 32 4 1 10 -14 13 -32z"/>
<path d="M1262 1394 c-33 -23 -52 -67 -52 -119 0 -38 6 -52 34 -82 29 -32 41 -38 75 -38 109 0 161 144 80 225 -24 24 -39 30 -73 30 -23 0 -52 -7 -64 -16z m82 -19 c-4 -8 -12 -15 -19 -15 -17 0 -42 -30 -50 -61 -3 -14 -13 -26 -22 -26 -22 0 -10 63 18 93 26 28 82 34 73 9z m61 -68 c8 -43 -15 -100 -49 -122 -22 -15 -31 -15 -56 -5 -34 14 -35 17 -15 44 8 11 12 30 8 47 -10 54 39 82 58 33 12 -34 -12 -77 -39 -67 -13 5 -15 3 -5 -7 26 -29 70 27 60 77 -4 20 4 30 25 32 4 1 10 -14 13 -32z"/>
<path d="M1060 749 c0 -36 -40 -196 -54 -215 -12 -16 -16 -12 -32 40 l-18 59 -12 -29 -12 -29 -4 35 c-5 48 -21 -122 -16 -179 l3 -44 27 49 27 49 -2 -85 c-1 -47 2 -91 7 -98 14 -23 42 13 60 76 12 44 35 202 36 244 0 3 22 -17 50 -45 l50 -52 0 30 c0 30 -88 215 -102 215 -5 0 -8 -10 -8 -21z"/>
</g>
<g id="layer119" fill="#7672ab" stroke="none">
<path d="M590 3824 c-136 -10 -362 -36 -430 -50 -110 -23 -160 -47 -160 -78 0 -21 9 -28 54 -45 57 -21 188 -46 296 -56 36 -3 75 -8 86 -10 20 -4 21 -1 17 39 -5 38 -2 45 23 66 26 20 36 22 107 16 62 -4 83 -2 103 11 35 22 101 12 182 -28 63 -32 67 -36 75 -77 8 -40 11 -43 30 -36 29 10 127 11 154 1 19 -7 22 -4 30 35 8 41 12 45 75 77 81 40 147 50 182 28 20 -13 41 -15 103 -11 71 6 81 4 107 -16 25 -21 28 -28 23 -66 l-4 -42 31 4 c17 2 72 8 121 15 115 14 253 45 282 65 37 24 29 52 -21 75 -47 20 -213 51 -381 70 -95 11 -968 21 -1085 13z"/>
<path d="M1007 1574 c-11 -64 -47 -88 -47 -31 l-1 32 -25 -29 c-14 -15 -24 -35 -22 -44 10 -50 231 -55 261 -5 3 5 -4 25 -16 44 -21 34 -21 34 -25 9 -9 -59 -33 -49 -52 23 -9 32 -15 37 -39 37 -25 0 -29 -5 -34 -36z m49 10 c-3 -9 -6 -25 -6 -37 0 -18 -2 -19 -10 -7 -16 24 -12 60 6 60 11 0 14 -5 10 -16z"/>
<path d="M406 931 c-32 -142 -14 -325 55 -536 35 -107 126 -311 135 -303 12 13 22 309 14 403 -10 106 -44 220 -64 220 -6 0 -15 -28 -21 -62 -6 -35 -14 -66 -18 -69 -10 -10 -65 178 -77 266 -6 46 -9 99 -5 117 11 61 -3 33 -19 -36z"/>
<path d="M1668 895 c-6 -95 -42 -247 -70 -299 -11 -19 -14 -13 -25 49 -7 39 -15 75 -16 80 -6 16 -43 -65 -58 -125 -16 -64 -18 -439 -2 -479 9 -22 12 -19 45 45 52 99 106 252 136 379 30 131 35 328 10 405 l-14 45 -6 -100z"/>
</g>
<g id="layer120" fill="#857e95" stroke="none">
<path d="M866 2273 c-4 -9 -2 -21 4 -27 5 -5 10 -21 10 -34 0 -24 -2 -25 -50 -19 -29 4 -50 2 -50 -3 0 -6 23 -10 50 -10 43 0 50 -3 50 -20 0 -11 7 -20 15 -20 17 0 20 -31 5 -46 -15 -15 -1 -44 20 -44 21 0 35 29 20 44 -5 5 -10 20 -10 33 0 14 -6 23 -15 23 -8 0 -15 7 -15 15 0 10 10 15 30 15 20 0 30 -5 30 -15 0 -10 11 -15 35 -15 32 0 35 2 35 30 0 27 -3 30 -29 30 -17 0 -33 -4 -36 -10 -3 -5 -19 -10 -36 -10 -25 0 -29 4 -29 29 0 17 4 32 10 36 14 9 0 35 -20 35 -10 0 -21 -8 -24 -17z m34 -13 c0 -5 -4 -10 -10 -10 -5 0 -10 5 -10 10 0 6 5 10 10 10 6 0 10 -4 10 -10z m110 -75 c0 -8 -7 -15 -15 -15 -8 0 -15 7 -15 15 0 8 7 15 15 15 8 0 15 -7 15 -15z m-80 -105 c0 -5 -4 -10 -10 -10 -5 0 -10 5 -10 10 0 6 5 10 10 10 6 0 10 -4 10 -10z"/>
<path d="M1180 2265 c0 -14 5 -25 11 -25 6 0 9 -10 7 -22 -2 -18 -11 -24 -35 -26 -19 -2 -33 1 -33 7 0 6 -13 11 -30 11 -27 0 -30 -3 -30 -30 0 -27 3 -30 30 -30 20 0 30 5 30 15 0 10 11 15 35 15 35 0 46 -12 22 -27 -6 -4 -18 -25 -26 -46 -14 -42 -5 -64 23 -54 18 7 21 33 6 42 -16 10 -12 45 5 45 8 0 15 9 15 20 0 18 7 20 56 20 30 0 53 4 50 9 -3 4 -28 6 -56 3 -48 -4 -50 -3 -50 20 0 13 5 29 11 35 16 16 3 43 -21 43 -15 0 -20 -7 -20 -25z m30 -5 c0 -5 -2 -10 -4 -10 -3 0 -8 5 -11 10 -3 6 -1 10 4 10 6 0 11 -4 11 -10z m-90 -75 c0 -8 -9 -15 -20 -15 -11 0 -20 7 -20 15 0 8 9 15 20 15 11 0 20 -7 20 -15z m60 -105 c0 -5 -5 -10 -11 -10 -5 0 -7 5 -4 10 3 6 8 10 11 10 2 0 4 -4 4 -10z"/>
<path d="M797 2125 c-18 -13 -18 -14 2 -24 27 -15 48 -14 54 3 6 15 -11 36 -27 36 -6 0 -19 -7 -29 -15z m43 -15 c0 -5 -4 -10 -10 -10 -5 0 -10 5 -10 10 0 6 5 10 10 10 6 0 10 -4 10 -10z"/>
<path d="M1247 2133 c-4 -3 -7 -15 -7 -25 0 -20 34 -25 60 -8 13 8 12 11 -5 24 -22 17 -38 20 -48 9z m27 -24 c-3 -5 -10 -7 -15 -3 -5 3 -7 10 -3 15 3 5 10 7 15 3 5 -3 7 -10 3 -15z"/>
<path d="M1015 1598 c-2 -7 -9 -30 -15 -51 -14 -44 -40 -47 -50 -7 l-6 24 -17 -24 c-25 -36 -21 -46 26 -64 53 -20 133 -21 181 -1 41 17 46 40 16 76 l-19 24 -1 -32 c0 -23 -5 -33 -15 -33 -16 0 -29 25 -39 73 -4 15 -11 27 -17 27 -6 0 -7 -4 -4 -10 9 -14 -6 -83 -16 -73 -4 4 -9 25 -11 46 -2 39 -6 46 -13 25z"/>
<path d="M712 1394 c-33 -23 -52 -67 -52 -119 0 -38 6 -52 34 -82 29 -32 41 -38 75 -38 109 0 161 144 80 225 -24 24 -39 30 -73 30 -23 0 -52 -7 -64 -16z m81 -24 c-3 -11 -9 -18 -13 -15 -17 10 -50 -27 -50 -57 0 -23 -4 -29 -16 -24 -9 3 -18 6 -20 6 -14 0 0 54 22 79 31 37 86 45 77 11z m62 -63 c8 -43 -15 -100 -49 -122 -22 -15 -31 -15 -56 -5 -34 14 -35 18 -16 43 9 12 16 14 21 8 3 -6 10 -11 15 -11 12 0 40 29 40 42 0 6 -8 0 -19 -13 -16 -20 -21 -21 -35 -10 -16 14 -21 47 -10 75 10 25 42 19 59 -11 l16 -28 -5 27 c-5 24 2 35 26 37 4 1 10 -14 13 -32z"/>
<path d="M1262 1394 c-33 -23 -52 -67 -52 -119 0 -38 6 -52 34 -82 29 -32 41 -38 75 -38 109 0 161 144 80 225 -24 24 -39 30 -73 30 -23 0 -52 -7 -64 -16z m81 -24 c-3 -11 -9 -17 -14 -15 -14 9 -49 -33 -49 -59 0 -19 -5 -24 -21 -23 -18 1 -20 6 -15 36 7 44 42 81 77 81 22 0 26 -4 22 -20z m62 -63 c8 -43 -15 -100 -49 -122 -22 -15 -31 -15 -56 -5 -33 14 -35 18 -16 42 9 12 16 14 23 7 8 -8 16 -8 30 1 17 11 17 11 -1 6 -25 -9 -46 11 -46 43 0 53 40 67 65 24 l16 -28 -4 27 c-4 24 3 35 25 37 4 1 10 -14 13 -32z"/>
</g>
<g id="layer121" fill="#becf28" stroke="none">
<path d="M712 1394 c-32 -22 -52 -67 -52 -118 0 -85 80 -143 154 -112 65 27 90 97 61 172 -26 68 -107 97 -163 58z m81 -24 c-3 -11 -9 -18 -13 -15 -16 10 -50 -27 -50 -55 0 -23 -4 -28 -20 -27 -54 4 4 117 60 117 23 0 27 -4 23 -20z m62 -63 c13 -70 -44 -145 -99 -131 -35 8 -40 20 -23 45 9 13 17 16 22 10 3 -6 10 -11 15 -11 12 0 40 29 40 42 0 6 -8 0 -19 -13 -16 -20 -21 -21 -35 -10 -16 14 -21 47 -10 75 10 25 42 19 59 -11 l16 -28 -5 27 c-5 24 2 35 26 37 4 1 10 -14 13 -32z"/>
<path d="M1262 1394 c-32 -22 -52 -67 -52 -118 0 -36 6 -52 30 -79 94 -107 247 15 185 147 -29 61 -112 86 -163 50z m81 -24 c-3 -11 -9 -17 -14 -15 -14 9 -49 -33 -49 -59 0 -19 -5 -24 -20 -23 -54 4 4 117 60 117 23 0 27 -4 23 -20z m63 -66 c13 -69 -45 -142 -100 -128 -34 8 -40 19 -24 43 9 14 16 17 25 10 8 -7 18 -7 30 1 17 11 17 11 -1 6 -25 -9 -46 11 -46 43 0 53 40 67 65 24 l16 -28 -4 27 c-4 24 3 35 25 37 4 1 10 -15 14 -35z"/>
<path d="M1350 1260 c0 -7 3 -10 7 -7 3 4 3 10 0 14 -4 3 -7 0 -7 -7z"/>
<path d="M1066 739 c-3 -13 -11 -46 -16 -74 -17 -81 -41 -146 -53 -142 -6 2 -18 25 -28 53 l-16 49 -11 -35 -10 -35 -3 40 c-2 35 -3 33 -9 -20 -4 -33 -8 -89 -9 -125 l-1 -65 30 50 30 50 -2 -88 c0 -48 3 -92 9 -98 25 -25 64 73 78 197 3 33 8 76 11 97 l6 38 40 -46 c22 -25 44 -45 49 -45 12 0 12 53 0 66 -5 5 -27 42 -50 83 -35 65 -40 72 -45 50z"/>
</g>
<g id="layer122" fill="#918c9b" stroke="none">
<path d="M874 2275 c-4 -8 -3 -22 0 -31 6 -15 8 -15 26 1 15 14 17 21 9 32 -15 17 -28 17 -35 -2z m26 -10 c0 -8 -4 -15 -10 -15 -5 0 -10 7 -10 15 0 8 5 15 10 15 6 0 10 -7 10 -15z"/>
<path d="M1183 2274 c-3 -8 -1 -20 6 -27 6 -6 11 -21 11 -34 0 -20 -5 -23 -35 -23 -19 0 -35 5 -35 10 0 6 -13 10 -30 10 -26 0 -30 -3 -29 -27 2 -24 2 -25 6 -5 3 14 12 22 25 22 15 0 19 -5 15 -20 -3 -11 -1 -20 4 -20 5 0 9 5 9 10 0 6 16 10 35 10 24 0 35 -5 35 -15 0 -8 -7 -15 -15 -15 -9 0 -15 -9 -15 -23 0 -13 -5 -28 -11 -34 -15 -15 -4 -43 16 -43 20 0 31 28 16 43 -16 16 -14 47 4 47 8 0 15 9 15 19 0 17 8 21 53 24 l52 3 -52 2 c-51 2 -53 3 -53 30 0 15 5 33 11 39 6 6 8 16 5 22 -10 16 -36 13 -43 -5z m28 -17 c-13 -13 -26 -3 -16 12 3 6 11 8 17 5 6 -4 6 -10 -1 -17z m-30 -180 c-1 -12 -15 -9 -19 4 -3 6 1 10 8 8 6 -3 11 -8 11 -12z"/>
<path d="M970 2201 c0 -5 -41 -9 -91 -10 -50 0 -94 -2 -97 -6 -3 -3 38 -5 91 -5 80 0 97 -3 97 -15 0 -9 9 -15 25 -15 14 0 25 4 25 9 0 5 -9 7 -20 4 -15 -4 -20 0 -20 15 0 13 8 22 23 25 19 4 18 4 -5 6 -16 0 -28 -3 -28 -8z"/>
<path d="M890 2150 c0 -6 7 -10 15 -10 8 0 15 2 15 4 0 2 -7 6 -15 10 -8 3 -15 1 -15 -4z"/>
<path d="M808 2126 c-20 -15 -6 -36 25 -36 13 0 18 6 15 22 -4 26 -18 31 -40 14z m29 -22 c-9 -9 -28 6 -21 18 4 6 10 6 17 -1 6 -6 8 -13 4 -17z"/>
<path d="M1243 2124 c-10 -26 13 -40 42 -24 23 12 23 14 7 26 -23 18 -41 17 -49 -2z m28 -17 c-13 -13 -26 -3 -16 12 3 6 11 8 17 5 6 -4 6 -10 -1 -17z"/>
<path d="M901 2092 c-8 -15 -7 -23 5 -33 18 -15 38 0 32 27 -5 25 -25 28 -37 6z m29 -11 c0 -6 -4 -13 -10 -16 -5 -3 -10 1 -10 9 0 9 5 16 10 16 6 0 10 -4 10 -9z"/>
<path d="M712 1394 c-32 -22 -52 -67 -52 -118 0 -85 80 -143 154 -112 65 27 90 97 61 172 -26 68 -107 97 -163 58z m80 -29 c-2 -14 -8 -22 -13 -20 -13 8 -49 -32 -49 -54 0 -14 -6 -19 -20 -18 -53 4 4 117 60 117 24 0 27 -3 22 -25z m64 -59 c12 -69 -45 -144 -100 -130 -14 3 -29 10 -32 15 -8 13 21 50 32 41 5 -4 2 2 -7 13 -12 15 -14 28 -7 53 10 38 38 43 62 10 16 -23 16 -23 6 -1 -13 29 -14 28 15 29 20 2 26 -4 31 -30z"/>
<path d="M1262 1394 c-32 -22 -52 -67 -52 -118 0 -36 6 -52 30 -79 94 -107 247 15 185 147 -29 61 -112 86 -163 50z m83 -33 c0 -21 -3 -27 -12 -19 -15 12 -53 -24 -53 -51 0 -14 -6 -19 -20 -18 -52 4 4 117 58 117 23 0 27 -4 27 -29z m61 -57 c13 -69 -45 -142 -100 -128 -14 3 -29 10 -32 15 -8 13 21 50 32 41 5 -4 2 2 -7 13 -12 15 -14 28 -7 53 10 38 38 43 62 10 16 -22 16 -22 6 -1 -10 21 -5 26 32 32 4 0 10 -15 14 -35z"/>
</g>
<g id="layer123" fill="#8784b5" stroke="none">
<path d="M590 3824 c-136 -10 -362 -36 -430 -50 -110 -23 -160 -47 -160 -78 0 -21 9 -28 54 -45 57 -21 188 -46 296 -56 36 -3 74 -8 86 -10 18 -4 20 -1 16 25 -11 79 27 106 136 97 47 -4 74 -1 92 8 38 21 94 18 162 -10 78 -32 97 -49 104 -97 6 -34 9 -38 28 -31 11 5 46 8 76 8 30 0 65 -3 76 -8 19 -7 22 -3 28 31 7 48 26 65 104 97 68 28 124 31 162 10 18 -9 45 -12 92 -8 109 9 147 -18 136 -96 -4 -27 -2 -29 26 -25 17 2 72 8 121 15 115 14 253 45 282 65 37 24 29 52 -21 75 -47 20 -213 51 -381 70 -95 11 -968 21 -1085 13z"/>
<path d="M1015 1598 c-2 -7 -9 -30 -15 -51 -14 -44 -40 -47 -50 -7 l-6 24 -17 -24 c-26 -37 -21 -47 30 -64 85 -29 205 -12 211 31 2 11 -6 31 -17 44 l-20 24 -1 -32 c0 -23 -5 -33 -15 -33 -16 0 -29 25 -39 73 -4 15 -11 27 -17 27 -6 0 -7 -4 -4 -10 9 -14 -6 -83 -16 -73 -4 4 -9 25 -11 46 -2 39 -6 46 -13 25z"/>
<path d="M712 1394 c-32 -22 -52 -67 -52 -118 0 -36 6 -52 30 -79 95 -109 246 13 181 146 -12 24 -33 49 -47 55 -35 17 -86 15 -112 -4z m80 -29 c-2 -14 -8 -22 -13 -20 -13 8 -49 -32 -49 -55 0 -13 -7 -20 -20 -20 -15 0 -20 7 -20 29 0 41 44 91 80 91 24 0 27 -3 22 -25z m63 -58 c13 -70 -44 -145 -99 -131 -14 3 -29 10 -32 15 -8 13 21 50 32 41 5 -4 2 2 -7 13 -12 15 -14 28 -7 53 10 38 38 43 62 10 16 -23 16 -23 6 -1 -14 31 -13 33 15 33 19 0 25 -6 30 -33z"/>
<path d="M1258 1390 c-35 -27 -51 -72 -45 -126 16 -146 204 -143 224 5 14 104 -102 182 -179 121z m87 -29 c0 -21 -3 -27 -12 -19 -15 12 -53 -24 -53 -52 0 -13 -7 -20 -20 -20 -15 0 -20 7 -20 29 0 40 44 91 78 91 23 0 27 -4 27 -29z m61 -57 c13 -69 -45 -142 -100 -128 -14 3 -29 10 -32 15 -8 13 21 50 32 41 5 -4 2 2 -7 13 -12 15 -14 28 -7 53 10 38 38 43 62 10 15 -21 16 -21 7 -2 -12 24 -6 34 20 34 13 0 20 -11 25 -36z"/>
<path d="M401 900 c-24 -130 -2 -318 60 -505 32 -96 118 -285 130 -285 11 0 22 246 16 360 -6 104 -27 198 -52 233 -11 16 -14 10 -26 -53 -7 -39 -16 -73 -20 -76 -19 -12 -85 243 -92 356 -2 43 -3 42 -16 -30z"/>
<path d="M1672 861 c-13 -97 -67 -281 -82 -281 -7 0 -17 36 -33 125 -5 31 -43 -49 -56 -120 -12 -63 -14 -358 -3 -440 l7 -50 46 95 c98 200 151 410 150 595 0 61 -4 123 -9 139 -7 24 -10 14 -20 -63z"/>
</g>
<g id="layer124" fill="#d1e42a" stroke="none">
<path d="M712 1394 c-54 -37 -70 -138 -30 -189 94 -119 256 -1 189 138 -12 24 -33 49 -47 55 -35 17 -86 15 -112 -4z m80 -29 c-2 -14 -8 -22 -13 -20 -13 8 -49 -32 -49 -55 0 -13 -7 -20 -20 -20 -25 0 -27 37 -5 80 16 31 28 38 66 39 23 1 26 -2 21 -24z m62 -47 c14 -55 -9 -118 -50 -137 -32 -14 -46 -14 -69 3 -16 12 -17 15 -3 34 8 12 19 19 24 14 5 -4 2 2 -7 13 -12 15 -14 28 -7 53 10 38 38 43 62 10 16 -23 16 -23 6 -1 -14 30 -13 33 14 33 16 0 26 -7 30 -22z"/>
<path d="M1252 1382 c-17 -16 -34 -41 -38 -56 -10 -40 2 -105 23 -128 96 -109 249 11 184 145 -35 73 -114 91 -169 39z m93 -21 c0 -21 -3 -27 -12 -19 -15 12 -53 -24 -53 -52 0 -13 -7 -20 -20 -20 -25 0 -27 37 -5 80 16 31 28 38 65 39 21 1 25 -4 25 -28z m59 -43 c14 -55 -9 -118 -50 -137 -32 -14 -46 -14 -69 3 -16 12 -17 15 -3 34 8 12 19 19 24 14 5 -4 2 2 -7 13 -12 15 -14 28 -7 53 10 38 38 43 62 10 15 -21 16 -21 7 -2 -12 24 -6 34 20 34 9 0 19 -10 23 -22z"/>
<path d="M1057 603 c-3 -10 -8 -38 -12 -63 -9 -61 -33 -159 -46 -190 -11 -24 -12 -24 -20 -5 -6 17 -8 14 -8 -12 -2 -73 41 -38 64 53 21 81 41 286 22 217z"/>
<path d="M945 469 c-11 -16 -23 -29 -27 -29 -5 0 -8 -12 -8 -27 0 -25 4 -22 31 25 33 58 36 79 4 31z"/>
</g>
<g id="layer125" fill="#b0b2d3" stroke="none">
<path d="M984 1496 c-29 -21 -10 -31 61 -31 35 0 67 4 72 8 14 15 -29 37 -72 37 -23 0 -50 -6 -61 -14z"/>
<path d="M712 1394 c-54 -37 -70 -138 -30 -189 94 -119 256 -1 189 138 -12 24 -33 49 -47 55 -35 17 -86 15 -112 -4z m80 -29 c-4 -22 -1 -25 26 -25 30 0 42 -17 42 -63 0 -33 -30 -84 -56 -96 -32 -14 -46 -14 -68 2 -16 11 -16 17 -6 34 17 26 7 53 -20 53 -25 0 -27 37 -5 80 16 31 28 38 66 39 23 1 26 -2 21 -24z"/>
<path d="M1252 1382 c-17 -16 -34 -41 -38 -56 -10 -40 2 -105 23 -128 96 -109 249 11 184 145 -35 73 -114 91 -169 39z m93 -19 c0 -24 3 -28 26 -25 27 3 39 -15 39 -61 0 -33 -30 -84 -56 -96 -32 -14 -46 -14 -68 2 -16 11 -16 17 -6 34 17 26 7 53 -20 53 -25 0 -27 37 -5 80 16 31 28 38 65 39 22 1 26 -3 25 -26z"/>
</g>
<g id="layer126" fill="#dfec6e" stroke="none">
<path d="M714 1391 c-40 -24 -58 -69 -51 -128 7 -63 49 -103 108 -103 53 0 84 22 104 74 43 113 -63 217 -161 157z m70 3 c11 -4 14 -13 10 -30 -6 -21 -3 -24 25 -24 24 0 32 -5 37 -25 22 -87 -60 -176 -120 -132 -16 11 -16 17 -6 34 17 26 7 53 -20 53 -41 0 -17 89 31 116 29 16 24 15 43 8z"/>
<path d="M1269 1395 c-38 -21 -62 -78 -56 -134 7 -61 49 -101 108 -101 53 0 84 22 104 74 42 110 -59 214 -156 161z m67 -3 c6 -4 11 -18 10 -32 -1 -22 3 -25 26 -22 22 3 28 -1 34 -22 22 -88 -59 -177 -120 -133 -16 11 -16 17 -6 34 17 26 7 53 -20 53 -41 0 -17 89 31 116 28 16 31 16 45 6z"/>
<path d="M1060 610 c0 -7 3 -10 7 -7 3 4 3 10 0 14 -4 3 -7 0 -7 -7z"/>
<path d="M1037 490 c-9 -50 -24 -108 -33 -128 -14 -33 -17 -35 -24 -17 -7 17 -9 15 -9 -12 -2 -72 40 -38 64 52 15 58 32 195 24 195 -2 0 -12 -41 -22 -90z"/>
<path d="M937 455 c-16 -20 -27 -42 -25 -50 2 -8 15 8 30 35 16 28 27 50 25 50 -1 0 -15 -16 -30 -35z"/>
</g>
<g id="layer127" fill="#c2c9d5" stroke="none">
<path d="M714 1391 c-40 -24 -58 -69 -51 -128 7 -63 49 -103 108 -103 53 0 84 22 104 74 43 113 -63 217 -161 157z m73 1 c6 -4 11 -16 10 -27 -2 -15 5 -21 25 -23 20 -2 30 -10 34 -28 22 -86 -60 -175 -120 -131 -16 11 -16 17 -6 34 17 26 7 53 -20 53 -41 0 -17 89 31 116 28 16 30 16 46 6z"/>
<path d="M1269 1395 c-38 -21 -62 -78 -56 -134 7 -61 49 -101 108 -101 53 0 84 22 104 74 42 110 -59 214 -156 161z m68 -3 c6 -4 11 -16 10 -27 -2 -15 5 -21 25 -23 20 -2 30 -10 34 -28 22 -86 -60 -175 -120 -131 -16 11 -16 17 -6 34 17 26 7 53 -20 53 -41 0 -17 89 31 116 28 16 30 16 46 6z"/>
</g>
<g id="layer128" fill="#d5dbea" stroke="none">
<path d="M718 1392 c-67 -41 -77 -152 -19 -204 64 -58 156 -26 181 62 30 104 -75 197 -162 142z m77 -22 c0 -21 5 -25 27 -25 24 1 29 -4 34 -33 18 -94 -58 -174 -121 -128 -16 12 -17 16 -6 29 17 21 5 57 -20 57 -40 0 -11 102 34 120 34 14 52 7 52 -20z"/>
<path d="M1252 1376 c-35 -33 -37 -38 -37 -96 0 -57 2 -64 33 -91 64 -58 152 -30 182 58 25 72 -34 163 -106 163 -25 0 -44 -9 -72 -34z m93 -6 c0 -19 6 -26 25 -29 31 -4 40 -17 40 -59 0 -83 -70 -138 -125 -98 -16 12 -17 16 -6 29 17 21 5 57 -20 57 -40 0 -15 90 32 116 34 19 54 13 54 -16z"/>
</g>
<g id="layer129" fill="#eff3ff" stroke="none">
<path d="M706 1378 c-40 -40 -51 -73 -41 -125 16 -84 110 -121 174 -67 81 67 45 207 -56 221 -39 5 -46 2 -77 -29z m90 2 c1 -8 2 -21 3 -29 1 -9 9 -12 25 -9 29 6 36 -7 36 -58 0 -87 -79 -146 -131 -98 -16 15 -16 18 -3 31 19 19 14 35 -14 48 -34 15 -30 69 8 106 32 32 74 37 76 9z"/>
<path d="M1267 1390 c-15 -12 -34 -35 -42 -50 -58 -113 70 -233 164 -154 45 37 57 92 33 147 -23 53 -41 67 -89 74 -29 4 -44 0 -66 -17z m79 -10 c1 -8 2 -21 3 -29 1 -9 9 -12 25 -9 29 6 36 -7 36 -58 0 -87 -79 -146 -131 -98 -16 15 -16 18 -3 31 19 19 14 35 -14 48 -34 15 -30 69 8 106 32 32 74 37 76 9z"/>
</g>


</svg>