<svg xmlns="http://www.w3.org/2000/svg" viewBox="0 0 294.74 283.69"><defs><style>.cls-1{fill:#c4d043;}.cls-2{fill:#585490;}</style></defs><g id="Capa_2" data-name="Capa 2"><g id="Capa_1-2" data-name="Capa 1"><g id="Capa_2-2" data-name="Capa 2"><g id="Capa_1-2-2" data-name="Capa 1-2"><path class="cls-1" d="M71.57,273.29H66.9V261.52H54.07v11.77H49.4V246.5h4.67v11H66.9v-11h4.67Z"/><path class="cls-1" d="M89.94,273.29l-.32-2.56h-.16a7.68,7.68,0,0,1-3,2.22,9.52,9.52,0,0,1-3.83.83,5.39,5.39,0,0,1-4-1.48,5.32,5.32,0,0,1-1.46-3.92,6.14,6.14,0,0,1,.71-3,6.3,6.3,0,0,1,2-2.23,10.16,10.16,0,0,1,3.2-1.4,16.91,16.91,0,0,1,4.19-.49H89v-.6a2.7,2.7,0,0,0-1-2.32,5.9,5.9,0,0,0-3.29-.73A10.68,10.68,0,0,0,79.39,259l-.85-3.37A12.77,12.77,0,0,1,85.11,254c2.71,0,4.76.55,6.17,1.66a6,6,0,0,1,2.24,4.92v12.71Zm-5.56-3.13a6,6,0,0,0,2.6-.62,5.39,5.39,0,0,0,2.07-1.69v-3.69h-.77a10.35,10.35,0,0,0-4.85.85,2.87,2.87,0,0,0-1.52,2.72,2.17,2.17,0,0,0,1.84,2.44A2.66,2.66,0,0,0,84.38,270.16Z"/><path class="cls-1" d="M113.33,259.24a8.36,8.36,0,0,0-1.12-.65,12.12,12.12,0,0,0-3-.95,9.16,9.16,0,0,0-1.57-.14,4.93,4.93,0,0,0-2.33.51,4.07,4.07,0,0,0-1.54,1.34,5.45,5.45,0,0,0-.86,1.92,10.29,10.29,0,0,0-.26,2.28,9.37,9.37,0,0,0,.33,2.58,6.3,6.3,0,0,0,1,2.09,4.65,4.65,0,0,0,3.94,1.94,9.11,9.11,0,0,0,3.1-.58,7.62,7.62,0,0,0,2.74-1.65l.82,3.82a13.72,13.72,0,0,1-3.11,1.38,13.31,13.31,0,0,1-4.2.65,9.72,9.72,0,0,1-4.12-.81,8.39,8.39,0,0,1-2.93-2.18,9.32,9.32,0,0,1-1.74-3.16,12.79,12.79,0,0,1,0-7.55,8.58,8.58,0,0,1,1.72-3.13,8.33,8.33,0,0,1,3-2.15,10.94,10.94,0,0,1,4.38-.79,16.9,16.9,0,0,1,3.82.44,9.83,9.83,0,0,1,3,1.18Z"/><path class="cls-1" d="M127.78,261.19l8,12.1h-4.87l-6-9.17-1.59,1.58v7.59h-4.46v-30h4.46v17.33l6.22-6h5Z"/><path class="cls-2" d="M150,273.29l-.33-2.56h-.16a7.68,7.68,0,0,1-3,2.22,9.61,9.61,0,0,1-3.84.83,5.44,5.44,0,0,1-4-1.48,5.38,5.38,0,0,1-1.46-3.92,6.28,6.28,0,0,1,.71-3,6.35,6.35,0,0,1,2.05-2.23,10.22,10.22,0,0,1,3.21-1.4,16.83,16.83,0,0,1,4.18-.49h1.75v-.6a2.67,2.67,0,0,0-1-2.32,5.82,5.82,0,0,0-3.29-.73,10.7,10.7,0,0,0-5.36,1.34l-.85-3.37a12.79,12.79,0,0,1,6.58-1.58q4,0,6.17,1.66a6.21,6.21,0,0,1,1.6,2,6.28,6.28,0,0,1,.63,2.92v12.71Zm-5.56-3.13a6,6,0,0,0,2.59-.62,5.43,5.43,0,0,0,2.08-1.69v-3.69h-.78a10.37,10.37,0,0,0-4.85.85,2.89,2.89,0,0,0-1.52,2.72,2.16,2.16,0,0,0,1.87,2.43,2,2,0,0,0,.6,0Z"/><path class="cls-2" d="M166.39,273.78a7.94,7.94,0,0,1-3.49-.77,8,8,0,0,1-2.7-2.11,9.61,9.61,0,0,1-1.73-3.17,12.61,12.61,0,0,1-.61-4,13.38,13.38,0,0,1,.51-3.67,8.93,8.93,0,0,1,1.56-3.11,7.68,7.68,0,0,1,6.34-3,8.87,8.87,0,0,1,3.49.65,6.14,6.14,0,0,1,2.48,1.82V243.25h4.42v30h-3.57l-.33-2.56h-.16a11.58,11.58,0,0,1-2.58,2.15A6.73,6.73,0,0,1,166.39,273.78Zm.57-3.37a5.33,5.33,0,0,0,1.38-.18,8.43,8.43,0,0,0,2.8-1.3,4.9,4.9,0,0,0,1.1-1.08v-7.79a6.75,6.75,0,0,0-2.48-2.05,6.07,6.07,0,0,0-2.44-.55,4.37,4.37,0,0,0-3.79,1.91,6.47,6.47,0,0,0-.94,2.05,9.82,9.82,0,0,0-.3,2.41,10.39,10.39,0,0,0,.28,2.42,7,7,0,0,0,.86,2.11,4.4,4.4,0,0,0,1.46,1.48,3.75,3.75,0,0,0,2.11.57Z"/><path class="cls-2" d="M190.75,254a7.85,7.85,0,0,1,5.52,1.8,6.65,6.65,0,0,1,1.95,5.1,7.57,7.57,0,0,1-.06,1,5.63,5.63,0,0,1-.16,1,5.11,5.11,0,0,1-.25.87,3.64,3.64,0,0,1-.3.63H185.63a8.94,8.94,0,0,0,.45,2.29,5.19,5.19,0,0,0,1.06,1.87,5.09,5.09,0,0,0,1.68,1.26,5.34,5.34,0,0,0,2.33.47,9.88,9.88,0,0,0,3.19-.57,10.92,10.92,0,0,0,2.86-1.42l.73,3.33c-.35.21-.78.45-1.29.71a15.63,15.63,0,0,1-1.75.71,18.3,18.3,0,0,1-2.09.54,12.21,12.21,0,0,1-2.34.23,9.82,9.82,0,0,1-4-.79,8.43,8.43,0,0,1-2.93-2.16,9.33,9.33,0,0,1-1.78-3.14,11.7,11.7,0,0,1,0-7.53A9.45,9.45,0,0,1,183.6,257a8.63,8.63,0,0,1,3-2.17A10,10,0,0,1,190.75,254Zm-.12,3.49a4.4,4.4,0,0,0-2.91,1,5.62,5.62,0,0,0-1.72,2.7h7.75a1.27,1.27,0,0,0,.06-.28,2.81,2.81,0,0,0,0-.41,2.86,2.86,0,0,0-.89-2.15,3.22,3.22,0,0,0-2.29-.85Z"/><path class="cls-2" d="M214.86,273.29V261q0-3.33-2.64-3.33a4.73,4.73,0,0,0-1.4.24,6.12,6.12,0,0,0-2.76,1.87,4.14,4.14,0,0,0-.83,1.58v12h-4.46V254.62h3.49l.2,2.76h.16a5.19,5.19,0,0,1,2.58-2.54A8.64,8.64,0,0,1,213,254a8,8,0,0,1,3.47.75,4.79,4.79,0,0,1,2.33,2.58,5.23,5.23,0,0,1,2.56-2.5,8.88,8.88,0,0,1,6.19-.49,5.16,5.16,0,0,1,3.41,3.15,8.27,8.27,0,0,1,.51,3.08v12.71H227V261q0-3.33-2.64-3.33a4.73,4.73,0,0,0-1.4.24,6,6,0,0,0-1.46.71,6.83,6.83,0,0,0-1.3,1.16,4.14,4.14,0,0,0-.83,1.58v12Z"/><path class="cls-2" d="M244.54,267.89l5.2-13.27H254l-7.71,18.83a27,27,0,0,1-1.57,3.19,18.88,18.88,0,0,1-2.35,3.33,14.11,14.11,0,0,1-3.07,2.64,6.7,6.7,0,0,1-3.69,1.07h-.49a1.14,1.14,0,0,1-.36-.1l-.77-3.49.28.08a4,4,0,0,0,.69,0,7.07,7.07,0,0,0,1.52-.16,4.46,4.46,0,0,0,1.52-.65,8.29,8.29,0,0,0,2.54-2.6,25.11,25.11,0,0,0,2.09-4.1l-9.29-18.06H238Z"/><path class="cls-1" d="M57.53,22.64V45.19H79.65V67.31H35.4V91.16h0a26.82,26.82,0,0,1-11.91,22.26S34.22,117.1,35.32,132h.08v-.37H57.52v47.18H35.4v20.54H57.52v23.29H35.4c-8.06,0-13.31-3.22-16.67-6.92A22.51,22.51,0,0,1,13,200.55V133.16h0s-1.27-10.26-13-8.93V101.72s13,1.75,13-10.56h0V22.6A22.44,22.44,0,0,1,18.73,7.45C22.09,3.75,27.34.52,35.39.52H79.65V22.64Z"/><rect class="cls-1" x="57.52" y="90.24" width="22.13" height="41.37"/><rect class="cls-1" x="57.52" y="178.79" width="22.13" height="21.12"/><rect class="cls-1" x="79.65" y="22.85" width="22.13" height="22.13"/><rect class="cls-2" x="168.16" y="45.19" width="22.13" height="22.13"/><rect class="cls-2" x="168.16" y="111.52" width="22.13" height="22.13"/><rect class="cls-2" x="190.28" y="0.52" width="22.13" height="22.13"/><rect class="cls-2" x="190.28" y="67.31" width="22.13" height="22.13"/><rect class="cls-2" x="190.28" y="155.55" width="22.13" height="22.13"/><rect class="cls-2" x="168.6" y="177.85" width="22.13" height="21.89"/><rect class="cls-1" x="101.78" y="109.48" width="22.13" height="22.13"/><polygon class="cls-1" points="168.6 155.72 168.6 177.85 101.78 177.85 101.78 155.72 123.9 155.72 123.9 132.13 146.03 132.13 146.03 155.72 168.6 155.72"/><rect class="cls-1" x="122.43" y="199.91" width="46.18" height="23.16"/><rect class="cls-2" x="122.43" width="46.18" height="23.16"/><rect class="cls-1" x="79.65" y="67.31" width="22.13" height="22.13"/><rect class="cls-1" x="123.9" y="45.19" width="22.13" height="22.13"/><rect class="cls-2" x="146.03" y="67.31" width="22.13" height="22.13"/><rect class="cls-1" x="79.65" y="131.61" width="22.13" height="22.13"/><rect class="cls-1" x="79.65" y="199.91" width="22.13" height="22.71"/><rect class="cls-2" x="212.41" y="111.34" width="21.13" height="22.49"/><path class="cls-2" d="M281.64,89.86h0V22.17A22.61,22.61,0,0,0,275.93,7c-3.29-3.65-8.36-6.81-16.09-7H234.17V22.64H212.41V45.13h46.77v22H233.81V89.62h25.37V91h.08c1.11,15,11.89,18.64,11.89,18.64a27,27,0,0,0-12,22.36h0v1.79h-25.6v45H213v21.12H190.78v23.17h68.4c8.1,0,13.36-3.25,16.75-7a22.56,22.56,0,0,0,5.71-15.21V132h0c0-12.37,13.1-10.61,13.1-10.61V98.82C282.93,100.16,281.64,89.86,281.64,89.86ZM259.18,199.91h-24.5V178.79h24.5Z"/></g></g></g></g></svg>