<svg width="273" height="193" viewBox="0 0 273 193" fill="none" xmlns="http://www.w3.org/2000/svg">
<g id="inicio_sesion">
<path id="circle15" d="M40.1828 60.7439C41.4157 60.7439 42.4152 59.8061 42.4152 58.6493C42.4152 57.4925 41.4157 56.5547 40.1828 56.5547C38.9499 56.5547 37.9504 57.4925 37.9504 58.6493C37.9504 59.8061 38.9499 60.7439 40.1828 60.7439Z" fill="#585490"/>
<path id="circle14" d="M236.632 156.049C237.865 156.049 238.865 155.111 238.865 153.954C238.865 152.798 237.865 151.86 236.632 151.86C235.399 151.86 234.4 152.798 234.4 153.954C234.4 155.111 235.399 156.049 236.632 156.049Z" fill="#585490"/>
<path id="circle13" d="M151.802 4.18924C153.035 4.18924 154.034 3.25144 154.034 2.09462C154.034 0.937792 153.035 0 151.802 0C150.569 0 149.569 0.937792 149.569 2.09462C149.569 3.25144 150.569 4.18924 151.802 4.18924Z" fill="#585490"/>
<path id="circle12" d="M180.823 46.0814C182.056 46.0814 183.055 45.1436 183.055 43.9868C183.055 42.8299 182.056 41.8921 180.823 41.8921C179.59 41.8921 178.59 42.8299 178.59 43.9868C178.59 45.1436 179.59 46.0814 180.823 46.0814Z" fill="#C4D043"/>
<path id="circle11" d="M233.284 58.6493C233.9 58.6493 234.4 58.1804 234.4 57.602C234.4 57.0236 233.9 56.5547 233.284 56.5547C232.667 56.5547 232.167 57.0236 232.167 57.602C232.167 58.1804 232.667 58.6493 233.284 58.6493Z" fill="#585490"/>
<path id="circle10" d="M181.939 26.1825C182.555 26.1825 183.055 25.7136 183.055 25.1352C183.055 24.5568 182.555 24.0879 181.939 24.0879C181.322 24.0879 180.823 24.5568 180.823 25.1352C180.823 25.7136 181.322 26.1825 181.939 26.1825Z" fill="#585490"/>
<path id="circle9" d="M16.7429 109.967C17.3594 109.967 17.8591 109.499 17.8591 108.92C17.8591 108.342 17.3594 107.873 16.7429 107.873C16.1265 107.873 15.6267 108.342 15.6267 108.92C15.6267 109.499 16.1265 109.967 16.7429 109.967Z" fill="#585490"/>
<path id="circle8" d="M79.9081 36.8442C80.8882 36.8442 81.6828 36.0986 81.6828 35.1789C81.6828 34.2593 80.8882 33.5137 79.9081 33.5137C78.9279 33.5137 78.1333 34.2593 78.1333 35.1789C78.1333 36.0986 78.9279 36.8442 79.9081 36.8442Z" fill="#585490"/>
<path id="circle7" d="M19.6337 149.954C20.6138 149.954 21.4084 149.208 21.4084 148.288C21.4084 147.369 20.6138 146.623 19.6337 146.623C18.6535 146.623 17.8589 147.369 17.8589 148.288C17.8589 149.208 18.6535 149.954 19.6337 149.954Z" fill="#C4D043"/>
<path id="circle6" d="M112.277 50.4594C113.258 50.4594 114.052 49.7138 114.052 48.7941C114.052 47.8744 113.258 47.1289 112.277 47.1289C111.297 47.1289 110.503 47.8744 110.503 48.7941C110.503 49.7138 111.297 50.4594 112.277 50.4594Z" fill="#C4D043"/>
<path id="circle5" d="M40.1828 38.7506C42.6486 38.7506 44.6476 36.875 44.6476 34.5614C44.6476 32.2477 42.6486 30.3721 40.1828 30.3721C37.717 30.3721 35.718 32.2477 35.718 34.5614C35.718 36.875 37.717 38.7506 40.1828 38.7506Z" stroke="#585490" stroke-width="2" stroke-miterlimit="10"/>
<path id="circle4" d="M245.562 90.0685C247.411 90.0685 248.91 88.6618 248.91 86.9266C248.91 85.1914 247.411 83.7847 245.562 83.7847C243.712 83.7847 242.213 85.1914 242.213 86.9266C242.213 88.6618 243.712 90.0685 245.562 90.0685Z" stroke="#C4D043" stroke-width="2" stroke-miterlimit="10"/>
<path id="circle3" d="M35.718 86.9265C37.5673 86.9265 39.0665 85.5198 39.0665 83.7845C39.0665 82.0493 37.5673 80.6426 35.718 80.6426C33.8686 80.6426 32.3694 82.0493 32.3694 83.7845C32.3694 85.5198 33.8686 86.9265 35.718 86.9265Z" stroke="#C4D043" stroke-width="2" stroke-miterlimit="10"/>
<path id="circle2" d="M208.973 43.4007C212.807 43.4007 215.916 40.4841 215.916 36.8864C215.916 33.2887 212.807 30.3721 208.973 30.3721C205.139 30.3721 202.03 33.2887 202.03 36.8864C202.03 40.4841 205.139 43.4007 208.973 43.4007Z" stroke="#6A669B" stroke-width="2" stroke-miterlimit="10"/>
<path id="circle1" d="M110.737 24.5279C112.716 24.5279 114.32 23.0228 114.32 21.1661C114.32 19.3094 112.716 17.8042 110.737 17.8042C108.758 17.8042 107.154 19.3094 107.154 21.1661C107.154 23.0228 108.758 24.5279 110.737 24.5279Z" fill="#C4D043"/>
<g id="logo_hackademy">
<path id="Vector" d="M84.3801 73.7372V87.057H98.3695V100.123H70.3843V114.211C70.3808 116.811 69.6918 119.371 68.3782 121.664C67.0645 123.958 65.1666 125.913 62.852 127.359C62.852 127.359 69.638 129.533 70.3337 138.334H70.3843V138.115H84.3737V165.984H70.3843V178.116H84.3737V191.873H70.3843C65.2869 191.873 61.9666 189.971 59.8416 187.786C57.4837 185.323 56.1919 182.129 56.2178 178.825V139.019C56.2178 139.019 55.4146 132.959 47.9961 133.744V120.448C47.9961 120.448 56.2178 121.482 56.2178 114.211V73.7136C56.1908 70.4133 57.483 67.2224 59.8416 64.7648C61.9666 62.5793 65.2869 60.6714 70.378 60.6714H98.3695V73.7372H84.3801Z" fill="#C4D043"/>
<path id="Vector_2" d="M98.3695 113.667H84.3738V138.104H98.3695V113.667Z" fill="#C4D043"/>
<path id="Vector_3" d="M98.3695 165.972H84.3738V178.447H98.3695V165.972Z" fill="#C4D043"/>
<path id="Vector_4" d="M112.365 73.8613H98.3694V86.9329H112.365V73.8613Z" fill="#C4D043"/>
<path id="Vector_5" d="M168.342 87.0571H154.346V100.129H168.342V87.0571Z" fill="#585490"/>
<path id="Vector_6" d="M168.342 126.237H154.346V139.309H168.342V126.237Z" fill="#585490"/>
<path id="Vector_7" d="M182.331 60.6714H168.336V73.7431H182.331V60.6714Z" fill="#585490"/>
<path id="Vector_8" d="M182.331 100.123H168.336V113.195H182.331V100.123Z" fill="#585490"/>
<path id="Vector_9" d="M182.331 152.245H168.336V165.316H182.331V152.245Z" fill="#585490"/>
<path id="Vector_10" d="M168.62 165.417H154.625V178.347H168.62V165.417Z" fill="#585490"/>
<path id="Vector_11" d="M126.361 125.032H112.365V138.104H126.361V125.032Z" fill="#C4D043"/>
<path id="Vector_12" d="M154.625 152.345V165.417H112.365V152.345H126.355V138.411H140.351V152.345H154.625Z" fill="#C4D043"/>
<path id="Vector_13" d="M154.631 178.447H125.425V192.127H154.631V178.447Z" fill="#C4D043"/>
<path id="Vector_14" d="M154.631 60.3643H125.425V74.0444H154.631V60.3643Z" fill="#585490"/>
<path id="Vector_15" d="M112.365 100.123H98.3694V113.195H112.365V100.123Z" fill="#C4D043"/>
<path id="Vector_16" d="M140.35 87.0571H126.355V100.129H140.35V87.0571Z" fill="#C4D043"/>
<path id="Vector_17" d="M154.346 100.123H140.35V113.195H154.346V100.123Z" fill="#585490"/>
<path id="Vector_18" d="M112.365 138.104H98.3694V151.175H112.365V138.104Z" fill="#C4D043"/>
<path id="Vector_19" d="M112.365 178.447H98.3694V191.861H112.365V178.447Z" fill="#C4D043"/>
<path id="Vector_20" d="M195.695 126.131H182.332V139.415H195.695V126.131Z" fill="#585490"/>
<path id="Vector_21" d="M226.115 113.443V73.4596C226.138 70.1586 224.852 66.9664 222.504 64.499C220.423 62.3431 217.217 60.4765 212.328 60.3643H196.093V73.7373H182.332V87.0216H211.91V100.017H195.866V113.301H211.91V114.116H211.961C212.663 122.976 219.481 125.126 219.481 125.126C217.154 126.579 215.245 128.543 213.921 130.846C212.598 133.149 211.901 135.72 211.891 138.334V139.391H195.701V165.972H182.705V178.447H168.652V192.133H211.91C217.033 192.133 220.36 190.213 222.504 187.998C224.86 185.526 226.148 182.324 226.115 179.014V138.334C226.115 131.027 234.4 132.067 234.4 132.067V118.735C226.931 119.527 226.115 113.443 226.115 113.443ZM211.91 178.447H196.416V165.972H211.91V178.447Z" fill="#585490"/>
</g>
<path id="star4" d="M141.274 42.2377C141.409 41.7483 142.103 41.7482 142.238 42.2377L143.07 45.254C143.256 45.9289 143.884 46.3854 144.583 46.3538L147.709 46.2125C148.216 46.1896 148.431 46.8498 148.007 47.1294L145.395 48.8523C144.811 49.2378 144.571 49.9764 144.817 50.6318L145.917 53.5608C146.096 54.0361 145.534 54.4441 145.137 54.1274L142.692 52.176C142.144 51.7393 141.368 51.7393 140.82 52.176L138.375 54.1274C137.978 54.4441 137.416 54.0361 137.595 53.5608L138.695 50.6318C138.941 49.9764 138.701 49.2378 138.117 48.8523L135.505 47.1294C135.081 46.8498 135.296 46.1896 135.803 46.2125L138.929 46.3538C139.628 46.3854 140.256 45.9289 140.443 45.254L141.274 42.2377Z" stroke="#C4D043"/>
<path id="star3" d="M9.56363 96.9311C9.69857 96.4416 10.3927 96.4416 10.5276 96.9311L11.3591 99.9473C11.5452 100.622 12.1735 101.079 12.8729 101.047L15.9985 100.906C16.5057 100.883 16.7202 101.543 16.2964 101.823L13.6847 103.545C13.1003 103.931 12.8603 104.67 13.1065 105.325L14.2067 108.254C14.3852 108.729 13.8237 109.137 13.4268 108.821L10.9812 106.869C10.4339 106.432 9.65736 106.432 9.11008 106.869L6.66449 108.821C6.2676 109.137 5.70602 108.729 5.88456 108.254L6.98476 105.325C7.23096 104.67 6.99098 103.931 6.40655 103.545L3.79489 101.823C3.37106 101.543 3.58556 100.883 4.09279 100.906L7.21835 101.047C7.91779 101.079 8.54606 100.622 8.73213 99.9473L9.56363 96.9311Z" stroke="#7B78A5"/>
<path id="star2" d="M258.474 67.9101C258.609 67.4206 259.303 67.4206 259.438 67.9101L260.269 70.9263C260.456 71.6013 261.084 72.0578 261.783 72.0262L264.909 71.8849C265.416 71.862 265.631 72.5222 265.207 72.8018L262.595 74.5246C262.011 74.9102 261.771 75.6488 262.017 76.3042L263.117 79.2331C263.296 79.7084 262.734 80.1165 262.337 79.7998L259.891 77.8483C259.344 77.4116 258.568 77.4116 258.02 77.8483L255.575 79.7998C255.178 80.1165 254.616 79.7084 254.795 79.2331L255.895 76.3042C256.141 75.6488 255.901 74.9102 255.317 74.5246L252.705 72.8018C252.281 72.5222 252.496 71.862 253.003 71.8849L256.129 72.0262C256.828 72.0578 257.456 71.6013 257.642 70.9263L258.474 67.9101Z" stroke="#7B78A5"/>
<path id="star1" d="M261.822 140.462C261.957 139.973 262.652 139.973 262.787 140.462L263.618 143.479C263.804 144.153 264.432 144.61 265.132 144.578L268.257 144.437C268.765 144.414 268.979 145.074 268.555 145.354L265.944 147.077C265.359 147.462 265.119 148.201 265.365 148.856L266.466 151.785C266.644 152.261 266.083 152.669 265.686 152.352L263.24 150.4C262.693 149.964 261.916 149.964 261.369 150.4L258.923 152.352C258.526 152.669 257.965 152.261 258.143 151.785L259.244 148.856C259.49 148.201 259.25 147.462 258.665 147.077L256.054 145.354C255.63 145.074 255.844 144.414 256.352 144.437L259.477 144.578C260.177 144.61 260.805 144.153 260.991 143.479L261.822 140.462Z" stroke="#7B78A5"/>
</g>
</svg>
