<svg width="476" height="95" viewBox="0 0 476 95" fill="none" xmlns="http://www.w3.org/2000/svg">
<g id="Capa 1">
<path id="Vector" d="M51.5125 69.862H40.6617V42.4883H10.8509V69.862H0V7.55615H10.8509V33.139H40.6617V7.55615H51.5125V69.862Z" fill="white"/>
<path id="Vector_2" d="M94.1957 69.8638L93.4521 63.9099H93.0804C91.2163 66.1785 88.8221 67.9519 86.1098 69.073C83.3093 70.3273 80.2787 70.9846 77.2107 71.0033C75.5091 71.0926 73.8071 70.8335 72.209 70.2416C70.611 69.6498 69.1503 68.7377 67.9166 67.5613C66.765 66.3499 65.8707 64.9176 65.2877 63.3507C64.7046 61.7837 64.4449 60.1147 64.5242 58.4445C64.4724 56.0162 65.0402 53.6148 66.1739 51.4674C67.2839 49.3898 68.8779 47.6107 70.821 46.281C73.0931 44.7742 75.6087 43.6726 78.2563 43.025C81.4412 42.2399 84.7118 41.8571 87.9918 41.8855H92.0115V40.49C92.0932 39.4692 91.9241 38.4438 91.5192 37.5034C91.1142 36.5629 90.4855 35.7359 89.688 35.0944C87.359 33.7966 84.7025 33.2065 82.0436 33.3966C77.712 33.3758 73.4503 34.4903 69.6825 36.6293L67.7075 28.7917C72.3627 26.1766 77.6365 24.8669 82.973 25.0008C89.2698 25.0008 94.033 26.2799 97.3092 28.8615C99.0107 30.2281 100.368 31.9754 101.272 33.9627C102.176 35.9501 102.601 38.122 102.514 40.3039V69.8638H94.1957ZM81.2769 62.5843C83.3733 62.5644 85.4382 62.0716 87.318 61.1423C89.2255 60.2571 90.8795 58.9054 92.1277 57.2119V48.63H90.3386C86.4781 48.372 82.6123 49.0501 79.0695 50.6069C77.9347 51.2089 76.9978 52.1261 76.3713 53.2483C75.7448 54.3705 75.4553 55.6499 75.5378 56.9328C75.3586 58.2519 75.7074 59.5883 76.5081 60.6512C77.3089 61.7141 78.4968 62.4172 79.813 62.6076C80.3002 62.6579 80.7916 62.65 81.2769 62.5843Z" fill="white"/>
<path id="Vector_3" d="M148.543 37.1892C147.716 36.6187 146.846 36.1133 145.94 35.6775C143.723 34.6409 141.379 33.8982 138.97 33.4681C137.766 33.2548 136.545 33.1459 135.322 33.1425C133.448 33.0883 131.589 33.4956 129.908 34.3286C128.47 35.0463 127.239 36.1188 126.33 37.445C125.38 38.7895 124.702 40.3061 124.332 41.9104C123.933 43.6498 123.731 45.4284 123.728 47.213C123.703 49.2391 123.961 51.2587 124.494 53.2134C124.962 54.9635 125.75 56.6116 126.818 58.0741C127.854 59.5229 129.232 60.6928 130.83 61.48C132.427 62.2671 134.193 62.6471 135.973 62.586C138.434 62.5589 140.871 62.1024 143.175 61.237C145.545 60.4231 147.715 59.1152 149.542 57.3996L151.447 66.2839C149.181 67.6497 146.753 68.7278 144.221 69.4934C141.07 70.5172 137.775 71.0276 134.462 71.0051C131.172 71.0827 127.905 70.4398 124.889 69.1212C122.276 67.9521 119.951 66.2211 118.081 64.0512C116.268 61.8884 114.895 59.3919 114.039 56.7019C112.273 50.9822 112.273 44.8625 114.039 39.1428C114.846 36.4625 116.207 33.9824 118.035 31.8633C119.956 29.6958 122.338 27.9871 125.006 26.863C128.236 25.5591 131.7 24.9337 135.183 25.0257C138.17 25.0277 141.148 25.371 144.058 26.049C146.517 26.5736 148.872 27.5009 151.029 28.7934L148.543 37.1892Z" fill="white"/>
<path id="Vector_4" d="M182.118 41.7215L200.706 69.8626H189.39L175.449 48.5358L171.755 52.2105V69.8626H161.392V0.0913086H171.755V40.3959L186.207 26.4416H197.825L182.118 41.7215Z" fill="white"/>
<path id="Vector_5" d="M233.747 69.8649L232.98 63.911H232.608C230.744 66.1796 228.35 67.953 225.637 69.0741C222.828 70.3257 219.79 70.9828 216.715 71.0044C215.014 71.0869 213.314 70.8246 211.717 70.2331C210.12 69.6416 208.659 68.7332 207.421 67.5624C206.276 66.3464 205.386 64.9133 204.803 63.3475C204.221 61.7817 203.957 60.115 204.029 58.4456C203.991 56.0188 204.558 53.6209 205.678 51.4685C206.825 49.3804 208.459 47.601 210.442 46.2821C212.722 44.7753 215.245 43.6738 217.9 43.0261C221.077 42.241 224.34 41.8582 227.612 41.8866H231.679V40.4911C231.766 39.4697 231.6 38.4423 231.195 37.5008C230.789 36.5593 230.157 35.7329 229.355 35.0954C227.03 33.7873 224.37 33.1966 221.711 33.3977C217.358 33.3273 213.064 34.402 209.257 36.5142L207.282 28.6765C211.956 26.0999 217.237 24.8306 222.57 25.0019C228.767 25.0019 233.545 26.2888 236.907 28.8626C238.455 30.1376 239.721 31.7218 240.624 33.514C241.651 35.6269 242.153 37.9564 242.088 40.305V69.8649H233.747ZM220.828 62.5854C222.916 62.562 224.973 62.0692 226.846 61.1434C228.759 60.258 230.421 58.9067 231.679 57.213V48.6311H229.866C226.006 48.3749 222.141 49.053 218.597 50.608C217.466 51.2145 216.533 52.1326 215.907 53.2537C215.281 54.3748 214.989 55.6519 215.065 56.9339C214.977 57.5909 215.02 58.2589 215.191 58.8993C215.362 59.5397 215.658 60.1398 216.062 60.6651C216.466 61.1905 216.97 61.6307 217.545 61.9602C218.119 62.2898 218.753 62.5022 219.41 62.5854C219.873 62.6555 220.342 62.6555 220.805 62.5854H220.828Z" fill="white"/>
<path id="Vector_6" d="M271.829 71.0039C269.025 71.0315 266.252 70.4191 263.72 69.2131C261.299 68.0501 259.159 66.3759 257.447 64.3058C255.653 62.1247 254.289 59.623 253.427 56.9334C252.457 53.929 251.979 50.7876 252.009 47.6305C252.007 44.7442 252.406 41.8715 253.194 39.0951C253.917 36.4696 255.149 34.012 256.819 31.8622C258.545 29.6119 260.781 27.8054 263.343 26.5921C265.904 25.3788 268.718 24.7936 271.55 24.8851C274.328 24.8369 277.086 25.3511 279.659 26.3968C281.908 27.2955 283.891 28.7521 285.422 30.6296V0H295.692V69.7712H287.397L286.63 63.8174H286.258C284.513 65.7669 282.494 67.4514 280.264 68.8177C277.716 70.3315 274.791 71.0897 271.829 71.0039ZM273.154 63.1662C274.236 63.1676 275.314 63.0268 276.36 62.7476C278.696 62.1493 280.902 61.1242 282.866 59.7242C283.845 59.0271 284.708 58.1794 285.422 57.2124V39.0951C283.913 37.0642 281.936 35.4285 279.659 34.3275C277.879 33.5118 275.948 33.0761 273.99 33.0483C272.266 32.9788 270.553 33.3503 269.012 34.1275C267.471 34.9047 266.154 36.0621 265.184 37.4904C264.183 38.9394 263.443 40.5532 263 42.2581C262.537 44.0904 262.302 45.9731 262.303 47.863C262.298 49.7582 262.517 51.6472 262.953 53.4913C263.347 55.2253 264.022 56.883 264.951 58.3985C265.791 59.8006 266.955 60.9809 268.344 61.8406C269.81 62.7599 271.517 63.2214 273.246 63.1662H273.154Z" fill="white"/>
<path id="Vector_7" d="M328.43 25.0006C333.083 24.704 337.672 26.202 341.256 29.1868C342.807 30.7303 344.013 32.5858 344.794 34.6305C345.575 36.6752 345.913 38.8625 345.787 41.048C345.792 41.8254 345.745 42.6024 345.647 43.3737C345.594 44.1585 345.469 44.9369 345.276 45.6994C345.142 46.3897 344.948 47.0668 344.695 47.7227C344.51 48.2324 344.276 48.723 343.998 49.188H316.534C316.648 51.0014 317 52.7919 317.579 54.5139C318.088 56.1197 318.927 57.6012 320.042 58.8629C321.126 60.1007 322.455 61.0988 323.946 61.7933C325.645 62.5602 327.496 62.9338 329.36 62.8864C331.886 62.8559 334.391 62.408 336.772 61.5608C339.136 60.7918 341.375 59.679 343.417 58.2582L345.113 66.0029C344.3 66.4913 343.301 67.0494 342.116 67.6541C340.795 68.2861 339.437 68.8375 338.05 69.3054C336.457 69.8193 334.835 70.2386 333.193 70.5613C331.402 70.9142 329.582 71.0934 327.756 71.0962C324.564 71.1413 321.398 70.5154 318.462 69.2589C315.855 68.1006 313.531 66.3861 311.654 64.2353C309.814 62.0937 308.409 59.6131 307.518 56.9326C305.59 51.2546 305.59 45.098 307.518 39.42C308.448 36.6802 309.909 34.151 311.817 31.9777C313.748 29.8105 316.127 28.0886 318.788 26.9309C321.827 25.6062 325.115 24.948 328.43 25.0006ZM328.151 33.1173C325.691 33.0527 323.291 33.8785 321.39 35.443C319.478 37.1041 318.089 39.2857 317.393 41.7224H335.401C335.472 41.5113 335.518 41.2929 335.54 41.0712C335.563 40.7538 335.563 40.4351 335.54 40.1177C335.565 39.1857 335.393 38.2589 335.037 37.3975C334.681 36.5361 334.148 35.7593 333.472 35.1174C332.027 33.7845 330.116 33.0744 328.151 33.1405V33.1173Z" fill="white"/>
<path id="Vector_8" d="M384.45 69.8628V41.2798C384.45 36.1167 382.406 33.5352 378.316 33.5352C377.21 33.5563 376.113 33.7444 375.063 34.0933C372.565 34.9211 370.345 36.4266 368.65 38.4424C367.748 39.5124 367.09 40.7663 366.722 42.117V70.0255H356.359V26.4417H364.468L364.933 32.8607H365.304C366.53 30.2352 368.657 28.1384 371.299 26.9534C374.056 25.6385 377.075 24.9704 380.129 24.9998C382.913 24.9695 385.668 25.5656 388.191 26.7441C390.683 27.995 392.615 30.1362 393.605 32.7444C394.843 30.1665 396.949 28.1079 399.553 26.9301C404.054 24.8302 409.161 24.4256 413.936 25.7905C415.737 26.3072 417.391 27.2391 418.767 28.5113C420.143 29.7835 421.202 31.3607 421.859 33.1165C422.705 35.4073 423.107 37.8383 423.044 40.2797V69.8395H412.658V41.2798C412.658 36.1167 410.613 33.5352 406.524 33.5352C405.418 33.5563 404.321 33.7444 403.271 34.0933C402.071 34.4874 400.929 35.0429 399.879 35.7446C398.761 36.5111 397.746 37.4177 396.858 38.4424C395.956 39.5124 395.298 40.7663 394.929 42.117V70.0255L384.45 69.8628Z" fill="white"/>
<path id="Vector_9" d="M453.413 57.3055L465.495 26.4432H475.393L457.479 70.2364C456.427 72.787 455.208 75.2654 453.831 77.6555C452.295 80.4267 450.464 83.0233 448.37 85.4C446.3 87.7793 443.898 89.8472 441.237 91.5399C438.683 93.1894 435.703 94.0545 432.663 94.0284H431.525C431.235 93.9975 430.953 93.9189 430.688 93.7958L428.899 85.6791L429.55 85.8652C430.083 85.9114 430.62 85.9114 431.153 85.8652C432.34 85.8693 433.525 85.7445 434.685 85.4931C435.946 85.2139 437.144 84.7011 438.217 83.9813C440.607 82.4275 442.622 80.3623 444.118 77.9345C446.025 74.9115 447.651 71.7197 448.975 68.3991L427.389 26.3967H438.217L453.413 57.3055Z" fill="white"/>
</g>
</svg>
