<svg width="193" height="231" viewBox="0 0 193 231" fill="none" xmlns="http://www.w3.org/2000/svg">
<g id="reg&#195;&#173;strate_icon">
<path id="circle8" opacity="0.6" d="M36 170C45.3888 170 53 162.837 53 154C53 145.163 45.3888 138 36 138C26.6112 138 19 145.163 19 154C19 162.837 26.6112 170 36 170Z" fill="#DFEC6E"/>
<path id="circle7" opacity="0.6" d="M7 129C10.866 129 14 126.09 14 122.5C14 118.91 10.866 116 7 116C3.13401 116 0 118.91 0 122.5C0 126.09 3.13401 129 7 129Z" fill="#DFEC6E"/>
<path id="circle6" opacity="0.6" d="M11.5 217C15.0899 217 18 213.866 18 210C18 206.134 15.0899 203 11.5 203C7.91015 203 5 206.134 5 210C5 213.866 7.91015 217 11.5 217Z" fill="#585490"/>
<path id="circle5" opacity="0.6" d="M168 134C177.389 134 185 126.837 185 118C185 109.163 177.389 102 168 102C158.611 102 151 109.163 151 118C151 126.837 158.611 134 168 134Z" fill="#DFEC6E"/>
<path id="circle4" opacity="0.6" d="M103 231C136.689 231 164 205.48 164 174C164 142.52 136.689 117 103 117C69.3106 117 42 142.52 42 174C42 205.48 69.3106 231 103 231Z" fill="#585490"/>
<path id="circle3" opacity="0.6" d="M116.5 26C122.851 26 128 20.6274 128 14C128 7.37258 122.851 2 116.5 2C110.149 2 105 7.37258 105 14C105 20.6274 110.149 26 116.5 26Z" fill="#585490"/>
<path id="circle2" opacity="0.6" d="M189 166C191.209 166 193 164.433 193 162.5C193 160.567 191.209 159 189 159C186.791 159 185 160.567 185 162.5C185 164.433 186.791 166 189 166Z" fill="#585490"/>
<path id="circle1" opacity="0.6" d="M22 35C24.2091 35 26 33.2091 26 31C26 28.7909 24.2091 27 22 27C19.7909 27 18 28.7909 18 31C18 33.2091 19.7909 35 22 35Z" fill="#DFEC6E"/>
<g id="xolo">
<g id="layer101">
<path id="Vector" d="M40.9324 106.021C40.5551 111.549 40.894 117.1 41.9419 122.554C45.3886 142.561 50.4578 152.512 64.8504 167.635C68.3188 171.277 70.6623 173.89 72.2342 176.456C74.9094 179.309 74.2172 186.741 77.4476 189.287C87.1388 196.918 95.2653 199.21 106.608 199.591C113.705 199.912 120.798 198.899 127.461 196.611C131.355 195.04 133.417 193.537 136.417 190.75C136.943 190.262 137.326 186.132 137.47 183.921C137.576 181.861 138.107 179.84 139.034 177.966C139.943 176.369 144.406 171.11 148.964 166.225C164.265 149.699 170.351 134.689 170.855 112.035C171.057 100.674 171.461 97.7608 173.386 93.25C175.55 88.365 175.723 86.2065 175.723 73.2421C175.723 61.1264 175.312 57.2037 173.386 49.7659C168.627 31.8229 160.825 14.1673 153.73 4.99196C147.745 -2.80672 144.406 -1.11601 139.943 11.6746C137.21 19.6604 131.333 42.5753 128.593 56.3817C127.872 59.7631 127.274 62.5832 127.151 62.7703C127.029 62.9575 125.709 62.7703 124.216 62.3961C121.678 61.8348 121.678 61.6477 122.291 56.482C123.2 47.6475 119.854 44.6469 113.472 48.8704L110.74 50.6547L110.018 44.7405C108.728 32.6716 104.574 24.4252 99.8297 24.4252C97.0896 24.4252 95.6691 25.8352 94.7822 29.7713C94.3784 31.8363 93.4626 32.8721 91.9411 33.0592C88.6026 33.527 87.7878 38.3184 89.1073 50.7148C89.9149 59.0748 89.9149 61.6142 88.9054 62.1756C86.2663 63.7727 85.2568 62.7369 84.1391 57.5712C75.1185 15.7778 69.7177 0 64.7855 0C62.6583 0 57.2863 6.19484 53.4358 12.9577C37.6227 40.8512 31.4431 77.5791 39.6489 94.767C41.2352 98.135 41.4227 100.106 40.9324 106.021Z" fill="#15203D"/>
</g>
<g id="layer102">
<path id="Vector_2" d="M66.7758 165.476C71.744 171.016 76.4021 177.124 77.2097 179.096C77.8766 181.192 78.2665 183.355 78.3707 185.538L78.5004 185.698C79.1638 186.366 79.7335 187.122 80.3969 187.776C80.779 188.151 81.1901 188.485 81.5794 188.852L81.7236 188.966L82.9351 189.728C83.7499 190.202 84.5863 190.65 85.43 191.064C87.2038 191.987 88.9921 192.889 90.8236 193.737L91.7177 194.125C92.1792 194.285 92.994 194.586 93.232 194.66C95.0996 195.254 96.996 195.582 98.9068 195.996L99.1664 196.03C100.089 196.116 101.02 196.183 101.943 196.25C105.468 196.508 109.007 196.593 112.542 196.504C114.302 196.451 116.061 196.344 117.813 196.17C118.722 195.989 119.652 195.869 120.561 195.689C122.105 195.344 123.625 194.909 125.111 194.386C125.552 194.235 125.976 194.047 126.38 193.824C127.101 193.43 126.87 193.577 126.38 193.824L125.486 194.346C126.149 193.958 126.928 193.711 127.649 193.37C128.485 192.956 129.307 192.521 130.115 192.033C130.382 191.88 131.377 191.198 131.636 191.051L132.653 190.229C132.956 189.975 133.244 189.714 133.547 189.454C134.052 178.02 136.143 175.661 146.007 165.069C158.266 151.917 163.839 141.399 166.681 126.182C170.127 108.059 168.303 97.7274 159.686 86.0862C151.682 75.2803 138.4 67.5819 123.503 65.2363C119.854 64.568 119.854 64.6682 118.643 68.8048C116.919 74.3448 111.951 82.3306 109.42 83.5468C107.091 84.6762 107.394 85.144 104.856 76.5033C102.829 69.9275 101.618 68.4306 96.1451 66.1718C92.2946 64.4811 91.6817 64.4811 84.9973 65.9847C73.6476 68.5242 67.158 71.9056 59.154 79.2298C51.1501 86.554 46.2829 94.5999 44.3576 103.648C43.0381 109.756 44.2567 122.527 47.1914 133.052C49.7512 142.749 57.0485 154.677 66.7758 165.476ZM121.397 86.6743L126.163 82.1635L126.466 86.1731C126.668 88.8929 127.187 90.1159 127.988 89.7416C139.136 85.1373 142.481 84.2953 147.139 84.6695C156.16 85.5115 162.751 94.2524 158.677 99.9795C157.234 101.951 156.247 102.325 152.187 102.325C148.687 102.435 145.215 102.94 141.847 103.829L136.475 105.332L140.433 107.304C144.89 109.649 148.942 115.944 148.942 120.549C148.942 124.772 145.193 131.161 141.443 133.319C131.716 138.859 119.551 131.629 119.551 120.362C119.551 118.103 120.272 115.016 121.174 113.505C122.616 110.872 122.616 110.404 121.174 108.994C118.441 106.275 116.515 100.634 116.515 95.7494C116.537 91.4658 116.84 90.8109 121.397 86.6743ZM60.1059 85.8323C64.1583 83.8275 71.643 84.4957 79.2648 87.6165L85.0334 89.9622L85.6391 86.3001C86.2448 83.0122 86.5548 82.7315 88.271 83.6671C89.3887 84.1416 91.6168 86.3936 93.3185 88.5521C96.1595 92.0271 96.3614 93.0629 95.9576 97.2864C95.4457 102.171 91.898 109.877 90.189 109.877C89.6843 109.877 90.189 111.661 91.2058 113.886C92.2225 116.111 93.232 119.052 93.232 120.569C93.232 124.792 89.4824 131.181 85.7328 133.339C75.9046 138.879 63.841 131.649 63.841 120.101C63.841 115.029 66.6821 110.518 71.8521 107.324L75.1907 105.165L72.3569 104.129C70.7345 103.568 66.4802 102.913 62.8315 102.626C55.0295 102.064 52.6932 100.467 52.6932 95.9432C52.686 92.1207 55.7289 87.8037 60.0842 85.8323H60.1059Z" fill="#1C2540"/>
<path id="Vector_3" d="M72.8544 132.016C64.7496 127.793 63.8338 116.051 71.0301 110.324C76.5031 106.094 85.4516 107.878 88.7685 113.799C91.4005 118.477 90.29 126.196 86.4323 129.671C82.7836 133.072 76.9069 134.108 72.8544 132.016ZM80.0652 129.109C80.0267 128.715 79.8267 128.349 79.5062 128.086C79.1857 127.824 78.7691 127.686 78.3418 127.699C75.8108 127.699 72.9698 124.879 72.9698 122.353C72.9698 121.017 72.3641 120.195 71.4483 120.195C69.725 120.195 69.5231 121.037 70.9436 124.324C72.8544 129.223 80.0508 132.979 80.0508 129.129L80.0652 129.109ZM81.0819 120.769C81.0819 118.704 79.3585 116.446 77.8371 116.446C77.4333 116.446 76.6184 117.294 76.0127 118.45C74.3903 121.077 77.4549 125.681 79.6614 123.897C80.1135 123.491 80.4724 123.005 80.7165 122.468C80.9606 121.93 81.0849 121.352 81.0819 120.769ZM86.1294 121.144C86.1294 114.006 82.077 109.877 76.4021 111.186C72.6525 112.129 73.4601 113.539 77.4188 112.971C80.3536 112.596 81.1684 112.877 82.5817 114.975C83.8003 116.76 84.2041 118.544 83.8003 121.17C83.3965 123.99 83.5984 124.926 84.7161 124.926C85.7256 124.899 86.1294 123.777 86.1294 121.144Z" fill="#1C2540"/>
<path id="Vector_4" d="M81.5723 105.085C73.6404 101.891 62.3124 99.1641 59.6805 99.8257C59.0918 99.9841 58.4711 100.011 57.8691 99.9047C57.267 99.7983 56.7006 99.5615 56.2162 99.2135C55.7317 98.8656 55.3429 98.4163 55.0816 97.9025C54.8202 97.3887 54.6937 96.8249 54.7123 96.2572C54.7123 92.9693 60.2862 87.5229 64.2449 86.8613C67.7853 86.193 78.1255 88.9263 83.8004 92.027L87.0452 93.8113L87.7663 90.617C88.5811 86.6742 90.4054 87.142 92.7345 91.9535C94.1766 94.9607 94.2559 96.1837 93.2392 99.4715C91.7971 104.256 90.0954 108.019 89.2878 107.918C88.9705 107.898 85.5237 106.622 81.5723 105.085Z" fill="#1C2540"/>
<path id="Vector_5" d="M128.673 131.756C124.116 129.597 120.972 123.021 121.988 117.762C123.099 112.69 128.37 107.999 133.136 107.999C141.342 107.999 145.906 112.677 145.906 121.144C145.906 125.153 145.394 126.309 142.662 129.163C138.53 133.259 133.764 134.202 128.673 131.756ZM135.768 129.129C135.768 128.374 134.86 127.719 133.843 127.719C131.615 127.719 128.673 124.431 128.673 121.899C128.687 121.689 128.657 121.478 128.583 121.279C128.509 121.08 128.393 120.897 128.243 120.739C128.092 120.582 127.909 120.454 127.704 120.363C127.499 120.272 127.277 120.219 127.05 120.208C125.94 120.208 125.608 120.676 126.041 121.705C126.366 122.554 126.57 123.44 126.647 124.338C126.647 126.216 131.694 130.539 133.857 130.539C134.315 130.588 134.775 130.468 135.137 130.204C135.499 129.939 135.734 129.553 135.79 129.129H135.768ZM136.785 121.11C136.785 116.506 133.742 114.815 131.737 118.39C130.115 121.017 133.179 125.621 135.386 123.837C136.217 123.143 136.727 122.178 136.807 121.144L136.785 121.11ZM141.832 121.11C141.832 113.973 137.78 109.843 132.105 111.153C128.356 112.095 129.17 113.505 133.122 112.937C136.057 112.563 136.871 112.844 138.285 114.942C139.503 116.726 139.907 118.511 139.503 121.137C139.1 123.957 139.301 124.893 140.419 124.893C141.465 124.899 141.868 123.777 141.868 121.144L141.832 121.11Z" fill="#1C2540"/>
<path id="Vector_6" d="M121.094 104.517C118.26 99.0706 118.051 93.9984 120.489 90.4299C123.221 86.4203 124.642 86.4871 124.642 90.617C124.642 92.4013 124.844 93.9049 125.046 93.9049C126.676 93.2324 128.267 92.4807 129.812 91.6528C133.159 90.0071 136.695 88.7159 140.354 87.8036C145.928 86.3936 146.938 86.3936 150.283 87.6165C153.73 89.0199 158.085 93.9049 158.085 96.4443C158.085 98.2286 154.941 100.668 153.319 100.106C150.182 98.977 138.119 102.078 124.036 107.618C123.423 107.898 122.111 106.495 121.094 104.517Z" fill="#1C2540"/>
<path id="Vector_7" d="M42.6559 94.7536C39.9158 87.9105 39.1082 83.2327 39.2092 72.7743C39.3101 59.7163 40.9325 51.2694 46.7083 35.3914C50.8617 23.7502 59.3776 7.12368 60.7981 7.99242C62.2186 8.86117 66.6604 22.3401 68.8237 31.9164C70.648 40.37 73.9938 62.2557 73.9938 65.5436C73.9938 66.4792 71.6575 68.357 68.8237 69.9542C61.9302 73.7165 50.9843 84.6093 46.9319 91.5593C43.7664 97.0992 43.6654 97.0992 42.6559 94.7536Z" fill="#1C2540"/>
<path id="Vector_8" d="M165.282 91.252C160.393 83.1952 153.517 76.3252 145.214 71.2039L138.631 67.1943L139.352 59.1751C140.671 43.3973 145.842 20.008 149.995 10.806L151.704 7.05029L154.437 11.1802C160.825 20.4825 168.728 41.1453 171.743 56.2615C173.668 66.2855 173.668 81.6557 171.743 88.6658C169.233 97.5671 168.93 97.6607 165.282 91.252Z" fill="#1C2540"/>
<path id="Vector_9" d="M108.223 81.1345C107.478 79.2652 106.869 77.3519 106.399 75.4074C105.086 70.0613 100.522 65.3834 95.7558 64.2273C94.3136 63.9466 93.2248 63.1915 93.2248 62.5366C93.2248 61.8817 92.72 56.716 92.1143 50.7951C91.5086 44.8743 91.2995 39.0537 91.7033 37.7439C92.3162 35.3916 92.4244 35.3916 94.7462 39.0804L97.1763 42.7492L97.2772 36.1734C97.2772 28.5619 98.2939 26.3098 101.027 27.8134C103.76 29.317 106.074 36.9219 107.516 48.0084L108.836 57.7718L112.989 53.6419C118.758 48.0084 120.085 48.9641 119.068 57.6515C118.548 61.8802 117.634 66.0592 116.335 70.1415C114.302 75.9688 109.24 82.8252 108.223 81.1345Z" fill="#1C2540"/>
<path id="Vector_10" d="M75.4936 61.3135C72.7535 38.8664 68.8021 21.2175 64.2449 10.8794C62.4206 6.74949 62.0817 5.05877 62.9253 4.02296C64.7496 2.05157 65.4563 2.51936 67.6844 7.31083C71.9459 16.5129 83.1947 63.2916 81.3848 64.7818C80.4785 65.4136 79.4433 65.8683 78.3419 66.1183C76.3012 66.6663 76.0993 66.3857 75.4936 61.3135Z" fill="#1C2540"/>
<path id="Vector_11" d="M132.545 65.45L129.913 64.3207L133.764 46.9457C138.09 27.2251 142.171 12.7572 145.012 6.65587C146.837 2.70641 147.039 2.61285 148.863 4.11645C150.687 5.62006 150.788 5.90073 148.358 10.7991C146.916 13.5257 144.81 19.7205 143.491 24.6055C141.061 33.4333 136.806 58.4199 136.806 63.7727C136.806 66.9536 136.496 67.1408 132.545 65.45Z" fill="#1C2540"/>
</g>
<g id="layer103">
<path id="Vector_12" d="M67.6845 166.131C75.1404 174.117 77.4767 177.138 78.1978 185.297L78.5295 185.698C79.1928 186.366 79.7625 187.122 80.4259 187.776C80.808 188.151 81.2191 188.485 81.6084 188.852L81.7527 188.966L82.9641 189.728C83.7789 190.202 84.6153 190.65 85.459 191.064C87.2328 191.987 89.0211 192.889 90.8526 193.737L91.7467 194.125C92.2082 194.285 93.023 194.586 93.261 194.66C95.1286 195.254 97.025 195.582 98.9358 195.996L99.1954 196.03C100.118 196.116 101.049 196.183 101.972 196.25C105.497 196.508 109.036 196.593 112.571 196.504C114.331 196.451 116.09 196.344 117.842 196.17C118.751 195.99 119.681 195.869 120.59 195.689C122.134 195.344 123.654 194.909 125.14 194.386C125.581 194.235 126.005 194.047 126.409 193.824C127.13 193.43 126.899 193.577 126.409 193.824L125.515 194.346C126.178 193.958 126.957 193.711 127.678 193.37C128.514 192.956 129.336 192.521 130.144 192.033C130.411 191.88 131.406 191.198 131.665 191.051L132.682 190.229C133.057 189.915 133.403 189.561 133.8 189.267C133.98 183.092 135.047 178.574 135.999 176.904C136.951 175.233 141.674 169.553 146.44 164.207C161.943 146.925 168.938 129.083 168.022 108.888C167.517 97.1461 163.969 90.1025 153.838 80.152C146.036 72.5472 139.244 68.8851 128.096 66.2521C120.395 64.3742 119.58 64.3742 119.58 66.1585C119.58 69.3528 115.023 78.3678 111.778 81.7492C107.827 85.7588 106.406 86.26 106.406 83.627C106.406 82.6915 105.498 79.1229 104.38 75.835C102.556 70.2015 102.051 69.54 97.2846 67.1943C91.516 64.2807 89.2807 64.3743 77.5272 68.2235C65.3554 72.3066 54.6115 81.3215 48.6338 92.6887C43.9756 101.423 42.9589 108.059 44.4804 118.611C47.6242 139.835 52.5852 149.979 67.6845 166.131ZM117.951 89.7751C120.388 85.8323 124.036 82.638 125.882 82.638C126.387 82.638 126.69 83.5736 126.69 84.7965C126.69 89.0199 127.909 89.3073 134.29 86.8614C145.236 82.7315 154.862 84.3287 158.612 90.998C162.16 97.4735 159.528 102.359 152.432 102.359C149.237 102.503 146.072 103.008 143.008 103.862L137.715 105.286L140.96 107.351C146.729 111.013 148.459 114.033 148.459 120.716C148.459 127.104 146.837 130.199 141.768 133.486C134.881 138.091 125.349 135.364 120.993 127.572C119.371 124.565 119.068 116.212 120.691 113.579C121.498 112.169 121.195 110.665 119.169 106.816C115.117 98.9771 114.814 94.7537 117.951 89.7751ZM57.3804 87.3292C60.3151 84.9836 61.7068 84.5158 65.99 84.5158C70.2732 84.5158 75.9264 85.8524 83.4255 88.7393C84.7451 89.3073 85.1489 88.9264 85.1489 87.2357C85.1834 85.9601 85.5285 84.7082 86.1584 83.5736C87.0742 82.4509 87.9827 82.9053 91.7323 86.6743C95.8929 90.8109 96.2967 91.7465 96.2967 95.8764C96.2967 100.668 94.2705 106.308 91.6314 109.028C90.319 110.364 90.42 110.906 91.7323 113.913C94.5734 120.302 93.0519 127.906 88.0837 132.137C82.9208 136.36 74.1021 136.454 69.2348 132.324C65.3843 128.942 63.8628 125.467 63.8628 120.014C63.8628 114.194 66.3001 109.783 71.1601 107.056L74.4049 105.272L71.362 104.143C69.7396 103.581 65.2833 102.806 61.3319 102.546C54.8422 101.984 54.1211 101.704 52.9169 99.2578C51.0638 95.6893 52.7871 91.0916 57.3515 87.3292H57.3804Z" fill="#342E3B"/>
<path id="Vector_13" d="M73.2584 131.849C68.8021 129.784 65.3266 123.302 66.3721 118.611C68.3983 108.654 78.3275 104.805 85.7257 111.093C92.4173 116.733 91.4006 127.131 83.8004 131.475C79.849 133.727 77.5199 133.827 73.2584 131.849ZM80.0509 129.129C80.0509 128.374 79.1423 127.719 78.1256 127.719C75.8975 127.719 72.9555 124.432 72.9555 121.899C72.988 121.489 72.8474 121.084 72.5636 120.768C72.2797 120.453 71.8747 120.252 71.434 120.208C70.6264 120.208 69.9198 120.676 69.9198 121.144C69.9198 123.302 72.8546 128.561 74.6789 129.504C77.318 130.914 80.0509 130.727 80.0509 129.129ZM81.0676 121.11C81.0676 116.606 78.0247 114.815 76.0201 118.197C75.0034 120.081 75.6163 122.988 77.4622 124.117C78.8323 124.993 81.082 123.209 81.082 121.144L81.0676 121.11ZM86.1151 121.11C86.1151 114.16 82.0627 109.937 76.3878 110.966C75.9044 111.044 75.4489 111.231 75.0606 111.509C74.6724 111.787 74.3632 112.149 74.1597 112.563C73.8569 113.505 74.4626 113.692 76.7916 113.231C81.6589 112.196 85.2065 116.987 83.6851 122.527C83.1803 124.218 83.4832 124.873 84.5936 124.873C85.7041 124.873 86.1295 123.87 86.1295 121.144L86.1151 121.11Z" fill="#342E3B"/>
<path id="Vector_14" d="M79.5462 103.581C73.8714 101.517 67.7855 100.013 63.3293 99.6387C56.3349 99.0707 56.2339 99.0707 55.9311 96.1637C55.7292 93.8114 56.3349 92.6887 59.3778 90.1493C62.8245 87.3292 63.5312 87.1421 68.1965 87.6166C72.3499 88.0843 77.3181 89.8686 87.4492 94.6601C87.853 94.8472 88.1702 93.7178 88.1702 92.1207C88.1702 88.6457 89.4898 88.365 91.617 91.2787C93.4413 93.7178 93.6432 95.8763 92.2299 100.481C90.182 107.15 89.7782 107.244 79.5462 103.581Z" fill="#342E3B"/>
<path id="Vector_15" d="M130.721 132.684C125.248 130.807 120.892 123.382 122.212 118.123C124.44 108.547 134.268 104.978 141.465 111.079C148.156 116.72 147.14 127.118 139.539 131.462C136.295 133.353 133.663 133.727 130.721 132.684ZM135.768 129.116C135.768 128.361 134.86 127.706 133.843 127.706C131.615 127.706 128.673 124.418 128.673 121.885C128.705 121.476 128.565 121.07 128.281 120.755C127.997 120.439 127.592 120.239 127.151 120.195C126.344 120.195 125.637 120.662 125.637 121.13C125.637 123.289 128.572 128.548 130.396 129.49C133.057 130.914 135.79 130.726 135.79 129.129L135.768 129.116ZM136.785 121.097C136.785 116.593 133.742 114.802 131.737 118.183C130.721 120.068 131.334 122.975 133.18 124.104C134.571 124.993 136.807 123.208 136.807 121.144L136.785 121.097ZM141.832 121.097C141.832 114.147 137.78 109.923 132.105 110.952C131.622 111.031 131.166 111.217 130.778 111.496C130.39 111.774 130.081 112.136 129.877 112.55C129.574 113.398 130.079 113.585 131.6 113.118C136.561 111.708 140.722 116.305 139.402 122.039C138.999 124.104 139.201 124.852 140.318 124.852C141.436 124.852 141.869 123.87 141.869 121.144L141.832 121.097Z" fill="#342E3B"/>
<path id="Vector_16" d="M121.195 103.281C119.068 98.3022 119.169 93.0429 121.498 90.2229L123.323 87.9708L124.044 91.3522L124.765 94.7337L130.742 91.9136C139.157 87.9708 147.262 86.4672 150.709 88.2515C154.761 90.41 157.501 94.2659 156.687 96.9857C156.182 99.0507 155.475 99.3313 149.288 99.7122C144.731 100.086 139.157 101.403 132.87 103.655C127.707 105.533 123.344 107.036 123.142 107.036C122.94 107.036 122.111 105.366 121.195 103.281Z" fill="#342E3B"/>
<path id="Vector_17" d="M108.122 81.0409C107.92 80.6666 107.113 78.0337 106.399 75.4074C105.087 70.0612 100.522 65.3834 95.7559 64.2273C94.3138 63.9466 93.225 63.1915 93.225 62.5366C93.225 61.8816 92.7202 56.6224 92.2155 50.7015C91.6025 44.7874 91.4006 38.8665 91.7035 37.6503C92.3164 35.3915 92.4246 35.4851 94.6455 38.9868L97.0755 42.6489L97.3783 35.4183C97.8903 27.7198 98.496 26.3098 101.128 27.8134C103.464 29.2234 106.298 38.2383 107.618 48.8504L108.728 57.8386L112.99 53.6152C119.674 47.0394 121.094 49.766 117.951 63.5724C115.823 73.2422 109.846 83.8543 108.122 81.0409Z" fill="#342E3B"/>
</g>
<g id="layer104">
<path id="Vector_18" d="M64.9516 162.937C67.2807 164.821 67.3816 164.821 65.8601 162.937C64.9516 161.814 65.7592 162.188 67.8864 163.786C85.8267 177.498 121.808 178.34 142.07 165.383L147.745 161.721L141.768 168.403C138.53 171.972 135.79 175.353 135.79 175.754C135.79 177.258 120.59 184.863 113.393 186.928C106.197 188.993 106.096 189.093 100.522 187.402C92.4173 185.103 81.1685 179.463 77.8228 176.122C76.3013 174.618 73.1574 171.444 70.8283 169.078L66.574 164.855L70.4245 168.985C75.6595 174.631 77.5415 177.672 78.1617 185.324L78.5006 185.731C79.1639 186.4 79.7336 187.155 80.397 187.81C80.7792 188.184 81.1902 188.518 81.5795 188.886L81.7238 188.999L82.9352 189.761C83.75 190.236 84.5864 190.683 85.4301 191.098C87.2039 192.02 88.9922 192.922 90.8237 193.771L91.7178 194.158C92.1793 194.319 92.9941 194.619 93.2321 194.693C95.0997 195.288 96.9961 195.615 98.9069 196.029L99.1665 196.063C100.09 196.15 101.02 196.217 101.943 196.283C105.469 196.542 109.007 196.626 112.542 196.537C114.302 196.484 116.061 196.377 117.813 196.203C118.722 196.023 119.652 195.902 120.561 195.722C122.106 195.377 123.625 194.942 125.111 194.419C125.552 194.269 125.976 194.081 126.38 193.858C127.101 193.463 126.87 193.61 126.38 193.858L125.486 194.379C126.149 193.991 126.928 193.744 127.649 193.403C128.485 192.989 129.307 192.554 130.115 192.067C130.382 191.913 131.377 191.231 131.636 191.084L132.653 190.262C133.028 189.948 133.374 189.594 133.771 189.3C133.951 183.125 135.018 178.608 135.97 176.937C136.922 175.266 141.645 169.586 146.411 164.24C161.914 146.959 168.909 129.116 167.993 108.921C167.488 97.1793 163.941 90.1357 153.809 80.1852C146.007 72.5804 139.215 68.9183 128.067 66.2853C120.366 64.4075 119.551 64.4075 119.551 66.1917C119.551 69.386 114.994 78.401 111.749 81.7824C107.798 85.792 106.377 86.2932 106.377 83.6602C106.377 82.7247 105.469 79.1561 104.351 75.8682C102.527 70.2347 102.022 69.5732 97.2557 67.2275C91.4871 64.3139 89.2518 64.4074 77.4983 68.2567C61.1804 73.6028 47.4944 88.4517 44.3289 104.23C42.4036 113.625 45.8503 132.504 51.6261 144.245C54.9142 151.015 61.5049 160.217 64.9516 162.937ZM117.951 89.7749C120.388 85.8321 124.036 82.6378 125.882 82.6378C126.387 82.6378 126.69 83.5734 126.69 84.7963C126.69 89.0197 127.909 89.3071 134.29 86.8612C145.236 82.7313 154.862 84.3285 158.612 90.9978C162.16 97.4733 159.528 102.358 152.432 102.358C149.236 102.503 146.072 103.007 143.008 103.862L137.715 105.285L140.96 107.35C146.729 111.012 148.459 114.033 148.459 120.716C148.459 127.104 146.837 130.198 141.768 133.486C134.881 138.091 125.349 135.364 120.993 127.572C119.371 124.565 119.068 116.212 120.691 113.579C121.498 112.169 121.195 110.665 119.169 106.816C115.117 98.9769 114.814 94.7535 117.951 89.7749ZM110.35 146.05C111.165 144.265 111.165 144.265 111.872 146.237C112.256 147.235 112.291 148.32 111.973 149.338C111.064 150.674 109.442 150.46 109.543 149.144C109.665 148.084 109.936 147.044 110.35 146.05ZM101.539 147.928C101.943 149.525 101.64 150.273 100.724 150.273C99.8083 150.273 99.2819 149.431 99.2819 148.489C99.3035 145.655 101.027 145.281 101.539 147.914V147.928ZM57.3515 87.329C60.2862 84.9834 61.6779 84.5156 65.9611 84.5156C70.2443 84.5156 75.8975 85.8522 83.3967 88.7391C84.7162 89.3071 85.12 88.9262 85.12 87.2355C85.1545 85.9599 85.4996 84.708 86.1295 83.5734C87.0453 82.4507 87.9538 82.9051 91.7034 86.6741C95.864 90.8107 96.2678 91.7463 96.2678 95.8762C96.2678 100.668 94.2416 106.308 91.6025 109.028C90.2901 110.364 90.3911 110.906 91.7034 113.913C94.5444 120.301 93.023 127.906 88.0548 132.136C82.8919 136.36 74.0732 136.453 69.2059 132.323C65.3554 128.942 63.8339 125.467 63.8339 120.014C63.8339 114.193 66.2712 109.783 71.1312 107.056L74.376 105.272L71.3331 104.143C69.7107 103.581 65.2544 102.806 61.303 102.545C54.8133 101.984 54.0922 101.703 52.888 99.2576C51.0637 95.689 52.7871 91.0914 57.3515 87.329Z" fill="#303349"/>
<path id="Vector_19" d="M73.2584 131.849C68.8021 129.784 65.3266 123.302 66.3721 118.611C68.3983 108.653 78.3275 104.804 85.7257 111.093C92.4173 116.733 91.4005 127.131 83.8004 131.475C79.849 133.727 77.5199 133.827 73.2584 131.849ZM80.0509 129.129C80.0509 128.374 79.1423 127.719 78.1256 127.719C75.8975 127.719 72.9555 124.431 72.9555 121.899C72.988 121.489 72.8474 121.084 72.5636 120.768C72.2797 120.453 71.8747 120.252 71.434 120.208C70.6264 120.208 69.9198 120.676 69.9198 121.143C69.9198 123.302 72.8546 128.561 74.6789 129.503C77.318 130.913 80.0509 130.726 80.0509 129.129ZM79.9499 123.589C81.7742 121.584 80.9666 117.014 78.8322 116.639C76.3013 116.165 74.376 120.301 75.8975 122.928C77.318 125.28 78.3275 125.374 79.9499 123.589ZM86.1295 121.143C86.1295 114.193 82.0771 109.97 76.4022 110.999C75.9188 111.078 75.4633 111.264 75.075 111.542C74.6868 111.821 74.3776 112.182 74.1741 112.596C73.8713 113.539 74.477 113.726 76.7051 113.265C80.9666 112.322 83.5985 115.329 83.3966 120.776C83.2957 123.783 83.5985 124.906 84.7162 124.906C85.7257 124.899 86.1295 123.776 86.1295 121.143Z" fill="#303349"/>
<path id="Vector_20" d="M130.721 132.684C125.248 130.807 120.892 123.382 122.212 118.123C124.44 108.547 134.268 104.978 141.465 111.079C148.156 116.72 147.14 127.118 139.539 131.462C136.295 133.353 133.663 133.727 130.721 132.684ZM135.768 129.116C135.768 128.361 134.86 127.706 133.843 127.706C131.615 127.706 128.673 124.418 128.673 121.885C128.705 121.476 128.565 121.07 128.281 120.755C127.997 120.439 127.592 120.239 127.151 120.195C126.344 120.195 125.637 120.662 125.637 121.13C125.637 123.289 128.572 128.548 130.396 129.49C133.057 130.914 135.79 130.726 135.79 129.129L135.768 129.116ZM135.667 123.576C137.492 121.571 136.684 117 134.55 116.626C132.019 116.152 130.093 120.288 131.615 122.914C133.057 125.28 134.066 125.374 135.689 123.589L135.667 123.576ZM141.847 121.13C141.847 114.18 137.794 109.957 132.12 110.986C131.636 111.064 131.181 111.251 130.792 111.529C130.404 111.807 130.095 112.169 129.891 112.583C129.589 113.525 130.194 113.712 132.422 113.251C136.684 112.309 139.316 115.316 139.215 120.763C139.114 123.676 139.518 124.892 140.535 124.892C141.551 124.892 141.869 123.683 141.869 121.144L141.847 121.13Z" fill="#303349"/>
<path id="Vector_21" d="M42.2522 93.2567C35.9644 78.6016 38.8055 53.4347 49.6504 27.7665C53.9047 17.8093 59.2767 8.42017 60.6973 8.42017C61.9087 8.42017 66.4658 21.6585 68.8021 32.3709C70.5255 40.1629 73.9722 62.7971 73.9722 66.1785C73.9722 66.6463 71.809 68.1499 69.3069 69.3728C62.5216 72.7543 51.5757 83.3664 47.4151 90.597L43.8746 96.8921L42.2522 93.2567Z" fill="#303349"/>
<path id="Vector_22" d="M164.777 90.3364C161.229 84.1415 148.257 71.6249 142.683 69.2057C138.119 67.2009 138.119 66.8601 140.354 50.2336C142.986 31.5221 149.368 8.44019 151.891 8.44019C153.103 8.44019 159.29 19.6136 163.14 28.535C164.863 32.6716 167.697 40.938 169.421 46.8522C172.262 56.6223 172.565 59.2486 172.665 71.832C172.766 83.1926 172.464 86.8614 170.942 90.9044C169.925 93.5307 168.714 95.7827 168.411 95.7827C168.108 95.7827 166.399 93.3436 164.777 90.3364Z" fill="#303349"/>
<path id="Vector_23" d="M106.5 75.3069C104.373 68.7378 104.171 68.4571 98.7989 65.6371C95.7559 64.0399 93.225 62.2556 93.225 61.6943C93.225 61.1329 92.7202 55.9605 92.2155 50.2335C91.6026 44.6 91.4006 38.873 91.7035 37.65C92.3164 35.3913 92.4246 35.4848 94.6455 38.9866L97.0755 42.6487L97.3784 35.418C97.8903 27.7196 98.496 26.3095 101.128 27.8131C103.464 29.2232 106.298 38.2381 107.618 49.0373L108.728 58.0522L113.054 53.7352C116.501 50.1667 117.612 49.5051 118.628 50.5409C121.563 53.1739 116.09 74.1174 111.028 79.5637L108.692 82.0965L106.5 75.3069Z" fill="#303349"/>
<path id="Vector_24" d="M75.5947 60.3778C72.7537 37.8372 68.0955 16.9872 64.0575 9.65635C62.4423 6.84295 62.2332 5.64675 63.1489 4.77132C63.6681 4.26098 64.3376 3.90313 65.0742 3.74219C67.3023 3.74219 72.8762 22.0594 78.5511 47.7944C82.3007 64.7884 82.1997 65.6371 77.9454 65.7307C76.6042 65.7307 76.0994 64.4142 75.5947 60.3778Z" fill="#303349"/>
<path id="Vector_25" d="M131.838 64.8819C130.62 64.1334 130.923 61.6007 133.663 48.6363C139.842 19.9877 145.315 3.08718 148.156 4.02276C149.981 4.5841 149.599 6.9364 146.534 14.3542C143.188 22.4202 139.237 40.3698 137.614 54.644C136.295 66.1048 135.689 67.1406 131.838 64.8819Z" fill="#303349"/>
</g>
<g id="layer105">
<path id="Vector_26" d="M78.371 185.538L78.5007 185.698C79.1641 186.366 79.7338 187.122 80.3972 187.776C80.7793 188.151 81.1904 188.485 81.5797 188.852L81.7239 188.966L82.9353 189.728C83.7502 190.202 84.5866 190.65 85.4303 191.064C87.2041 191.987 88.9924 192.889 90.8239 193.737L91.718 194.125C92.1795 194.285 92.9943 194.586 93.2323 194.66C95.0999 195.254 96.9963 195.582 98.9071 195.996L99.1667 196.03C100.09 196.116 101.02 196.183 101.943 196.25C105.469 196.508 109.007 196.593 112.543 196.504C114.302 196.451 116.061 196.344 117.814 196.17C118.722 195.99 119.652 195.869 120.561 195.689C122.106 195.344 123.625 194.909 125.111 194.386C125.552 194.235 125.977 194.047 126.38 193.824C127.101 193.43 126.87 193.577 126.38 193.824L125.486 194.346C126.149 193.958 126.928 193.711 127.649 193.37C128.486 192.956 129.308 192.521 130.115 192.033C130.382 191.88 131.377 191.198 131.637 191.051L132.653 190.229L132.963 189.962C132.999 183.185 134.031 181.314 135.566 178.026L137.795 173.429L135.466 175.774C132.221 179.062 121.376 184.415 113.17 186.948C106.377 189.019 106.176 189.019 100.501 187.422C92.3958 185.07 81.248 179.53 77.1884 175.774L73.7489 172.58L76.1789 176.59C77.6282 179.183 78.1979 180.559 78.371 185.538Z" fill="#433D4B"/>
<path id="Vector_27" d="M88.5669 172.894C80.2529 170.829 72.7538 167.448 67.7856 163.692C65.4565 161.908 64.7499 161.627 65.7594 162.937C66.4804 163.973 65.4565 163.131 63.4303 161.059C53.804 151.396 47.8263 138.144 45.0862 121.05C43.644 112.409 43.5647 109.402 44.5814 104.343C46.2039 95.8898 51.7922 86.4071 59.2769 79.4571C66.7617 72.5071 72.8547 69.4331 83.3968 66.6798C91.0979 64.7084 91.1988 64.7084 95.4532 66.4927C101.33 68.9385 102.75 70.7228 104.878 78.4213C105.894 82.0834 106.904 85.1841 107.113 85.3712C107.315 85.6586 108.836 84.5292 110.552 83.0256C113.797 80.2055 119.573 70.255 119.573 67.4349C119.573 64.6149 121.095 64.7084 130.317 67.2478C140.859 70.0612 146.837 73.3491 153.73 80.112C167.106 93.1699 170.25 104.063 166.71 124.445C164.071 139.661 157.79 152.512 149.072 160.531C146.541 162.877 145.323 164.193 146.44 163.445C147.558 162.696 147.161 163.445 145.525 165.136C143.888 166.826 142.287 168.136 142.078 168.136C141.869 168.136 142.388 167.294 143.397 166.258C145.936 163.726 144.616 163.913 139.951 166.826C137.823 168.163 132.653 170.301 128.601 171.611C118.16 174.866 99.109 175.527 88.5669 172.894ZM101.943 148.756C101.641 147.999 101.435 147.212 101.33 146.411C101.33 145.849 100.926 145.743 100.32 146.037C98.698 146.972 99.1018 150.26 100.926 150.26C102.044 150.26 102.347 149.792 101.943 148.756ZM111.973 149.324C112.292 148.307 112.256 147.222 111.872 146.224C111.151 144.252 111.151 144.252 110.351 146.037C109.936 147.031 109.665 148.071 109.543 149.131C109.442 150.447 111.064 150.634 111.973 149.324ZM84.6082 134.295C89.9802 131.849 93.2611 126.777 93.2611 120.582C93.2611 118.043 92.6554 114.849 91.9415 113.539C90.7301 111.474 90.8311 110.812 92.8573 107.999C94.1769 106.308 95.6911 102.546 96.304 99.8259C97.3135 95.3151 97.2126 94.3795 95.2873 90.6171C93.0592 86.3001 89.0068 82.638 86.5768 82.638C85.8557 82.638 85.1346 83.9746 84.9543 85.8323L84.6443 89.02L78.5656 86.6744C66.7112 81.9965 56.5729 83.9545 53.1334 91.653C49.8885 98.8836 52.5205 102.546 61.1373 102.826C64.2193 102.98 67.276 103.428 70.2589 104.163L74.0085 105.386L70.7636 107.357C65.7954 110.364 62.4569 117.314 63.2645 122.48C64.0721 127.646 67.4178 132.25 71.9822 134.409C76.5466 136.567 79.4453 136.641 84.6082 134.295ZM140.354 134.295C150.99 129.504 152.108 113.819 142.172 107.524L138.631 105.366L142.482 104.236C145.486 103.436 148.581 102.963 151.704 102.826C158.194 102.639 160.516 100.949 160.516 96.2573C160.516 92.6888 158.086 89.02 153.629 86.0195C149.779 83.3865 142.172 83.5736 134.067 86.5808L127.887 88.9264L127.274 85.1708C126.668 81.6022 126.553 81.5087 124.339 82.8251C122.254 84.4929 120.353 86.3486 118.665 88.3651C115.521 92.1207 115.319 92.8759 115.823 97.4736C116.312 100.713 117.374 103.856 118.967 106.776C121.599 110.999 121.599 111.093 119.876 115.417C117.042 122.834 120.287 130.82 127.685 134.389C132.141 136.641 135.163 136.641 140.354 134.295Z" fill="#433D4B"/>
<path id="Vector_28" d="M130.721 132.685C129.164 131.901 127.732 130.92 126.467 129.771C116.941 121.598 123.936 106.195 136.093 108.387C144.306 109.797 148.661 120.502 143.895 127.546C141.061 131.756 134.982 134.108 130.721 132.685ZM135.768 129.116C135.768 128.361 134.86 127.706 133.843 127.706C131.615 127.706 128.673 124.418 128.673 121.886C128.706 121.476 128.565 121.071 128.281 120.755C127.997 120.44 127.592 120.239 127.152 120.195C126.344 120.195 125.637 120.663 125.637 121.13C125.637 123.289 128.572 128.548 130.396 129.49C133.057 130.914 135.79 130.727 135.79 129.13L135.768 129.116ZM135.667 123.576C137.492 121.571 136.684 117 134.55 116.626C132.019 116.152 130.094 120.288 131.615 122.915C133.057 125.28 134.067 125.374 135.689 123.59L135.667 123.576ZM141.847 120.288C141.847 113.993 139.013 110.612 133.915 110.986C131.99 111.173 130.166 111.835 129.863 112.583C129.56 113.525 130.166 113.713 132.394 113.252C136.655 112.309 139.287 115.316 139.186 120.763C139.085 123.676 139.489 124.893 140.506 124.893C141.523 124.893 141.869 123.496 141.869 120.302L141.847 120.288Z" fill="#433D4B"/>
<path id="Vector_29" d="M137.816 172.427C138.292 171.778 138.915 171.233 139.641 170.829C141.162 169.606 141.263 169.7 139.943 171.204C138.624 172.707 137.816 173.175 137.816 172.427Z" fill="#433D4B"/>
<path id="Vector_30" d="M70.8285 169.326L68.3985 166.699L71.2323 168.952C73.7705 171.11 74.4771 171.865 73.6695 171.865C73.4604 171.865 72.249 170.736 70.8285 169.326Z" fill="#433D4B"/>
<path id="Vector_31" d="M75.1839 55.2124C73.4605 41.3125 69.61 23.6501 66.2714 14.9159C63.2285 6.93678 62.8247 4.58448 64.548 4.02313C65.8604 3.55534 69.0043 10.8796 72.0472 21.7723C74.2753 29.9452 82.0773 64.1338 81.7745 64.4145C81.6735 64.6016 80.4549 64.8822 79.0344 65.2632L76.4025 65.8245L75.1839 55.2124Z" fill="#433D4B"/>
<path id="Vector_32" d="M131.94 64.8823C130.822 64.214 131.024 61.7882 133.259 51.5169C138.422 27.4593 144.796 5.40649 146.736 4.27043C147.072 4.15839 147.434 4.12539 147.787 4.17437C148.141 4.22335 148.476 4.35279 148.762 4.5511C149.57 5.02557 149.166 7.09052 147.039 12.1627C143.693 20.242 139.54 37.617 137.917 50.6682C135.884 66.6665 135.689 67.141 131.94 64.8823Z" fill="#433D4B"/>
</g>
<g id="layer106">
<path id="Vector_33" d="M74.9818 132.684C73.425 131.9 71.9932 130.92 70.7274 129.771C61.2021 121.598 68.1965 106.194 80.3538 108.386C88.5668 109.796 92.9221 120.502 88.1558 127.546C85.322 131.756 79.2433 134.108 74.9818 132.684ZM80.0293 129.116C80.0293 128.361 79.1207 127.706 78.104 127.706C75.8759 127.706 72.9339 124.418 72.9339 121.885C72.9664 121.476 72.8259 121.07 72.542 120.755C72.2581 120.439 71.8531 120.239 71.4125 120.195C70.6049 120.195 69.8982 120.662 69.8982 121.13C69.8982 123.289 72.833 128.548 74.6573 129.49C77.3181 130.914 80.0509 130.726 80.0509 129.129L80.0293 129.116ZM79.9283 123.576C81.7527 121.571 80.9451 117 78.8107 116.626C76.2797 116.152 74.3544 120.288 75.8759 122.914C77.3181 125.28 78.3276 125.374 79.95 123.589L79.9283 123.576ZM86.1079 120.288C86.1079 113.993 83.2741 110.612 78.1761 110.986C76.2509 111.173 74.4265 111.835 74.1237 112.583C73.8208 113.525 74.4266 113.712 76.6547 113.251C80.9162 112.309 83.5481 115.316 83.3462 120.763C83.2453 123.77 83.5481 124.892 84.6658 124.892C85.7258 124.899 86.1296 123.683 86.1296 120.301L86.1079 120.288Z" fill="#4B563D"/>
<path id="Vector_34" d="M130.721 132.684C129.164 131.9 127.732 130.92 126.466 129.771C116.941 121.598 123.935 106.194 136.093 108.386C144.306 109.796 148.661 120.502 143.895 127.546C141.061 131.756 134.982 134.108 130.721 132.684ZM135.768 129.116C135.712 128.693 135.479 128.308 135.118 128.044C134.758 127.78 134.3 127.659 133.843 127.706C131.514 127.706 130.093 126.202 129.185 122.727C128.464 120.382 125.637 119.065 125.637 121.13C125.637 123.195 128.572 128.548 130.396 129.49C133.057 130.914 135.79 130.726 135.79 129.129L135.768 129.116ZM135.667 123.576C137.492 121.571 136.684 117 134.55 116.626C132.019 116.152 130.093 120.288 131.615 122.914C133.057 125.28 134.067 125.374 135.689 123.589L135.667 123.576ZM141.847 120.288C141.847 113.993 139.013 110.612 133.915 110.986C131.99 111.173 130.166 111.835 129.863 112.583C129.56 113.525 130.166 113.712 132.394 113.251C136.655 112.309 139.287 115.316 139.085 120.763C138.984 123.77 139.287 124.892 140.405 124.892C141.465 124.899 141.869 123.683 141.869 120.301L141.847 120.288Z" fill="#4B563D"/>
<path id="Vector_35" d="M106.5 75.307C104.373 68.7379 104.171 68.4573 98.7988 65.6372C95.7559 64.04 93.2249 62.2557 93.2249 61.6944C93.2249 61.1331 92.7202 55.9607 92.2154 50.2336C91.6025 44.6001 91.4006 38.8731 91.7034 37.5365C92.4245 35.2778 92.4245 35.2778 94.5445 38.9399L96.7726 42.7023L97.2774 35.4649C97.8903 27.5794 98.1931 26.9178 100.623 27.7665C103.565 28.7956 106.702 38.8463 108.021 51.3429L108.742 58.1058L113.004 53.6886C116.552 50.12 117.662 49.4584 118.679 50.4942C121.614 53.1272 116.141 74.0707 111.079 79.5171L108.742 82.0498L106.5 75.307Z" fill="#4B563D"/>
</g>
<g id="layer107">
<path id="Vector_36" d="M78.3707 185.544L78.5005 185.698C79.1638 186.366 79.7335 187.122 80.3969 187.776C80.7791 188.151 81.1901 188.485 81.5794 188.852L81.7237 188.966L82.9351 189.728C83.7499 190.202 84.5863 190.65 85.43 191.064C87.2038 191.987 88.9921 192.889 90.8236 193.737L91.7177 194.125C92.1792 194.285 92.994 194.586 93.232 194.66C95.0996 195.254 96.996 195.582 98.9068 195.996L99.1664 196.03C100.089 196.116 101.02 196.183 101.943 196.25C105.468 196.508 109.007 196.593 112.542 196.504C114.302 196.451 116.061 196.344 117.813 196.17C118.722 195.989 119.652 195.869 120.561 195.689C122.105 195.344 123.625 194.909 125.111 194.386C125.552 194.235 125.976 194.047 126.38 193.824C127.101 193.43 126.87 193.577 126.38 193.824L125.486 194.346C126.149 193.958 126.928 193.711 127.649 193.37C128.485 192.956 129.307 192.521 130.115 192.033C130.382 191.88 131.377 191.198 131.636 191.051L132.653 190.229L132.747 190.149C132.95 185.978 133.833 181.859 135.364 177.933C136.085 176.242 135.768 176.336 132.624 178.501C127.966 181.782 120.265 185.351 112.766 187.703C106.882 189.487 106.276 189.581 101.229 188.171C94.739 186.386 84.918 181.876 80.1517 178.688L76.8059 176.242L77.6207 179.463C78.0642 181.466 78.3152 183.501 78.3707 185.544Z" fill="#393F67"/>
<path id="Vector_37" d="M74.9816 132.684C73.4249 131.9 71.9931 130.92 70.7273 129.771C61.2019 121.598 68.1963 106.194 80.3536 108.386C88.5667 109.796 92.9219 120.502 88.1556 127.545C85.3218 131.756 79.2432 134.108 74.9816 132.684ZM80.0291 129.209C80.0291 128.454 78.9115 127.612 77.5991 127.332C75.9767 126.957 74.6571 125.641 73.8495 123.482C72.6309 120.475 69.898 118.878 69.898 121.13C69.898 123.382 72.8328 128.548 74.6571 129.49C77.3179 130.914 80.0508 130.726 80.0508 129.223L80.0291 129.209ZM79.9282 123.576C81.7525 121.504 80.9449 117 78.6086 116.626C75.371 115.958 73.5611 121.304 76.1786 123.763C77.8226 125.28 78.5293 125.18 79.9498 123.589L79.9282 123.576ZM86.1078 120.288C86.1078 113.993 83.274 110.612 78.1039 110.986C75.6739 111.173 74.4552 111.741 74.4552 112.677C74.4552 113.612 75.371 114.013 77.7001 113.806C81.6516 113.432 83.4687 115.964 82.8702 121.224C82.5601 124.231 82.8702 124.886 84.3123 124.886C85.8266 124.899 86.1294 124.057 86.1294 120.301L86.1078 120.288Z" fill="#393F67"/>
<path id="Vector_38" d="M130.721 132.684C129.164 131.9 127.732 130.92 126.466 129.771C116.941 121.598 123.935 106.194 136.093 108.386C144.306 109.796 148.661 120.502 143.895 127.545C141.061 131.756 134.982 134.108 130.721 132.684ZM135.768 129.209C135.768 128.454 134.65 127.612 133.338 127.332C131.716 126.957 130.396 125.641 129.589 123.482C128.37 120.475 125.637 118.878 125.637 121.13C125.637 123.382 128.572 128.548 130.396 129.49C133.057 130.914 135.79 130.726 135.79 129.223L135.768 129.209ZM135.667 123.576C137.491 121.504 136.684 117 134.348 116.626C131.11 115.958 129.3 121.304 131.918 123.763C133.562 125.28 134.268 125.18 135.689 123.589L135.667 123.576ZM141.847 120.288C141.847 113.993 139.013 110.612 133.843 110.986C131.413 111.173 130.194 111.741 130.194 112.677C130.194 113.612 131.11 114.013 133.439 113.806C137.391 113.432 139.208 115.964 138.609 121.224C138.299 124.231 138.609 124.886 140.051 124.886C141.493 124.886 141.868 124.057 141.868 120.301L141.847 120.288Z" fill="#393F67"/>
<path id="Vector_39" d="M42.555 93.5306C38.7045 83.9543 37.9906 68.925 40.9326 55.025C43.8746 40.7441 53.8037 16.1385 59.0748 9.84346C60.5962 8.05919 60.6972 8.15274 62.7234 12.1958C66.5739 20.3687 71.1311 41.1251 73.4602 61.5005L74.0731 67.1407L69.4078 69.3928C62.8244 72.5871 51.6766 83.2927 47.7251 90.0556C45.9008 93.2499 44.2784 95.7826 43.9755 95.7826C43.6727 95.7826 43.0597 94.7535 42.555 93.5306Z" fill="#393F67"/>
<path id="Vector_40" d="M165.282 90.9979C162.138 84.89 151.805 74.6521 144.608 70.4287C137.816 66.4792 137.816 66.7666 140.859 47.4135C144.104 27.3187 149.469 8.44019 152.108 8.44019C153.629 8.44019 162.751 27.1517 166.601 38.2115C171.764 53.3344 173.588 64.04 172.983 76.53C172.579 86.0193 170.149 95.7827 168.325 95.7827C168.015 95.7827 166.601 93.6242 165.282 90.9979Z" fill="#393F67"/>
</g>
<g id="layer108">
<path id="Vector_41" d="M78.3705 185.545L78.5003 185.698C79.1637 186.366 79.7334 187.122 80.3968 187.777C80.7789 188.151 81.1899 188.485 81.5793 188.852L81.7235 188.966L82.9349 189.728C87.1532 192.2 91.7537 194.519 96.6353 195.582C99.8974 196.35 103.237 196.798 106.601 196.918C113.422 197.065 121.022 196.25 126.791 193.577L125.507 194.299C127.416 193.551 129.235 192.622 130.937 191.525C131.561 191.161 132.105 190.689 132.538 190.135C133.122 189.307 132.891 188.278 132.985 187.335C133.134 186.047 133.355 184.767 133.648 183.5C134.037 181.606 134.607 179.747 135.35 177.946C136.071 176.256 135.754 176.349 132.61 178.514C127.952 181.796 120.25 185.364 112.751 187.716C106.867 189.501 106.262 189.594 101.214 188.184C94.7245 186.4 84.9035 181.889 80.1372 178.701L76.7914 176.256L77.6206 179.463C78.0641 181.466 78.3151 183.501 78.3705 185.545Z" fill="#4C4652"/>
<path id="Vector_42" d="M96.4695 173.649C88.9704 172.801 84.716 171.578 77.0006 168.303C59.4496 160.752 49.9531 147.066 45.4896 123.021C43.7663 113.539 43.586 110.632 44.4801 105.366C46.2035 95.4085 51.2726 86.9549 60.5961 78.6884C68.9029 71.3375 73.1572 69.2057 85.9275 66.1985C91.1985 64.862 91.6023 64.9756 96.4695 67.2343C101.842 69.7671 103.154 71.6449 105.389 80.5997C105.995 83.226 106.903 85.4781 107.315 85.4781C110.66 85.4781 116.126 78.1271 119.068 69.7938C120.993 64.0668 120.287 64.1603 133.663 68.2902C146.736 72.2397 157.581 81.4417 164.063 93.9316C167.611 100.788 167.712 101.283 167.611 111.781C167.409 138.639 155.554 159.963 136.194 168.129C124.238 173.081 109.24 175.246 96.4695 173.649ZM101.741 148.008C101.438 146.671 100.724 145.849 100.219 146.13C98.8996 146.878 99.1015 150.073 100.623 150.541C102.346 151.109 102.548 150.821 101.741 148.008ZM112.477 148.476C112.438 147.509 112.124 146.568 111.569 145.749C110.848 144.72 110.552 144.814 110.047 146.036C108.937 148.943 109.326 151.202 110.963 150.634C111.391 150.422 111.754 150.112 112.019 149.735C112.284 149.358 112.441 148.924 112.477 148.476ZM85.1199 134.389C92.4171 130.82 95.5538 122.928 92.8209 115.323C91.1985 111.186 91.2994 110.906 93.7295 106.776C97.479 100.574 98.092 93.9985 95.3519 89.775C93.0228 86.3936 87.6508 81.6957 86.0284 81.6957C85.5237 81.6957 85.1199 83.1993 85.1199 84.9835C85.1199 86.7678 84.9179 88.2714 84.6079 88.2714C84.2978 88.2714 80.6564 87.142 76.3011 85.8322C64.7639 82.2637 58.1589 83.5735 53.7027 90.4299C51.0635 94.3794 51.0635 98.9771 53.7027 101.423C55.2241 102.826 57.0484 103.301 61.2018 103.301C64.1431 103.299 67.0727 103.645 69.9196 104.33L73.1572 105.459L70.1215 107.244C67.852 108.835 66.0129 110.894 64.7495 113.258C57.856 126.59 71.7439 141.058 85.1199 134.389ZM142.683 133.633C151.906 127.251 151.603 113.351 142.171 107.431L138.934 105.426L142.784 104.296C145.602 103.653 148.491 103.312 151.394 103.281C155.042 103.281 156.665 102.806 158.604 100.928C161.748 98.115 161.748 95.3885 158.806 90.6905C154.148 83.1792 145.027 81.7692 133.273 86.7478L127.699 89.1001V85.9993C127.699 81.9897 126.978 81.3949 123.748 83.1792C119.183 85.7186 115.535 91.3521 115.535 95.9565C115.535 100.561 117.698 106.381 119.998 108.821C121.512 110.324 121.512 110.825 119.998 114.167C117.965 118.678 118.556 126.002 121.311 129.383C125.161 134.175 129.725 136.333 135.097 135.865C137.816 135.705 141.263 134.689 142.683 133.633Z" fill="#4C4652"/>
<path id="Vector_43" d="M76.503 64.6014C76.3011 63.9331 75.8973 60.1908 75.4935 56.3349C74.3759 44.8808 70.0206 24.4986 66.7758 15.9515C65.5193 12.8874 64.4362 9.76454 63.5309 6.59577C63.1271 3.77568 65.3552 4.52414 67.0786 7.71846C69.1048 11.5677 75.8973 37.1222 79.2431 52.8933C81.1684 62.5698 81.2693 64.0734 80.0507 64.8219C78.0245 66.0114 77.0078 65.9179 76.503 64.6014Z" fill="#4C4652"/>
<path id="Vector_44" d="M132.545 65.0759C131.535 64.8821 130.72 64.5079 130.72 64.3207C130.72 64.1336 132.343 56.6223 134.268 47.6942C141.061 17.1745 145.805 2.70648 148.56 4.77143C149.678 5.62013 149.678 6.18147 148.56 8.34666C144.406 15.9515 139.842 33.9814 137.326 52.86C136.511 59.155 135.804 64.6014 135.804 64.9756C135.79 65.7308 135.386 65.8578 132.545 65.0759Z" fill="#4C4652"/>
</g>
<g id="layer109">
<path id="Vector_45" d="M101.539 148.195C100.522 145.281 100.421 145.188 99.8154 147.253C99.4044 148.382 98.6977 149.324 98.2939 149.324C97.3782 149.324 92.6191 144.252 92.0062 142.749C91.8043 141.993 88.9705 142.08 82.5817 143.029C77.5342 143.778 73.2583 144.252 73.0564 144.058C72.2488 143.31 73.7774 142.655 79.647 141.245C82.8918 140.49 89.879 137.489 95.0491 134.562C106.197 128.361 106.586 128.361 119.472 135.124C124.238 137.757 131.009 140.57 134.47 141.419C142.582 143.484 141.868 144.8 133.562 143.203C120.489 140.764 119.573 140.67 119.573 142.074C119.573 142.829 118.131 144.894 116.335 146.584L113.191 149.779L112.175 147.052C111.454 145.047 110.963 144.707 110.35 145.642C109.755 146.718 109.444 147.908 109.442 149.117C109.442 150.808 108.937 151.189 105.995 151.189C103.053 151.189 102.447 150.821 101.539 148.195Z" fill="#443F65"/>
<path id="Vector_46" d="M74.0731 131.662C69.0256 129.316 66.574 125.748 66.574 120.676C66.574 115.417 68.2973 112.222 72.7536 109.683C80.6854 105.179 90.1819 111.28 90.1819 120.863C90.1819 125.541 86.9443 130.346 82.5818 132.036C78.2193 133.727 78.1977 133.727 74.0731 131.662ZM80.0508 129.223C80.0508 128.468 78.9332 127.626 77.6208 127.345C75.9984 126.971 74.6788 125.654 73.8712 123.496C72.5517 120.208 69.9198 118.985 69.9198 121.611C69.9198 123.87 72.7536 128.468 74.6788 129.504C77.318 130.914 80.0508 130.727 80.0508 129.223ZM79.9499 123.589C81.7742 121.518 80.9666 117.014 78.6303 116.639C75.3927 115.971 73.5828 121.317 76.2003 123.777C77.8227 125.28 78.5294 125.18 79.9499 123.589ZM86.3314 122.834C86.8434 119.546 85.5238 114.661 83.4976 112.596C81.2695 110.344 74.4769 110.438 74.4769 112.69C74.4769 113.726 75.3927 114.027 77.7218 113.819C81.6733 113.445 83.4904 115.978 82.8919 121.237C82.5818 124.244 82.8919 124.899 84.334 124.899C85.3219 124.899 86.1295 124.057 86.3314 122.834Z" fill="#443F65"/>
<path id="Vector_47" d="M130.115 132.016C124.844 129.858 122.616 126.289 122.616 120.281C122.616 115.603 123.02 114.548 125.76 111.921C129.509 108.446 131.838 107.598 136.194 108.353C141.667 109.288 145.928 114.735 145.928 120.843C145.928 125.521 142.683 130.325 138.321 132.016C134.167 133.633 134.066 133.633 130.115 132.016ZM136.194 129.203C135.891 128.448 134.571 127.606 133.259 127.325C131.737 126.951 130.418 125.634 129.61 123.476C128.291 120.188 125.659 118.965 125.659 121.591C125.659 123.85 128.493 128.448 130.418 129.483C133.158 131.007 136.807 130.82 136.194 129.223V129.203ZM135.689 123.569C137.513 121.498 136.706 116.993 134.369 116.619C131.132 115.951 129.322 121.297 131.939 123.756C133.562 125.28 134.268 125.18 135.689 123.589V123.569ZM142.178 122.44C142.791 119.152 141.27 114.267 138.941 112.296C136.612 110.324 130.223 110.605 130.223 112.67C130.223 113.706 131.139 114.006 133.468 113.799C137.419 113.425 139.237 115.958 138.638 121.217C138.328 124.131 138.638 124.879 139.95 124.879C140.931 124.899 141.868 123.997 142.171 122.46L142.178 122.44Z" fill="#443F65"/>
<path id="Vector_48" d="M43.1607 94.9407C41.1345 92.027 39.5121 81.8827 39.5121 72.9613C39.5121 60.8456 41.9421 48.5428 47.2131 34.6429C50.9627 24.6857 58.26 9.72319 59.8824 8.81434C62.3124 7.4043 67.9945 26.2829 70.9292 45.569C74.4769 68.7713 74.4769 67.0806 70.7273 68.7713C62.0096 72.527 49.7513 84.5491 46.0017 92.8289C44.4803 95.9765 44.0765 96.2571 43.1607 94.9407Z" fill="#443F65"/>
<path id="Vector_49" d="M165.282 90.8108C162.441 85.0771 147.255 70.6158 141.969 68.5508L138.631 67.3279L139.237 60.6452C140.145 51.6303 143.563 31.8095 145.517 24.8595C147.421 17.6422 151.026 8.44019 151.906 8.44019C153.117 8.44019 159.838 21.0237 163.558 30.3193C170.25 46.8522 172.579 57.9321 172.68 72.3065C172.781 81.9763 172.377 86.3 170.957 90.4299C169.94 93.3436 168.829 95.776 168.426 95.776C168.022 95.776 166.601 93.5307 165.282 90.8108Z" fill="#443F65"/>
</g>
<g id="layer110">
<path id="Vector_50" d="M78.825 186.025C79.3586 186.6 79.8417 187.228 80.3969 187.776C80.7791 188.15 81.1901 188.485 81.5795 188.852L81.7237 188.966C81.8823 189.073 82.0554 189.18 82.2212 189.28C82.0337 187.997 81.8246 186.433 81.5722 184.542C80.8512 179.937 79.647 177.498 77.9236 177.498C77.5198 177.498 77.6208 178.908 78.1255 180.505C78.5448 182.321 78.779 184.169 78.825 186.025Z" fill="#525271"/>
<path id="Vector_51" d="M90.8237 193.731L91.7178 194.118C92.1793 194.279 92.9941 194.579 93.2321 194.653C94.1793 194.949 95.1419 195.201 96.1164 195.408C96.1495 194.815 95.9733 194.228 95.6144 193.736C95.2555 193.244 94.7335 192.874 94.1273 192.681C93.5211 192.489 92.8638 192.484 92.2547 192.669C91.6456 192.853 91.118 193.217 90.7516 193.704L90.8237 193.731Z" fill="#4C4652"/>
<path id="Vector_52" d="M130.115 192.066C130.382 191.913 131.377 191.231 131.636 191.084L132.653 190.262C132.74 190.195 132.819 190.115 132.898 190.048C133.019 187.128 133.403 184.222 134.045 181.361C134.766 177.792 134.651 177.418 133.324 178.354C131.701 179.577 129.149 187.088 129.149 191.879C129.149 192.147 129.149 192.394 129.149 192.628C129.488 192.441 129.812 192.26 130.115 192.066Z" fill="#525271"/>
<path id="Vector_53" d="M117.813 196.17C118.722 195.989 119.652 195.869 120.561 195.689L121.902 195.401C122.356 193.751 121.246 192.508 118.967 192.508C116.263 192.508 114.763 194.633 116.205 196.297C116.739 196.277 117.28 196.243 117.813 196.17Z" fill="#4C4652"/>
<path id="Vector_54" d="M142.986 162.843C150.918 154.677 157.278 144.132 161.734 131.756C163.962 125.654 164.366 122.834 164.366 114.568C164.265 92.7822 155.958 80.2856 135.285 70.7093C130.317 68.357 127.483 66.7665 128.997 67.0472C149.187 71.2706 166.291 89.0198 167.935 107.618C168.548 113.726 166.212 128.755 163.479 136.641C160.436 145.562 154.055 155.706 148.683 160.217C141.652 166.038 138.321 167.541 142.986 162.843Z" fill="#525271"/>
<path id="Vector_55" d="M67.8864 163.318C55.3252 153.922 48.3308 141.058 45.5908 122.273C42.8579 104.049 46.1027 92.9693 57.4524 81.6021C64.9516 74.1843 70.0207 70.99 79.3442 68.0764C90.081 64.7885 91.1987 65.1694 81.5074 68.8315C59.5796 77.098 49.4485 89.8686 47.9126 111.3C47.4007 118.156 47.7107 121.257 49.535 127.739C52.066 137.322 59.0604 150.935 64.9372 157.885C67.2662 160.705 69.5953 163.525 70.2082 164.18C71.6359 165.757 70.8283 165.476 67.8864 163.318Z" fill="#525271"/>
<path id="Vector_56" d="M101.539 147.727C100.623 144.533 100.421 144.346 99.8154 146.317C99.4044 147.44 98.4958 148.382 97.7892 148.382C96.4696 148.382 92.7417 144.626 92.0206 142.655C91.8187 141.987 88.4801 142.181 82.5962 143.029C77.5487 143.778 73.2727 144.252 73.0708 144.058C72.2632 143.31 73.7919 142.655 79.6614 141.245C82.9062 140.49 89.8934 137.489 95.0635 134.562C106.211 128.361 106.601 128.361 119.486 135.124C124.253 137.757 131.023 140.57 134.485 141.419C142.597 143.484 141.883 144.8 133.576 143.203C121.21 140.857 119.587 140.764 119.587 141.866C119.587 143.557 115.535 148.349 114.013 148.349C113.292 148.349 112.492 147.406 112.088 146.284C111.583 144.499 111.28 144.279 110.466 145.529C109.834 146.629 109.489 147.851 109.456 149.097C109.456 150.788 108.951 151.169 106.009 151.169C102.851 151.202 102.447 150.915 101.539 147.727Z" fill="#525271"/>
<path id="Vector_57" d="M59.7815 138.518C59.7815 134.763 70.9292 134.575 71.7441 138.331C72.0469 139.741 71.2321 139.928 65.9755 139.928C61.101 139.928 59.7815 139.648 59.7815 138.518Z" fill="#525271"/>
<path id="Vector_58" d="M140.455 139.086C140.044 138.518 140.96 137.396 142.381 136.547C144.544 135.21 145.82 135.137 148.762 135.798C154.841 137.202 153.629 139.367 146.736 139.741C143.592 139.928 140.758 139.554 140.455 139.086Z" fill="#525271"/>
<path id="Vector_59" d="M73.9722 131.662C69.3069 129.503 66.7615 126.028 66.6749 121.518C66.3721 116.258 68.4993 112.162 72.6526 109.783C80.3537 105.366 90.182 111.186 90.182 120.208C90.182 129.229 81.6733 135.357 73.9722 131.662ZM80.0509 129.223C80.0509 128.468 78.9332 127.626 77.6208 127.345C75.9984 126.971 74.6789 125.654 73.8713 123.496C73.1502 121.705 71.946 120.208 71.1312 120.208C68.968 120.208 70.4101 125.654 73.1574 128.374C75.5946 130.726 80.0509 131.288 80.0509 129.223ZM86.0286 117.575C85.6007 115.76 84.7355 114.058 83.4976 112.596C81.6733 110.718 76.6041 110.251 74.0732 111.661C72.1479 112.783 74.6789 114.1 78.2266 113.726C81.7742 113.351 83.3967 116.258 82.8919 121.237C82.5818 123.87 82.8919 124.899 84.1033 125.086C86.0286 125.467 86.9443 121.805 86.0286 117.575ZM79.9499 123.589C81.7742 121.518 80.9666 117.013 78.6304 116.639C75.3927 115.971 73.5828 121.317 76.2003 123.776C77.8228 125.28 78.5294 125.18 79.9499 123.589Z" fill="#525271"/>
<path id="Vector_60" d="M130.115 132.016C125.147 129.951 122.616 126.289 122.616 120.936C122.616 115.396 124.844 111.581 129.206 109.288C136.907 105.439 145.928 111.641 145.928 120.843C145.928 129.129 137.614 134.95 130.115 132.016ZM136.194 129.203C135.891 128.448 134.571 127.606 133.259 127.325C131.737 126.951 130.418 125.634 129.61 123.476C128.291 120.188 125.659 118.965 125.659 121.591C125.659 123.85 128.493 128.448 130.418 129.483C133.158 131.007 136.807 130.82 136.194 129.223V129.203ZM141.868 117.314C140.556 112.71 137.816 110.632 133.562 111.019C131.435 111.206 130.216 111.774 130.216 112.71C130.216 113.645 131.132 114.046 133.461 113.839C137.412 113.465 139.229 115.998 138.631 121.257C138.321 123.89 138.631 124.919 139.842 125.106C141.969 125.561 143.094 121.424 141.868 117.314ZM135.689 123.609C137.513 121.538 136.706 117.034 134.369 116.659C131.132 115.991 129.322 121.337 131.939 123.796C133.562 125.28 134.268 125.18 135.689 123.589V123.609Z" fill="#525271"/>
<path id="Vector_61" d="M43.1607 94.9407C41.1345 92.027 39.5121 81.8827 39.5121 72.9613C39.5121 60.8457 41.9421 48.5429 47.2132 34.6429C51.3737 23.3692 59.4498 8.15276 60.7982 8.90791C61.9086 9.57617 65.3554 19.2393 67.8863 29.1029C69.7106 36.3336 74.376 66.6663 73.7703 67.1407C73.5684 67.2343 71.6071 68.1699 69.4439 69.1455C63.6753 71.6783 50.6959 84.0813 47.2492 90.4633C44.1774 96.07 43.9755 96.2571 43.1607 94.9407Z" fill="#525271"/>
<path id="Vector_62" d="M165.282 90.8108C162.441 85.077 147.255 70.6157 141.969 68.5508L138.631 67.3279L139.237 60.6452C141.364 39.6081 148.964 8.42676 152.007 8.42676C153.319 8.42676 162.102 26.2695 165.707 35.8257C171.079 50.8484 172.803 59.8834 172.803 73.2019C172.803 81.7491 172.298 86.447 170.978 90.3898C169.961 93.3034 168.851 95.7359 168.447 95.7359C168.043 95.7359 166.601 93.5306 165.282 90.8108Z" fill="#525271"/>
<path id="Vector_63" d="M123.935 66.0113C124.144 65.8681 124.397 65.7908 124.656 65.7908C124.916 65.7908 125.169 65.8681 125.378 66.0113C125.688 66.3856 125.378 66.6796 124.656 66.6796C123.935 66.6796 123.625 66.3856 123.935 66.0113Z" fill="#525271"/>
</g>
<g id="layer111">
<path id="Vector_64" d="M130.115 192.067C130.382 191.913 131.377 191.231 131.636 191.084L132.653 190.262L132.905 190.048C132.978 186.938 133.367 183.842 134.066 180.8C134.881 177.418 134.787 177.137 133.345 178.447C132.429 179.296 130.692 183.052 130.079 187.469C129.697 189.801 129.358 191.478 129.055 192.681C129.43 192.474 129.783 192.274 130.115 192.067Z" fill="#665C70"/>
<path id="Vector_65" d="M78.6879 185.885C79.272 186.5 79.7911 187.188 80.3968 187.776C80.779 188.151 81.19 188.485 81.5794 188.852L81.7236 188.966L81.8534 189.053C81.8534 188.779 81.8029 188.498 81.7741 188.204C81.2693 181.521 79.8488 177.512 78.0245 177.512C77.5197 177.512 77.6207 178.848 78.2264 180.425C78.4499 181.02 78.6014 183.018 78.6879 185.885Z" fill="#665C70"/>
<path id="Vector_66" d="M63.5309 159.656C53.2989 151.015 46.1025 133.633 44.8839 115.042C43.9754 100.855 47.213 92.2143 57.3513 81.7893C63.329 75.688 70.2225 71.097 76.4021 69.0922C83.6128 66.9337 83.4974 67.2144 75.2844 71.2507C61.584 77.9334 55.0943 84.4958 50.4578 96.3308C48.7344 100.835 48.2946 104.029 48.2297 114.08C48.1287 124.599 48.4316 127.138 50.4578 132.397C54.3084 142.161 58.3896 149.585 64.3457 157.19C67.3814 161.133 69.6095 164.327 69.3932 164.327C69.1769 164.327 66.5738 162.189 63.5309 159.656Z" fill="#665C70"/>
<path id="Vector_67" d="M142.885 163.973C142.885 163.598 144.406 161.627 146.231 159.656C154.336 150.728 162.34 134.576 164.258 122.901C166.082 112.008 163.955 98.9503 158.893 89.8418C154.429 81.7625 143.887 73.496 131.831 68.8983C124.433 66.0783 126.783 65.9847 135.177 68.8983C151.696 74.4383 165.779 90.6838 167.805 106.468C168.526 111.915 167.084 123.563 164.568 132.858C162.404 140.75 155.85 152.866 151.285 157.37C146.635 162.001 142.885 164.915 142.885 163.973Z" fill="#665C70"/>
<path id="Vector_68" d="M101.64 147.727C100.623 144.439 100.522 144.346 99.8153 146.317C98.7986 149.224 96.2676 148.569 93.7294 144.813C91.8042 141.9 91.5013 141.806 87.146 142.274C84.6078 142.561 80.3535 143.029 77.5197 143.31L72.4722 143.684L78.6518 141.993C83.1855 140.565 87.5628 138.741 91.7248 136.547C95.5754 134.576 100.039 132.136 101.762 131.201C105.815 129.136 107.942 129.604 118.073 134.956C122.956 137.473 128.04 139.64 133.28 141.439C141.385 143.784 139.561 144.259 129.733 142.281C120.51 140.403 120.409 140.403 117.77 144.633C115.131 148.863 114.121 149.231 112.398 146.417C111.489 144.82 111.086 144.633 110.372 145.662C109.777 146.737 109.465 147.928 109.463 149.137C109.463 150.828 108.958 151.209 106.117 151.209C103.053 151.202 102.548 150.821 101.64 147.727Z" fill="#665C70"/>
<path id="Vector_69" d="M60.2861 138.993C59.3776 137.583 60.488 136.453 63.43 135.892C66.9777 135.324 71.9459 136.921 71.9459 138.612C71.9459 140.303 61.3028 140.49 60.2861 138.993Z" fill="#665C70"/>
<path id="Vector_70" d="M141.061 138.425C141.465 136.173 146.635 135.043 149.778 136.42C153.73 138.204 152.511 139.427 146.332 139.708C141.465 140.035 140.758 139.835 141.061 138.425Z" fill="#665C70"/>
<path id="Vector_71" d="M74.4767 132.016C67.0785 129.016 64.3817 120.281 68.6 113.612C70.3234 110.792 75.3925 107.979 78.5292 107.979C81.4712 107.979 86.2302 110.792 88.1555 113.893C94.3423 123.329 84.6871 136.079 74.4767 132.016ZM80.4544 129.203C80.1516 128.448 78.832 127.606 77.5197 127.325C75.9982 126.951 74.6786 125.634 73.871 123.476C73.15 121.685 71.9458 120.188 71.131 120.188C68.9677 120.188 70.4099 125.634 73.1572 128.354C75.5944 130.82 81.3702 131.475 80.4544 129.223V129.203ZM86.3312 122.814C86.9441 119.058 85.7255 114.928 83.4974 112.576C81.6731 110.698 76.503 110.231 73.972 111.734C71.8088 112.95 73.5682 113.986 77.5197 113.799C81.774 113.518 83.4974 115.864 82.8917 121.217C82.5816 124.505 83.0936 125.541 85.2207 125.728C85.6245 125.841 86.1293 124.431 86.3312 122.834V122.814ZM79.9497 123.569C81.774 121.498 80.9664 116.993 78.6301 116.619C75.3925 115.951 73.5826 121.297 76.2001 123.756C77.8225 125.28 78.5292 125.18 79.9497 123.589V123.569Z" fill="#665C70"/>
<path id="Vector_72" d="M130.216 132.016C125.449 130.045 123.423 127.231 122.818 121.992C122.212 115.978 124.44 111.567 129.206 109.495C133.36 107.618 135.083 107.618 138.934 109.402C152.309 115.884 143.995 137.583 130.216 132.016ZM136.193 129.203C135.891 128.448 134.571 127.606 133.259 127.325C131.737 126.951 130.418 125.634 129.61 123.476C128.889 121.685 127.685 120.188 126.87 120.188C124.743 120.188 126.149 125.634 128.896 128.354C131.333 130.82 137.109 131.475 136.193 129.223V129.203ZM142.171 123.095C142.986 119.62 141.364 114.36 138.934 112.296C136.504 110.231 130.216 110.605 130.216 112.67C130.216 113.706 131.132 114.006 133.461 113.799C137.412 113.425 139.229 115.958 138.631 121.217C138.321 124.505 138.833 125.541 140.96 125.728C141.364 125.841 141.868 124.618 142.171 123.115V123.095ZM135.681 123.569C137.506 121.498 136.698 116.993 134.362 116.619C131.124 115.951 129.314 121.297 131.932 123.756C133.562 125.28 134.268 125.18 135.689 123.589L135.681 123.569Z" fill="#665C70"/>
<path id="Vector_73" d="M83.3964 66.9536C83.6046 66.8094 83.8575 66.7314 84.1175 66.7314C84.3774 66.7314 84.6304 66.8094 84.8386 66.9536C85.1414 67.3279 84.8386 67.6219 84.1175 67.6219C83.3964 67.6219 83.0936 67.3279 83.3964 66.9536Z" fill="#665C70"/>
</g>
<g id="layer112">
<path id="Vector_74" d="M101.64 147.727C100.623 144.533 100.522 144.346 99.8153 146.317C99.4043 147.44 98.4957 148.382 97.6881 148.382C95.8638 148.382 91.1985 141.9 91.9195 140.303C93.1381 137.202 109.557 135.986 116.039 138.425C120.301 140.116 120.503 141.806 116.652 145.776L113.811 148.783L112.586 146.718C111.064 143.992 109.442 144.934 109.442 148.502C109.442 150.942 109.139 151.229 106.096 151.229C103.053 151.229 102.548 150.821 101.64 147.727Z" fill="#585393"/>
<path id="Vector_75" d="M42.7567 93.2568C37.1828 80.1053 38.7043 58.5069 46.7082 36.1534C50.4578 25.7217 59.4496 8.15295 60.798 8.90809C63.5308 10.5052 70.893 40.183 72.4505 55.8672C72.7534 59.5294 73.2581 63.2917 73.46 64.4144C73.871 65.918 72.5515 67.1409 67.3814 70.2417C59.6803 75.0265 51.0635 83.5736 46.9101 90.7107L43.8744 95.9767L42.7567 93.2568Z" fill="#585393"/>
<path id="Vector_76" d="M165.08 90.1494C161.027 83.0123 150.384 72.7744 143.592 69.4865C140.96 68.15 138.832 66.4793 138.832 65.7309C138.832 61.9752 142.07 40.5572 143.88 32.3175C146.317 20.9569 150.975 8.37347 152.295 9.12193C154.018 10.0642 162.938 28.2812 165.995 37.109C171.165 51.8576 172.788 60.4048 172.687 73.7434C172.586 83.5068 172.182 86.9818 170.56 91.1183L168.533 96.1905L165.08 90.1494Z" fill="#585393"/>
</g>
<g id="layer113">
<path id="Vector_77" d="M74.4769 132.016C65.961 128.541 63.9348 118.023 70.5254 111.641C80.1517 102.245 94.8472 114.173 88.5522 126.289C85.8266 131.662 79.7479 134.108 74.4769 132.016ZM80.4546 129.203C80.1517 128.448 78.8322 127.606 77.5198 127.325C75.9983 126.951 74.6788 125.634 73.8712 123.476C73.1501 121.685 71.9459 120.188 71.1311 120.188C68.9679 120.188 70.41 125.634 73.1573 128.354C75.5945 130.82 81.3703 131.475 80.4546 129.223V129.203ZM86.3313 122.814C86.9442 119.058 85.7256 114.929 83.4975 112.576C81.6732 110.698 76.5031 110.231 74.0731 111.641C71.6431 113.051 73.7702 114.454 77.4189 113.893C80.2527 113.519 81.0675 113.799 82.077 115.49C82.7981 116.619 83.0937 119.246 82.8918 121.217C82.5818 124.505 83.0937 125.541 85.2209 125.728C85.6247 125.841 86.1294 124.431 86.3313 122.834V122.814ZM79.9498 123.569C81.7741 121.498 80.9665 116.994 78.6303 116.619C75.3926 115.951 73.5827 121.297 76.2002 123.756C77.8227 125.28 78.5293 125.18 79.9498 123.589V123.569Z" fill="#909D1E"/>
<path id="Vector_78" d="M130.216 132.016C125.168 129.951 123.322 127.231 122.818 121.217C122.414 116.145 122.616 115.583 125.659 112.389C131.334 106.375 139.438 107.043 143.895 113.893C150.081 123.329 140.455 136.079 130.216 132.016ZM136.194 129.203C135.891 128.448 134.571 127.606 133.36 127.325C131.132 126.85 128.694 123.315 128.694 120.642C128.694 119.793 128.089 119.513 127.072 119.887C124.945 120.642 125.962 125.434 128.896 128.341C131.334 130.82 137.109 131.475 136.194 129.223V129.203ZM142.171 123.095C142.892 119.807 141.566 114.928 139.236 112.576C137.412 110.698 132.242 110.231 129.812 111.641C127.382 113.051 129.509 114.454 133.158 113.893C135.992 113.518 136.806 113.799 137.816 115.49C138.537 116.619 138.833 119.245 138.631 121.217C138.321 124.505 138.833 125.541 140.96 125.728C141.364 125.841 141.868 124.618 142.171 123.115V123.095ZM135.682 123.569C137.506 121.498 136.698 116.993 134.362 116.619C131.124 115.951 129.315 121.297 131.932 123.756C133.562 125.28 134.268 125.18 135.689 123.589L135.682 123.569Z" fill="#909D1E"/>
<path id="Vector_79" d="M106.904 75.8817C105.086 69.6802 101.135 65.2696 96.6715 64.2338C95.9824 64.0389 95.3503 63.7011 94.823 63.246C94.2958 62.791 93.8873 62.2306 93.6285 61.6075C92.619 57.8452 91.4653 38.031 92.3162 37.1823C92.72 36.8081 94.0396 38.1246 95.15 40.2831C95.8778 41.6092 96.6892 42.8945 97.58 44.1323C97.7891 44.1323 97.6882 41.506 97.4791 38.3117C97.0753 31.5488 98.4958 26.9512 100.724 27.7932C103.666 28.8223 106.298 37.9375 107.935 52.5191L108.656 58.4399L113.422 53.9291L118.08 49.3247L118.39 54.4905C118.667 61.4862 117.136 68.442 113.927 74.7791C109.925 82.5644 109.038 82.6379 106.904 75.8817Z" fill="#909D1E"/>
</g>
<g id="layer114">
<path id="Vector_80" d="M101.33 146.879C99.5124 141.806 97.991 141.432 97.2771 145.749L96.7723 148.85L94.0611 145.188C92.619 143.183 91.6239 140.964 91.8979 140.303C93.1165 137.202 109.535 135.986 116.018 138.425C120.178 140.116 120.481 141.713 117.034 145.281L114.604 147.914L114.504 145.375C114.504 143.965 114.093 142.655 113.588 142.274C112.146 141.526 109.434 145.656 109.434 148.569C109.434 150.915 109.031 151.202 106.19 151.202C103.154 151.202 102.75 150.821 101.33 146.879ZM106.377 147.727C106.377 145.656 106.175 145.375 105.368 146.504C104.048 148.382 104.048 150.26 105.368 150.26C105.995 150.26 106.399 149.131 106.399 147.727H106.377Z" fill="#6E6A76"/>
</g>
<g id="layer115">
<path id="Vector_81" d="M74.4769 132.016C65.961 128.541 63.9348 118.023 70.5254 111.641C80.1517 102.245 94.8472 114.173 88.5522 126.289C85.8266 131.662 79.7479 134.108 74.4769 132.016ZM80.4546 129.203C80.1517 128.448 78.8322 127.606 77.5198 127.325C75.9983 126.951 74.6788 125.634 73.8712 123.476C73.1501 121.685 71.9459 120.188 71.1311 120.188C68.9679 120.188 70.41 125.634 73.1573 128.354C75.5945 130.82 81.3703 131.475 80.4546 129.223V129.203ZM86.3313 122.814C87.449 116.332 83.8004 110.785 78.6303 110.785C73.6693 110.785 72.3497 112.008 74.3038 114.541C74.8158 115.234 75.1695 116.016 75.3431 116.84C75.5167 117.664 75.5066 118.512 75.3133 119.332C74.8086 121.965 76.33 124.872 78.1544 124.872C78.6591 124.872 79.7768 123.843 80.6853 122.527C82.2068 120.368 82.2068 119.987 80.6853 117.849C79.5749 116.345 78.4572 115.784 77.2386 116.158C75.9262 116.633 75.7243 116.439 76.7338 115.49C79.373 112.763 83.8292 118.023 82.8125 122.721C82.4087 124.598 83.2235 125.541 85.2497 125.728C85.6247 125.841 86.1294 124.431 86.3313 122.834V122.814Z" fill="#7B8852"/>
<path id="Vector_82" d="M130.216 132.016C125.168 129.951 123.322 127.232 122.818 121.217C122.414 116.145 122.616 115.584 125.659 112.389C131.334 106.375 139.438 107.043 143.895 113.893C150.081 123.329 140.455 136.079 130.216 132.016ZM136.194 129.203C135.891 128.448 134.571 127.606 133.36 127.325C131.132 126.851 128.694 123.315 128.694 120.642C128.694 119.794 128.089 119.513 127.072 119.887C124.945 120.642 125.962 125.434 128.896 128.341C131.334 130.82 137.109 131.475 136.194 129.223V129.203ZM142.171 123.095C143.491 116.994 139.539 110.792 134.369 110.792C129.408 110.792 128.089 112.015 130.043 114.548C130.555 115.24 130.909 116.023 131.082 116.847C131.256 117.671 131.246 118.519 131.052 119.339C130.548 121.972 132.069 124.879 133.893 124.879C134.398 124.879 135.516 123.85 136.424 122.534C137.946 120.375 137.946 119.994 136.424 117.856C135.314 116.352 134.196 115.791 132.985 116.165C131.665 116.639 131.463 116.446 132.473 115.497C135.112 112.77 139.568 118.029 138.559 122.727C138.148 124.605 138.962 125.548 140.989 125.735C141.364 125.842 141.868 124.619 142.171 123.115V123.095Z" fill="#7B8852"/>
<path id="Vector_83" d="M107.416 70.3352C107.416 66.9537 103.363 51.9244 101.943 50.1401C100.724 48.6365 100.32 49.0108 98.6978 53.8958L96.8735 59.4357L95.5539 56.7159L94.3425 53.9893L94.1406 57.2772L94.0397 60.5651L93.2248 56.8094C92.1144 51.9244 91.6024 37.8373 92.4172 36.9886C92.821 36.708 94.0396 38.118 95.2511 40.2765C95.8948 41.6247 96.6746 42.9135 97.5801 44.1257C97.7892 44.1257 97.7892 41.4059 97.5801 38.1113C97.1763 31.3485 98.4959 27.0248 100.724 27.7799C103.666 28.809 106.298 37.9242 108.021 52.5058L108.627 58.5202L113.393 54.0094L118.051 49.405L118.361 52.1316C118.664 53.9158 117.143 57.6715 113.797 63.4921C108.836 72.4001 107.416 73.877 107.416 70.3352Z" fill="#7B8852"/>
</g>
<g id="layer116">
<path id="Vector_84" d="M101.33 146.879C99.5125 141.806 97.9911 141.432 97.2772 145.749L96.7725 148.85L94.0612 145.188C92.5398 143.123 91.5231 141.058 91.898 140.583C95.0419 135.906 118.354 136.173 119.364 140.964C119.566 141.806 118.556 143.778 117.136 145.188L114.605 147.914L114.504 145.375C114.504 143.965 114.093 142.655 113.588 142.274C112.146 141.526 109.435 145.656 109.435 148.569C109.435 150.915 109.031 151.202 106.19 151.202C103.154 151.202 102.75 150.821 101.33 146.879ZM106.377 147.727C106.377 145.656 106.175 145.375 105.368 146.504C104.048 148.382 104.048 150.26 105.368 150.26C105.995 150.26 106.399 149.131 106.399 147.727H106.377Z" fill="#6C6889"/>
<path id="Vector_85" d="M74.4769 132.016C65.961 128.541 63.9348 118.023 70.5254 111.641C80.1517 102.245 94.8472 114.173 88.5522 126.289C85.8266 131.662 79.7479 134.108 74.4769 132.016ZM80.4546 129.296C80.2527 128.628 79.0124 127.699 77.7217 127.231C76.5031 126.663 74.8807 124.879 74.0731 123.282C73.2655 121.685 71.9099 120.188 71.1311 120.188C68.9679 120.188 70.3235 125.634 73.1573 128.354C75.4936 130.726 81.3703 131.475 80.4546 129.343V129.296ZM86.3313 122.814C87.449 116.332 83.8004 110.785 78.6303 110.785C73.6693 110.785 72.3497 112.008 74.3038 114.541C74.8158 115.234 75.1695 116.016 75.3431 116.84C75.5167 117.664 75.5066 118.512 75.3133 119.332C74.3038 124.405 79.272 126.944 81.1973 122.433C82.4087 119.239 79.9787 115.203 77.2386 116.138C75.9262 116.613 75.7243 116.419 76.7338 115.47C79.373 112.743 83.8292 118.003 82.8125 122.701C82.4087 124.578 83.2235 125.521 85.2497 125.708C85.6247 125.841 86.1294 124.431 86.3313 122.834V122.814Z" fill="#6C6889"/>
<path id="Vector_86" d="M130.216 132.016C125.168 129.951 123.322 127.232 122.818 121.217C122.414 116.145 122.616 115.584 125.659 112.389C131.334 106.375 139.438 107.043 143.895 113.893C150.081 123.329 140.455 136.079 130.216 132.016ZM136.194 129.109C136.026 128.743 135.762 128.422 135.426 128.176C135.089 127.929 134.691 127.766 134.268 127.699C132.545 127.699 130.014 124.786 129.221 121.879C128.709 120.188 128.002 119.526 126.985 119.874C124.959 120.629 125.976 125.514 128.911 128.327C131.434 130.914 137.109 131.475 136.194 129.129V129.109ZM142.171 123.095C143.491 116.994 139.539 110.792 134.369 110.792C129.408 110.792 128.089 112.015 130.043 114.548C130.555 115.24 130.909 116.023 131.082 116.847C131.256 117.671 131.246 118.519 131.052 119.339C130.043 124.411 135.011 126.951 136.936 122.44C138.148 119.246 135.718 115.209 132.985 116.145C131.665 116.619 131.463 116.426 132.473 115.477C135.112 112.75 139.568 118.009 138.559 122.707C138.148 124.585 138.962 125.527 140.989 125.715C141.364 125.842 141.868 124.619 142.171 123.115V123.095Z" fill="#6C6889"/>
</g>
<g id="layer117">
<path id="Vector_87" d="M102.346 149.324C102.346 146.598 99.4043 141.619 98.2939 142.274C97.6882 142.655 97.2772 143.965 97.2772 145.375L97.1762 147.914L94.6453 145.188C93.2031 143.778 92.2152 141.9 92.4171 141.058C93.4266 136.38 115.823 135.892 118.866 140.584C119.169 141.058 118.462 142.936 117.345 144.72C115.419 147.44 115.117 147.634 114.713 146.057C114.524 144.975 114.252 143.908 113.898 142.862C113.177 140.797 110.66 143.424 109.442 147.54C108.526 150.735 108 151.209 105.389 151.209C102.952 151.202 102.346 150.821 102.346 149.324ZM106.399 147.727C106.399 145.656 106.197 145.375 105.389 146.504C104.07 148.382 104.07 150.26 105.389 150.26C105.995 150.26 106.399 149.131 106.399 147.727Z" fill="#635F9C"/>
<path id="Vector_88" d="M167.51 94.1856C167.719 94.0443 167.972 93.9683 168.231 93.9683C168.49 93.9683 168.742 94.0443 168.952 94.1856C169.255 94.5665 168.952 94.8539 168.231 94.8539C167.51 94.8539 167.207 94.5932 167.51 94.1856Z" fill="#635F9C"/>
<path id="Vector_89" d="M41.5382 89.6815C40.4278 86.3936 40.0167 81.0408 40.0961 71.3643C40.197 59.3355 40.6008 56.5288 43.3337 46.8522C46.8814 34.5494 51.1357 24.1312 56.5077 14.6351L60.1708 8.05933L60.9856 11.3472C61.2884 13.1315 61.9951 20.2753 62.2979 27.2252C63.2137 42.1543 61.6922 55.2123 58.4474 62.7236C56.0174 68.4573 53.6883 70.1414 53.6883 66.2921C53.5172 63.8191 53.1435 61.3618 52.5706 58.9412L51.3592 53.9626L49.4484 59.1751C45.5906 69.413 44.4009 74.8593 43.7663 84.5359L43.0453 94.3995L41.5382 89.6815Z" fill="#635F9C"/>
<path id="Vector_90" d="M169.334 88.1779C169.233 85.3578 168.728 80.4794 168.224 77.3787C166.702 69.4864 162.037 55.3994 161.013 55.9607C160.602 56.1478 159.895 58.4066 159.571 60.8457C158.453 67.9828 158.129 68.865 156.427 67.5284C153.492 65.2764 150.752 54.3769 150.247 42.6355C149.642 29.5842 150.752 9.38916 152.072 9.38916C155.006 9.38916 167.171 38.412 170.819 54.0027C173.048 63.8663 173.149 83.3062 170.92 89.2271L169.399 93.4505L169.334 88.1779Z" fill="#635F9C"/>
<path id="Vector_91" d="M138.934 64.2272C138.934 63.1914 139.237 62.8907 139.539 63.6659C139.681 63.9484 139.745 64.2586 139.728 64.5696C139.71 64.8806 139.611 65.1829 139.438 65.4502C139.136 65.8578 138.833 65.263 138.934 64.2272Z" fill="#635F9C"/>
<path id="Vector_92" d="M139.842 55.3993C139.842 54.731 140.145 54.457 140.563 54.731C140.718 54.9244 140.801 55.1586 140.801 55.3993C140.801 55.6399 140.718 55.8742 140.563 56.0676C140.145 56.3349 139.842 56.0542 139.842 55.3993Z" fill="#635F9C"/>
<path id="Vector_93" d="M140.859 47.8881C140.859 47.2198 141.162 46.9458 141.58 47.2198C141.732 47.414 141.814 47.6479 141.814 47.8881C141.814 48.1282 141.732 48.3621 141.58 48.5563C141.162 48.8236 140.859 48.543 140.859 47.8881Z" fill="#635F9C"/>
</g>
<g id="layer118">
<path id="Vector_94" d="M72.1479 130.913C68.8021 128.755 66.8768 124.618 66.8768 119.733C66.8768 116.165 67.4825 114.848 70.3236 112.035C73.2583 109.028 74.4769 108.466 77.9237 108.466C88.9705 108.466 94.2416 121.992 86.0285 129.597C83.5985 131.849 82.0771 132.417 78.6303 132.417C76.3013 132.417 73.3593 131.755 72.1479 130.913ZM80.4546 129.129C80.2874 128.763 80.0233 128.442 79.6868 128.196C79.3503 127.949 78.9523 127.785 78.5294 127.719C76.806 127.719 74.275 124.805 73.4819 121.898C72.9771 120.301 72.2705 119.546 71.3186 119.894C67.0643 121.397 72.8401 130.512 78.1111 130.512C80.2527 130.539 80.8584 130.158 80.4546 129.129ZM86.6415 122.74C87.4491 118.731 85.12 113.351 81.6733 111.28C79.4451 109.876 78.5294 109.876 75.9984 110.812C72.5517 112.148 72.4507 112.409 74.4769 114.949C74.924 115.596 75.2259 116.32 75.3646 117.078C75.5034 117.835 75.4762 118.611 75.2845 119.359C74.275 124.431 79.2432 127.064 81.1685 122.46C82.3799 119.266 79.9499 115.229 77.2098 116.165C75.8975 116.639 75.6956 116.445 76.7051 115.496C79.3442 112.77 83.8004 118.029 82.7837 122.727C82.3799 124.605 83.1947 125.547 85.3219 125.734C85.7257 125.841 86.3314 124.431 86.6415 122.74Z" fill="#9FAE25"/>
<path id="Vector_95" d="M127.887 130.913C124.541 128.755 122.616 124.618 122.616 119.733C122.616 116.165 123.222 114.848 126.063 112.035C128.997 109.028 130.216 108.466 133.663 108.466C144.709 108.466 149.981 121.992 141.768 129.597C139.337 131.849 137.816 132.417 134.369 132.417C132.04 132.417 129.098 131.755 127.887 130.913ZM136.194 129.129C136.026 128.763 135.762 128.442 135.426 128.196C135.089 127.949 134.691 127.785 134.268 127.719C132.545 127.719 130.014 124.899 129.221 121.992C128.911 120.656 127.901 119.546 126.986 119.546C124.757 119.546 125.976 125.467 128.81 128.28C131.435 130.913 137.109 131.475 136.194 129.129ZM142.38 122.74C143.188 118.731 140.859 113.351 137.412 111.28C135.184 109.876 134.268 109.876 131.737 110.812C128.291 112.148 128.19 112.409 130.216 114.949C130.663 115.596 130.965 116.32 131.104 117.078C131.242 117.835 131.215 118.611 131.024 119.359C130.014 124.431 134.982 127.064 136.907 122.46C138.119 119.266 135.689 115.229 132.956 116.165C131.636 116.639 131.435 116.445 132.444 115.496C135.083 112.77 139.539 118.029 138.53 122.727C138.119 124.605 138.934 125.547 141.061 125.734C141.465 125.841 142.07 124.431 142.373 122.74H142.38Z" fill="#9FAE25"/>
<path id="Vector_96" d="M107.416 70.3351C107.416 66.9536 103.363 51.9243 101.943 50.14C100.724 48.6364 100.32 49.0107 98.6978 53.8957L96.8735 59.4356L95.6549 56.7158L94.4435 53.9893L94.0397 57.2771C93.5277 61.7879 91.8765 45.8163 92.4173 40.4635L92.7201 36.3336L95.453 40.938L98.1931 45.5357L97.9912 37.5566C97.8902 33.1393 98.1931 29.0094 98.7122 28.3478C100.154 26.1893 102.967 29.5708 104.791 35.4849C106.009 39.6215 108.339 54.457 108.44 58.4065C108.44 58.6872 110.675 56.8093 113.487 54.1764L118.535 49.2913V52.1114C118.535 54.9315 109.615 72.3065 108.194 72.3065C107.718 72.3065 107.416 71.3642 107.416 70.3351Z" fill="#9FAE25"/>
</g>
<g id="layer119">
<path id="Vector_97" d="M102.044 147.821C100.926 141.806 97.2774 139.554 97.2774 144.907L97.1764 147.914L94.6455 145.188C93.2033 143.778 92.2155 141.9 92.4174 141.058C93.4269 136.38 115.823 135.892 118.866 140.583C119.169 141.058 118.463 142.936 117.244 144.72C115.081 147.914 115.081 147.914 114.713 145.562C113.797 140.022 111.367 140.964 109.442 147.727C108.526 150.728 107.92 151.202 105.49 151.202C103.06 151.202 102.548 150.728 102.044 147.821ZM107.012 148.756C106.632 147.63 106.426 146.46 106.399 145.281C106.399 143.59 106.197 143.497 105.389 144.613C103.767 146.865 104.171 150.246 105.995 150.246C107.113 150.26 107.416 149.792 107.041 148.756H107.012Z" fill="#7672AB"/>
<path id="Vector_98" d="M41.1346 87.4294C37.8897 74.0641 39.6924 56.903 46.7085 37.0822C50.2562 27.0582 59.4787 7.87222 60.4089 8.62736C61.6275 9.84361 62.6442 37.6502 61.851 46.478C60.8415 56.4352 57.3948 67.1408 55.3614 67.1408C54.7484 67.1408 53.8399 64.5079 53.1981 61.3135C52.5564 58.1192 51.756 55.1187 51.3738 54.838C50.3571 53.8958 44.7832 71.5447 43.5646 79.8179C42.9589 84.1416 42.656 89.1201 43.0598 90.8109C44.1775 96.5379 42.757 93.925 41.1346 87.4294Z" fill="#7672AB"/>
<path id="Vector_99" d="M169.053 84.048C168.447 75.1199 164.799 60.8457 161.958 55.9808C160.847 54.1965 160.516 54.7645 159.427 60.5851C158.706 64.2472 157.905 67.6286 157.804 68.0964C157.199 69.6 153.478 61.9952 151.928 56.355C150.305 50.3406 150.103 15.1296 151.726 11.3672C152.634 9.30228 152.937 9.58295 156.283 15.5974C161.554 24.893 167.027 39.2674 170.07 51.1893C173.105 63.4988 173.61 81.9964 171.079 89.2337L169.637 93.4572L169.053 84.048Z" fill="#7672AB"/>
</g>
<g id="layer121">
<path id="Vector_100" d="M72.1479 130.914C68.903 128.849 66.8768 124.619 66.8768 119.827C66.8768 111.848 74.9817 106.402 82.4809 109.309C89.0715 111.848 91.6025 118.424 88.6677 125.467C86.0286 131.849 77.8227 134.576 72.1479 130.914ZM80.3609 128.675C80.0581 127.639 79.4524 126.984 79.0413 127.265C77.4261 128.201 73.9938 124.726 73.9938 122.099C73.9938 119.934 73.59 119.466 71.9676 119.56C66.4947 119.934 72.3714 130.553 78.0463 130.553C80.3609 130.54 80.7575 130.159 80.3609 128.675ZM86.6487 122.754C87.961 116.178 82.1852 109.135 76.6113 110.451C73.0636 111.2 72.5589 112.329 74.2823 114.675C75.1908 115.898 76.0056 116.178 76.5104 115.617C76.6562 115.344 76.8705 115.108 77.1352 114.928C77.3999 114.747 77.7074 114.629 78.0318 114.581C79.2505 114.581 82.0843 117.308 82.0843 118.531C82.0843 119.092 81.2767 118.531 80.159 117.308C78.5366 115.43 78.0318 115.336 76.6113 116.366C74.9889 117.702 74.4481 120.783 75.6018 123.409C76.6113 125.761 79.8562 125.193 81.5795 122.38L83.2019 119.747L82.69 122.286C82.1852 124.538 82.8991 125.574 85.3291 125.761C85.7257 125.842 86.3314 124.432 86.6415 122.741L86.6487 122.754Z" fill="#BECF28"/>
<path id="Vector_101" d="M127.887 130.914C124.642 128.849 122.616 124.619 122.616 119.827C122.616 116.446 123.222 114.949 125.659 112.409C135.184 102.385 150.687 113.819 144.407 126.216C141.465 131.943 133.057 134.295 127.887 130.914ZM136.093 128.675C135.79 127.639 135.184 127.078 134.651 127.265C133.208 128.107 129.69 124.164 129.69 121.718C129.69 119.934 129.185 119.466 127.663 119.56C122.19 119.934 128.067 130.553 133.742 130.553C136.093 130.539 136.496 130.158 136.093 128.675ZM142.481 122.473C143.794 115.991 137.917 109.108 132.343 110.445C128.896 111.193 128.291 112.229 129.913 114.454C130.822 115.791 131.535 116.051 132.444 115.396C133.353 114.742 134.268 114.728 135.487 115.49C137.21 116.519 137.21 116.519 135.386 116.051C132.848 115.209 130.721 117.087 130.721 120.094C130.721 125.066 134.78 126.383 137.311 122.346L138.934 119.713L138.53 122.253C138.119 124.505 138.833 125.541 141.061 125.728C141.465 125.841 142.07 124.338 142.481 122.46V122.473Z" fill="#BECF28"/>
<path id="Vector_102" d="M136.807 118.33C136.807 117.662 137.109 117.388 137.528 117.662C137.68 117.856 137.762 118.09 137.762 118.33C137.762 118.57 137.68 118.804 137.528 118.998C137.109 119.266 136.807 118.985 136.807 118.33Z" fill="#BECF28"/>
<path id="Vector_103" d="M108.021 69.3929C107.718 68.17 106.904 65.0759 106.399 62.443C104.676 54.8381 102.245 48.7301 101.027 49.0776C100.421 49.2647 99.2026 51.4299 98.1931 54.0562L96.5706 58.6606L95.453 55.3727L94.4435 52.0848L94.1406 55.8405C93.9387 59.1284 93.8306 58.9412 93.2249 53.9627C92.8211 50.8619 92.4173 45.6026 92.3163 42.2212L92.2154 36.1199L95.2511 40.7978L98.294 45.4757L98.0921 37.2092C98.0921 32.7051 98.395 28.5685 99.0007 28.0071C101.539 25.6615 105.49 34.8636 106.932 46.5115C107.243 49.6122 107.747 53.6486 108.05 55.62L108.656 59.1885L112.715 54.8715C114.944 52.5192 117.172 50.6414 117.676 50.6414C118.895 50.6414 118.895 55.62 117.676 56.8429C117.172 57.3107 114.944 60.7857 112.629 64.6349C109.038 70.803 108.526 71.4579 108.021 69.3929Z" fill="#BECF28"/>
</g>
<g id="layer122">
<path id="Vector_104" d="M72.1479 130.914C68.903 128.849 66.8768 124.619 66.8768 119.827C66.8768 111.848 74.9817 106.402 82.4809 109.309C89.0715 111.848 91.6025 118.424 88.6677 125.467C86.0286 131.849 77.8227 134.576 72.1479 130.914ZM80.2527 128.187C80.0508 126.851 79.4451 126.122 78.9332 126.309C77.6208 127.065 73.9722 123.302 73.9722 121.237C73.9722 119.901 73.3593 119.453 71.946 119.547C66.574 119.921 72.3498 130.54 78.0246 130.54C80.4547 130.54 80.7575 130.252 80.2527 128.187ZM86.7424 122.647C87.9538 116.165 82.178 109.122 76.6041 110.438C75.162 110.719 73.6693 111.374 73.3593 111.848C72.5517 113.064 75.5225 116.526 76.6041 115.697C77.1089 115.323 76.806 115.884 75.883 116.92C74.6644 118.33 74.4409 119.547 75.162 121.899C76.1787 125.467 79.0125 125.908 81.4497 122.834C83.0721 120.676 83.0721 120.676 82.0554 122.741C80.7359 125.467 80.6133 125.374 83.5769 125.467C85.6247 125.654 86.2305 125.086 86.7424 122.661V122.647Z" fill="#918C9B"/>
<path id="Vector_105" d="M127.887 130.914C124.642 128.849 122.616 124.619 122.616 119.827C122.616 116.446 123.222 114.949 125.659 112.41C135.184 102.386 150.687 113.82 144.407 126.216C141.465 131.943 133.057 134.295 127.887 130.914ZM136.295 127.813C136.295 125.808 135.992 125.28 135.083 126.029C133.562 127.158 129.711 123.777 129.711 121.237C129.711 119.901 129.098 119.453 127.685 119.547C122.414 119.921 128.089 130.54 133.562 130.54C135.884 130.54 136.295 130.159 136.295 127.813ZM142.481 122.467C143.794 115.985 137.917 109.102 132.343 110.438C130.901 110.719 129.408 111.374 129.098 111.848C128.291 113.064 131.261 116.526 132.343 115.697C132.848 115.323 132.545 115.885 131.622 116.92C130.403 118.33 130.18 119.547 130.901 121.899C131.918 125.467 134.759 125.909 137.189 122.835C138.811 120.77 138.811 120.77 137.794 122.741C136.778 124.712 137.29 125.18 141.039 125.748C141.465 125.748 142.07 124.338 142.481 122.46V122.467Z" fill="#918C9B"/>
</g>
<g id="layer123">
<path id="Vector_106" d="M102.851 150.059C102.649 149.391 101.943 147.239 101.33 145.268C99.8876 141.138 97.2773 140.857 96.2822 144.6L95.6693 146.852L93.9531 144.6C91.314 141.125 91.7899 140.182 96.9888 138.585C105.642 135.865 117.763 137.463 118.376 141.499C118.578 142.535 117.763 144.413 116.653 145.629L114.626 147.888L114.525 144.88C114.525 142.722 114.013 141.78 113.004 141.78C111.381 141.78 110.062 144.132 109.052 148.636C108.641 150.046 107.935 151.175 107.329 151.175C106.723 151.175 106.608 150.795 106.918 150.233C107.834 148.897 106.312 142.441 105.303 143.377C104.892 143.751 104.387 145.722 104.185 147.7C103.969 151.396 103.565 152.064 102.851 150.059Z" fill="#8784B5"/>
<path id="Vector_107" d="M72.1478 130.913C68.903 128.848 66.8768 124.618 66.8768 119.827C66.8768 116.445 67.4825 114.949 69.9197 112.409C79.546 102.171 94.8472 113.632 88.2566 126.122C87.0452 128.374 84.918 130.726 83.4975 131.288C79.9498 132.885 74.7797 132.684 72.1478 130.913ZM80.2527 128.187C80.0508 126.85 79.4451 126.122 78.9331 126.309C77.6208 127.064 73.9721 123.302 73.9721 121.143C74.006 120.889 73.9769 120.631 73.8871 120.389C73.7972 120.147 73.649 119.927 73.4536 119.746C73.2583 119.565 73.0209 119.428 72.7597 119.344C72.4984 119.261 72.2201 119.234 71.9459 119.266C70.4244 119.266 69.9197 119.934 69.9197 121.992C69.9197 125.841 74.3759 130.539 78.0246 130.539C80.4546 130.539 80.7574 130.252 80.2527 128.187ZM86.6414 122.741C87.9538 116.165 82.178 109.121 76.604 110.438C75.1619 110.718 73.6693 111.373 73.3592 111.848C72.5516 113.064 75.5224 116.526 76.604 115.697C77.1088 115.323 76.8059 115.884 75.883 116.92C74.6644 118.33 74.4408 119.546 75.1619 121.899C76.1786 125.467 79.0124 125.908 81.4497 122.834C83.0721 120.676 83.0721 120.676 82.0554 122.741C80.6132 125.654 80.7358 125.841 83.5768 125.841C85.5237 125.841 86.1294 125.28 86.6414 122.741Z" fill="#8784B5"/>
<path id="Vector_108" d="M127.483 130.539C123.935 128 122.313 123.777 122.919 118.704C124.541 104.992 143.592 105.272 145.618 119.172C147.039 128.942 135.285 136.266 127.483 130.539ZM136.295 127.813C136.295 125.808 135.992 125.28 135.083 126.029C133.562 127.158 129.711 123.777 129.711 121.144C129.745 120.889 129.716 120.631 129.626 120.389C129.536 120.147 129.388 119.927 129.193 119.746C128.997 119.565 128.76 119.428 128.499 119.345C128.237 119.261 127.959 119.234 127.685 119.266C126.163 119.266 125.659 119.934 125.659 121.992C125.659 125.748 130.115 130.539 133.591 130.539C135.884 130.539 136.295 130.158 136.295 127.813ZM142.481 122.467C143.794 115.985 137.917 109.101 132.343 110.438C130.901 110.719 129.408 111.373 129.098 111.848C128.291 113.064 131.261 116.526 132.343 115.697C132.848 115.323 132.545 115.884 131.622 116.92C130.403 118.33 130.18 119.546 130.901 121.899C131.918 125.467 134.759 125.908 137.189 122.834C138.71 120.863 138.811 120.863 137.91 122.647C136.698 124.899 137.304 125.841 139.936 125.841C141.263 125.841 141.969 124.806 142.481 122.46V122.467Z" fill="#8784B5"/>
<path id="Vector_109" d="M40.6297 84.5156C38.1925 72.3063 40.4278 54.644 46.7083 37.0686C49.9532 28.0537 58.6709 10.3379 59.8823 10.3379C61.0937 10.3379 62.1105 33.4399 61.5048 44.1455C60.8991 53.9156 58.7719 62.7434 56.2337 66.0313C55.1233 67.5349 54.7916 66.9735 53.6018 61.0527C52.8807 57.3906 51.9794 54.1963 51.5756 53.9156C49.6503 52.7862 42.9227 76.7369 42.2521 87.329C42.0502 91.372 41.942 91.2517 40.6297 84.5156Z" fill="#8784B5"/>
<path id="Vector_110" d="M169.435 80.8536C168.115 71.7384 162.65 54.457 161.128 54.457C160.407 54.457 159.405 57.8385 157.782 66.1985C157.278 69.1121 153.456 61.6008 152.108 54.9315C150.889 49.0107 150.665 21.3043 151.805 13.6058L152.526 8.92798L157.191 17.8493C167.12 36.6343 172.492 56.3549 172.391 73.7365C172.391 79.4636 171.988 85.2842 171.476 86.7878C170.755 89.0198 170.452 88.0842 169.435 80.8536Z" fill="#8784B5"/>
</g>
<g id="layer124">
<path id="Vector_111" d="M72.1477 130.914C66.6748 127.439 65.0524 117.949 69.1048 113.164C78.6302 101.984 95.0634 113.064 88.2565 126.122C87.0451 128.374 84.9179 130.726 83.4974 131.288C79.9497 132.885 74.7796 132.684 72.1477 130.914ZM80.2526 128.187C80.0507 126.85 79.445 126.122 78.933 126.309C77.6207 127.064 73.972 123.302 73.972 121.143C74.0059 120.889 73.9768 120.631 73.887 120.389C73.7971 120.147 73.6489 119.927 73.4535 119.746C73.2582 119.565 73.0208 119.428 72.7596 119.344C72.4983 119.261 72.22 119.234 71.9458 119.266C69.4076 119.266 69.2057 122.741 71.4339 126.777C73.0563 129.691 74.2749 130.345 78.1254 130.446C80.4545 130.539 80.7573 130.252 80.2526 128.187ZM86.5404 123.776C87.9825 118.611 85.6246 112.69 81.4928 110.906C78.248 109.569 76.8275 109.569 74.4984 111.186C72.876 112.316 72.7751 112.596 74.1956 114.381C75.0032 115.51 76.1208 116.165 76.6256 115.717C77.1303 115.269 76.8275 115.904 75.9045 116.94C74.6859 118.35 74.4624 119.566 75.1834 121.919C76.2002 125.487 79.034 125.928 81.4712 122.854C83.0936 120.696 83.0936 120.696 82.0769 122.761C80.6348 125.581 80.7573 125.861 83.5191 125.861C84.2117 125.922 84.904 125.742 85.462 125.357C86.0201 124.972 86.4043 124.409 86.5404 123.776Z" fill="#D1E42A"/>
<path id="Vector_112" d="M126.87 129.784C125.147 128.28 123.423 125.935 123.02 124.525C122.01 120.769 123.221 114.661 125.349 112.496C135.083 102.258 150.586 113.532 143.996 126.115C140.455 132.978 132.444 134.689 126.87 129.784ZM136.294 127.813C136.294 125.808 135.992 125.28 135.083 126.028C133.562 127.158 129.711 123.776 129.711 121.143C129.745 120.889 129.716 120.631 129.626 120.389C129.536 120.147 129.388 119.927 129.193 119.746C128.997 119.565 128.76 119.428 128.499 119.344C128.237 119.261 127.959 119.234 127.685 119.265C125.147 119.265 124.945 122.74 127.173 126.777C128.795 129.69 130.014 130.345 133.764 130.446C135.883 130.539 136.294 130.065 136.294 127.813ZM142.279 123.803C143.722 118.637 141.364 112.716 137.232 110.932C133.987 109.596 132.567 109.596 130.237 111.213C128.615 112.342 128.514 112.623 129.935 114.407C130.742 115.537 131.86 116.191 132.365 115.744C132.869 115.296 132.567 115.931 131.644 116.967C130.425 118.377 130.201 119.593 130.922 121.945C131.939 125.514 134.78 125.955 137.21 122.881C138.732 120.909 138.833 120.909 137.931 122.694C136.72 124.946 137.326 125.888 139.958 125.888C140.859 125.841 141.868 124.899 142.279 123.776V123.803Z" fill="#D1E42A"/>
<path id="Vector_113" d="M107.113 56.6222C106.802 55.6799 106.298 53.0536 105.894 50.7013C104.978 44.9743 102.548 35.7722 101.229 32.8586C100.118 30.6065 100.017 30.6065 99.2024 32.3908C98.5967 33.9813 98.3948 33.7273 98.3948 31.2614C98.1929 24.405 102.548 27.6929 104.884 36.24C107.04 43.8449 109.038 63.0977 107.113 56.6222Z" fill="#D1E42A"/>
<path id="Vector_114" d="M95.7556 44.0319C94.6452 42.5283 93.4265 41.3121 93.0227 41.3121C92.6189 41.3121 92.2151 40.1827 92.2151 38.7727C92.2151 36.427 92.6189 36.7077 95.3518 41.125C98.6976 46.5713 99.0005 48.5427 95.7556 44.0319Z" fill="#D1E42A"/>
</g>
<g id="layer125">
<path id="Vector_115" d="M99.7143 140.49C96.7724 138.485 98.6976 137.583 105.894 137.583C109.442 137.583 112.686 137.957 113.191 138.331C114.633 139.742 110.249 141.806 105.894 141.806C103.565 141.806 100.825 141.245 99.7143 140.49Z" fill="#B0B2D3"/>
<path id="Vector_116" d="M72.1477 130.914C66.6748 127.439 65.0524 117.95 69.1048 113.165C78.6302 101.985 95.0634 113.065 88.2565 126.123C87.0451 128.375 84.9179 130.727 83.4974 131.289C79.9497 132.886 74.7796 132.685 72.1477 130.914ZM80.2526 128.188C79.8488 126.123 80.1516 125.842 82.8917 125.842C85.9274 125.842 87.1461 124.245 87.1461 119.921C87.1461 116.827 84.1031 112.036 81.4712 110.907C78.2264 109.57 76.8059 109.57 74.5777 111.094C72.9553 112.129 72.9553 112.691 73.972 114.288C75.6954 116.734 74.6931 119.267 71.9458 119.267C69.4076 119.267 69.2057 122.742 71.4339 126.778C73.0563 129.691 74.2749 130.346 78.1254 130.447C80.4545 130.54 80.7573 130.253 80.2526 128.188Z" fill="#B0B2D3"/>
<path id="Vector_117" d="M126.87 129.784C125.147 128.281 123.423 125.935 123.02 124.525C122.01 120.769 123.221 114.661 125.349 112.496C135.083 102.258 150.586 113.532 143.996 126.115C140.455 132.979 132.444 134.689 126.87 129.784ZM136.294 128.007C136.294 125.755 136.597 125.38 138.934 125.661C141.666 125.942 142.885 124.251 142.885 119.927C142.885 116.833 139.842 112.042 137.21 110.912C133.965 109.576 132.545 109.576 130.317 111.099C128.694 112.135 128.694 112.697 129.711 114.294C131.434 116.74 130.432 119.272 127.685 119.272C125.147 119.272 124.945 122.747 127.173 126.784C128.795 129.697 130.014 130.352 133.764 130.453C135.992 130.539 136.395 130.158 136.294 128.007Z" fill="#B0B2D3"/>
</g>
<g id="layer126">
<path id="Vector_118" d="M72.3497 130.633C68.2972 128.374 66.4729 124.151 67.1796 118.604C67.9006 112.683 72.1478 108.927 78.1255 108.927C83.4975 108.927 86.6414 110.992 88.6676 115.877C93.0229 126.496 82.2789 136.266 72.3497 130.633ZM79.445 130.913C80.5555 130.539 80.8872 129.691 80.4545 128.093C79.8488 126.122 80.1517 125.841 82.9927 125.841C85.4227 125.841 86.2303 125.374 86.7423 123.496C88.9704 115.323 80.6564 106.963 74.5778 111.093C72.9554 112.128 72.9554 112.69 73.9721 114.287C75.6955 116.733 74.6932 119.266 71.9459 119.266C67.7853 119.266 70.2225 127.626 75.0825 130.158C78.0245 131.662 77.5198 131.568 79.445 130.913Z" fill="#DFEC6E"/>
<path id="Vector_119" d="M128.593 131.007C124.743 129.002 122.313 123.656 122.919 118.424C123.64 112.69 127.887 108.934 133.864 108.934C139.236 108.934 142.38 110.999 144.407 115.884C148.661 126.216 138.422 135.986 128.593 131.007ZM135.386 130.727C135.992 130.346 136.496 129.036 136.395 127.719C136.294 125.654 136.705 125.374 139.035 125.654C141.364 125.935 141.868 125.561 142.481 123.589C144.709 115.323 136.496 106.963 130.317 111.093C128.694 112.129 128.694 112.69 129.711 114.287C131.434 116.733 130.432 119.266 127.685 119.266C123.524 119.266 125.961 127.626 130.822 130.158C133.663 131.662 133.965 131.662 135.386 130.727Z" fill="#DFEC6E"/>
<path id="Vector_120" d="M107.415 57.2772C107.415 56.6089 107.718 56.335 108.136 56.6089C108.291 56.8023 108.374 57.0366 108.374 57.2772C108.374 57.5178 108.291 57.7521 108.136 57.9455C107.718 58.2195 107.415 57.9321 107.415 57.2772Z" fill="#DFEC6E"/>
<path id="Vector_121" d="M105.086 46.0035C104.171 41.3256 102.649 35.8659 101.741 33.9747C100.298 30.8806 100.017 30.6935 99.3033 32.3842C98.5823 33.9747 98.3948 33.7876 98.3948 31.2548C98.1929 24.492 102.447 27.6863 104.884 36.1399C106.406 41.5862 108.129 54.4504 107.322 54.4504C107.113 54.4571 106.096 50.6078 105.086 46.0035Z" fill="#DFEC6E"/>
<path id="Vector_122" d="M94.9481 42.7222C93.3257 40.8377 92.2152 38.7728 92.4171 38.0444C92.619 37.3159 93.9386 38.7928 95.4529 41.3322C97.0753 43.9585 98.1929 46.0101 97.991 46.0101C96.8987 44.9783 95.8821 43.8799 94.9481 42.7222Z" fill="#DFEC6E"/>
</g>
<g id="layer127">
<path id="Vector_123" d="M72.3497 130.633C68.2972 128.374 66.4729 124.151 67.1796 118.604C67.9006 112.683 72.1478 108.927 78.1255 108.927C83.4975 108.927 86.6414 110.992 88.6676 115.877C93.0229 126.496 82.2789 136.266 72.3497 130.633ZM79.7479 130.726C80.1167 130.404 80.3999 130.007 80.5751 129.567C80.7503 129.126 80.8127 128.654 80.7574 128.187C80.5555 126.777 81.2694 126.182 83.2956 126.028C85.3218 125.875 86.3313 125.086 86.7423 123.395C88.9704 115.323 80.6564 106.963 74.5778 111.093C72.9554 112.128 72.9554 112.69 73.9721 114.287C75.6955 116.733 74.6932 119.266 71.9459 119.266C67.7853 119.266 70.2225 127.626 75.0825 130.158C77.9236 131.662 78.1255 131.662 79.7479 130.726Z" fill="#C2C9D5"/>
<path id="Vector_124" d="M128.593 131.007C124.743 129.002 122.313 123.656 122.919 118.424C123.64 112.69 127.887 108.934 133.864 108.934C139.236 108.934 142.38 110.999 144.407 115.884C148.661 126.216 138.422 135.986 128.593 131.007ZM135.487 130.727C135.856 130.405 136.139 130.008 136.314 129.567C136.489 129.126 136.552 128.654 136.496 128.187C136.294 126.777 137.008 126.182 139.035 126.029C141.061 125.875 142.07 125.086 142.481 123.396C144.709 115.323 136.395 106.963 130.317 111.093C128.694 112.129 128.694 112.69 129.711 114.287C131.434 116.733 130.432 119.266 127.685 119.266C123.524 119.266 125.961 127.626 130.822 130.158C133.663 131.662 133.864 131.662 135.487 130.727Z" fill="#C2C9D5"/>
</g>
<g id="layer128">
<path id="Vector_125" d="M72.7534 130.727C65.9609 126.871 64.9514 116.446 70.8282 111.568C77.3179 106.115 86.6413 109.122 89.1723 117.389C92.2152 127.159 81.5722 135.893 72.7534 130.727ZM80.5555 128.676C80.5555 126.671 81.0674 126.323 83.2956 126.323C85.7256 126.417 86.2303 125.949 86.7423 123.223C88.5666 114.395 80.8583 106.884 74.484 111.194C72.8616 112.323 72.7607 112.698 73.8783 113.92C75.6017 115.925 74.3831 119.267 71.8521 119.267C67.7925 119.267 70.7344 128.85 75.2916 130.54C78.7312 131.85 80.5555 131.195 80.5555 128.676Z" fill="#D5DBEA"/>
<path id="Vector_126" d="M126.87 129.223C123.322 126.122 123.12 125.654 123.12 120.208C123.12 114.761 123.322 114.193 126.466 111.661C132.956 106.208 141.868 108.841 144.911 117.107C147.442 123.87 141.465 132.417 134.167 132.417C131.636 132.417 129.711 131.568 126.87 129.223ZM136.294 128.661C136.294 126.87 136.907 126.216 138.833 125.935C141.969 125.561 142.885 124.338 142.885 120.395C142.885 112.596 135.79 107.431 130.216 111.186C128.593 112.316 128.492 112.69 129.61 113.913C131.333 115.918 130.115 119.259 127.584 119.259C123.524 119.259 126.062 127.712 130.822 130.152C134.268 131.943 136.294 131.381 136.294 128.675V128.661Z" fill="#D5DBEA"/>
</g>
<g id="layer129">
<path id="Vector_127" d="M71.5348 129.41C67.4823 125.655 66.3719 122.554 67.3814 117.669C69.0038 109.783 78.5292 106.308 85.0188 111.374C93.2246 117.669 89.576 130.82 79.344 132.137C75.3925 132.604 74.6787 132.324 71.5348 129.41ZM80.6564 129.597C80.7573 128.849 80.8582 127.626 80.9664 126.871C81.0746 126.116 81.875 125.748 83.4974 126.029C86.4321 126.59 87.146 125.36 87.146 120.582C87.146 112.409 79.1421 106.87 73.8711 111.374C72.2486 112.784 72.2486 113.064 73.5682 114.287C75.4935 116.072 75.0103 117.575 72.1261 118.798C68.6793 120.208 69.0831 125.28 72.9337 128.755C76.2001 131.756 80.4545 132.23 80.6564 129.597Z" fill="#EFF3FF"/>
<path id="Vector_128" d="M128.391 130.54C126.701 129.212 125.263 127.631 124.137 125.862C118.26 115.25 131.232 103.976 140.722 111.394C145.279 114.869 146.49 120.035 144.067 125.2C141.731 130.179 139.907 131.495 135.047 132.157C132.141 132.511 130.619 132.137 128.391 130.54ZM136.395 129.597C136.496 128.849 136.597 127.626 136.705 126.871C136.813 126.116 137.614 125.748 139.236 126.029C142.171 126.59 142.885 125.361 142.885 120.582C142.885 112.41 134.881 106.87 129.61 111.374C127.988 112.784 127.988 113.064 129.307 114.287C131.232 116.072 130.749 117.575 127.865 118.798C124.418 120.208 124.822 125.28 128.673 128.755C131.939 131.756 136.193 132.23 136.395 129.597Z" fill="#EFF3FF"/>
</g>
</g>
</g>
</svg>
