<svg width="211" height="221" viewBox="0 0 211 221" fill="none" xmlns="http://www.w3.org/2000/svg">
<g id="Send_Mail" clip-path="url(#clip0)">
<path id="circle7" d="M18.6764 136.754C20.2721 137.189 21.9184 136.247 22.3537 134.651C22.789 133.054 21.8483 131.407 20.2527 130.972C18.657 130.537 17.0107 131.479 16.5754 133.075C16.1402 134.672 17.0808 136.319 18.6764 136.754Z" fill="#585490"/>
<path id="circle6" d="M29.6252 177.579C31.2208 178.014 32.8672 177.073 33.3024 175.476C33.7377 173.879 32.797 172.232 31.2014 171.797C29.6058 171.362 27.9594 172.304 27.5241 173.901C27.0889 175.497 28.0295 177.144 29.6252 177.579Z" fill="#C4D043"/>
<path id="circle5" d="M47.1681 149.319C47.9584 149.535 48.7738 149.068 48.9894 148.277C49.2049 147.487 48.7391 146.671 47.9488 146.456C47.1585 146.24 46.3431 146.706 46.1275 147.497C45.9119 148.288 46.3778 149.104 47.1681 149.319Z" fill="#C4D043"/>
<path id="circle4" d="M99.7208 166.722C100.511 166.938 101.327 166.472 101.542 165.681C101.758 164.89 101.292 164.074 100.501 163.859C99.7112 163.643 98.8958 164.11 98.6802 164.901C98.4646 165.691 98.9305 166.507 99.7208 166.722Z" fill="#C4D043"/>
<path id="circle3" d="M58.7845 192.583C59.5748 192.798 60.3903 192.332 60.6058 191.541C60.8214 190.75 60.3555 189.935 59.5652 189.719C58.7749 189.504 57.9595 189.97 57.7439 190.761C57.5284 191.552 57.9943 192.367 58.7845 192.583Z" fill="#585490"/>
<path id="circle2" d="M51.6849 108.073C52.4752 108.289 53.2906 107.822 53.5062 107.031C53.7218 106.241 53.2559 105.425 52.4656 105.209C51.6753 104.994 50.8599 105.46 50.6443 106.251C50.4288 107.042 50.8947 107.858 51.6849 108.073Z" fill="#585490"/>
<path id="circle1" d="M8.89665 168.654C7.28203 168.161 5.92238 167.059 5.10502 165.582C4.28765 164.104 4.07661 162.366 4.51647 160.735C4.95634 159.104 6.01266 157.708 7.46223 156.842C8.91179 155.975 10.641 155.707 12.2845 156.092L12.3186 156.102C13.1374 156.322 13.9046 156.702 14.5763 157.219C15.248 157.736 15.8109 158.382 16.2328 159.117C16.8803 160.233 17.1812 161.516 17.0974 162.804C17.0136 164.091 16.5488 165.325 15.7621 166.347C14.9755 167.37 13.9026 168.135 12.68 168.546C11.4574 168.957 10.1404 168.994 8.89665 168.654ZM11.9469 157.465C10.8083 157.162 9.59991 157.264 8.5275 157.752C7.45509 158.241 6.58504 159.086 6.06561 160.144C5.54619 161.203 5.40952 162.408 5.67891 163.556C5.94829 164.703 6.60706 165.722 7.54295 166.438C8.47884 167.153 9.63395 167.522 10.8114 167.481C11.9889 167.44 13.116 166.992 14.0005 166.213C14.885 165.434 15.4723 164.373 15.6622 163.209C15.8522 162.046 15.633 160.852 15.0422 159.833C14.7078 159.253 14.2622 158.746 13.731 158.34C13.1997 157.933 12.5934 157.636 11.9469 157.465Z" fill="#C4D043"/>
<path id="line4" d="M45.2754 177.099C45.042 177.035 44.829 176.911 44.657 176.741C44.485 176.57 44.3596 176.358 44.293 176.126C44.2264 175.893 44.2208 175.646 44.2767 175.411C44.3325 175.175 44.448 174.957 44.6121 174.779C45.3189 174.012 62.0454 155.916 68.8659 151.681C69.0238 151.576 69.2012 151.503 69.3877 151.468C69.5742 151.433 69.7658 151.435 69.9513 151.476C70.1367 151.516 70.3121 151.593 70.4669 151.703C70.6218 151.813 70.7529 151.953 70.8526 152.114C70.9522 152.276 71.0183 152.456 71.0468 152.644C71.0754 152.831 71.0658 153.023 71.0188 153.207C70.9717 153.391 70.888 153.563 70.7728 153.714C70.6576 153.865 70.5132 153.991 70.3482 154.085C63.856 158.109 46.8625 176.513 46.6891 176.693C46.5133 176.884 46.2885 177.023 46.0391 177.095C45.7897 177.166 45.5255 177.168 45.2754 177.099Z" fill="#585490"/>
<path id="line3" d="M53.5758 138.73C53.4403 138.693 53.3191 138.616 53.2277 138.509C53.1363 138.402 53.0789 138.27 53.0627 138.131C53.0466 137.991 53.0724 137.85 53.137 137.725C53.2016 137.6 53.302 137.497 53.4253 137.429C53.6923 137.282 60.0748 133.822 62.5669 133.219C62.6574 133.197 62.7513 133.194 62.8432 133.208C62.935 133.223 63.0231 133.256 63.1023 133.305C63.1815 133.353 63.2503 133.417 63.3047 133.493C63.3591 133.568 63.398 133.654 63.4193 133.745C63.4619 133.925 63.4316 134.116 63.3349 134.275C63.2382 134.433 63.0829 134.548 62.9026 134.593C60.5554 135.147 54.1636 138.641 54.0961 138.674C53.9362 138.759 53.7499 138.779 53.5758 138.73Z" fill="#C4D043"/>
<path id="line2" d="M70.3024 178.179C70.1423 178.134 69.9909 178.063 69.8545 177.969C69.7029 177.861 69.574 177.725 69.4752 177.567C69.3764 177.41 69.3096 177.235 69.2787 177.051C69.2477 176.868 69.2532 176.68 69.2949 176.499C69.3365 176.318 69.4135 176.147 69.5214 175.995C72.4021 171.954 84.3397 162.214 84.8402 161.801C85.1311 161.563 85.5043 161.451 85.8776 161.489C86.251 161.527 86.594 161.712 86.8311 162.003C87.0683 162.294 87.1802 162.667 87.1422 163.041C87.1041 163.414 86.9194 163.758 86.6285 163.995C86.5064 164.094 74.4927 173.871 71.8269 177.635C71.6591 177.871 71.4228 178.05 71.1501 178.147C70.8775 178.244 70.5815 178.255 70.3024 178.179Z" fill="#C4D043"/>
<path id="line1" d="M35.9396 129.337C35.7241 129.286 35.5299 129.169 35.3846 129.001C35.2393 128.834 35.15 128.625 35.1293 128.405C35.1087 128.184 35.1577 127.962 35.2695 127.771C35.3814 127.58 35.5503 127.428 35.7526 127.338C39.1468 125.816 42.6072 124.321 46.0422 122.891C48.9395 121.689 51.8739 120.511 54.7656 119.409C54.8968 119.351 55.0385 119.319 55.1822 119.317C55.3258 119.315 55.4685 119.342 55.6014 119.396C55.7343 119.451 55.8547 119.532 55.9552 119.635C56.0558 119.737 56.1345 119.859 56.1864 119.993C56.2383 120.127 56.2625 120.27 56.2574 120.414C56.2523 120.558 56.218 120.699 56.1566 120.829C56.0953 120.959 56.0082 121.075 55.9005 121.17C55.7929 121.266 55.667 121.338 55.5306 121.383C52.6469 122.509 49.7279 123.684 46.848 124.876C43.4303 126.296 39.9854 127.788 36.6086 129.3C36.396 129.386 36.1605 129.4 35.9396 129.337Z" fill="#585490"/>
<g id="send">
<path id="left" d="M76.6631 71.2553L99.4219 88.3885L94.9416 106.219L194.73 50.0291L76.6631 71.2553Z" fill="#D3D3D3"/>
<path id="right" d="M142.491 137.223L117.807 103.736L99.3925 103.587L197.906 50.8952L142.491 137.223Z" fill="#D3D3D3"/>
<path id="Vector" d="M71.1818 64.5096C70.3172 64.6528 69.5103 65.0366 68.8533 65.617C68.1964 66.1975 67.7159 66.9511 67.4668 67.7919C67.2178 68.6326 67.2102 69.5264 67.445 70.371C67.6798 71.2157 68.1475 71.9771 68.7946 72.5681L88.5236 90.5308C88.8173 90.7877 89.0555 91.1018 89.2236 91.4541C89.3761 91.8138 89.4525 92.2012 89.4478 92.5919L89.3254 123.895C89.3012 124.918 89.6224 125.921 90.2372 126.739C90.852 127.558 91.7246 128.146 92.7142 128.408C93.6895 128.695 94.733 128.647 95.678 128.271C96.6231 127.895 97.4151 127.214 97.9277 126.335L105.91 113.165C106.179 112.736 106.558 112.386 107.008 112.153C107.458 111.92 107.962 111.812 108.467 111.841C108.839 111.861 109.201 111.957 109.534 112.124C109.866 112.29 110.161 112.523 110.4 112.807L144.234 152.312C144.722 152.882 145.34 153.326 146.036 153.605C146.733 153.885 147.486 153.991 148.233 153.917C148.98 153.842 149.697 153.587 150.324 153.175C150.952 152.763 151.47 152.205 151.835 151.55L208.564 49.7429C208.991 48.9758 209.194 48.1038 209.148 47.2269C209.103 46.35 208.812 45.5037 208.308 44.7851C207.803 44.0665 207.107 43.5047 206.298 43.1641C205.489 42.8235 204.601 42.7179 203.735 42.8595L202.036 43.1289L71.1818 64.5096ZM70.0547 71.1683C69.6743 70.8095 69.401 70.3521 69.2651 69.847C69.1292 69.3419 69.136 68.8089 69.2849 68.3074C69.4337 67.8059 69.7188 67.3555 70.1082 67.0063C70.4977 66.6572 70.9763 66.423 71.4909 66.3299L202.306 44.9604L204.038 44.7002C204.555 44.6246 205.083 44.6938 205.563 44.9002C206.042 45.1066 206.456 45.4421 206.756 45.8694C207.057 46.2967 207.233 46.799 207.266 47.3206C207.298 47.8423 207.186 48.3627 206.94 48.8242L150.225 150.635C150.067 150.921 149.858 151.177 149.61 151.39C149.044 151.866 148.314 152.102 147.576 152.046C146.838 151.99 146.152 151.647 145.665 151.091L111.887 111.623C111.549 111.226 111.145 110.89 110.693 110.631L203.811 49.2384C204.174 49.0001 204.442 48.6432 204.571 48.2288C204.7 47.8145 204.681 47.3683 204.517 46.9665C204.353 46.5647 204.055 46.2322 203.674 46.0259C203.293 45.8197 202.851 45.7523 202.426 45.8355C202.322 45.8588 202.221 45.8899 202.122 45.9285L90.4626 89.9167C90.2636 89.6369 90.034 89.3802 89.7781 89.1514L70.0547 71.1683Z" fill="#C4D043"/>
<path id="Vector_2" d="M71.1818 64.5096C70.3172 64.6528 69.5103 65.0366 68.8533 65.617C68.1964 66.1975 67.7159 66.9511 67.4668 67.7919C67.2178 68.6326 67.2102 69.5264 67.445 70.371C67.6798 71.2157 68.1475 71.9771 68.7946 72.5681L88.5236 90.5308C88.8173 90.7877 89.0555 91.1018 89.2236 91.4541C89.3761 91.8138 89.4525 92.2012 89.4478 92.5919L89.3254 123.895C89.3012 124.918 89.6224 125.921 90.2372 126.739C90.852 127.558 91.7246 128.146 92.7142 128.408C93.6895 128.695 94.733 128.647 95.678 128.271C96.6231 127.895 97.4151 127.214 97.9277 126.335L105.91 113.165C106.179 112.736 106.558 112.386 107.008 112.153C107.458 111.92 107.962 111.812 108.467 111.841C108.839 111.861 109.201 111.957 109.534 112.124C109.866 112.29 110.161 112.523 110.4 112.807L144.234 152.312C144.722 152.882 145.34 153.326 146.036 153.605C146.733 153.885 147.486 153.991 148.233 153.917C148.98 153.842 149.697 153.587 150.324 153.175C150.952 152.763 151.47 152.205 151.835 151.55L208.564 49.7429C208.991 48.9758 209.194 48.1038 209.148 47.2269C209.103 46.35 208.812 45.5037 208.308 44.7851C207.803 44.0665 207.107 43.5047 206.298 43.1641C205.489 42.8235 204.601 42.7179 203.735 42.8595L202.036 43.1289L71.1818 64.5096ZM70.0547 71.1683C69.6743 70.8095 69.401 70.3521 69.2651 69.847C69.1292 69.3419 69.136 68.8089 69.2849 68.3074C69.4337 67.8059 69.7188 67.3555 70.1082 67.0063C70.4977 66.6572 70.9763 66.423 71.4909 66.3299L202.306 44.9604L204.038 44.7002C204.555 44.6246 205.083 44.6938 205.563 44.9002C206.042 45.1066 206.456 45.4421 206.756 45.8694C207.057 46.2967 207.233 46.799 207.266 47.3206C207.298 47.8423 207.186 48.3627 206.94 48.8242L150.225 150.635C150.067 150.921 149.858 151.177 149.61 151.39C149.044 151.866 148.314 152.102 147.576 152.046C146.838 151.99 146.152 151.647 145.665 151.091L111.887 111.623C111.549 111.226 111.145 110.89 110.693 110.631C110.059 110.253 109.342 110.035 108.604 109.996L108.293 109.984C107.5 109.992 106.723 110.201 106.033 110.592C105.344 110.983 104.766 111.544 104.352 112.221L96.3605 125.424C96.0534 125.953 95.577 126.362 95.0084 126.586C94.4399 126.81 93.8124 126.835 93.2278 126.658C92.6311 126.507 92.1042 126.156 91.735 125.663C91.3657 125.171 91.1764 124.566 91.1986 123.951L91.308 92.6156C91.3131 92.2865 91.2799 91.9578 91.209 91.6364C91.1445 91.3273 91.0476 91.0258 90.9197 90.7371C90.7925 90.4539 90.6382 90.1837 90.4589 89.9303C90.2599 89.6505 90.0303 89.3938 89.7744 89.165L70.0547 71.1683Z" fill="#585490"/>
<path id="Vector_3" d="M90.4625 89.9164L202.129 45.9301C202.228 45.8916 202.329 45.8605 202.432 45.8371C202.857 45.7574 203.296 45.8271 203.674 46.0341C204.053 46.2412 204.349 46.573 204.511 46.9733C204.674 47.3736 204.693 47.8178 204.565 48.2306C204.437 48.6433 204.171 48.9993 203.811 49.2381L110.719 110.645L109.076 111.728L108.039 110.164L108.284 109.989L202.774 47.6734L91.233 91.6281L90.7511 91.8117L90.0666 90.0795L90.4625 89.9164Z" fill="#585490"/>
</g>
</g>
<defs>
<clipPath id="clip0">
<rect width="168" height="183" fill="white" transform="translate(48.1323) rotate(15.2492)"/>
</clipPath>
</defs>
</svg>
