<?xml version="1.0" encoding="utf-8"?>
<!-- Generator: Adobe Illustrator 23.0.6, SVG Export Plug-In . SVG Version: 6.00 Build 0)  -->
<svg version="1.1" id="Capa_1" xmlns="http://www.w3.org/2000/svg" xmlns:xlink="http://www.w3.org/1999/xlink" x="0px" y="0px"
	 viewBox="0 0 344 1024" style="enable-background:new 0 0 344 1024;" xml:space="preserve">
<style type="text/css">
	.st0{fill:#96B833;}
	.st1{fill:none;stroke:#96B833;stroke-width:4;stroke-miterlimit:10;}
	.st2{fill:none;stroke:#96B833;stroke-width:2;stroke-miterlimit:10;}
</style>
<g id="Trama">
	<g>
		<g>
			<path id="Vector" class="st0" d="M122.8,18.1l0.6,2.5l2.4-0.6l0.6,2.4l-4.7,1.2l0.7,2.6c0.1,0.5,0.1,1,0,1.5
				c-0.1,0.5-0.3,0.9-0.7,1.3c0,0,1.2,0.1,1.8,1.7l0,0l0,0l2.4-0.6l1.4,5.2l-2.4,0.6l0.6,2.3l2.4-0.6l0.7,2.6l-2.4,0.6
				c-0.9,0.2-1.5,0-2-0.3c-0.5-0.4-0.9-0.9-1-1.5l-1.9-7.5c0,0-0.4-1.1-1.6-0.6l-0.6-2.5c0,0,1.4-0.2,1.1-1.5l-2-7.6
				c-0.2-0.6-0.1-1.3,0.2-1.8c0.3-0.5,0.7-1,1.6-1.2l4.7-1.2l0.6,2.4L122.8,18.1z"/>
			<path id="Vector_2" class="st0" d="M127.1,24.9l-2.4,0.6l1.2,4.6l2.4-0.6L127.1,24.9z"/>
			<path id="Vector_3" class="st0" d="M129.6,34.7l-2.4,0.6l0.6,2.3l2.4-0.6L129.6,34.7z"/>
			<path id="Vector_4" class="st0" d="M127.5,16.9l-2.4,0.6l0.6,2.5l2.4-0.6L127.5,16.9z"/>
			<path id="Vector_5" class="st0" d="M137.6,16.9l-2.4,0.6l0.6,2.5l2.4-0.6L137.6,16.9z"/>
			<path id="Vector_6" class="st0" d="M139.5,24.2l-2.4,0.6l0.6,2.5l2.4-0.6L139.5,24.2z"/>
			<path id="Vector_7" class="st0" d="M138.7,11.3l-2.4,0.6l0.6,2.5l2.4-0.6L138.7,11.3z"/>
			<path id="Vector_8" class="st0" d="M140.6,18.7l-2.4,0.6l0.6,2.5l2.4-0.6L140.6,18.7z"/>
			<path id="Vector_9" class="st0" d="M143.1,28.5l-2.4,0.6l0.6,2.5l2.4-0.6L143.1,28.5z"/>
			<path id="Vector_10" class="st0" d="M141.4,31.6l-2.4,0.6l0.6,2.4l2.4-0.6L141.4,31.6z"/>
			<path id="Vector_11" class="st0" d="M132.3,25.8l-2.4,0.6l0.6,2.5l2.4-0.6L132.3,25.8z"/>
			<path id="Vector_12" class="st0" d="M138.4,29.7l0.6,2.5l-7.1,1.8l-0.6-2.5l2.4-0.6l-0.7-2.6l2.4-0.6l0.7,2.6L138.4,29.7z"/>
			<path id="Vector_13" class="st0" d="M139.7,34.6l-4.9,1.3l0.7,2.6l4.9-1.3L139.7,34.6z"/>
			<path id="Vector_14" class="st0" d="M134,12.5l-4.9,1.3l0.7,2.6l4.9-1.3L134,12.5z"/>
			<path id="Vector_15" class="st0" d="M128.8,21.8l-2.4,0.6l0.6,2.5l2.4-0.6L128.8,21.8z"/>
			<path id="Vector_16" class="st0" d="M132.9,18.1l-2.4,0.6l0.6,2.5l2.4-0.6L132.9,18.1z"/>
			<path id="Vector_17" class="st0" d="M135.9,19.9l-2.4,0.6l0.6,2.5l2.4-0.6L135.9,19.9z"/>
			<path id="Vector_18" class="st0" d="M130.6,28.9l-2.4,0.6l0.6,2.5l2.4-0.6L130.6,28.9z"/>
			<path id="Vector_19" class="st0" d="M132.6,36.5l-2.4,0.6l0.7,2.5l2.4-0.6L132.6,36.5z"/>
			<path id="Vector_20" class="st0" d="M144.1,23l-2.3,0.6l0.6,2.5l2.3-0.6L144.1,23z"/>
			<path id="Vector_21" class="st0" d="M148.6,19.3l-1.9-7.5c-0.2-0.6-0.5-1.2-1-1.5c-0.5-0.3-1.1-0.5-1.9-0.3l-2.7,0.7l0.6,2.5
				l-2.3,0.6l0.6,2.5l5-1.3l0.6,2.4l-2.7,0.7l0.6,2.5l2.7-0.7l0,0.2l0,0c0.5,1.6,1.8,1.7,1.8,1.7c-0.3,0.4-0.5,0.8-0.7,1.3
				c-0.1,0.5-0.1,1,0,1.5l0.1,0.2l-2.7,0.7l1.3,5l-2.2,0.6l0.6,2.3l-2.4,0.6l0.7,2.6l7.3-1.9c0.9-0.2,1.3-0.7,1.6-1.2
				c0.3-0.6,0.3-1.2,0.2-1.8l-2-7.6c-0.4-1.4,1.1-1.5,1.1-1.5l-0.6-2.5C149,20.4,148.6,19.3,148.6,19.3z M149.4,32.1l-2.6,0.7
				l-0.6-2.3l2.6-0.7L149.4,32.1z"/>
		</g>
	</g>
	<g>
		<g>
			<path id="Vector_22" class="st0" d="M11.3,567.7L9.9,571l3.1,1.3l-1.3,3.2l-6.2-2.6L4,576.4c-0.3,0.6-0.7,1.2-1.2,1.7
				c-0.5,0.4-1.2,0.8-1.8,0.9c0,0,1.3,1.2,0.5,3.4l0,0l0-0.1l3.1,1.3l-2.9,6.9l-3.1-1.3l-1.2,3l3.1,1.3l-1.4,3.4l-3.1-1.3
				c-1.1-0.5-1.7-1.2-1.9-2c-0.3-0.8-0.2-1.7,0.1-2.6l4.1-9.9c0,0,0.4-1.6-1.3-2.1l1.4-3.3c0,0,1.7,1,2.5-0.8l4.2-10
				c0.3-0.8,0.9-1.5,1.7-1.9c0.7-0.3,1.6-0.5,2.8,0l6.2,2.6l-1.3,3.2L11.3,567.7z"/>
			<path id="Vector_23" class="st0" d="M10.3,578.9l-3.1-1.3l-2.5,6.1l3.1,1.3L10.3,578.9z"/>
			<path id="Vector_24" class="st0" d="M4.9,591.8l-3.1-1.3l-1.3,3.1l3.1,1.3L4.9,591.8z"/>
			<path id="Vector_25" class="st0" d="M17.5,570.3l-3.1-1.3l-1.3,3.2l3.1,1.3L17.5,570.3z"/>
			<path id="Vector_26" class="st0" d="M28.6,578.7l-3.1-1.3l-1.3,3.2l3.1,1.3L28.6,578.7z"/>
			<path id="Vector_27" class="st0" d="M24.6,588.4l-3.1-1.3l-1.3,3.2l3.1,1.3L24.6,588.4z"/>
			<path id="Vector_28" class="st0" d="M34.4,573.5l-3.1-1.3l-1.3,3.2l3.1,1.3L34.4,573.5z"/>
			<path id="Vector_29" class="st0" d="M30.4,583.3l-3.1-1.3l-1.3,3.2l3.1,1.3L30.4,583.3z"/>
			<path id="Vector_30" class="st0" d="M25,596.2l-3.1-1.3l-1.3,3.2l3.1,1.3L25,596.2z"/>
			<path id="Vector_31" class="st0" d="M20.6,598.2l-3.1-1.3l-1.3,3.2l3.1,1.3L20.6,598.2z"/>
			<path id="Vector_32" class="st0" d="M15.3,584.3l-3.1-1.3l-1.3,3.2l3.1,1.3L15.3,584.3z"/>
			<path id="Vector_33" class="st0" d="M18.8,593.6l-1.3,3.2L8.1,593l1.3-3.2l3.1,1.3l1.4-3.5l3.1,1.3l-1.4,3.5L18.8,593.6z"/>
			<path id="Vector_34" class="st0" d="M16.2,600.1l-6.5-2.7l-1.4,3.4l6.5,2.7L16.2,600.1z"/>
			<path id="Vector_35" class="st0" d="M28.3,570.8l-6.5-2.7l-1.4,3.4l6.5,2.7L28.3,570.8z"/>
			<path id="Vector_36" class="st0" d="M14.8,576.8l-3.1-1.3l-1.3,3.2l3.1,1.3L14.8,576.8z"/>
			<path id="Vector_37" class="st0" d="M22.4,576.1l-3.1-1.3l-1.3,3.2l3.1,1.3L22.4,576.1z"/>
			<path id="Vector_38" class="st0" d="M24.1,580.7l-3.1-1.3l-1.3,3.2l3.1,1.3L24.1,580.7z"/>
			<path id="Vector_39" class="st0" d="M10.9,586.2l-3.1-1.3l-1.3,3.2l3.1,1.3L10.9,586.2z"/>
			<path id="Vector_40" class="st0" d="M6.7,596.2l-3.1-1.3l-1.4,3.3l3.1,1.3L6.7,596.2z"/>
			<path id="Vector_41" class="st0" d="M30.7,590.9l-3-1.2l-1.4,3.3l3,1.2L30.7,590.9z"/>
			<path id="Vector_42" class="st0" d="M38.7,590.6l4.1-9.9c0.3-0.8,0.4-1.7,0.1-2.6c-0.2-0.7-0.8-1.5-1.8-2l-3.6-1.5l-1.4,3.3
				l-3.1-1.3l-1.4,3.3l6.6,2.7L37,586l-3.6-1.5l-1.4,3.3l3.6,1.5l-0.1,0.2l0,0c-0.8,2.3,0.5,3.4,0.5,3.4c-0.7,0.1-1.3,0.5-1.8,0.9
				c-0.5,0.4-1,1-1.2,1.7l-0.1,0.3l-3.6-1.5l-2.7,6.6l-2.9-1.2l-1.3,3.1l-3.1-1.3l-1.4,3.4l9.6,4c1.1,0.5,2.1,0.3,2.8,0
				c0.8-0.4,1.4-1.1,1.7-1.9l4.2-10.1c0.8-1.8,2.5-0.8,2.5-0.8l1.4-3.3C38.3,592.2,38.7,590.6,38.7,590.6z M28.9,605.4l-3.5-1.4
				l1.3-3.1l3.5,1.4L28.9,605.4z"/>
		</g>
	</g>
	<path id="Vector_43" class="st0" d="M303.2,246.4c1.8,0,3.2-1.4,3.2-3.2c0-1.8-1.4-3.2-3.2-3.2c-1.8,0-3.2,1.4-3.2,3.2
		C300,245,301.4,246.4,303.2,246.4z"/>
	<path id="Vector_44" class="st0" d="M116.2,349.4c1.8,0,3.2-1.4,3.2-3.2c0-1.8-1.4-3.2-3.2-3.2s-3.2,1.4-3.2,3.2
		C113,348,114.4,349.4,116.2,349.4z"/>
	<path id="Vector_45" class="st0" d="M241.2,182.4c1.8,0,3.2-1.4,3.2-3.2c0-1.8-1.4-3.2-3.2-3.2c-1.8,0-3.2,1.4-3.2,3.2
		C238,181,239.4,182.4,241.2,182.4z"/>
	<path id="Vector_46" class="st0" d="M74.2,188.4c1.8,0,3.2-1.4,3.2-3.2c0-1.8-1.4-3.2-3.2-3.2c-1.8,0-3.2,1.4-3.2,3.2
		C71,187,72.4,188.4,74.2,188.4z"/>
	<path id="Vector_47" class="st0" d="M182.2,249.4c1.8,0,3.2-1.4,3.2-3.2c0-1.8-1.4-3.2-3.2-3.2c-1.8,0-3.2,1.4-3.2,3.2
		C179,248,180.4,249.4,182.2,249.4z"/>
	<path id="Vector_48" class="st0" d="M162.2,497.4c1.8,0,3.2-1.4,3.2-3.2c0-1.8-1.4-3.2-3.2-3.2c-1.8,0-3.2,1.4-3.2,3.2
		C159,496,160.4,497.4,162.2,497.4z"/>
	<path id="Vector_49" class="st0" d="M176.2,780.4c1.8,0,3.2-1.4,3.2-3.2c0-1.8-1.4-3.2-3.2-3.2c-1.8,0-3.2,1.4-3.2,3.2
		C173,779,174.4,780.4,176.2,780.4z"/>
	<path id="Vector_50" class="st0" d="M291.2,982.4c1.8,0,3.2-1.4,3.2-3.2c0-1.8-1.4-3.2-3.2-3.2c-1.8,0-3.2,1.4-3.2,3.2
		C288,981,289.4,982.4,291.2,982.4z"/>
	<path id="Vector_51" class="st0" d="M68.2,557.4c1.8,0,3.2-1.4,3.2-3.2c0-1.8-1.4-3.2-3.2-3.2c-1.8,0-3.2,1.4-3.2,3.2
		C65,556,66.4,557.4,68.2,557.4z"/>
	<path id="Vector_52" class="st0" d="M30.2,689.4c1.8,0,3.2-1.4,3.2-3.2c0-1.8-1.4-3.2-3.2-3.2c-1.8,0-3.2,1.4-3.2,3.2
		C27,688,28.4,689.4,30.2,689.4z"/>
	<path id="Vector_53" class="st1" d="M50,299c5.5,0,10-4.5,10-10s-4.5-10-10-10s-10,4.5-10,10S44.5,299,50,299z"/>
	<path id="Vector_54" class="st1" d="M162,415c5.5,0,10-4.5,10-10s-4.5-10-10-10s-10,4.5-10,10S156.5,415,162,415z"/>
	<path id="Vector_55" class="st1" d="M294,653c5.5,0,10-4.5,10-10s-4.5-10-10-10s-10,4.5-10,10S288.5,653,294,653z"/>
	<path id="Vector_56" class="st1" d="M81,819c5.5,0,10-4.5,10-10s-4.5-10-10-10s-10,4.5-10,10S75.5,819,81,819z"/>
	<path id="Vector_57" class="st1" d="M215,122c5.5,0,10-4.5,10-10s-4.5-10-10-10s-10,4.5-10,10S209.5,122,215,122z"/>
	<path id="Vector_58" class="st1" d="M37,102c5.5,0,10-4.5,10-10s-4.5-10-10-10s-10,4.5-10,10S31.5,102,37,102z"/>
	<path id="Vector_59" class="st2" d="M328,361c8.3,0,15-6.7,15-15s-6.7-15-15-15s-15,6.7-15,15S319.7,361,328,361z"/>
	<path id="Vector_60" class="st2" d="M285,554c8.3,0,15-6.7,15-15s-6.7-15-15-15s-15,6.7-15,15S276.7,554,285,554z"/>
	<path id="Vector_61" class="st2" d="M309,819c8.3,0,15-6.7,15-15s-6.7-15-15-15s-15,6.7-15,15S300.7,819,309,819z"/>
	<path id="Vector_62" class="st0" d="M141,974c-7.6-11.2-15.7-12.6-17-13.9c-1-0.8-2-1.6-2.8-2.5l0,0.1l-0.1,0l-0.3,0.1l-0.6,0.2
		l-0.1,0l-0.1,0.1l-0.3,0.5c-0.2,0.5-0.5,1.1-0.8,1.7c-2.9,7.4-3.1,15.7-0.3,23.2c0.3,0.8,0.6,1.6,0.9,2.4c1.7,3.6,4.2,6.8,7.2,9.3
		c1,0.8,2.1,1.6,3.3,2.3c2.4,1.5,5,2.6,7.7,3.4c1.4,1.7,2.5,3.7,3.3,5.8l1.6-0.1c-0.9-1.8-1.6-3.7-2.1-5.6c-0.1-0.6,0-1.2,0.2-1.8
		c0.5-0.7,0.9-1.4,1.2-2.1l0-0.1c1.6-3.7,2.3-7.6,2.2-11.7C143.9,981.5,142.8,977.6,141,974z"/>
	<path id="Vector_63" class="st0" d="M149.5,133.9l-8.9-27.3c-0.3-0.8-0.8-1.4-1.5-1.7c-0.7-0.4-1.5-0.4-2.3-0.2l-5.7,1.9l2.3,7.2
		c0.7,0.1,1.3,0.4,1.8,0.8c0.5,0.4,0.9,1,1.1,1.6s0.2,1.3,0.1,2c-0.2,0.6-0.5,1.2-1,1.7l2.2,6.9c0.7,0.1,1.3,0.4,1.8,0.8
		c0.5,0.4,0.9,1,1.1,1.6c0.2,0.6,0.2,1.3,0.1,1.9c-0.2,0.6-0.5,1.2-0.9,1.7c-0.5,0.5-1,0.8-1.6,1c-0.6,0.2-1.3,0.2-1.9,0
		s-1.2-0.5-1.6-1c-0.4-0.5-0.7-1.1-0.9-1.7s-0.1-1.3,0.1-1.9s0.6-1.2,1.1-1.6l-2.1-6.5l-5.8,11.3c0.2,0.3,0.4,0.7,0.5,1
		c0.2,0.7,0.2,1.4,0.1,2.1c-0.2,0.7-0.6,1.3-1.1,1.8s-1.2,0.8-1.9,0.9c-0.7,0.1-1.4,0-2.1-0.4s-1.2-0.8-1.5-1.4
		c-0.3-0.6-0.5-1.3-0.4-2c0.1-0.7,0.3-1.4,0.8-2c0.4-0.6,1-1,1.7-1.2c0.4-0.2,0.9-0.2,1.4-0.2l5.9-11.4c-0.3-0.4-0.5-0.8-0.7-1.2
		c-0.2-0.7-0.2-1.4,0-2.1c0.2-0.7,0.6-1.3,1.2-1.8l-2.3-7.1l-18.8,6.1c-0.8,0.2-1.4,0.8-1.8,1.5c-0.4,0.7-0.4,1.5-0.2,2.3l8.9,27.3
		c0.1,0.4,0.3,0.7,0.6,1c0.3,0.3,0.6,0.5,0.9,0.7c0.4,0.2,0.7,0.3,1.1,0.3c0.4,0,0.8,0,1.2-0.1l27.3-9c0.4-0.1,0.7-0.3,1-0.6
		c0.3-0.3,0.6-0.6,0.7-0.9c0.2-0.4,0.3-0.7,0.3-1.1c0-0.4,0-0.8-0.1-1.2L149.5,133.9z"/>
	<path id="Vector_64" class="st0" d="M128.2,691.6l-8.9-27.3c-0.3-0.8-0.8-1.4-1.5-1.7c-0.7-0.4-1.5-0.4-2.3-0.2l-5.7,1.9l2.3,7.2
		c0.7,0.1,1.3,0.4,1.8,0.8c0.5,0.4,0.9,1,1.1,1.6c0.2,0.6,0.2,1.3,0.1,2c-0.2,0.6-0.5,1.2-1,1.7l2.2,6.9c0.7,0.1,1.3,0.4,1.8,0.8
		c0.5,0.4,0.9,1,1.1,1.6c0.2,0.6,0.2,1.3,0.1,1.9c-0.2,0.6-0.5,1.2-0.9,1.7c-0.5,0.5-1,0.8-1.6,1c-0.6,0.2-1.3,0.2-1.9,0
		c-0.6-0.2-1.2-0.5-1.6-1c-0.4-0.5-0.7-1.1-0.9-1.7c-0.1-0.6-0.1-1.3,0.1-1.9c0.2-0.6,0.6-1.2,1.1-1.6l-2.1-6.5l-5.8,11.3
		c0.2,0.3,0.4,0.7,0.5,1c0.2,0.7,0.2,1.4,0,2.1c-0.2,0.7-0.6,1.3-1.1,1.8c-0.5,0.5-1.2,0.8-1.9,0.9c-0.7,0.1-1.4,0-2.1-0.4
		c-0.6-0.3-1.2-0.8-1.5-1.4c-0.3-0.6-0.5-1.3-0.4-2c0.1-0.7,0.3-1.4,0.8-2c0.4-0.6,1-1,1.7-1.2c0.4-0.2,0.9-0.2,1.4-0.2l5.9-11.4
		c-0.3-0.4-0.5-0.8-0.7-1.2c-0.2-0.7-0.2-1.4,0-2.1c0.2-0.7,0.6-1.3,1.2-1.8l-2.3-7.1l-18.8,6.1c-0.8,0.2-1.4,0.8-1.8,1.5
		c-0.4,0.7-0.4,1.5-0.2,2.3l8.9,27.3c0.1,0.4,0.3,0.7,0.6,1c0.3,0.3,0.6,0.5,0.9,0.7c0.4,0.2,0.7,0.3,1.1,0.3c0.4,0,0.8,0,1.2-0.1
		l27.3-9c0.4-0.1,0.7-0.3,1-0.6c0.3-0.3,0.5-0.6,0.7-0.9c0.2-0.4,0.3-0.7,0.3-1.1c0-0.4,0-0.8-0.1-1.2L128.2,691.6z"/>
	<path id="Vector_65" class="st0" d="M187,856.8l31.2-5.8l5.8,31.2l-31.2,5.8L187,856.8z M220,875.3c-0.5-1.4-1.6-2.4-4.6-3
		c-1-0.3-2.2-0.4-2.6-1.1c-0.2-0.3-0.2-0.6-0.2-0.9c0-0.9,1-1.3,1.8-1.2c0.3,0,0.6,0.1,0.8,0.3c0.3,0.2,0.5,0.4,0.6,0.6l2-1.9
		c-0.3-0.3-0.6-0.6-0.9-0.9c-0.6-0.4-1.2-0.7-1.9-0.8c-0.7-0.1-1.4-0.1-2.1,0.1l-0.9,0.3c-0.8,0.4-1.5,1-2,1.8
		c-0.3,0.5-0.4,1-0.5,1.6s0,1.1,0.2,1.6c0.2,0.5,0.4,1,0.8,1.4c0.4,0.4,0.8,0.8,1.3,1c2,1,4.7,0.8,5.3,2c0.6,1.2-0.8,2.2-2.2,2.3
		c-0.5,0-1-0.1-1.4-0.4s-0.8-0.5-1.2-0.9l-2.1,1.8c0.4,0.5,0.8,0.9,1.3,1.2c2.7,1.9,8.3,0.7,8.8-2.9c0.1-0.7,0-1.5-0.3-2.2
		L220,875.3z M206.6,868l-2.9,0.5c0.5,2.5,0.9,5,1.4,7.6c0.3,1.1,0.5,2.3,0.5,3.5c-0.3,1-1.4,1.1-1.9,1c-0.5-0.2-1-0.5-1.3-0.9
		c-0.1-0.1-0.2-0.2-0.2-0.2l-2.1,1.9c0.5,0.7,1.2,1.3,2.1,1.7c1.4,0.5,2.9,0.4,4.2-0.2c0.5-0.2,0.9-0.5,1.3-0.9
		c0.3-0.4,0.6-0.9,0.8-1.4c0.3-1.5,0.2-3-0.3-4.5C207.6,873.4,207.1,870.8,206.6,868L206.6,868z"/>
	<path id="Vector_66" class="st0" d="M268.2,421.8l26.1,5.5l-5.5,26l-26-5.5L268.2,421.8z M287.9,446.6c0.1-1.2-0.5-2.4-2.6-3.8
		c-0.7-0.5-1.5-1-1.7-1.6c0-0.3,0-0.5,0.1-0.8c0.3-0.7,1.2-0.7,1.8-0.4c0.2,0.1,0.4,0.3,0.6,0.5c0.1,0.2,0.2,0.4,0.3,0.7l2.2-0.8
		c-0.1-0.3-0.3-0.7-0.5-1c-0.3-0.5-0.7-0.9-1.2-1.2c-0.5-0.3-1.1-0.5-1.6-0.5l-0.8-0.1c-0.8,0-1.5,0.3-2.1,0.7
		c-0.4,0.3-0.7,0.7-0.9,1.1c-0.2,0.4-0.4,0.9-0.4,1.3c0,0.5,0,0.9,0.2,1.4c0.1,0.4,0.4,0.9,0.7,1.2c1.2,1.4,3.4,2.1,3.4,3.2
		c0.1,1.1-1.3,1.5-2.5,1.1c-0.4-0.2-0.7-0.4-1-0.8c-0.3-0.3-0.5-0.7-0.6-1.1l-2.2,0.7c0.1,0.5,0.3,1,0.6,1.4
		c1.5,2.3,6.2,3.2,7.7,0.5c0.3-0.5,0.5-1.2,0.5-1.8L287.9,446.6z M279.8,436.7l-2.4-0.5c-0.5,2.1-0.9,4.2-1.3,6.3
		c-0.1,1-0.4,2-0.8,2.9c-0.5,0.7-1.4,0.4-1.8,0.2c-0.4-0.3-0.6-0.7-0.7-1.1c-0.1-0.1-0.1-0.2-0.1-0.3l-2.2,0.8
		c0.2,0.7,0.5,1.4,1.1,1.9c0.9,0.8,2.1,1.2,3.3,1.2c0.4,0,0.9-0.1,1.3-0.3c0.4-0.2,0.7-0.5,1-0.8c0.7-1.1,1.1-2.3,1.2-3.5
		C278.8,441.2,279.3,439,279.8,436.7L279.8,436.7z"/>
	<path id="Vector_67" class="st0" d="M27.5,910c-0.9,0-1.8,0.4-2.5,1c-0.7,0.7-1,1.5-1,2.5s0.4,1.8,1,2.5c0.7,0.7,1.5,1,2.5,1
		c0.9,0,1.8-0.4,2.5-1c0.7-0.7,1-1.5,1-2.5s-0.4-1.8-1-2.5C29.3,910.4,28.5,910,27.5,910z M17.8,920.5l-0.8-0.2
		c-5.7-1.5-9-3.9-9-6.8s3.4-5.3,9-6.8l0.8-0.2l0.2,0.8c0.6,2.1,1.4,4.1,2.3,6.1l-0.1-0.2l0.2,0.4l-0.2,0.4c-0.9,1.8-1.6,3.7-2.1,5.6
		v0.3L17.8,920.5z M16.6,908.5c-4.3,1.2-7,3.1-7,5s2.7,3.8,7,5.1c0.5-1.8,1.2-3.6,2-5.3l-0.1,0.3c-0.7-1.5-1.3-3.1-1.9-4.7
		L16.6,908.5L16.6,908.5z M37.3,920.5l-0.2-0.8c-0.6-2.1-1.4-4.1-2.3-6.1l0.1,0.2l-0.2-0.4l0.2-0.4c0.9-1.8,1.6-3.7,2.2-5.6v-0.3
		l0.2-0.8l0.8,0.2c5.7,1.5,9,3.9,9,6.8s-3.3,5.3-9,6.8L37.3,920.5z M36.5,913.5c0.8,1.6,1.4,3.3,1.9,5.1c4.3-1.2,7-3.1,7-5.1
		c0-2-2.7-3.8-7-5c-0.6,1.8-1.2,3.5-2,5.2L36.5,913.5z M16.6,908.5l-0.2-0.8c-1.7-5.7-1.1-9.8,1.3-11.2c2.5-1.4,6.3,0.3,10.4,4.5
		l0.6,0.6l-0.6,0.6c-1.4,1.5-2.7,3.1-3.9,4.7l-0.1,0.1l-0.2,0.3h-0.4c-2.2,0.2-4.3,0.5-6.4,1.1h0.3L16.6,908.5z M19.8,897.6
		c-0.4,0-0.8,0.1-1.1,0.3c-1.7,0.9-1.9,4.2-0.8,8.6c1.7-0.4,3.3-0.6,5-0.8h0.3c1-1.5,2.2-2.9,3.4-4.2
		C23.8,899.1,21.5,897.6,19.8,897.6z M35.4,931c-2.3,0-5.3-1.7-8.4-4.9l-0.6-0.6l0.6-0.6c1.4-1.5,2.7-3,3.9-4.7V920l0.2-0.3h0.4
		c2.2-0.2,4.3-0.5,6.4-1.1h-0.3l0.8-0.2l0.2,0.8c1.7,5.7,1.1,9.8-1.3,11.2C36.7,930.8,36,931,35.4,931L35.4,931z M28.7,925.4
		c2.5,2.5,4.9,3.9,6.7,3.9c0.4,0,0.8-0.1,1.1-0.3c1.7-0.9,1.9-4.2,0.8-8.6c-1.7,0.4-3.3,0.6-5,0.8h-0.2c-1,1.5-2.2,2.9-3.4,4.2
		L28.7,925.4z M38.4,908.5l-0.8-0.2c-2-0.5-4-0.8-6-1h-0.1h-0.4l-0.2-0.3c-1.2-1.7-2.5-3.4-3.9-4.9l-0.6-0.6L27,901
		c4.1-4.2,7.9-5.8,10.3-4.5c2.4,1.4,3,5.5,1.3,11.2L38.4,908.5z M32,905.7c1.8,0.2,3.5,0.4,5.3,0.8c1.1-4.4,0.8-7.7-0.8-8.6
		c-1.6-0.9-4.6,0.5-7.8,3.6c1.2,1.3,2.2,2.6,3.2,4L32,905.7z M19.8,931c-0.7,0-1.3-0.2-1.9-0.5c-2.5-1.4-2.9-5.5-1.3-11.2l0.2-0.8
		l0.8,0.2c2,0.5,4.1,0.8,6.2,1H24l0.2,0.3c1.2,1.7,2.5,3.4,3.9,4.9l0.6,0.6l-0.6,0.6C25.1,929.2,22.1,931,19.8,931L19.8,931z
		 M17.8,920.5c-1.1,4.4-0.8,7.7,0.8,8.6s4.5-0.6,7.8-3.6c-1.2-1.3-2.3-2.6-3.2-4v-0.1c-1.9-0.2-3.7-0.5-5.5-0.9L17.8,920.5
		L17.8,920.5z M27.6,921.5c-1.3,0-2.7,0-4.1-0.2h-0.4l-0.2-0.3c-0.7-1-1.4-2.1-2.1-3.2l-0.1-0.2c-0.6-0.9-1.2-2.1-1.7-3.4l-0.1-0.3
		l-0.2-0.4l0.2-0.4c0.7-1.5,1.3-2.7,2-3.9l-0.1,0.2c0.7-1.2,1.4-2.4,2.2-3.5l0.2-0.3h0.4c1.2-0.1,2.7-0.2,4.1-0.2
		c1.4,0,2.9,0,4.3,0.2h-0.4h0.4l0.2,0.3c1.5,2.1,2.8,4.4,4,6.8l0.1,0.3l0.2,0.4l-0.2,0.4c-1.2,2.5-2.6,5-4.2,7.3l0.1-0.2l-0.2,0.3
		h-0.4c-1.4,0.1-2.8,0.2-4.1,0.2L27.6,921.5z M24,919.7c2.4,0.2,4.8,0.2,7.2,0c1.3-1.9,2.4-3.9,3.4-5.9l0.1-0.3
		c-1.1-2.2-2.3-4.4-3.7-6.4l0.1,0.2c-1.1-0.1-2.3-0.2-3.6-0.2s-2.5,0-3.7,0.2h0.2c-1.3,1.9-2.4,3.9-3.4,6l-0.1,0.3
		c1.1,2.2,2.3,4.4,3.7,6.4L24,919.7L24,919.7z"/>
	<path id="Vector_68" class="st0" d="M172.5,565c-0.9,0-1.8,0.4-2.5,1c-0.7,0.7-1,1.5-1,2.5s0.4,1.8,1,2.5c0.7,0.7,1.5,1,2.5,1
		c0.9,0,1.8-0.4,2.5-1c0.7-0.7,1-1.5,1-2.5s-0.4-1.8-1-2.5C174.3,565.4,173.5,565,172.5,565z M162.8,575.5l-0.8-0.2
		c-5.7-1.5-9-3.9-9-6.8s3.4-5.3,9-6.8l0.8-0.2l0.2,0.8c0.6,2.1,1.4,4.1,2.3,6.1l-0.1-0.2l0.2,0.4l-0.2,0.4c-0.9,1.8-1.6,3.7-2.1,5.6
		v0.3L162.8,575.5z M161.6,563.5c-4.3,1.2-7,3.1-7,5s2.7,3.8,7,5.1c0.5-1.8,1.2-3.6,2-5.3l-0.1,0.3c-0.7-1.5-1.3-3.1-1.9-4.7
		L161.6,563.5L161.6,563.5z M182.3,575.5l-0.2-0.8c-0.6-2.1-1.4-4.1-2.3-6.1l0.1,0.2l-0.2-0.4l0.2-0.4c0.9-1.8,1.6-3.7,2.2-5.6v-0.3
		l0.2-0.8l0.8,0.2c5.7,1.5,9,3.9,9,6.8s-3.3,5.3-9,6.8L182.3,575.5z M181.5,568.5c0.8,1.6,1.4,3.3,1.9,5.1c4.3-1.2,7-3.1,7-5.1
		c0-2-2.7-3.8-7-5c-0.6,1.8-1.2,3.5-2,5.2L181.5,568.5z M161.6,563.5l-0.2-0.8c-1.7-5.7-1.1-9.8,1.3-11.2c2.5-1.4,6.3,0.3,10.4,4.5
		l0.6,0.6l-0.6,0.6c-1.4,1.5-2.7,3.1-3.9,4.7l-0.1,0.1l-0.2,0.3h-0.4c-2.2,0.2-4.3,0.5-6.4,1.1h0.3L161.6,563.5z M164.8,552.6
		c-0.4,0-0.8,0.1-1.1,0.3c-1.7,0.9-1.9,4.2-0.8,8.6c1.7-0.4,3.3-0.6,5-0.8h0.3c1-1.5,2.2-2.9,3.4-4.2
		C168.8,554.1,166.5,552.6,164.8,552.6z M180.4,586c-2.3,0-5.3-1.7-8.4-4.9l-0.6-0.6l0.6-0.6c1.4-1.5,2.7-3,3.9-4.7V575l0.2-0.3h0.4
		c2.2-0.2,4.3-0.5,6.4-1.1h-0.3l0.8-0.2l0.2,0.8c1.7,5.7,1.1,9.8-1.3,11.2C181.7,585.8,181,586,180.4,586L180.4,586z M173.7,580.4
		c2.5,2.5,4.9,3.9,6.7,3.9c0.4,0,0.8-0.1,1.1-0.3c1.7-0.9,1.9-4.2,0.8-8.6c-1.7,0.4-3.4,0.6-5,0.8h-0.2c-1,1.5-2.2,2.9-3.4,4.2
		L173.7,580.4z M183.4,563.5l-0.8-0.2c-2-0.5-4-0.8-6-1h-0.1h-0.4l-0.2-0.3c-1.2-1.7-2.5-3.4-3.9-4.9l-0.6-0.6l0.6-0.6
		c4.1-4.2,7.9-5.8,10.3-4.5c2.4,1.4,3,5.5,1.3,11.2L183.4,563.5z M177,560.7c1.8,0.2,3.5,0.4,5.3,0.8c1.1-4.4,0.8-7.7-0.8-8.6
		c-1.6-0.9-4.6,0.5-7.8,3.6c1.2,1.3,2.2,2.6,3.2,4L177,560.7z M164.8,586c-0.7,0-1.3-0.2-1.9-0.5c-2.5-1.4-2.9-5.5-1.3-11.2l0.2-0.8
		l0.8,0.2c2,0.5,4.1,0.8,6.2,1h0.4l0.2,0.3c1.2,1.7,2.5,3.4,3.9,4.9l0.6,0.6l-0.6,0.6C170.1,584.2,167.1,586,164.8,586L164.8,586z
		 M162.8,575.5c-1.1,4.4-0.8,7.7,0.8,8.6c1.6,0.9,4.5-0.6,7.8-3.6c-1.2-1.3-2.3-2.6-3.2-4v-0.1c-1.9-0.2-3.7-0.5-5.5-0.9
		L162.8,575.5L162.8,575.5z M172.6,576.5c-1.3,0-2.7,0-4.1-0.2h-0.4l-0.2-0.3c-0.7-1-1.4-2.1-2.1-3.2l-0.1-0.2
		c-0.6-0.9-1.2-2.1-1.7-3.4l-0.1-0.3l-0.2-0.4l0.2-0.4c0.7-1.5,1.3-2.7,2-3.9l-0.1,0.2c0.7-1.2,1.4-2.4,2.2-3.5l0.2-0.3h0.4
		c1.2-0.1,2.7-0.2,4.1-0.2s2.9,0,4.3,0.2h-0.4h0.4l0.2,0.3c1.5,2.1,2.8,4.4,4,6.8l0.1,0.3l0.2,0.4l-0.2,0.4c-1.2,2.5-2.6,5-4.2,7.3
		l0.1-0.2l-0.2,0.3h-0.4c-1.4,0.1-2.8,0.2-4.1,0.2L172.6,576.5z M169,574.7c2.4,0.2,4.8,0.2,7.2,0c1.3-1.9,2.4-3.9,3.4-5.9l0.1-0.3
		c-1.1-2.2-2.3-4.4-3.7-6.4l0.1,0.2c-1.1-0.1-2.3-0.2-3.6-0.2s-2.5,0-3.7,0.2h0.2c-1.3,1.9-2.4,3.9-3.4,6l-0.1,0.3
		c1.1,2.2,2.3,4.4,3.7,6.4L169,574.7L169,574.7z"/>
	<path id="Vector_69" class="st0" d="M288.9,694c1.4,0.5,2.5,1.5,3.2,2.8c0.7,1.3,0.8,2.8,0.3,4.2l-16.3,44.1l-3.8-6.6l-2-3.8
		l-2.3-4l-0.3,5l-28.9-10.3c-0.7-0.2-1.3-0.6-1.9-1.1c-0.5-0.5-1-1.1-1.3-1.7c-0.3-0.6-0.5-1.4-0.5-2.1c0-0.7,0.1-1.4,0.3-2.1
		l12.3-33.3c0.5-1.3,1.6-2.4,2.9-3c1.3-0.6,2.8-0.7,4.2-0.2L288.9,694z M272,701.1l-0.6,0.2c2.1,1.4,3.8,3.3,5.1,5.4
		c-2-2.1-4.3-3.8-6.9-5.1c-1.6-0.8-3.4-1.4-5.1-1.8l-0.4-0.1c-2-0.5-4.2-0.7-6.3-0.6l-1.8,0.1c2.5-0.9,5.2-1.2,7.8-0.8l-0.1-0.4
		c-2.6-0.8-5.5-0.8-8.1,0.1c-4,3.6-7.1,8.1-9,13.1c0.4,1.5,1.2,2.9,2.3,4.1c1.1,1.1,2.5,2,4,2.4c0,0,1.2-0.8,2.5-1.5
		c-1.6-1.1-2.8-2.6-3.4-4.4c0.2,0.2,0.4,0.4,0.5,0.6c0,0,0,0,0,0.1c0,0,0,0,0,0.1c0.6,0.5,1.2,1,1.6,1.5c1,0.9,2.1,1.7,3.3,2.4
		c2.1,1.1,4.3,1.9,6.6,2.4c1.4,0.2,2.7,0.3,4.1,0.2c1.2-0.1,2.3-0.3,3.5-0.5c-1.7,1-3.6,1.5-5.6,1.2c0.3,1.2,0.9,2.7,0.9,2.7
		c1.5,0.6,3.1,0.8,4.7,0.7c1.6-0.1,3.2-0.5,4.6-1.3c1.7-5,2.3-10.4,1.6-15.6c-1.5-2.3-3.6-4.1-6.1-5.1L272,701.1z M269,710.3
		c0.5,0.2,1,0.5,1.3,1c0.3,0.4,0.5,1,0.6,1.5s-0.1,1.1-0.4,1.6s-0.7,0.9-1.2,1.1c-0.5,0.2-1.1,0.3-1.6,0.3c-0.6-0.1-1.1-0.3-1.5-0.7
		c-0.4-0.4-0.7-0.8-0.9-1.4c-0.1-0.5-0.1-1.1,0-1.6c0.1-0.4,0.3-0.7,0.6-1c0.2-0.3,0.5-0.5,0.9-0.7c0.3-0.2,0.7-0.3,1.1-0.3
		C268.3,710.1,268.7,710.2,269,710.3z M259.7,707c0.5,0.2,1,0.5,1.3,0.9c0.3,0.4,0.5,1,0.6,1.5c0,0.5-0.1,1.1-0.4,1.6
		c-0.3,0.5-0.7,0.9-1.2,1.1c-0.5,0.2-1.1,0.3-1.6,0.3c-0.6-0.1-1.1-0.3-1.5-0.6c-0.4-0.4-0.7-0.8-0.9-1.4c-0.2-0.5-0.1-1.1,0-1.6
		c0.1-0.4,0.3-0.7,0.5-1c0.2-0.3,0.5-0.5,0.9-0.7s0.7-0.3,1.1-0.3C258.9,706.8,259.3,706.8,259.7,707z"/>
	<path id="Vector_70" class="st0" d="M224.5,304.7c0.9,0.3,1.7,1,2.1,1.8c0.4,0.9,0.5,1.8,0.2,2.8l-10.6,28.9l-2.5-4.3l-1.3-2.5
		l-1.5-2.6l-0.2,3.3l-18.9-6.7c-0.5-0.1-0.9-0.4-1.2-0.7s-0.6-0.7-0.8-1.1c-0.2-0.4-0.3-0.9-0.3-1.4s0.1-0.9,0.2-1.4l8-21.8
		c0.4-0.9,1-1.6,1.9-2c0.9-0.4,1.9-0.4,2.7-0.1L224.5,304.7z M213.4,309.4l-0.4,0.2c1.4,0.9,2.5,2.1,3.4,3.5
		c-1.3-1.4-2.8-2.5-4.5-3.3c-1.1-0.5-2.2-0.9-3.4-1.2l-0.3-0.1c-1.3-0.3-2.7-0.5-4.1-0.4l-1.2,0.1c1.6-0.6,3.4-0.8,5.1-0.5l-0.1-0.2
		c-1.7-0.5-3.6-0.5-5.3,0.1c-2.6,2.4-4.6,5.3-5.9,8.6c0.3,1,0.8,1.9,1.5,2.7c0.7,0.7,1.6,1.3,2.6,1.6c0,0,0.8-0.5,1.6-1
		c-1-0.7-1.8-1.7-2.2-2.9c0.1,0.1,0.3,0.3,0.4,0.4c0,0,0,0,0,0c0,0,0,0,0,0c0.4,0.3,0.8,0.7,1.1,1c0.7,0.6,1.4,1.1,2.2,1.6
		c1.4,0.7,2.8,1.3,4.3,1.5c0.9,0.1,1.8,0.2,2.7,0.1c0.8-0.1,1.5-0.2,2.3-0.3c-1.1,0.7-2.4,1-3.7,0.8c0.2,0.8,0.6,1.7,0.6,1.7
		c1,0.4,2,0.5,3.1,0.4c1.1-0.1,2.1-0.4,3-0.8c1.1-3.3,1.5-6.8,1-10.2c-1-1.5-2.4-2.7-4-3.3L213.4,309.4z M211.5,315.4
		c0.3,0.1,0.6,0.3,0.9,0.6c0.2,0.3,0.3,0.6,0.4,1c0,0.4-0.1,0.7-0.3,1c-0.2,0.3-0.5,0.6-0.8,0.7c-0.3,0.2-0.7,0.2-1.1,0.2
		c-0.4,0-0.7-0.2-1-0.4c-0.3-0.2-0.5-0.5-0.6-0.9c-0.1-0.3-0.1-0.7,0-1.1c0.1-0.2,0.2-0.5,0.4-0.6c0.2-0.2,0.4-0.3,0.6-0.4
		c0.2-0.1,0.5-0.2,0.7-0.2C211,315.3,211.2,315.3,211.5,315.4z M205.3,313.2c0.3,0.1,0.6,0.3,0.9,0.6c0.2,0.3,0.3,0.6,0.4,1
		c0,0.4-0.1,0.7-0.2,1s-0.5,0.6-0.8,0.7c-0.3,0.2-0.7,0.2-1.1,0.2c-0.4,0-0.7-0.2-1-0.4c-0.3-0.2-0.5-0.5-0.6-0.9
		c-0.1-0.3-0.1-0.7,0-1.1c0.1-0.2,0.2-0.5,0.4-0.6c0.2-0.2,0.4-0.3,0.6-0.5c0.2-0.1,0.5-0.2,0.7-0.2
		C204.9,313.1,205.1,313.1,205.3,313.2z"/>
	<path id="Vector_71" class="st0" d="M316.5,38.8c-4.6-3.4-10.2-5.1-15.9-4.7c-5.7,0.4-11.1,2.7-15.2,6.6c-4.1,3.9-6.7,9.2-7.3,14.9
		c-0.6,5.7,0.8,11.3,4,16.1c0.1,0.2,0.3,0.3,0.4,0.4c0.2,0.1,0.4,0.1,0.6,0.1s0.4,0,0.6-0.1c0.2-0.1,0.3-0.2,0.4-0.4l2.3-3.2
		c-6.2-2.9-4.5-7.5-4.5-7.5c0.5-1.4,0.5-2.9,0-4.3c-0.8-2.5,1-1.1,1-1.1c0.6,0.6,1,1.2,1.2,2c0.3,0.8,0.3,1.5,0.2,2.3
		c-0.1,0.7-0.1,1.3,0.1,2c0.2,0.7,0.5,1.3,0.9,1.8c0.4,0.5,0.9,1,1.5,1.3s1.2,0.6,1.9,0.7c0.8-0.9,1.9-1.5,3.2-1.6
		c-3.9-3.7-7.1-8.8-1.6-16.1c1.4-1.9,3.5-3.2,5.9-3.7c0.7-2.1,2.1-3.9,4-5c0,0,2,0.7,3.8,6c1.9,0.8,3.7,1.8,5.3,3
		c1.6,1.3,3.1,2.7,4.3,4.3c5.5,0.3,6.8,2,6.8,2c-0.6,2-1.9,3.8-3.6,5c0.2,2.4-0.5,4.8-1.9,6.6c-5.6,7.4-11.3,5.6-15.9,2.9
		c0.1,0.8,0,1.6-0.2,2.4c-0.2,0.8-0.6,1.5-1.2,2.1c-2,2.6-3.5,4.6-4,5.2c-0.5,0.6-0.5,1.4,0.6,1.9c5.4,1.8,11.3,1.7,16.6-0.4
		c5.3-2.1,9.7-6,12.4-11.1c2.7-5,3.5-10.9,2.3-16.5C324.2,47.2,321,42.2,316.5,38.8L316.5,38.8z"/>
	<path id="Vector_72" class="st0" d="M60.1,407.5c-5.1,2.6-9,6.9-11.2,12.2c-2.2,5.3-2.4,11.1-0.7,16.5c1.7,5.4,5.3,10.1,10.1,13.1
		c4.8,3,10.5,4.3,16.2,3.5c0.2,0,0.4-0.1,0.5-0.2c0.2-0.1,0.3-0.3,0.4-0.4c0.1-0.2,0.1-0.4,0.1-0.6c0-0.2-0.1-0.4-0.2-0.6l-1.9-3.5
		c-5.3,4.3-8.7,0.8-8.7,0.8c-1-1.1-2.4-1.7-3.9-1.9c-2.6-0.3-0.5-1.4-0.5-1.4c0.7-0.3,1.5-0.3,2.3-0.2s1.5,0.4,2.2,0.8
		c0.6,0.4,1.2,0.6,1.8,0.8c0.7,0.1,1.3,0.1,2,0c0.7-0.1,1.3-0.4,1.9-0.7c0.6-0.4,1.1-0.8,1.4-1.4c-0.4-1.1-0.5-2.4-0.1-3.6
		c-5,1.9-11,2.5-15.2-5.7c-1.1-2.1-1.4-4.6-0.7-6.9c-1.6-1.5-2.6-3.6-2.7-5.8c0,0,1.5-1.5,7-0.8c1.5-1.4,3.2-2.5,5-3.5
		c1.8-0.9,3.8-1.6,5.8-2c2.7-4.8,4.8-5.2,4.8-5.2c1.6,1.4,2.6,3.3,2.9,5.5c2.2,0.8,4.1,2.5,5.1,4.7c4.2,8.3,0.1,12.6-4.4,15.6
		c0.8,0.3,1.5,0.7,2.1,1.2c0.6,0.6,1.1,1.2,1.4,2c1.5,2.9,2.6,5.2,2.9,5.9c0.4,0.7,1,1,2,0.3c4-4.1,6.5-9.4,7-15.1
		c0.4-5.7-1.1-11.4-4.5-16c-3.4-4.6-8.2-7.9-13.8-9.3C71,404.3,65.2,405,60.1,407.5L60.1,407.5z"/>
	<path id="Vector_73" class="st2" d="M215,1039c8.3,0,15-6.7,15-15s-6.7-15-15-15s-15,6.7-15,15S206.7,1039,215,1039z"/>
</g>
</svg>
