<?xml version="1.0" encoding="utf-8"?>
<!-- Generator: Adobe Illustrator 23.0.6, SVG Export Plug-In . SVG Version: 6.00 Build 0)  -->
<svg version="1.1" id="Capa_1" xmlns="http://www.w3.org/2000/svg" xmlns:xlink="http://www.w3.org/1999/xlink" x="0px" y="0px"
	 viewBox="0 0 1061.09 1030.11" style="enable-background:new 0 0 1061.09 1030.11;" xml:space="preserve">
<style type="text/css">
	.st0{fill:#96B833;}
	.st1{fill:none;stroke:#96B833;stroke-width:4;stroke-miterlimit:10;}
	.st2{fill:none;stroke:#96B833;stroke-width:2;stroke-miterlimit:10;}
	.st3{fill:none;}
</style>
<g>
	<g>
		<path id="Vector" class="st0" d="M128.88,8.16l0.65,2.5l2.36-0.61l0.63,2.45l-4.72,1.22l0.68,2.64c0.13,0.49,0.13,1,0.02,1.48
			c-0.11,0.49-0.34,0.94-0.66,1.31c0,0,1.25,0.11,1.79,1.73l0.01,0l-0.01-0.04l2.36-0.61l1.35,5.22l-2.36,0.61l0.59,2.27l2.36-0.61
			l0.67,2.58l-2.36,0.61c-0.86,0.22-1.51,0.01-1.98-0.31c-0.52-0.36-0.89-0.9-1.04-1.52l-1.93-7.46c0,0-0.43-1.1-1.64-0.63
			l-0.64-2.49c0,0,1.44-0.16,1.08-1.53l-1.97-7.59c-0.16-0.62-0.1-1.27,0.18-1.84c0.25-0.5,0.72-1,1.58-1.23l4.72-1.22l0.63,2.45
			L128.88,8.16z"/>
		<path id="Vector_2" class="st0" d="M133.17,15.04l-2.36,0.61l1.19,4.58l2.36-0.61L133.17,15.04z"/>
		<path id="Vector_3" class="st0" d="M135.71,24.84l-2.36,0.61l0.6,2.34l2.36-0.61L135.71,24.84z"/>
		<path id="Vector_4" class="st0" d="M133.6,6.97l-2.36,0.61l0.63,2.45l2.36-0.61L133.6,6.97z"/>
		<path id="Vector_5" class="st0" d="M143.67,7l-2.36,0.61l0.63,2.45l2.36-0.61L143.67,7z"/>
		<path id="Vector_6" class="st0" d="M145.57,14.34l-2.36,0.61l0.63,2.45l2.36-0.61L145.57,14.34z"/>
		<path id="Vector_7" class="st0" d="M144.75,1.44l-2.36,0.61l0.63,2.45l2.36-0.61L144.75,1.44z"/>
		<path id="Vector_8" class="st0" d="M146.66,8.84l-2.36,0.61l0.63,2.45l2.36-0.61L146.66,8.84z"/>
		<path id="Vector_9" class="st0" d="M149.19,18.61l-2.36,0.61l0.63,2.45l2.36-0.61L149.19,18.61z"/>
		<path id="Vector_10" class="st0" d="M147.52,21.68l-2.36,0.61l0.63,2.42l2.36-0.61L147.52,21.68z"/>
		<path id="Vector_11" class="st0" d="M138.44,15.95l-2.36,0.61l0.64,2.45l2.36-0.61L138.44,15.95z"/>
		<path id="Vector_12" class="st0" d="M144.53,19.84l0.63,2.45l-7.12,1.84l-0.63-2.45l2.36-0.61l-0.68-2.61l2.36-0.61l0.68,2.61
			L144.53,19.84z"/>
		<path id="Vector_13" class="st0" d="M145.8,24.73L140.87,26l0.66,2.56l4.92-1.27L145.8,24.73z"/>
		<path id="Vector_14" class="st0" d="M140.07,2.59l-4.92,1.27l0.66,2.56l4.92-1.27L140.07,2.59z"/>
		<path id="Vector_15" class="st0" d="M134.87,11.89l-2.36,0.61l0.63,2.45l2.36-0.61L134.87,11.89z"/>
		<path id="Vector_16" class="st0" d="M138.95,8.22l-2.36,0.61l0.63,2.45l2.36-0.61L138.95,8.22z"/>
		<path id="Vector_17" class="st0" d="M141.95,10.06l-2.36,0.61l0.63,2.45l2.36-0.61L141.95,10.06z"/>
		<path id="Vector_18" class="st0" d="M136.72,19.01l-2.36,0.61l0.63,2.45l2.36-0.61L136.72,19.01z"/>
		<path id="Vector_19" class="st0" d="M138.67,26.57l-2.36,0.61l0.65,2.51l2.36-0.61L138.67,26.57z"/>
		<path id="Vector_20" class="st0" d="M150.18,13.13l-2.25,0.58l0.64,2.49l2.25-0.58L150.18,13.13z"/>
		<path id="Vector_21" class="st0" d="M154.69,9.42l-1.94-7.5c-0.16-0.62-0.53-1.16-1.04-1.52c-0.46-0.31-1.09-0.52-1.92-0.33
			l-2.74,0.71l0.65,2.51l-2.32,0.6l0.65,2.49l4.98-1.29l0.63,2.44l-2.7,0.7l0.65,2.49l2.7-0.7l0.04,0.15l0.01,0
			c0.55,1.63,1.8,1.74,1.8,1.74c-0.32,0.37-0.55,0.83-0.66,1.31c-0.11,0.49-0.1,1,0.02,1.49l0.05,0.2l-2.73,0.71l1.29,4.98
			l-2.19,0.57l0.61,2.34l-2.37,0.61l0.67,2.57l7.29-1.89c0.86-0.22,1.33-0.73,1.58-1.24c0.28-0.57,0.34-1.22,0.17-1.84l-1.98-7.63
			c-0.35-1.37,1.09-1.54,1.09-1.54l-0.65-2.5C155.12,10.53,154.69,9.42,154.69,9.42z M155.45,22.23l-2.61,0.68l-0.6-2.34l2.61-0.68
			L155.45,22.23z"/>
	</g>
</g>
<g>
	<g>
		<path id="Vector_22" class="st0" d="M17.36,557.78l-1.37,3.3l3.12,1.29l-1.34,3.24l-6.23-2.58l-1.45,3.49
			c-0.27,0.64-0.68,1.21-1.21,1.66c-0.53,0.45-1.15,0.76-1.82,0.9c0,0,1.29,1.16,0.54,3.41l0.01,0.01l0.02-0.05l3.12,1.29l-2.86,6.9
			l-3.12-1.29l-1.25,3.01l3.12,1.29l-1.41,3.41l-3.12-1.29c-1.14-0.47-1.68-1.25-1.93-1.99c-0.27-0.83-0.23-1.74,0.11-2.55
			l4.09-9.86c0,0,0.44-1.57-1.29-2.07l1.37-3.29c0,0,1.72,1.02,2.47-0.79l4.16-10.03c0.33-0.82,0.95-1.49,1.73-1.88
			c0.7-0.35,1.63-0.51,2.77-0.04l6.23,2.59l-1.34,3.24L17.36,557.78z"/>
		<path id="Vector_23" class="st0" d="M16.37,568.97l-3.12-1.29l-2.51,6.05l3.12,1.29L16.37,568.97z"/>
		<path id="Vector_24" class="st0" d="M11,581.92l-3.12-1.29l-1.28,3.09l3.12,1.29L11,581.92z"/>
		<path id="Vector_25" class="st0" d="M23.58,560.4l-3.12-1.29l-1.34,3.24l3.12,1.29L23.58,560.4z"/>
		<path id="Vector_26" class="st0" d="M34.69,568.84l-3.12-1.29l-1.34,3.24l3.12,1.29L34.69,568.84z"/>
		<path id="Vector_27" class="st0" d="M30.66,578.54l-3.12-1.29l-1.34,3.24l3.12,1.29L30.66,578.54z"/>
		<path id="Vector_28" class="st0" d="M40.51,563.59l-3.12-1.29l-1.34,3.24l3.12,1.29L40.51,563.59z"/>
		<path id="Vector_29" class="st0" d="M36.46,573.36l-3.12-1.29L32,575.31l3.12,1.29L36.46,573.36z"/>
		<path id="Vector_30" class="st0" d="M31.11,586.28l-3.12-1.29l-1.34,3.24l3.12,1.29L31.11,586.28z"/>
		<path id="Vector_31" class="st0" d="M26.7,588.27l-3.12-1.29l-1.33,3.2l3.12,1.29L26.7,588.27z"/>
		<path id="Vector_32" class="st0" d="M21.44,574.37l-3.12-1.29l-1.34,3.24l3.12,1.29L21.44,574.37z"/>
		<path id="Vector_33" class="st0" d="M24.93,583.74l-1.34,3.24l-9.41-3.9l1.34-3.24l3.12,1.29l1.43-3.45l3.12,1.29l-1.43,3.45
			L24.93,583.74z"/>
		<path id="Vector_34" class="st0" d="M22.25,590.21l-6.5-2.7l-1.41,3.39l6.5,2.7L22.25,590.21z"/>
		<path id="Vector_35" class="st0" d="M34.38,560.96l-6.5-2.7l-1.41,3.39l6.5,2.7L34.38,560.96z"/>
		<path id="Vector_36" class="st0" d="M20.88,566.9l-3.12-1.29l-1.34,3.24l3.12,1.29L20.88,566.9z"/>
		<path id="Vector_37" class="st0" d="M28.45,566.25l-3.12-1.29l-1.34,3.24l3.12,1.29L28.45,566.25z"/>
		<path id="Vector_38" class="st0" d="M30.23,570.78l-3.12-1.29l-1.34,3.24l3.12,1.29L30.23,570.78z"/>
		<path id="Vector_39" class="st0" d="M16.98,576.31l-3.12-1.29l-1.34,3.24l3.12,1.29L16.98,576.31z"/>
		<path id="Vector_40" class="st0" d="M12.83,586.31l-3.12-1.29l-1.38,3.32l3.12,1.29L12.83,586.31z"/>
		<path id="Vector_41" class="st0" d="M36.76,581.04l-2.98-1.23l-1.36,3.29l2.98,1.23L36.76,581.04z"/>
		<path id="Vector_42" class="st0" d="M44.84,580.71l4.11-9.9c0.34-0.82,0.39-1.73,0.12-2.55c-0.24-0.73-0.76-1.48-1.84-1.96
			l-3.62-1.5l-1.37,3.31l-3.06-1.27l-1.36,3.29l6.59,2.73l-1.33,3.22l-3.57-1.48l-1.36,3.29l3.57,1.48l-0.08,0.2l0.01,0.01
			c-0.75,2.26,0.54,3.42,0.54,3.42c-0.67,0.15-1.29,0.46-1.83,0.9c-0.53,0.45-0.95,1.02-1.22,1.67l-0.11,0.26l-3.61-1.49l-2.73,6.58
			l-2.89-1.2l-1.28,3.09l-3.13-1.3l-1.41,3.39l9.63,3.99c1.14,0.47,2.08,0.3,2.78-0.05c0.78-0.4,1.39-1.07,1.73-1.89l4.18-10.08
			c0.75-1.81,2.49-0.79,2.49-0.79l1.37-3.3C44.4,582.29,44.84,580.71,44.84,580.71z M35,595.5l-3.45-1.43l1.28-3.09l3.45,1.43
			L35,595.5z"/>
	</g>
</g>
<path id="Vector_43" class="st0" d="M309.3,236.53c1.77,0,3.21-1.44,3.21-3.21c0-1.77-1.44-3.21-3.21-3.21
	c-1.77,0-3.21,1.44-3.21,3.21C306.09,235.09,307.53,236.53,309.3,236.53z"/>
<path id="Vector_44" class="st0" d="M122.3,339.53c1.77,0,3.21-1.44,3.21-3.21c0-1.77-1.44-3.21-3.21-3.21s-3.21,1.44-3.21,3.21
	C119.09,338.09,120.53,339.53,122.3,339.53z"/>
<path id="Vector_45" class="st0" d="M247.3,172.53c1.77,0,3.21-1.44,3.21-3.21c0-1.77-1.44-3.21-3.21-3.21
	c-1.77,0-3.21,1.44-3.21,3.21C244.09,171.09,245.53,172.53,247.3,172.53z"/>
<path id="Vector_46" class="st0" d="M80.3,178.53c1.77,0,3.21-1.44,3.21-3.21c0-1.77-1.44-3.21-3.21-3.21
	c-1.77,0-3.21,1.44-3.21,3.21C77.09,177.09,78.53,178.53,80.3,178.53z"/>
<path id="Vector_47" class="st0" d="M188.3,239.53c1.77,0,3.21-1.44,3.21-3.21c0-1.77-1.44-3.21-3.21-3.21
	c-1.77,0-3.21,1.44-3.21,3.21C185.09,238.09,186.53,239.53,188.3,239.53z"/>
<path id="Vector_48" class="st0" d="M168.3,487.53c1.77,0,3.21-1.44,3.21-3.21c0-1.77-1.44-3.21-3.21-3.21
	c-1.77,0-3.21,1.44-3.21,3.21C165.09,486.09,166.53,487.53,168.3,487.53z"/>
<path id="Vector_49" class="st0" d="M182.3,770.53c1.77,0,3.21-1.44,3.21-3.21c0-1.77-1.44-3.21-3.21-3.21
	c-1.77,0-3.21,1.44-3.21,3.21C179.09,769.09,180.53,770.53,182.3,770.53z"/>
<path id="Vector_50" class="st0" d="M297.3,972.53c1.77,0,3.21-1.44,3.21-3.21c0-1.77-1.44-3.21-3.21-3.21
	c-1.77,0-3.21,1.44-3.21,3.21C294.09,971.09,295.53,972.53,297.3,972.53z"/>
<path id="Vector_51" class="st0" d="M74.3,547.53c1.77,0,3.21-1.44,3.21-3.21c0-1.77-1.44-3.21-3.21-3.21
	c-1.77,0-3.21,1.44-3.21,3.21C71.09,546.09,72.53,547.53,74.3,547.53z"/>
<path id="Vector_52" class="st0" d="M36.3,679.53c1.77,0,3.21-1.44,3.21-3.21c0-1.77-1.44-3.21-3.21-3.21s-3.21,1.44-3.21,3.21
	C33.09,678.09,34.53,679.53,36.3,679.53z"/>
<path id="Vector_53" class="st1" d="M56.09,289.11c5.52,0,10-4.48,10-10s-4.48-10-10-10s-10,4.48-10,10S50.57,289.11,56.09,289.11z"
	/>
<path id="Vector_54" class="st1" d="M168.09,405.11c5.52,0,10-4.48,10-10s-4.48-10-10-10s-10,4.48-10,10
	S162.57,405.11,168.09,405.11z"/>
<path id="Vector_55" class="st1" d="M300.09,643.11c5.52,0,10-4.48,10-10s-4.48-10-10-10s-10,4.48-10,10
	S294.57,643.11,300.09,643.11z"/>
<path id="Vector_56" class="st1" d="M87.09,809.11c5.52,0,10-4.48,10-10s-4.48-10-10-10s-10,4.48-10,10S81.57,809.11,87.09,809.11z"
	/>
<path id="Vector_57" class="st1" d="M221.09,112.11c5.52,0,10-4.48,10-10s-4.48-10-10-10s-10,4.48-10,10
	S215.57,112.11,221.09,112.11z"/>
<path id="Vector_58" class="st1" d="M43.09,92.11c5.52,0,10-4.48,10-10s-4.48-10-10-10s-10,4.48-10,10S37.57,92.11,43.09,92.11z"/>
<path id="Vector_59" class="st2" d="M334.09,351.11c8.28,0,15-6.72,15-15s-6.72-15-15-15s-15,6.72-15,15
	S325.81,351.11,334.09,351.11z"/>
<path id="Vector_60" class="st2" d="M291.09,544.11c8.28,0,15-6.72,15-15s-6.72-15-15-15s-15,6.72-15,15
	S282.81,544.11,291.09,544.11z"/>
<path id="Vector_61" class="st2" d="M315.09,809.11c8.28,0,15-6.72,15-15s-6.72-15-15-15s-15,6.72-15,15
	S306.81,809.11,315.09,809.11z"/>
<path id="Vector_62" class="st0" d="M147.11,964.15c-7.59-11.17-15.67-12.63-16.98-13.91c-1.02-0.76-1.98-1.61-2.85-2.54l0.05,0.12
	l-0.12,0.05l-0.29,0.11l-0.63,0.24l-0.12,0.05l-0.14,0.06l-0.27,0.52c-0.24,0.46-0.5,1.06-0.82,1.74
	c-2.94,7.42-3.06,15.67-0.33,23.19c0.27,0.82,0.59,1.63,0.95,2.42c1.68,3.6,4.15,6.77,7.23,9.27c1.04,0.83,2.13,1.6,3.26,2.3
	c2.39,1.49,4.98,2.63,7.68,3.41c1.4,1.73,2.51,3.68,3.26,5.78l1.61-0.08c-0.88-1.79-1.57-3.67-2.06-5.6
	c-0.09-0.6-0.03-1.21,0.17-1.77c0.46-0.66,0.86-1.36,1.21-2.09l-0.05-0.12c1.59-3.67,2.35-7.65,2.21-11.65
	C149.96,971.64,148.94,967.72,147.11,964.15z"/>
<path id="Vector_63" class="st0" d="M155.6,123.97l-8.92-27.31c-0.25-0.76-0.79-1.38-1.5-1.74c-0.71-0.36-1.54-0.43-2.3-0.19
	l-5.7,1.9l2.31,7.2c0.66,0.09,1.28,0.37,1.79,0.8c0.51,0.43,0.89,0.99,1.09,1.63s0.22,1.32,0.06,1.96c-0.17,0.65-0.51,1.24-0.99,1.7
	l2.22,6.92c0.67,0.1,1.29,0.38,1.8,0.81c0.51,0.43,0.89,1,1.1,1.64c0.2,0.61,0.22,1.27,0.07,1.9c-0.15,0.63-0.47,1.21-0.92,1.67
	c-0.45,0.46-1.02,0.8-1.65,0.97c-0.63,0.17-1.28,0.16-1.91-0.01s-1.18-0.52-1.62-0.99c-0.44-0.47-0.74-1.05-0.88-1.69
	s-0.09-1.29,0.12-1.9s0.59-1.16,1.08-1.57l-2.12-6.48l-5.81,11.32c0.22,0.32,0.39,0.66,0.52,1.02c0.22,0.68,0.24,1.41,0.05,2.1
	c-0.19,0.69-0.59,1.31-1.13,1.77s-1.21,0.77-1.92,0.85c-0.71,0.09-1.43-0.04-2.07-0.36c-0.64-0.32-1.16-0.82-1.51-1.45
	c-0.35-0.62-0.5-1.33-0.44-2.05c0.06-0.71,0.33-1.39,0.77-1.95c0.45-0.56,1.05-0.98,1.73-1.2c0.45-0.15,0.93-0.21,1.4-0.17
	l5.89-11.43c-0.3-0.37-0.53-0.78-0.69-1.23c-0.22-0.7-0.21-1.44,0-2.14c0.22-0.7,0.65-1.32,1.22-1.77l-2.29-7.12l-18.81,6.14
	c-0.76,0.25-1.4,0.79-1.77,1.5c-0.37,0.72-0.44,1.54-0.19,2.31l8.92,27.31c0.12,0.38,0.31,0.72,0.57,1.02
	c0.26,0.3,0.57,0.54,0.92,0.72c0.35,0.18,0.74,0.28,1.13,0.31c0.39,0.03,0.79-0.02,1.17-0.15l27.3-8.99
	c0.38-0.12,0.72-0.32,1.03-0.57c0.3-0.26,0.55-0.57,0.73-0.92c0.18-0.35,0.29-0.74,0.32-1.13c0.03-0.39-0.02-0.79-0.14-1.16
	L155.6,123.97z"/>
<path id="Vector_64" class="st0" d="M134.33,681.71l-8.92-27.31c-0.25-0.76-0.79-1.38-1.5-1.74c-0.71-0.36-1.54-0.43-2.3-0.19
	l-5.7,1.91l2.31,7.2c0.66,0.09,1.28,0.37,1.79,0.8c0.51,0.43,0.89,0.99,1.09,1.63c0.2,0.64,0.22,1.32,0.06,1.96
	c-0.17,0.65-0.51,1.24-0.99,1.7l2.22,6.92c0.66,0.1,1.29,0.38,1.8,0.81c0.51,0.43,0.89,1,1.1,1.64c0.19,0.61,0.22,1.27,0.07,1.9
	c-0.15,0.63-0.47,1.21-0.92,1.67c-0.45,0.47-1.02,0.8-1.65,0.97c-0.63,0.17-1.28,0.16-1.91-0.01c-0.62-0.18-1.18-0.52-1.62-0.99
	c-0.44-0.47-0.74-1.05-0.88-1.69c-0.13-0.63-0.09-1.29,0.12-1.9c0.21-0.61,0.59-1.16,1.08-1.57l-2.12-6.48l-5.81,11.32
	c0.22,0.32,0.39,0.66,0.52,1.02c0.22,0.68,0.24,1.41,0.05,2.09c-0.19,0.69-0.58,1.31-1.13,1.78c-0.54,0.47-1.21,0.77-1.92,0.85
	c-0.71,0.09-1.43-0.04-2.07-0.36c-0.64-0.32-1.16-0.82-1.51-1.45c-0.35-0.62-0.5-1.33-0.44-2.05c0.06-0.71,0.33-1.39,0.77-1.95
	c0.45-0.56,1.05-0.98,1.73-1.2c0.45-0.15,0.92-0.21,1.4-0.17l5.89-11.43c-0.3-0.37-0.53-0.78-0.69-1.23c-0.22-0.7-0.21-1.44,0-2.14
	c0.22-0.7,0.65-1.32,1.22-1.77l-2.29-7.12l-18.81,6.14c-0.76,0.25-1.4,0.79-1.77,1.51c-0.37,0.71-0.44,1.54-0.19,2.31l8.92,27.31
	c0.12,0.38,0.31,0.72,0.57,1.02c0.26,0.3,0.57,0.54,0.92,0.72c0.35,0.18,0.74,0.28,1.13,0.31c0.39,0.03,0.79-0.02,1.17-0.15
	l27.29-8.99c0.38-0.12,0.72-0.32,1.03-0.57c0.3-0.26,0.55-0.57,0.73-0.92c0.18-0.35,0.29-0.74,0.32-1.13
	c0.03-0.39-0.02-0.79-0.14-1.16L134.33,681.71z"/>
<path id="Vector_65" class="st0" d="M193.09,846.88l31.25-5.77l5.75,31.25l-31.23,5.75L193.09,846.88z M226.13,865.37
	c-0.49-1.39-1.63-2.4-4.6-3.02c-1.03-0.28-2.16-0.39-2.61-1.05c-0.17-0.27-0.25-0.59-0.23-0.91c0-0.88,0.98-1.32,1.76-1.23
	c0.3,0.04,0.59,0.15,0.85,0.31c0.26,0.16,0.48,0.38,0.64,0.64l2.02-1.9c-0.28-0.32-0.6-0.61-0.95-0.86
	c-0.56-0.41-1.21-0.69-1.89-0.8c-0.69-0.12-1.39-0.07-2.05,0.14l-0.89,0.28c-0.83,0.36-1.52,0.97-1.98,1.75
	c-0.27,0.49-0.43,1.02-0.49,1.57s0,1.11,0.16,1.64c0.16,0.53,0.43,1.02,0.79,1.45c0.36,0.42,0.8,0.77,1.29,1.02
	c2.02,1,4.67,0.81,5.26,2c0.6,1.19-0.75,2.21-2.23,2.3c-0.5-0.02-0.99-0.15-1.44-0.38s-0.84-0.55-1.15-0.94l-2.12,1.75
	c0.36,0.49,0.8,0.92,1.32,1.25c2.68,1.88,8.32,0.72,8.77-2.95c0.08-0.74-0.02-1.48-0.3-2.17L226.13,865.37z M212.69,858.09
	l-2.91,0.54c0.46,2.53,0.91,5.03,1.39,7.56c0.32,1.14,0.47,2.32,0.46,3.51c-0.26,0.98-1.39,1.07-1.91,1
	c-0.51-0.16-0.96-0.48-1.28-0.91c-0.12-0.12-0.19-0.23-0.23-0.23l-2.09,1.91c0.52,0.74,1.24,1.31,2.07,1.65
	c1.38,0.46,2.88,0.39,4.21-0.19c0.48-0.21,0.91-0.52,1.25-0.91c0.35-0.39,0.61-0.85,0.76-1.35c0.27-1.48,0.18-3.01-0.26-4.46
	c-0.49-2.67-1-5.26-1.49-8.03L212.69,858.09z"/>
<path id="Vector_66" class="st0" d="M274.3,411.86l26.05,5.46l-5.48,26.05l-26.04-5.47L274.3,411.86z M294.03,436.7
	c0.06-1.23-0.5-2.38-2.6-3.8c-0.71-0.55-1.55-0.99-1.69-1.65c-0.04-0.26,0-0.54,0.11-0.78c0.28-0.68,1.18-0.71,1.75-0.39
	c0.22,0.13,0.41,0.3,0.56,0.51c0.15,0.21,0.25,0.45,0.3,0.7l2.17-0.83c-0.11-0.34-0.27-0.67-0.46-0.97c-0.3-0.5-0.72-0.92-1.21-1.22
	c-0.49-0.31-1.05-0.49-1.63-0.55l-0.78-0.07c-0.76,0.01-1.49,0.27-2.09,0.73c-0.36,0.29-0.66,0.65-0.88,1.06
	c-0.22,0.41-0.35,0.86-0.4,1.32c-0.04,0.46,0.01,0.93,0.15,1.37c0.14,0.44,0.37,0.85,0.68,1.2c1.25,1.42,3.36,2.11,3.44,3.22
	c0.08,1.11-1.29,1.47-2.46,1.07c-0.38-0.18-0.72-0.43-1-0.75c-0.28-0.32-0.48-0.69-0.6-1.1l-2.2,0.68c0.12,0.5,0.33,0.96,0.62,1.38
	c1.48,2.31,6.22,3.2,7.74,0.51c0.3-0.55,0.46-1.16,0.46-1.78L294.03,436.7z M285.93,426.78l-2.43-0.51c-0.45,2.1-0.89,4.19-1.33,6.3
	c-0.11,0.99-0.37,1.95-0.76,2.86c-0.52,0.68-1.41,0.39-1.8,0.17c-0.35-0.28-0.6-0.68-0.7-1.11c-0.06-0.13-0.08-0.24-0.1-0.25
	l-2.23,0.82c0.17,0.74,0.54,1.41,1.08,1.94c0.92,0.8,2.11,1.22,3.33,1.19c0.44-0.01,0.87-0.12,1.26-0.31
	c0.39-0.19,0.74-0.47,1.02-0.8c0.68-1.07,1.1-2.28,1.21-3.54c0.47-2.22,0.9-4.4,1.4-6.7L285.93,426.78z"/>
<path id="Vector_67" class="st0" d="M33.63,900.1c-0.92,0-1.81,0.37-2.46,1.03c-0.65,0.66-1.02,1.55-1.02,2.48s0.37,1.82,1.02,2.48
	c0.65,0.66,1.54,1.03,2.46,1.03c0.92,0,1.81-0.37,2.46-1.03c0.65-0.66,1.02-1.55,1.02-2.48s-0.37-1.82-1.02-2.48
	C35.44,900.47,34.55,900.1,33.63,900.1z M23.87,910.58l-0.76-0.2c-5.65-1.46-9.02-3.93-9.02-6.77s3.37-5.33,9.02-6.77l0.76-0.19
	l0.22,0.76c0.6,2.09,1.38,4.13,2.32,6.09l-0.1-0.24l0.17,0.36l-0.17,0.35c-0.86,1.79-1.57,3.66-2.12,5.57v0.27L23.87,910.58z
	 M22.74,898.62c-4.34,1.23-6.97,3.06-6.97,4.99s2.68,3.76,7.02,5.08c0.53-1.82,1.19-3.59,1.99-5.32l-0.1,0.25
	c-0.73-1.52-1.35-3.1-1.85-4.71l-0.08-0.29V898.62z M43.39,910.58l-0.22-0.76c-0.61-2.09-1.38-4.13-2.32-6.09l0.1,0.24l-0.17-0.36
	l0.17-0.36c0.86-1.8,1.58-3.67,2.15-5.59v-0.27l0.22-0.76l0.76,0.19c5.74,1.46,9.02,3.93,9.02,6.77s-3.28,5.32-9.02,6.77
	L43.39,910.58z M42.58,903.61c0.76,1.65,1.41,3.34,1.93,5.08c4.34-1.24,7.02-3.11,7.02-5.08c0-1.96-2.68-3.76-7.02-4.99
	c-0.56,1.79-1.24,3.55-2.04,5.25L42.58,903.61z M22.74,898.62l-0.24-0.76c-1.68-5.72-1.13-9.8,1.33-11.24
	c2.46-1.44,6.29,0.25,10.36,4.45l0.56,0.58l-0.56,0.58c-1.41,1.47-2.7,3.05-3.87,4.72l-0.08,0.14l-0.22,0.3h-0.37
	c-2.17,0.17-4.32,0.53-6.43,1.07h0.25L22.74,898.62z M25.87,887.75c-0.4-0.01-0.79,0.09-1.14,0.29c-1.68,0.95-1.9,4.2-0.79,8.6
	c1.66-0.37,3.35-0.64,5.05-0.79h0.25c1.03-1.47,2.15-2.87,3.36-4.2C29.94,889.17,27.55,887.75,25.87,887.75z M41.49,921.09
	c-2.32,0-5.3-1.69-8.41-4.94l-0.56-0.58l0.56-0.58c1.41-1.47,2.69-3.05,3.85-4.72v-0.14l0.22-0.3h0.39
	c2.17-0.17,4.32-0.53,6.43-1.07h-0.27l0.77-0.2l0.22,0.76c1.68,5.7,1.13,9.8-1.35,11.24c-0.58,0.33-1.24,0.49-1.9,0.49L41.49,921.09
	z M34.76,915.56c2.52,2.49,4.93,3.91,6.73,3.91c0.4,0.01,0.79-0.09,1.14-0.29c1.68-0.95,1.9-4.2,0.79-8.6
	c-1.66,0.37-3.35,0.64-5.05,0.8h-0.15c-1.03,1.47-2.15,2.87-3.36,4.2L34.76,915.56z M44.5,898.63l-0.76-0.2
	c-1.98-0.5-4-0.82-6.04-0.98h-0.05h-0.39l-0.22-0.3c-1.18-1.73-2.5-3.36-3.94-4.88l-0.56-0.58l0.56-0.58
	c4.05-4.2,7.94-5.84,10.35-4.45c2.41,1.39,2.96,5.52,1.35,11.24L44.5,898.63z M38.09,895.84c1.77,0.15,3.53,0.43,5.27,0.81
	c1.11-4.4,0.82-7.67-0.79-8.6c-1.62-0.93-4.63,0.49-7.81,3.62c1.16,1.27,2.25,2.62,3.25,4.03L38.09,895.84z M25.87,921.09
	c-0.68,0-1.34-0.17-1.93-0.51c-2.46-1.44-2.94-5.52-1.33-11.24l0.22-0.76l0.76,0.2c2.02,0.5,4.08,0.83,6.16,1h0.39l0.22,0.3
	c1.18,1.75,2.49,3.4,3.94,4.92l0.56,0.58l-0.56,0.58c-3.08,3.18-6.06,4.94-8.41,4.94V921.09z M23.94,910.58
	c-1.11,4.4-0.82,7.65,0.79,8.6s4.51-0.58,7.76-3.62c-1.17-1.28-2.25-2.63-3.25-4.04v-0.12c-1.86-0.17-3.71-0.46-5.54-0.88h0.27
	L23.94,910.58z M33.68,911.6c-1.35,0-2.73,0-4.11-0.17H29.2l-0.22-0.32c-0.74-1.04-1.43-2.12-2.07-3.23l-0.13-0.24
	c-0.56-0.93-1.18-2.13-1.68-3.39l-0.13-0.29l-0.15-0.36l0.15-0.36c0.72-1.52,1.35-2.71,2.04-3.88l-0.13,0.24
	c0.67-1.17,1.41-2.35,2.2-3.47l0.22-0.32h0.37c1.23-0.12,2.66-0.17,4.11-0.17c1.45,0,2.86,0,4.27,0.19h-0.39h0.39l0.22,0.32
	c1.5,2.15,2.83,4.41,3.97,6.77l0.13,0.29l0.15,0.35l-0.15,0.36c-1.19,2.54-2.6,4.98-4.21,7.28l0.1-0.15l-0.22,0.3h-0.39
	c-1.38,0.12-2.76,0.17-4.09,0.17L33.68,911.6z M30.09,909.82c2.39,0.19,4.78,0.19,7.17,0c1.26-1.89,2.38-3.87,3.36-5.92l0.12-0.29
	c-1.06-2.22-2.29-4.35-3.67-6.38l0.1,0.17c-1.08-0.1-2.32-0.15-3.58-0.15c-1.26,0-2.51,0-3.74,0.15h0.15
	c-1.28,1.9-2.43,3.9-3.42,5.97l-0.12,0.27c1.06,2.22,2.29,4.35,3.68,6.38l-0.12-0.17L30.09,909.82z"/>
<path id="Vector_68" class="st0" d="M178.63,555.1c-0.92,0-1.81,0.37-2.46,1.03c-0.65,0.66-1.02,1.55-1.02,2.48s0.37,1.82,1.02,2.48
	c0.65,0.66,1.54,1.03,2.46,1.03c0.92,0,1.81-0.37,2.46-1.03c0.65-0.66,1.02-1.55,1.02-2.48s-0.37-1.82-1.02-2.48
	C180.44,555.47,179.55,555.1,178.63,555.1z M168.87,565.58l-0.76-0.2c-5.65-1.46-9.02-3.93-9.02-6.77s3.37-5.33,9.02-6.77l0.76-0.19
	l0.22,0.76c0.6,2.09,1.38,4.13,2.32,6.09l-0.1-0.24l0.17,0.36l-0.17,0.35c-0.86,1.79-1.57,3.66-2.12,5.57v0.27L168.87,565.58z
	 M167.74,553.62c-4.34,1.23-6.97,3.06-6.97,4.99s2.68,3.76,7.02,5.08c0.53-1.82,1.2-3.59,1.99-5.32l-0.1,0.25
	c-0.73-1.52-1.35-3.1-1.85-4.71l-0.08-0.29V553.62z M188.39,565.58l-0.22-0.76c-0.61-2.09-1.38-4.13-2.32-6.09l0.1,0.24l-0.17-0.36
	l0.17-0.36c0.86-1.8,1.58-3.67,2.15-5.59v-0.27l0.22-0.76l0.76,0.19c5.74,1.46,9.02,3.93,9.02,6.77s-3.28,5.32-9.02,6.77
	L188.39,565.58z M187.58,558.61c0.76,1.65,1.41,3.34,1.94,5.08c4.34-1.24,7.02-3.11,7.02-5.08c0-1.96-2.68-3.76-7.02-4.99
	c-0.56,1.79-1.24,3.55-2.04,5.25L187.58,558.61z M167.74,553.62l-0.24-0.76c-1.68-5.72-1.13-9.8,1.33-11.24
	c2.46-1.44,6.29,0.25,10.36,4.45l0.55,0.58l-0.55,0.58c-1.41,1.47-2.7,3.05-3.87,4.72l-0.08,0.14l-0.22,0.3h-0.37
	c-2.17,0.17-4.32,0.53-6.43,1.07h0.25L167.74,553.62z M170.87,542.75c-0.4-0.01-0.79,0.09-1.14,0.29c-1.68,0.95-1.9,4.2-0.79,8.6
	c1.66-0.37,3.35-0.64,5.05-0.79h0.25c1.03-1.47,2.15-2.87,3.37-4.2C174.94,544.17,172.55,542.75,170.87,542.75z M186.49,576.09
	c-2.32,0-5.3-1.69-8.41-4.94l-0.55-0.58l0.55-0.58c1.41-1.47,2.7-3.05,3.85-4.72v-0.14l0.22-0.3h0.39c2.17-0.17,4.32-0.53,6.43-1.07
	h-0.27l0.77-0.2l0.22,0.76c1.68,5.7,1.13,9.8-1.35,11.24c-0.58,0.33-1.24,0.49-1.9,0.49L186.49,576.09z M179.76,570.56
	c2.52,2.49,4.93,3.91,6.73,3.91c0.4,0.01,0.79-0.09,1.14-0.29c1.68-0.95,1.9-4.2,0.79-8.6c-1.66,0.37-3.35,0.64-5.05,0.8h-0.15
	c-1.03,1.47-2.15,2.87-3.37,4.2L179.76,570.56z M189.5,553.63l-0.76-0.2c-1.98-0.5-4-0.82-6.04-0.98h-0.05h-0.39l-0.22-0.3
	c-1.18-1.73-2.5-3.36-3.94-4.88l-0.55-0.58l0.55-0.58c4.06-4.2,7.94-5.84,10.35-4.45c2.41,1.39,2.96,5.52,1.35,11.24L189.5,553.63z
	 M183.09,550.84c1.77,0.15,3.53,0.43,5.27,0.81c1.11-4.4,0.82-7.67-0.79-8.6c-1.62-0.93-4.63,0.49-7.81,3.62
	c1.16,1.27,2.25,2.62,3.25,4.03L183.09,550.84z M170.87,576.09c-0.68,0-1.34-0.17-1.93-0.51c-2.46-1.44-2.95-5.52-1.33-11.24
	l0.22-0.76l0.76,0.2c2.02,0.5,4.08,0.83,6.16,1h0.39l0.22,0.3c1.17,1.75,2.49,3.4,3.94,4.92l0.55,0.58l-0.55,0.58
	c-3.08,3.18-6.06,4.94-8.41,4.94V576.09z M168.94,565.58c-1.11,4.4-0.82,7.65,0.79,8.6c1.62,0.95,4.51-0.58,7.76-3.62
	c-1.17-1.28-2.25-2.63-3.25-4.04v-0.12c-1.86-0.17-3.71-0.46-5.54-0.88h0.27L168.94,565.58z M178.68,566.6c-1.35,0-2.73,0-4.1-0.17
	h-0.37l-0.22-0.32c-0.74-1.04-1.43-2.12-2.07-3.23l-0.13-0.24c-0.56-0.93-1.18-2.13-1.68-3.39l-0.13-0.29l-0.15-0.36l0.15-0.36
	c0.72-1.52,1.35-2.71,2.04-3.88l-0.13,0.24c0.67-1.17,1.41-2.35,2.2-3.47l0.22-0.32h0.37c1.23-0.12,2.66-0.17,4.1-0.17
	s2.86,0,4.27,0.19h-0.39h0.39l0.22,0.32c1.5,2.15,2.83,4.41,3.97,6.77l0.14,0.29l0.15,0.35l-0.15,0.36
	c-1.19,2.54-2.6,4.98-4.21,7.28l0.1-0.15l-0.22,0.3h-0.39c-1.38,0.12-2.76,0.17-4.09,0.17L178.68,566.6z M175.09,564.82
	c2.39,0.19,4.78,0.19,7.17,0c1.26-1.89,2.38-3.87,3.37-5.92l0.12-0.29c-1.06-2.22-2.29-4.35-3.67-6.38l0.1,0.17
	c-1.08-0.1-2.32-0.15-3.58-0.15s-2.51,0-3.74,0.15h0.15c-1.28,1.9-2.43,3.9-3.41,5.97l-0.12,0.27c1.06,2.22,2.29,4.35,3.68,6.38
	l-0.12-0.17L175.09,564.82z"/>
<path id="Vector_69" class="st0" d="M295.04,684.09c1.39,0.47,2.54,1.46,3.2,2.77c0.66,1.3,0.77,2.81,0.32,4.21l-16.27,44.14
	l-3.81-6.62l-2.03-3.83l-2.25-4.02l-0.28,5l-28.95-10.29c-0.69-0.22-1.32-0.58-1.87-1.06c-0.54-0.47-0.99-1.05-1.3-1.7
	c-0.31-0.65-0.49-1.35-0.52-2.07c-0.03-0.72,0.08-1.44,0.34-2.12l12.25-33.29c0.55-1.34,1.59-2.43,2.92-3.03
	c1.33-0.6,2.83-0.68,4.2-0.21L295.04,684.09z M278.12,691.24l-0.63,0.24c2.09,1.42,3.84,3.27,5.13,5.42
	c-1.96-2.08-4.28-3.8-6.85-5.08c-1.63-0.79-3.35-1.4-5.12-1.8l-0.39-0.15c-2.05-0.52-4.17-0.71-6.29-0.57l-1.76,0.14
	c2.49-0.9,5.17-1.18,7.79-0.8l-0.14-0.36c-2.64-0.8-5.48-0.75-8.11,0.14c-3.99,3.61-7.08,8.09-9.01,13.08
	c0.42,1.54,1.22,2.94,2.34,4.09c1.11,1.14,2.51,1.98,4.04,2.44c0,0,1.21-0.8,2.46-1.49c-1.58-1.07-2.76-2.63-3.35-4.43
	c0.2,0.19,0.38,0.4,0.55,0.63c0.02,0.02,0.03,0.04,0.04,0.06c0.01,0.02,0.01,0.05,0.01,0.07c0.57,0.53,1.16,1.05,1.61,1.5
	c1.01,0.93,2.12,1.75,3.31,2.44c2.07,1.12,4.3,1.91,6.62,2.36c1.36,0.22,2.74,0.29,4.11,0.21c1.16-0.09,2.32-0.25,3.46-0.47
	c-1.68,1.02-3.64,1.45-5.59,1.23c0.31,1.2,0.88,2.66,0.88,2.66c1.51,0.55,3.12,0.78,4.73,0.68c1.61-0.11,3.18-0.55,4.61-1.3
	c1.74-5.02,2.29-10.36,1.6-15.61c-1.46-2.3-3.6-4.09-6.14-5.12L278.12,691.24z M275.13,700.43c0.52,0.18,0.98,0.51,1.31,0.95
	c0.33,0.44,0.52,0.96,0.56,1.51s-0.1,1.1-0.38,1.57s-0.7,0.86-1.19,1.11c-0.5,0.25-1.06,0.34-1.61,0.28
	c-0.55-0.07-1.07-0.29-1.49-0.65c-0.42-0.36-0.72-0.83-0.87-1.36c-0.15-0.53-0.14-1.09,0.04-1.61c0.12-0.36,0.3-0.69,0.55-0.97
	c0.25-0.29,0.55-0.52,0.89-0.69c0.34-0.17,0.71-0.27,1.09-0.29C274.4,700.26,274.78,700.31,275.13,700.43z M265.76,697.07
	c0.52,0.18,0.98,0.51,1.31,0.94c0.33,0.44,0.53,0.96,0.57,1.51c0.03,0.55-0.1,1.1-0.37,1.58c-0.28,0.48-0.69,0.87-1.18,1.12
	c-0.5,0.25-1.05,0.35-1.6,0.29c-0.55-0.06-1.07-0.29-1.49-0.64c-0.42-0.35-0.73-0.82-0.88-1.35c-0.15-0.53-0.15-1.09,0.02-1.62
	c0.11-0.36,0.3-0.69,0.55-0.98c0.25-0.29,0.55-0.52,0.89-0.69s0.71-0.27,1.09-0.3C265.03,696.9,265.41,696.95,265.76,697.07z"/>
<path id="Vector_70" class="st0" d="M230.58,294.8c0.91,0.31,1.66,0.96,2.09,1.81c0.43,0.85,0.51,1.84,0.21,2.75l-10.65,28.88
	l-2.49-4.33l-1.33-2.51l-1.47-2.63l-0.18,3.27l-18.94-6.73c-0.45-0.15-0.87-0.38-1.22-0.69s-0.64-0.69-0.85-1.11
	c-0.21-0.42-0.32-0.88-0.34-1.36s0.05-0.94,0.22-1.39l8.02-21.78c0.36-0.88,1.04-1.59,1.91-1.98c0.87-0.39,1.85-0.44,2.75-0.14
	L230.58,294.8z M219.51,299.47l-0.41,0.16c1.36,0.93,2.51,2.14,3.36,3.54c-1.28-1.36-2.8-2.49-4.48-3.32
	c-1.07-0.52-2.19-0.91-3.35-1.17l-0.26-0.1c-1.34-0.34-2.73-0.47-4.11-0.37l-1.15,0.09c1.63-0.59,3.38-0.77,5.1-0.52l-0.09-0.24
	c-1.73-0.52-3.58-0.49-5.3,0.09c-2.61,2.36-4.63,5.29-5.89,8.56c0.27,1.01,0.8,1.92,1.53,2.67c0.73,0.75,1.64,1.3,2.65,1.6
	c0,0,0.79-0.52,1.61-0.98c-1.03-0.7-1.8-1.72-2.19-2.9c0.13,0.13,0.25,0.26,0.36,0.41c0.01,0.01,0.02,0.02,0.03,0.04
	c0,0.01,0.01,0.03,0.01,0.05c0.37,0.35,0.76,0.69,1.05,0.98c0.66,0.61,1.39,1.14,2.16,1.59c1.35,0.73,2.81,1.25,4.33,1.54
	c0.89,0.14,1.79,0.19,2.69,0.14c0.76-0.06,1.51-0.16,2.26-0.31c-1.1,0.67-2.38,0.95-3.66,0.81c0.2,0.78,0.57,1.74,0.57,1.74
	c0.99,0.36,2.04,0.51,3.1,0.44c1.05-0.07,2.08-0.36,3.02-0.85c1.14-3.28,1.5-6.78,1.05-10.21c-0.95-1.5-2.36-2.67-4.01-3.35
	L219.51,299.47z M217.56,305.49c0.34,0.12,0.64,0.34,0.86,0.62c0.22,0.29,0.34,0.63,0.36,0.99c0.02,0.36-0.07,0.72-0.25,1.03
	c-0.18,0.31-0.46,0.57-0.78,0.73c-0.33,0.16-0.69,0.22-1.05,0.18c-0.36-0.04-0.7-0.19-0.97-0.42c-0.28-0.23-0.47-0.54-0.57-0.89
	c-0.1-0.35-0.09-0.71,0.02-1.06c0.08-0.23,0.2-0.45,0.36-0.64c0.16-0.19,0.36-0.34,0.58-0.45c0.22-0.11,0.46-0.17,0.71-0.19
	C217.08,305.37,217.32,305.41,217.56,305.49z M211.43,303.29c0.34,0.12,0.64,0.33,0.86,0.62c0.22,0.29,0.35,0.63,0.37,0.99
	c0.02,0.36-0.06,0.72-0.24,1.03s-0.45,0.57-0.78,0.73c-0.32,0.16-0.69,0.23-1.05,0.19c-0.36-0.04-0.7-0.19-0.97-0.42
	c-0.28-0.23-0.48-0.54-0.58-0.88c-0.1-0.35-0.1-0.71,0.01-1.06c0.08-0.23,0.2-0.45,0.36-0.64c0.16-0.19,0.36-0.34,0.58-0.45
	c0.22-0.11,0.46-0.18,0.71-0.2C210.95,303.18,211.19,303.21,211.43,303.29z"/>
<path id="Vector_71" class="st0" d="M322.6,28.87c-4.57-3.4-10.2-5.07-15.88-4.72c-5.68,0.35-11.06,2.7-15.18,6.63
	c-4.11,3.93-6.7,9.19-7.31,14.85c-0.6,5.66,0.82,11.34,4.01,16.06c0.11,0.17,0.26,0.3,0.44,0.39c0.18,0.09,0.37,0.14,0.57,0.14
	s0.4-0.05,0.57-0.14c0.17-0.09,0.32-0.23,0.44-0.39l2.32-3.22c-6.22-2.88-4.53-7.46-4.53-7.46c0.49-1.4,0.49-2.93,0-4.33
	c-0.85-2.51,1.02-1.08,1.02-1.08c0.56,0.56,0.98,1.24,1.23,1.99c0.25,0.75,0.33,1.55,0.22,2.33c-0.1,0.67-0.06,1.35,0.1,2
	c0.16,0.65,0.46,1.27,0.86,1.81c0.4,0.54,0.91,1,1.49,1.34s1.22,0.57,1.89,0.67c0.83-0.9,1.95-1.48,3.16-1.64
	c-3.9-3.7-7.13-8.76-1.56-16.12c1.42-1.92,3.52-3.23,5.87-3.66c0.66-2.1,2.1-3.88,4.03-4.95c0,0,1.99,0.71,3.79,5.97
	c1.89,0.76,3.68,1.76,5.31,2.99c1.62,1.25,3.08,2.7,4.33,4.33c5.52,0.28,6.76,2.01,6.76,2.01c-0.56,2.05-1.86,3.82-3.64,4.98
	c0.23,2.38-0.47,4.76-1.95,6.64c-5.59,7.38-11.31,5.6-15.94,2.86c0.11,0.81,0.04,1.63-0.2,2.41c-0.24,0.78-0.64,1.5-1.18,2.11
	c-1.95,2.57-3.53,4.61-4.01,5.24c-0.48,0.63-0.5,1.36,0.63,1.93c5.42,1.84,11.32,1.7,16.64-0.41c5.32-2.11,9.72-6.03,12.4-11.08
	c2.68-5.05,3.48-10.89,2.25-16.47c-1.23-5.58-4.42-10.54-8.98-14H322.6z"/>
<path id="Vector_72" class="st0" d="M66.19,397.63c-5.06,2.61-9.03,6.93-11.22,12.19c-2.18,5.26-2.44,11.12-0.72,16.55
	c1.72,5.43,5.31,10.07,10.12,13.09c4.82,3.03,10.55,4.25,16.18,3.46c0.2-0.03,0.38-0.1,0.55-0.22c0.16-0.12,0.29-0.27,0.38-0.45
	c0.09-0.18,0.13-0.38,0.12-0.58c-0.01-0.2-0.06-0.39-0.16-0.57l-1.88-3.5c-5.32,4.32-8.69,0.78-8.69,0.78
	c-1.04-1.06-2.41-1.73-3.89-1.9c-2.63-0.35-0.52-1.39-0.52-1.39c0.75-0.26,1.55-0.34,2.33-0.23c0.79,0.1,1.54,0.39,2.19,0.83
	c0.56,0.38,1.18,0.65,1.84,0.79c0.66,0.14,1.34,0.15,2,0.02c0.66-0.12,1.29-0.38,1.86-0.74c0.56-0.37,1.05-0.84,1.43-1.4
	c-0.45-1.14-0.48-2.4-0.09-3.56c-5.04,1.88-11,2.55-15.16-5.69c-1.11-2.12-1.36-4.58-0.7-6.88c-1.6-1.52-2.56-3.59-2.68-5.8
	c0,0,1.52-1.48,7.03-0.78c1.51-1.37,3.2-2.53,5.02-3.45c1.84-0.91,3.78-1.58,5.79-1.99c2.68-4.84,4.78-5.18,4.78-5.18
	c1.59,1.4,2.61,3.35,2.87,5.46c2.24,0.84,4.07,2.51,5.11,4.67c4.17,8.26,0.06,12.62-4.44,15.57c0.77,0.26,1.48,0.68,2.08,1.24
	c0.6,0.56,1.06,1.24,1.38,1.99c1.46,2.88,2.59,5.2,2.94,5.9c0.35,0.7,1.01,1.05,2.01,0.28c4.04-4.05,6.5-9.41,6.95-15.12
	c0.45-5.7-1.15-11.38-4.5-16.01c-3.35-4.63-8.25-7.91-13.8-9.26c-5.56-1.35-11.41-0.67-16.52,1.91L66.19,397.63z"/>
<path id="Vector_73" class="st2" d="M221.09,1029.11c8.28,0,15-6.72,15-15s-6.72-15-15-15s-15,6.72-15,15
	S212.81,1029.11,221.09,1029.11z"/>
<g>
	<g>
		<path id="Vector_1_" class="st0" d="M494.88,8.16l0.65,2.5l2.36-0.61l0.63,2.45l-4.72,1.22l0.68,2.64c0.13,0.49,0.13,1,0.02,1.48
			c-0.11,0.49-0.34,0.94-0.65,1.31c0,0,1.25,0.11,1.79,1.73l0.01,0l-0.01-0.04l2.36-0.61l1.35,5.22l-2.36,0.61l0.59,2.27l2.36-0.61
			l0.67,2.58l-2.36,0.61c-0.86,0.22-1.51,0.01-1.98-0.31c-0.52-0.36-0.89-0.9-1.04-1.52l-1.93-7.46c0,0-0.43-1.1-1.64-0.63
			l-0.65-2.49c0,0,1.44-0.16,1.08-1.53l-1.97-7.59c-0.16-0.62-0.1-1.27,0.18-1.84c0.25-0.5,0.72-1,1.58-1.23l4.72-1.22l0.63,2.45
			L494.88,8.16z"/>
		<path id="Vector_2_1_" class="st0" d="M499.17,15.04l-2.36,0.61l1.19,4.58l2.36-0.61L499.17,15.04z"/>
		<path id="Vector_3_1_" class="st0" d="M501.71,24.84l-2.36,0.61l0.61,2.34l2.36-0.61L501.71,24.84z"/>
		<path id="Vector_4_1_" class="st0" d="M499.6,6.97l-2.36,0.61l0.64,2.45l2.36-0.61L499.6,6.97z"/>
		<path id="Vector_5_1_" class="st0" d="M509.67,7l-2.36,0.61l0.63,2.45l2.36-0.61L509.67,7z"/>
		<path id="Vector_6_1_" class="st0" d="M511.57,14.34l-2.36,0.61l0.63,2.45l2.36-0.61L511.57,14.34z"/>
		<path id="Vector_7_1_" class="st0" d="M510.75,1.44l-2.36,0.61l0.64,2.45l2.36-0.61L510.75,1.44z"/>
		<path id="Vector_8_1_" class="st0" d="M512.66,8.84l-2.36,0.61l0.63,2.45l2.36-0.61L512.66,8.84z"/>
		<path id="Vector_9_1_" class="st0" d="M515.19,18.61l-2.36,0.61l0.64,2.45l2.36-0.61L515.19,18.61z"/>
		<path id="Vector_10_1_" class="st0" d="M513.52,21.68l-2.36,0.61l0.63,2.42l2.36-0.61L513.52,21.68z"/>
		<path id="Vector_11_1_" class="st0" d="M504.44,15.95l-2.36,0.61l0.64,2.45l2.36-0.61L504.44,15.95z"/>
		<path id="Vector_12_1_" class="st0" d="M510.53,19.84l0.63,2.45l-7.12,1.84l-0.63-2.45l2.36-0.61l-0.68-2.61l2.36-0.61l0.68,2.61
			L510.53,19.84z"/>
		<path id="Vector_13_1_" class="st0" d="M511.8,24.73L506.87,26l0.66,2.56l4.92-1.27L511.8,24.73z"/>
		<path id="Vector_14_1_" class="st0" d="M506.07,2.59l-4.92,1.27l0.66,2.56l4.92-1.27L506.07,2.59z"/>
		<path id="Vector_15_1_" class="st0" d="M500.87,11.89l-2.36,0.61l0.63,2.45l2.36-0.61L500.87,11.89z"/>
		<path id="Vector_16_1_" class="st0" d="M504.95,8.22l-2.36,0.61l0.63,2.45l2.36-0.61L504.95,8.22z"/>
		<path id="Vector_17_1_" class="st0" d="M507.95,10.06l-2.36,0.61l0.63,2.45l2.36-0.61L507.95,10.06z"/>
		<path id="Vector_18_1_" class="st0" d="M502.72,19.01l-2.36,0.61l0.63,2.45l2.36-0.61L502.72,19.01z"/>
		<path id="Vector_19_1_" class="st0" d="M504.67,26.57l-2.36,0.61l0.65,2.51l2.36-0.61L504.67,26.57z"/>
		<path id="Vector_20_1_" class="st0" d="M516.18,13.13l-2.25,0.58l0.64,2.49l2.25-0.58L516.18,13.13z"/>
		<path id="Vector_21_1_" class="st0" d="M520.69,9.42l-1.94-7.5c-0.16-0.62-0.53-1.16-1.04-1.52c-0.46-0.31-1.09-0.52-1.92-0.33
			l-2.74,0.71l0.65,2.51l-2.32,0.6l0.65,2.49l4.98-1.29l0.63,2.44l-2.7,0.7l0.65,2.49l2.7-0.7l0.04,0.15l0.01,0
			c0.55,1.63,1.8,1.74,1.8,1.74c-0.32,0.37-0.55,0.83-0.66,1.31c-0.11,0.49-0.1,1,0.02,1.49l0.05,0.2l-2.73,0.71l1.29,4.98
			l-2.19,0.57l0.61,2.34l-2.37,0.61l0.66,2.57l7.29-1.89c0.86-0.22,1.33-0.73,1.58-1.24c0.28-0.57,0.34-1.22,0.17-1.84l-1.97-7.63
			c-0.35-1.37,1.09-1.54,1.09-1.54l-0.65-2.5C521.12,10.53,520.69,9.42,520.69,9.42z M521.45,22.23l-2.61,0.68l-0.61-2.34l2.61-0.68
			L521.45,22.23z"/>
	</g>
</g>
<g>
	<g>
		<path id="Vector_22_1_" class="st0" d="M383.36,557.78l-1.37,3.3l3.12,1.29l-1.34,3.24l-6.23-2.58l-1.45,3.49
			c-0.27,0.64-0.68,1.21-1.21,1.66c-0.53,0.45-1.15,0.76-1.82,0.9c0,0,1.29,1.16,0.54,3.41l0.01,0.01l0.02-0.05l3.12,1.29l-2.86,6.9
			l-3.12-1.29l-1.25,3.01l3.12,1.29l-1.41,3.41l-3.12-1.29c-1.14-0.47-1.68-1.25-1.93-1.99c-0.27-0.83-0.23-1.74,0.11-2.55
			l4.09-9.86c0,0,0.44-1.57-1.29-2.07l1.37-3.29c0,0,1.72,1.02,2.47-0.79l4.16-10.03c0.33-0.82,0.95-1.49,1.73-1.88
			c0.7-0.35,1.63-0.51,2.77-0.04l6.23,2.59l-1.34,3.24L383.36,557.78z"/>
		<path id="Vector_23_1_" class="st0" d="M382.37,568.97l-3.12-1.29l-2.51,6.05l3.12,1.29L382.37,568.97z"/>
		<path id="Vector_24_1_" class="st0" d="M377,581.92l-3.12-1.29l-1.28,3.09l3.12,1.29L377,581.92z"/>
		<path id="Vector_25_1_" class="st0" d="M389.58,560.4l-3.12-1.29l-1.34,3.24l3.12,1.29L389.58,560.4z"/>
		<path id="Vector_26_1_" class="st0" d="M400.69,568.84l-3.12-1.29l-1.34,3.24l3.12,1.29L400.69,568.84z"/>
		<path id="Vector_27_1_" class="st0" d="M396.66,578.54l-3.12-1.29l-1.34,3.24l3.12,1.29L396.66,578.54z"/>
		<path id="Vector_28_1_" class="st0" d="M406.51,563.59l-3.12-1.29l-1.34,3.24l3.12,1.29L406.51,563.59z"/>
		<path id="Vector_29_1_" class="st0" d="M402.46,573.36l-3.12-1.29l-1.34,3.24l3.12,1.29L402.46,573.36z"/>
		<path id="Vector_30_1_" class="st0" d="M397.11,586.28l-3.12-1.29l-1.34,3.24l3.12,1.29L397.11,586.28z"/>
		<path id="Vector_31_1_" class="st0" d="M392.7,588.27l-3.12-1.29l-1.33,3.2l3.12,1.29L392.7,588.27z"/>
		<path id="Vector_32_1_" class="st0" d="M387.44,574.37l-3.12-1.29l-1.34,3.24l3.12,1.29L387.44,574.37z"/>
		<path id="Vector_33_1_" class="st0" d="M390.93,583.74l-1.34,3.24l-9.41-3.9l1.34-3.24l3.12,1.29l1.43-3.45l3.12,1.29l-1.43,3.45
			L390.93,583.74z"/>
		<path id="Vector_34_1_" class="st0" d="M388.25,590.21l-6.5-2.7l-1.41,3.39l6.5,2.7L388.25,590.21z"/>
		<path id="Vector_35_1_" class="st0" d="M400.38,560.96l-6.5-2.7l-1.41,3.39l6.5,2.7L400.38,560.96z"/>
		<path id="Vector_36_1_" class="st0" d="M386.88,566.9l-3.12-1.29l-1.34,3.24l3.12,1.29L386.88,566.9z"/>
		<path id="Vector_37_1_" class="st0" d="M394.45,566.25l-3.12-1.29l-1.34,3.24l3.12,1.29L394.45,566.25z"/>
		<path id="Vector_38_1_" class="st0" d="M396.23,570.78l-3.12-1.29l-1.34,3.24l3.12,1.29L396.23,570.78z"/>
		<path id="Vector_39_1_" class="st0" d="M382.98,576.31l-3.12-1.29l-1.34,3.24l3.12,1.29L382.98,576.31z"/>
		<path id="Vector_40_1_" class="st0" d="M378.83,586.31l-3.12-1.29l-1.38,3.32l3.12,1.29L378.83,586.31z"/>
		<path id="Vector_41_1_" class="st0" d="M402.76,581.04l-2.98-1.23l-1.36,3.29l2.98,1.23L402.76,581.04z"/>
		<path id="Vector_42_1_" class="st0" d="M410.84,580.71l4.11-9.9c0.34-0.82,0.39-1.73,0.12-2.55c-0.24-0.73-0.76-1.48-1.84-1.96
			l-3.62-1.5l-1.37,3.31l-3.06-1.27l-1.36,3.29l6.59,2.73l-1.33,3.22l-3.57-1.48l-1.36,3.29l3.57,1.48l-0.08,0.2l0.01,0.01
			c-0.75,2.26,0.54,3.42,0.54,3.42c-0.67,0.15-1.29,0.46-1.83,0.9c-0.53,0.45-0.95,1.02-1.22,1.67l-0.11,0.26l-3.61-1.49l-2.73,6.58
			l-2.89-1.2l-1.28,3.09l-3.13-1.3l-1.41,3.39l9.63,3.99c1.14,0.47,2.08,0.3,2.78-0.05c0.78-0.4,1.39-1.07,1.73-1.89l4.18-10.08
			c0.75-1.81,2.49-0.79,2.49-0.79l1.37-3.3C410.4,582.29,410.84,580.71,410.84,580.71z M401,595.5l-3.45-1.43l1.28-3.09l3.45,1.43
			L401,595.5z"/>
	</g>
</g>
<path id="Vector_43_1_" class="st0" d="M675.3,236.53c1.77,0,3.21-1.44,3.21-3.21c0-1.77-1.44-3.21-3.21-3.21s-3.21,1.44-3.21,3.21
	C672.09,235.09,673.53,236.53,675.3,236.53z"/>
<path id="Vector_44_1_" class="st0" d="M488.3,339.53c1.77,0,3.21-1.44,3.21-3.21c0-1.77-1.44-3.21-3.21-3.21s-3.21,1.44-3.21,3.21
	C485.09,338.09,486.53,339.53,488.3,339.53z"/>
<path id="Vector_45_1_" class="st0" d="M613.3,172.53c1.77,0,3.21-1.44,3.21-3.21c0-1.77-1.44-3.21-3.21-3.21s-3.21,1.44-3.21,3.21
	C610.09,171.09,611.53,172.53,613.3,172.53z"/>
<path id="Vector_46_1_" class="st0" d="M446.3,178.53c1.77,0,3.21-1.44,3.21-3.21c0-1.77-1.44-3.21-3.21-3.21s-3.21,1.44-3.21,3.21
	C443.09,177.09,444.53,178.53,446.3,178.53z"/>
<path id="Vector_47_1_" class="st0" d="M554.3,239.53c1.77,0,3.21-1.44,3.21-3.21c0-1.77-1.44-3.21-3.21-3.21s-3.21,1.44-3.21,3.21
	C551.09,238.09,552.53,239.53,554.3,239.53z"/>
<path id="Vector_48_1_" class="st0" d="M534.3,487.53c1.77,0,3.21-1.44,3.21-3.21c0-1.77-1.44-3.21-3.21-3.21s-3.21,1.44-3.21,3.21
	C531.09,486.09,532.53,487.53,534.3,487.53z"/>
<path id="Vector_49_1_" class="st0" d="M548.3,770.53c1.77,0,3.21-1.44,3.21-3.21c0-1.77-1.44-3.21-3.21-3.21s-3.21,1.44-3.21,3.21
	C545.09,769.09,546.53,770.53,548.3,770.53z"/>
<path id="Vector_50_1_" class="st0" d="M663.3,972.53c1.77,0,3.21-1.44,3.21-3.21c0-1.77-1.44-3.21-3.21-3.21s-3.21,1.44-3.21,3.21
	C660.09,971.09,661.53,972.53,663.3,972.53z"/>
<path id="Vector_51_1_" class="st0" d="M440.3,547.53c1.77,0,3.21-1.44,3.21-3.21c0-1.77-1.44-3.21-3.21-3.21s-3.21,1.44-3.21,3.21
	C437.09,546.09,438.53,547.53,440.3,547.53z"/>
<path id="Vector_52_1_" class="st0" d="M402.3,679.53c1.77,0,3.21-1.44,3.21-3.21c0-1.77-1.44-3.21-3.21-3.21s-3.21,1.44-3.21,3.21
	C399.09,678.09,400.53,679.53,402.3,679.53z"/>
<path id="Vector_53_1_" class="st1" d="M422.09,289.11c5.52,0,10-4.48,10-10s-4.48-10-10-10s-10,4.48-10,10
	S416.57,289.11,422.09,289.11z"/>
<path id="Vector_54_1_" class="st1" d="M534.09,405.11c5.52,0,10-4.48,10-10s-4.48-10-10-10c-5.52,0-10,4.48-10,10
	S528.57,405.11,534.09,405.11z"/>
<path id="Vector_55_1_" class="st1" d="M666.09,643.11c5.52,0,10-4.48,10-10s-4.48-10-10-10s-10,4.48-10,10
	S660.57,643.11,666.09,643.11z"/>
<path id="Vector_56_1_" class="st1" d="M453.09,809.11c5.52,0,10-4.48,10-10s-4.48-10-10-10s-10,4.48-10,10
	S447.57,809.11,453.09,809.11z"/>
<path id="Vector_57_1_" class="st1" d="M587.09,112.11c5.52,0,10-4.48,10-10s-4.48-10-10-10c-5.52,0-10,4.48-10,10
	S581.57,112.11,587.09,112.11z"/>
<path id="Vector_58_1_" class="st1" d="M409.09,92.11c5.52,0,10-4.48,10-10s-4.48-10-10-10s-10,4.48-10,10
	S403.57,92.11,409.09,92.11z"/>
<path id="Vector_59_1_" class="st2" d="M700.09,351.11c8.28,0,15-6.72,15-15s-6.72-15-15-15s-15,6.72-15,15
	S691.81,351.11,700.09,351.11z"/>
<path id="Vector_60_1_" class="st2" d="M657.09,544.11c8.28,0,15-6.72,15-15s-6.72-15-15-15s-15,6.72-15,15
	S648.81,544.11,657.09,544.11z"/>
<path id="Vector_61_1_" class="st2" d="M681.09,809.11c8.28,0,15-6.72,15-15s-6.72-15-15-15s-15,6.72-15,15
	S672.81,809.11,681.09,809.11z"/>
<path id="Vector_62_1_" class="st0" d="M513.11,964.15c-7.59-11.17-15.67-12.63-16.98-13.91c-1.02-0.76-1.98-1.61-2.85-2.54
	l0.05,0.12l-0.12,0.05l-0.29,0.11l-0.63,0.24l-0.12,0.05l-0.14,0.06l-0.27,0.52c-0.24,0.46-0.5,1.06-0.82,1.74
	c-2.94,7.42-3.06,15.67-0.33,23.19c0.27,0.82,0.59,1.63,0.95,2.42c1.68,3.6,4.15,6.77,7.23,9.27c1.04,0.83,2.13,1.6,3.25,2.3
	c2.39,1.49,4.98,2.63,7.68,3.41c1.4,1.73,2.5,3.68,3.26,5.78l1.61-0.08c-0.88-1.79-1.57-3.67-2.06-5.6
	c-0.09-0.6-0.03-1.21,0.17-1.77c0.46-0.66,0.86-1.36,1.21-2.09l-0.05-0.12c1.59-3.67,2.35-7.65,2.21-11.65
	C515.96,971.64,514.94,967.72,513.11,964.15z"/>
<path id="Vector_63_1_" class="st0" d="M521.6,123.97l-8.92-27.31c-0.25-0.76-0.79-1.38-1.5-1.74c-0.71-0.36-1.54-0.43-2.3-0.19
	l-5.7,1.9l2.31,7.2c0.66,0.09,1.28,0.37,1.79,0.8c0.51,0.43,0.89,0.99,1.09,1.63s0.22,1.32,0.06,1.96c-0.17,0.65-0.51,1.24-0.99,1.7
	l2.22,6.92c0.67,0.1,1.29,0.38,1.8,0.81s0.89,1,1.1,1.64c0.2,0.61,0.22,1.27,0.07,1.9c-0.15,0.63-0.47,1.21-0.92,1.67
	c-0.45,0.46-1.02,0.8-1.65,0.97c-0.63,0.17-1.28,0.16-1.91-0.01s-1.18-0.52-1.62-0.99c-0.44-0.47-0.74-1.05-0.88-1.69
	s-0.09-1.29,0.12-1.9s0.59-1.16,1.08-1.57l-2.12-6.48l-5.81,11.32c0.22,0.32,0.39,0.66,0.52,1.02c0.22,0.68,0.24,1.41,0.05,2.1
	c-0.19,0.69-0.59,1.31-1.13,1.77s-1.21,0.77-1.92,0.85c-0.71,0.09-1.43-0.04-2.07-0.36c-0.64-0.32-1.16-0.82-1.51-1.45
	s-0.5-1.33-0.44-2.05c0.06-0.71,0.33-1.39,0.77-1.95c0.45-0.56,1.05-0.98,1.73-1.2c0.45-0.15,0.92-0.21,1.4-0.17l5.89-11.43
	c-0.3-0.37-0.53-0.78-0.69-1.23c-0.22-0.7-0.21-1.44,0-2.14c0.22-0.7,0.65-1.32,1.22-1.77l-2.29-7.12l-18.81,6.14
	c-0.76,0.25-1.4,0.79-1.77,1.5c-0.37,0.72-0.44,1.54-0.2,2.31l8.92,27.31c0.12,0.38,0.31,0.72,0.57,1.02
	c0.26,0.3,0.57,0.54,0.92,0.72c0.35,0.18,0.73,0.28,1.13,0.31c0.39,0.03,0.79-0.02,1.17-0.15l27.29-8.99
	c0.38-0.12,0.72-0.32,1.03-0.57c0.3-0.26,0.55-0.57,0.73-0.92c0.18-0.35,0.29-0.74,0.32-1.13c0.03-0.39-0.02-0.79-0.14-1.16
	L521.6,123.97z"/>
<path id="Vector_64_1_" class="st0" d="M500.33,681.71l-8.92-27.31c-0.25-0.76-0.79-1.38-1.5-1.74c-0.71-0.36-1.54-0.43-2.3-0.19
	l-5.7,1.91l2.31,7.2c0.66,0.09,1.28,0.37,1.79,0.8c0.51,0.43,0.89,0.99,1.09,1.63c0.2,0.64,0.22,1.32,0.06,1.96
	c-0.17,0.65-0.51,1.24-0.99,1.7l2.22,6.92c0.66,0.1,1.29,0.38,1.8,0.81c0.51,0.43,0.89,1,1.1,1.64c0.19,0.61,0.22,1.27,0.07,1.9
	c-0.15,0.63-0.47,1.21-0.92,1.67c-0.45,0.47-1.02,0.8-1.65,0.97c-0.63,0.17-1.29,0.16-1.91-0.01c-0.62-0.18-1.18-0.52-1.62-0.99
	c-0.44-0.47-0.74-1.05-0.88-1.69c-0.13-0.63-0.09-1.29,0.12-1.9s0.59-1.16,1.08-1.57l-2.12-6.48l-5.81,11.32
	c0.22,0.32,0.39,0.66,0.52,1.02c0.22,0.68,0.24,1.41,0.05,2.09c-0.19,0.69-0.58,1.31-1.13,1.78c-0.54,0.47-1.21,0.77-1.92,0.85
	c-0.71,0.09-1.43-0.04-2.07-0.36c-0.64-0.32-1.16-0.82-1.51-1.45c-0.35-0.62-0.5-1.33-0.44-2.05c0.06-0.71,0.33-1.39,0.77-1.95
	c0.45-0.56,1.05-0.98,1.73-1.2c0.45-0.15,0.92-0.21,1.4-0.17l5.89-11.43c-0.3-0.37-0.53-0.78-0.69-1.23c-0.22-0.7-0.21-1.44,0-2.14
	c0.22-0.7,0.64-1.32,1.22-1.77l-2.29-7.12l-18.81,6.14c-0.76,0.25-1.4,0.79-1.77,1.51c-0.37,0.71-0.44,1.54-0.19,2.31l8.92,27.31
	c0.12,0.38,0.31,0.72,0.57,1.02c0.26,0.3,0.57,0.54,0.92,0.72c0.35,0.18,0.74,0.28,1.13,0.31c0.39,0.03,0.79-0.02,1.17-0.15
	l27.29-8.99c0.38-0.12,0.73-0.32,1.03-0.57c0.3-0.26,0.55-0.57,0.73-0.92c0.18-0.35,0.29-0.74,0.32-1.13
	c0.03-0.39-0.02-0.79-0.14-1.16L500.33,681.71z"/>
<path id="Vector_65_1_" class="st0" d="M559.09,846.88l31.25-5.77l5.75,31.25l-31.23,5.75L559.09,846.88z M592.13,865.37
	c-0.49-1.39-1.63-2.4-4.6-3.02c-1.03-0.28-2.16-0.39-2.61-1.05c-0.17-0.27-0.25-0.59-0.23-0.91c0-0.88,0.98-1.32,1.76-1.23
	c0.3,0.04,0.59,0.15,0.85,0.31c0.26,0.16,0.48,0.38,0.64,0.64l2.02-1.9c-0.28-0.32-0.6-0.61-0.95-0.86
	c-0.56-0.41-1.21-0.69-1.89-0.8c-0.69-0.12-1.39-0.07-2.05,0.14l-0.9,0.28c-0.83,0.36-1.52,0.97-1.98,1.75
	c-0.27,0.49-0.43,1.02-0.49,1.57c-0.06,0.55,0,1.11,0.16,1.64c0.16,0.53,0.43,1.02,0.79,1.45c0.36,0.42,0.8,0.77,1.29,1.02
	c2.02,1,4.67,0.81,5.26,2c0.6,1.19-0.75,2.21-2.23,2.3c-0.5-0.02-0.99-0.15-1.44-0.38s-0.84-0.55-1.16-0.94l-2.12,1.75
	c0.36,0.49,0.8,0.92,1.32,1.25c2.68,1.88,8.32,0.72,8.77-2.95c0.08-0.74-0.02-1.48-0.3-2.17L592.13,865.37z M578.69,858.09
	l-2.91,0.54c0.46,2.53,0.91,5.03,1.39,7.56c0.32,1.14,0.47,2.32,0.46,3.51c-0.26,0.98-1.39,1.07-1.91,1
	c-0.52-0.16-0.96-0.48-1.28-0.91c-0.12-0.12-0.19-0.23-0.23-0.23l-2.09,1.91c0.52,0.74,1.24,1.31,2.07,1.65
	c1.38,0.46,2.88,0.39,4.21-0.19c0.48-0.21,0.91-0.52,1.25-0.91c0.35-0.39,0.61-0.85,0.76-1.35c0.27-1.48,0.18-3.01-0.26-4.46
	c-0.49-2.67-1-5.26-1.49-8.03L578.69,858.09z"/>
<path id="Vector_66_1_" class="st0" d="M640.3,411.86l26.05,5.46l-5.48,26.05l-26.04-5.47L640.3,411.86z M660.03,436.7
	c0.06-1.23-0.5-2.38-2.6-3.8c-0.71-0.55-1.55-0.99-1.69-1.65c-0.04-0.26,0-0.54,0.11-0.78c0.28-0.68,1.18-0.71,1.75-0.39
	c0.22,0.13,0.41,0.3,0.56,0.51c0.15,0.21,0.25,0.45,0.3,0.7l2.17-0.83c-0.11-0.34-0.27-0.67-0.46-0.97c-0.3-0.5-0.72-0.92-1.21-1.22
	c-0.49-0.31-1.05-0.49-1.63-0.55l-0.78-0.07c-0.76,0.01-1.49,0.27-2.09,0.73c-0.36,0.29-0.66,0.65-0.88,1.06
	c-0.22,0.41-0.35,0.86-0.4,1.32c-0.04,0.46,0.01,0.93,0.15,1.37c0.14,0.44,0.37,0.85,0.68,1.2c1.25,1.42,3.36,2.11,3.44,3.22
	c0.08,1.11-1.29,1.47-2.46,1.07c-0.38-0.18-0.72-0.43-1-0.75s-0.48-0.69-0.6-1.1l-2.2,0.68c0.12,0.5,0.33,0.96,0.62,1.38
	c1.48,2.31,6.22,3.2,7.74,0.51c0.3-0.55,0.46-1.16,0.46-1.78L660.03,436.7z M651.93,426.78l-2.43-0.51c-0.45,2.1-0.89,4.19-1.33,6.3
	c-0.11,0.99-0.37,1.95-0.76,2.86c-0.52,0.68-1.41,0.39-1.8,0.17c-0.35-0.28-0.6-0.68-0.7-1.11c-0.06-0.13-0.08-0.24-0.1-0.25
	l-2.23,0.82c0.17,0.74,0.54,1.41,1.08,1.94c0.92,0.8,2.11,1.22,3.33,1.19c0.44-0.01,0.87-0.12,1.26-0.31
	c0.39-0.19,0.74-0.47,1.02-0.8c0.68-1.07,1.1-2.28,1.21-3.54c0.47-2.22,0.9-4.4,1.4-6.7L651.93,426.78z"/>
<path id="Vector_67_1_" class="st0" d="M399.63,900.1c-0.92,0-1.81,0.37-2.46,1.03c-0.65,0.66-1.02,1.55-1.02,2.48
	s0.37,1.82,1.02,2.48c0.65,0.66,1.54,1.03,2.46,1.03c0.92,0,1.81-0.37,2.46-1.03c0.65-0.66,1.02-1.55,1.02-2.48
	s-0.37-1.82-1.02-2.48C401.44,900.47,400.55,900.1,399.63,900.1z M389.87,910.58l-0.76-0.2c-5.65-1.46-9.02-3.93-9.02-6.77
	s3.36-5.33,9.02-6.77l0.76-0.19l0.22,0.76c0.6,2.09,1.38,4.13,2.32,6.09l-0.1-0.24l0.17,0.36l-0.17,0.35
	c-0.86,1.79-1.57,3.66-2.12,5.57v0.27L389.87,910.58z M388.74,898.62c-4.34,1.23-6.97,3.06-6.97,4.99s2.68,3.76,7.02,5.08
	c0.53-1.82,1.19-3.59,1.99-5.32l-0.1,0.25c-0.73-1.52-1.35-3.1-1.85-4.71l-0.08-0.29V898.62z M409.39,910.58l-0.22-0.76
	c-0.61-2.09-1.38-4.13-2.32-6.09l0.1,0.24l-0.17-0.36l0.17-0.36c0.86-1.8,1.58-3.67,2.15-5.59v-0.27l0.22-0.76l0.76,0.19
	c5.74,1.46,9.02,3.93,9.02,6.77s-3.28,5.32-9.02,6.77L409.39,910.58z M408.58,903.61c0.76,1.65,1.41,3.34,1.93,5.08
	c4.34-1.24,7.02-3.11,7.02-5.08c0-1.96-2.68-3.76-7.02-4.99c-0.56,1.79-1.24,3.55-2.04,5.25L408.58,903.61z M388.74,898.62
	l-0.24-0.76c-1.68-5.72-1.13-9.8,1.33-11.24c2.46-1.44,6.29,0.25,10.36,4.45l0.56,0.58l-0.56,0.58c-1.41,1.47-2.7,3.05-3.87,4.72
	l-0.08,0.14l-0.22,0.3h-0.37c-2.17,0.17-4.32,0.53-6.43,1.07h0.25L388.74,898.62z M391.87,887.75c-0.4-0.01-0.79,0.09-1.14,0.29
	c-1.68,0.95-1.9,4.2-0.79,8.6c1.66-0.37,3.35-0.64,5.05-0.79h0.25c1.03-1.47,2.15-2.87,3.36-4.2
	C395.94,889.17,393.55,887.75,391.87,887.75z M407.49,921.09c-2.32,0-5.3-1.69-8.41-4.94l-0.56-0.58l0.56-0.58
	c1.41-1.47,2.69-3.05,3.85-4.72v-0.14l0.22-0.3h0.39c2.17-0.17,4.32-0.53,6.43-1.07h-0.27l0.77-0.2l0.22,0.76
	c1.68,5.7,1.13,9.8-1.35,11.24c-0.58,0.33-1.24,0.49-1.9,0.49L407.49,921.09z M400.76,915.56c2.52,2.49,4.93,3.91,6.73,3.91
	c0.4,0.01,0.79-0.09,1.14-0.29c1.68-0.95,1.9-4.2,0.79-8.6c-1.66,0.37-3.35,0.64-5.05,0.8h-0.15c-1.03,1.47-2.15,2.87-3.36,4.2
	L400.76,915.56z M410.5,898.63l-0.76-0.2c-1.98-0.5-4-0.82-6.04-0.98h-0.05h-0.39l-0.22-0.3c-1.18-1.73-2.5-3.36-3.94-4.88
	l-0.56-0.58l0.56-0.58c4.05-4.2,7.94-5.84,10.35-4.45c2.41,1.39,2.96,5.52,1.35,11.24L410.5,898.63z M404.09,895.84
	c1.77,0.15,3.53,0.43,5.27,0.81c1.11-4.4,0.82-7.67-0.79-8.6c-1.62-0.93-4.63,0.49-7.81,3.62c1.16,1.27,2.25,2.62,3.25,4.03
	L404.09,895.84z M391.87,921.09c-0.68,0-1.34-0.17-1.93-0.51c-2.46-1.44-2.94-5.52-1.33-11.24l0.22-0.76l0.76,0.2
	c2.02,0.5,4.08,0.83,6.16,1h0.39l0.22,0.3c1.18,1.75,2.49,3.4,3.94,4.92l0.56,0.58l-0.56,0.58c-3.08,3.18-6.06,4.94-8.41,4.94
	V921.09z M389.94,910.58c-1.11,4.4-0.82,7.65,0.79,8.6s4.51-0.58,7.76-3.62c-1.17-1.28-2.25-2.63-3.25-4.04v-0.12
	c-1.86-0.17-3.71-0.46-5.54-0.88h0.27L389.94,910.58z M399.68,911.6c-1.35,0-2.73,0-4.11-0.17h-0.37l-0.22-0.32
	c-0.74-1.04-1.43-2.12-2.07-3.23l-0.13-0.24c-0.56-0.93-1.18-2.13-1.68-3.39l-0.13-0.29l-0.15-0.36l0.15-0.36
	c0.72-1.52,1.35-2.71,2.04-3.88l-0.13,0.24c0.67-1.17,1.41-2.35,2.2-3.47l0.22-0.32h0.37c1.23-0.12,2.66-0.17,4.11-0.17
	c1.45,0,2.86,0,4.27,0.19h-0.39h0.39l0.22,0.32c1.5,2.15,2.83,4.41,3.97,6.77l0.13,0.29l0.15,0.35l-0.15,0.36
	c-1.19,2.54-2.6,4.98-4.21,7.28l0.1-0.15l-0.22,0.3h-0.39c-1.38,0.12-2.76,0.17-4.09,0.17L399.68,911.6z M396.09,909.82
	c2.39,0.19,4.78,0.19,7.17,0c1.26-1.89,2.38-3.87,3.37-5.92l0.12-0.29c-1.06-2.22-2.29-4.35-3.67-6.38l0.1,0.17
	c-1.08-0.1-2.32-0.15-3.58-0.15s-2.51,0-3.74,0.15h0.15c-1.28,1.9-2.43,3.9-3.42,5.97l-0.12,0.27c1.06,2.22,2.29,4.35,3.68,6.38
	l-0.12-0.17L396.09,909.82z"/>
<path id="Vector_68_1_" class="st0" d="M544.63,555.1c-0.92,0-1.81,0.37-2.46,1.03c-0.65,0.66-1.02,1.55-1.02,2.48
	s0.37,1.82,1.02,2.48c0.65,0.66,1.54,1.03,2.46,1.03c0.92,0,1.81-0.37,2.46-1.03c0.65-0.66,1.02-1.55,1.02-2.48
	s-0.37-1.82-1.02-2.48C546.44,555.47,545.55,555.1,544.63,555.1z M534.87,565.58l-0.76-0.2c-5.65-1.46-9.02-3.93-9.02-6.77
	s3.37-5.33,9.02-6.77l0.76-0.19l0.22,0.76c0.6,2.09,1.38,4.13,2.32,6.09l-0.1-0.24l0.17,0.36l-0.17,0.35
	c-0.86,1.79-1.57,3.66-2.12,5.57v0.27L534.87,565.58z M533.74,553.62c-4.34,1.23-6.97,3.06-6.97,4.99s2.68,3.76,7.02,5.08
	c0.53-1.82,1.2-3.59,1.99-5.32l-0.1,0.25c-0.73-1.52-1.35-3.1-1.85-4.71l-0.08-0.29V553.62z M554.39,565.58l-0.22-0.76
	c-0.61-2.09-1.38-4.13-2.32-6.09l0.1,0.24l-0.17-0.36l0.17-0.36c0.86-1.8,1.58-3.67,2.15-5.59v-0.27l0.22-0.76l0.76,0.19
	c5.74,1.46,9.02,3.93,9.02,6.77s-3.28,5.32-9.02,6.77L554.39,565.58z M553.58,558.61c0.76,1.65,1.41,3.34,1.93,5.08
	c4.34-1.24,7.02-3.11,7.02-5.08c0-1.96-2.67-3.76-7.02-4.99c-0.56,1.79-1.24,3.55-2.03,5.25L553.58,558.61z M533.74,553.62
	l-0.24-0.76c-1.68-5.72-1.13-9.8,1.33-11.24c2.46-1.44,6.29,0.25,10.36,4.45l0.55,0.58l-0.55,0.58c-1.41,1.47-2.7,3.05-3.87,4.72
	l-0.08,0.14l-0.22,0.3h-0.37c-2.17,0.17-4.32,0.53-6.43,1.07h0.25L533.74,553.62z M536.87,542.75c-0.4-0.01-0.79,0.09-1.14,0.29
	c-1.68,0.95-1.9,4.2-0.79,8.6c1.66-0.37,3.35-0.64,5.05-0.79h0.25c1.03-1.47,2.15-2.87,3.36-4.2
	C540.94,544.17,538.55,542.75,536.87,542.75z M552.49,576.09c-2.32,0-5.3-1.69-8.41-4.94l-0.55-0.58l0.55-0.58
	c1.41-1.47,2.7-3.05,3.85-4.72v-0.14l0.22-0.3h0.39c2.17-0.17,4.32-0.53,6.43-1.07h-0.27l0.77-0.2l0.22,0.76
	c1.68,5.7,1.13,9.8-1.35,11.24c-0.58,0.33-1.24,0.49-1.9,0.49L552.49,576.09z M545.76,570.56c2.52,2.49,4.93,3.91,6.73,3.91
	c0.4,0.01,0.79-0.09,1.14-0.29c1.68-0.95,1.9-4.2,0.79-8.6c-1.66,0.37-3.35,0.64-5.05,0.8h-0.15c-1.03,1.47-2.15,2.87-3.36,4.2
	L545.76,570.56z M555.5,553.63l-0.76-0.2c-1.98-0.5-4-0.82-6.04-0.98h-0.05h-0.39l-0.22-0.3c-1.18-1.73-2.5-3.36-3.94-4.88
	l-0.55-0.58l0.55-0.58c4.05-4.2,7.94-5.84,10.35-4.45s2.96,5.52,1.35,11.24L555.5,553.63z M549.09,550.84
	c1.77,0.15,3.53,0.43,5.27,0.81c1.11-4.4,0.83-7.67-0.79-8.6c-1.62-0.93-4.63,0.49-7.81,3.62c1.16,1.27,2.25,2.62,3.25,4.03
	L549.09,550.84z M536.87,576.09c-0.68,0-1.34-0.17-1.93-0.51c-2.46-1.44-2.95-5.52-1.33-11.24l0.22-0.76l0.76,0.2
	c2.02,0.5,4.08,0.83,6.16,1h0.39l0.22,0.3c1.17,1.75,2.49,3.4,3.94,4.92l0.55,0.58l-0.55,0.58c-3.08,3.18-6.06,4.94-8.41,4.94
	V576.09z M534.94,565.58c-1.11,4.4-0.83,7.65,0.79,8.6c1.62,0.95,4.51-0.58,7.76-3.62c-1.17-1.28-2.25-2.63-3.25-4.04v-0.12
	c-1.86-0.17-3.71-0.46-5.54-0.88h0.27L534.94,565.58z M544.68,566.6c-1.35,0-2.73,0-4.11-0.17h-0.37l-0.22-0.32
	c-0.74-1.04-1.43-2.12-2.07-3.23l-0.14-0.24c-0.55-0.93-1.18-2.13-1.68-3.39l-0.13-0.29l-0.15-0.36l0.15-0.36
	c0.72-1.52,1.35-2.71,2.04-3.88l-0.14,0.24c0.67-1.17,1.41-2.35,2.2-3.47l0.22-0.32h0.37c1.23-0.12,2.66-0.17,4.1-0.17
	s2.86,0,4.27,0.19h-0.39h0.39l0.22,0.32c1.51,2.15,2.83,4.41,3.97,6.77l0.14,0.29l0.15,0.35l-0.15,0.36
	c-1.19,2.54-2.6,4.98-4.21,7.28l0.1-0.15l-0.22,0.3h-0.39c-1.38,0.12-2.76,0.17-4.09,0.17L544.68,566.6z M541.09,564.82
	c2.39,0.19,4.78,0.19,7.17,0c1.26-1.89,2.38-3.87,3.36-5.92l0.12-0.29c-1.06-2.22-2.29-4.35-3.67-6.38l0.1,0.17
	c-1.08-0.1-2.32-0.15-3.58-0.15c-1.26,0-2.51,0-3.73,0.15h0.15c-1.28,1.9-2.42,3.9-3.41,5.97l-0.12,0.27
	c1.06,2.22,2.29,4.35,3.68,6.38l-0.12-0.17L541.09,564.82z"/>
<path id="Vector_69_1_" class="st0" d="M661.04,684.09c1.39,0.47,2.54,1.46,3.2,2.77c0.66,1.3,0.77,2.81,0.32,4.21l-16.27,44.14
	l-3.81-6.62l-2.03-3.83l-2.25-4.02l-0.28,5l-28.95-10.29c-0.69-0.22-1.32-0.58-1.87-1.06c-0.54-0.47-0.99-1.05-1.3-1.7
	c-0.31-0.65-0.49-1.35-0.52-2.07c-0.03-0.72,0.08-1.44,0.33-2.12l12.26-33.29c0.55-1.34,1.59-2.43,2.92-3.03
	c1.33-0.6,2.83-0.68,4.2-0.21L661.04,684.09z M644.12,691.24l-0.63,0.24c2.09,1.42,3.84,3.27,5.13,5.42
	c-1.96-2.08-4.28-3.8-6.85-5.08c-1.63-0.79-3.35-1.4-5.12-1.8l-0.39-0.15c-2.05-0.52-4.17-0.71-6.29-0.57l-1.76,0.14
	c2.49-0.9,5.17-1.18,7.79-0.8l-0.14-0.36c-2.64-0.8-5.48-0.75-8.11,0.14c-3.99,3.61-7.08,8.09-9.01,13.08
	c0.42,1.54,1.22,2.94,2.34,4.09c1.11,1.14,2.51,1.98,4.04,2.44c0,0,1.21-0.8,2.46-1.49c-1.58-1.07-2.76-2.63-3.35-4.43
	c0.2,0.19,0.38,0.4,0.55,0.63c0.02,0.02,0.03,0.04,0.04,0.06c0.01,0.02,0.01,0.05,0.01,0.07c0.57,0.53,1.16,1.05,1.61,1.5
	c1.01,0.93,2.12,1.75,3.31,2.44c2.07,1.12,4.3,1.91,6.61,2.36c1.36,0.22,2.74,0.29,4.11,0.21c1.16-0.09,2.32-0.25,3.46-0.47
	c-1.68,1.02-3.64,1.45-5.59,1.23c0.31,1.2,0.88,2.66,0.88,2.66c1.51,0.55,3.12,0.78,4.73,0.68c1.61-0.11,3.18-0.55,4.61-1.3
	c1.74-5.02,2.29-10.36,1.6-15.61c-1.46-2.3-3.6-4.09-6.14-5.12L644.12,691.24z M641.13,700.43c0.52,0.18,0.98,0.51,1.31,0.95
	c0.33,0.44,0.52,0.96,0.56,1.51s-0.1,1.1-0.38,1.57c-0.28,0.48-0.7,0.86-1.19,1.11c-0.5,0.25-1.06,0.34-1.61,0.28
	c-0.55-0.07-1.07-0.29-1.49-0.65c-0.42-0.36-0.72-0.83-0.87-1.36c-0.15-0.53-0.14-1.09,0.03-1.61c0.12-0.36,0.3-0.69,0.55-0.97
	c0.25-0.29,0.55-0.52,0.89-0.69c0.34-0.17,0.71-0.27,1.09-0.29C640.4,700.26,640.78,700.31,641.13,700.43z M631.76,697.07
	c0.52,0.18,0.98,0.51,1.31,0.94c0.33,0.44,0.53,0.96,0.57,1.51c0.03,0.55-0.1,1.1-0.37,1.58s-0.69,0.87-1.18,1.12
	c-0.5,0.25-1.05,0.35-1.6,0.29c-0.55-0.06-1.07-0.29-1.49-0.64c-0.42-0.35-0.73-0.82-0.88-1.35c-0.15-0.53-0.15-1.09,0.02-1.62
	c0.11-0.36,0.3-0.69,0.55-0.98c0.25-0.29,0.55-0.52,0.89-0.69s0.71-0.27,1.09-0.3C631.03,696.9,631.41,696.95,631.76,697.07z"/>
<path id="Vector_70_1_" class="st0" d="M596.58,294.8c0.91,0.31,1.66,0.96,2.09,1.81c0.43,0.85,0.51,1.84,0.21,2.75l-10.65,28.88
	l-2.49-4.33l-1.33-2.51l-1.47-2.63l-0.18,3.27l-18.94-6.73c-0.45-0.15-0.87-0.38-1.22-0.69c-0.36-0.31-0.64-0.69-0.85-1.11
	c-0.21-0.42-0.32-0.88-0.34-1.36s0.05-0.94,0.22-1.39l8.02-21.78c0.36-0.88,1.04-1.59,1.91-1.98c0.87-0.39,1.85-0.44,2.75-0.14
	L596.58,294.8z M585.51,299.47l-0.41,0.16c1.36,0.93,2.51,2.14,3.36,3.54c-1.28-1.36-2.8-2.49-4.48-3.32
	c-1.07-0.52-2.19-0.91-3.35-1.17l-0.26-0.1c-1.34-0.34-2.73-0.47-4.11-0.37l-1.15,0.09c1.63-0.59,3.38-0.77,5.1-0.52l-0.09-0.24
	c-1.73-0.52-3.58-0.49-5.3,0.09c-2.61,2.36-4.63,5.29-5.89,8.56c0.27,1.01,0.8,1.92,1.53,2.67c0.73,0.75,1.64,1.3,2.65,1.6
	c0,0,0.79-0.52,1.61-0.98c-1.03-0.7-1.8-1.72-2.19-2.9c0.13,0.13,0.25,0.26,0.36,0.41c0.01,0.01,0.02,0.02,0.03,0.04
	c0.01,0.01,0.01,0.03,0.01,0.05c0.37,0.35,0.76,0.69,1.05,0.98c0.66,0.61,1.39,1.14,2.16,1.59c1.35,0.73,2.81,1.25,4.33,1.54
	c0.89,0.14,1.79,0.19,2.69,0.14c0.76-0.06,1.52-0.16,2.26-0.31c-1.1,0.67-2.38,0.95-3.66,0.81c0.2,0.78,0.57,1.74,0.57,1.74
	c0.99,0.36,2.04,0.51,3.1,0.44c1.05-0.07,2.08-0.36,3.02-0.85c1.14-3.28,1.5-6.78,1.05-10.21c-0.95-1.5-2.36-2.67-4.01-3.35
	L585.51,299.47z M583.56,305.49c0.34,0.12,0.64,0.34,0.86,0.62c0.22,0.29,0.34,0.63,0.36,0.99c0.02,0.36-0.07,0.72-0.25,1.03
	c-0.18,0.31-0.45,0.57-0.78,0.73c-0.33,0.16-0.69,0.22-1.05,0.18c-0.36-0.04-0.7-0.19-0.97-0.42c-0.28-0.23-0.47-0.54-0.57-0.89
	c-0.1-0.35-0.09-0.71,0.02-1.06c0.08-0.23,0.2-0.45,0.36-0.64c0.16-0.19,0.36-0.34,0.58-0.45c0.22-0.11,0.46-0.17,0.71-0.19
	C583.08,305.37,583.32,305.41,583.56,305.49z M577.43,303.29c0.34,0.12,0.64,0.33,0.86,0.62c0.22,0.29,0.35,0.63,0.37,0.99
	c0.02,0.36-0.06,0.72-0.24,1.03c-0.18,0.31-0.45,0.57-0.78,0.73c-0.32,0.16-0.69,0.23-1.05,0.19c-0.36-0.04-0.7-0.19-0.97-0.42
	c-0.28-0.23-0.48-0.54-0.58-0.88c-0.1-0.35-0.1-0.71,0.01-1.06c0.08-0.23,0.2-0.45,0.36-0.64c0.16-0.19,0.36-0.34,0.58-0.45
	c0.22-0.11,0.46-0.18,0.71-0.2C576.95,303.18,577.19,303.21,577.43,303.29z"/>
<path id="Vector_71_1_" class="st0" d="M688.6,28.87c-4.57-3.4-10.2-5.07-15.88-4.72c-5.68,0.35-11.06,2.7-15.18,6.63
	c-4.11,3.93-6.71,9.19-7.31,14.85c-0.6,5.66,0.82,11.34,4.01,16.06c0.11,0.17,0.26,0.3,0.44,0.39c0.18,0.09,0.37,0.14,0.57,0.14
	c0.2,0,0.4-0.05,0.57-0.14c0.17-0.09,0.32-0.23,0.44-0.39l2.32-3.22c-6.22-2.88-4.53-7.46-4.53-7.46c0.49-1.4,0.49-2.93,0-4.33
	c-0.85-2.51,1.02-1.08,1.02-1.08c0.56,0.56,0.98,1.24,1.23,1.99c0.25,0.75,0.33,1.55,0.22,2.33c-0.1,0.67-0.06,1.35,0.1,2
	c0.16,0.65,0.46,1.27,0.86,1.81c0.4,0.54,0.91,1,1.49,1.34c0.58,0.35,1.22,0.57,1.89,0.67c0.83-0.9,1.95-1.48,3.16-1.64
	c-3.9-3.7-7.13-8.76-1.56-16.12c1.42-1.92,3.52-3.23,5.87-3.66c0.66-2.1,2.1-3.88,4.03-4.95c0,0,1.99,0.71,3.79,5.97
	c1.89,0.76,3.68,1.76,5.31,2.99c1.62,1.25,3.08,2.7,4.33,4.33c5.52,0.28,6.76,2.01,6.76,2.01c-0.56,2.05-1.86,3.82-3.64,4.98
	c0.23,2.38-0.47,4.76-1.95,6.64c-5.59,7.38-11.31,5.6-15.94,2.86c0.11,0.81,0.04,1.63-0.2,2.41c-0.24,0.78-0.64,1.5-1.18,2.11
	c-1.95,2.57-3.53,4.61-4.01,5.24c-0.48,0.63-0.5,1.36,0.63,1.93c5.42,1.84,11.32,1.7,16.64-0.41c5.32-2.11,9.72-6.03,12.4-11.08
	c2.68-5.05,3.48-10.89,2.25-16.47c-1.23-5.58-4.42-10.54-8.98-14H688.6z"/>
<path id="Vector_72_1_" class="st0" d="M432.19,397.63c-5.06,2.61-9.03,6.93-11.22,12.19c-2.18,5.26-2.44,11.12-0.72,16.55
	c1.72,5.43,5.31,10.07,10.12,13.09c4.82,3.03,10.55,4.25,16.18,3.46c0.2-0.03,0.38-0.1,0.55-0.22c0.16-0.12,0.29-0.27,0.38-0.45
	c0.09-0.18,0.13-0.38,0.12-0.58s-0.06-0.39-0.16-0.57l-1.88-3.5c-5.32,4.32-8.69,0.78-8.69,0.78c-1.04-1.06-2.41-1.73-3.89-1.9
	c-2.63-0.35-0.52-1.39-0.52-1.39c0.75-0.26,1.55-0.34,2.33-0.23s1.54,0.39,2.19,0.83c0.56,0.38,1.18,0.65,1.84,0.79
	c0.66,0.14,1.34,0.15,2,0.02c0.66-0.12,1.29-0.38,1.86-0.74c0.56-0.37,1.05-0.84,1.43-1.4c-0.45-1.14-0.48-2.4-0.09-3.56
	c-5.04,1.88-11,2.55-15.16-5.69c-1.11-2.12-1.36-4.58-0.7-6.88c-1.6-1.52-2.56-3.59-2.68-5.8c0,0,1.52-1.48,7.03-0.78
	c1.51-1.37,3.2-2.53,5.02-3.45c1.84-0.91,3.78-1.58,5.79-1.99c2.68-4.84,4.78-5.18,4.78-5.18c1.59,1.4,2.61,3.35,2.87,5.46
	c2.24,0.84,4.07,2.51,5.11,4.67c4.17,8.26,0.06,12.62-4.44,15.57c0.77,0.26,1.48,0.68,2.08,1.24c0.6,0.56,1.06,1.24,1.38,1.99
	c1.46,2.88,2.59,5.2,2.94,5.9c0.35,0.7,1.01,1.05,2.01,0.28c4.04-4.05,6.5-9.41,6.95-15.12c0.45-5.7-1.15-11.38-4.5-16.01
	c-3.35-4.63-8.25-7.91-13.8-9.26c-5.56-1.35-11.41-0.67-16.52,1.91L432.19,397.63z"/>
<path id="Vector_73_1_" class="st2" d="M587.09,1029.11c8.28,0,15-6.72,15-15s-6.72-15-15-15s-15,6.72-15,15
	S578.81,1029.11,587.09,1029.11z"/>
<g>
	<g>
		<path id="Vector_2_" class="st0" d="M839.88,8.16l0.65,2.5l2.36-0.61l0.63,2.45l-4.72,1.22l0.68,2.64c0.13,0.49,0.13,1,0.02,1.48
			c-0.11,0.49-0.34,0.94-0.66,1.31c0,0,1.25,0.11,1.79,1.73l0.01,0l-0.01-0.04l2.36-0.61l1.35,5.22l-2.36,0.61l0.59,2.27l2.36-0.61
			l0.67,2.58l-2.36,0.61c-0.86,0.22-1.51,0.01-1.97-0.31c-0.52-0.36-0.89-0.9-1.05-1.52l-1.93-7.46c0,0-0.43-1.1-1.64-0.63
			l-0.65-2.49c0,0,1.44-0.16,1.08-1.53l-1.97-7.59c-0.16-0.62-0.1-1.27,0.18-1.84c0.25-0.5,0.72-1,1.58-1.23l4.72-1.22l0.63,2.45
			L839.88,8.16z"/>
		<path id="Vector_2_2_" class="st0" d="M844.17,15.04l-2.36,0.61l1.19,4.58l2.36-0.61L844.17,15.04z"/>
		<path id="Vector_3_2_" class="st0" d="M846.71,24.84l-2.36,0.61l0.6,2.34l2.36-0.61L846.71,24.84z"/>
		<path id="Vector_4_2_" class="st0" d="M844.6,6.97l-2.36,0.61l0.64,2.45l2.36-0.61L844.6,6.97z"/>
		<path id="Vector_5_2_" class="st0" d="M854.67,7l-2.36,0.61l0.63,2.45l2.36-0.61L854.67,7z"/>
		<path id="Vector_6_2_" class="st0" d="M856.57,14.34l-2.36,0.61l0.63,2.45l2.36-0.61L856.57,14.34z"/>
		<path id="Vector_7_2_" class="st0" d="M855.75,1.44l-2.36,0.61l0.63,2.45l2.36-0.61L855.75,1.44z"/>
		<path id="Vector_8_2_" class="st0" d="M857.66,8.84l-2.36,0.61l0.63,2.45l2.36-0.61L857.66,8.84z"/>
		<path id="Vector_9_2_" class="st0" d="M860.19,18.61l-2.36,0.61l0.64,2.45l2.36-0.61L860.19,18.61z"/>
		<path id="Vector_10_2_" class="st0" d="M858.52,21.68l-2.36,0.61l0.63,2.42l2.36-0.61L858.52,21.68z"/>
		<path id="Vector_11_2_" class="st0" d="M849.44,15.95l-2.36,0.61l0.64,2.45l2.36-0.61L849.44,15.95z"/>
		<path id="Vector_12_2_" class="st0" d="M855.53,19.84l0.63,2.45l-7.12,1.84l-0.63-2.45l2.36-0.61l-0.68-2.61l2.36-0.61l0.68,2.61
			L855.53,19.84z"/>
		<path id="Vector_13_2_" class="st0" d="M856.8,24.73L851.87,26l0.66,2.56l4.92-1.27L856.8,24.73z"/>
		<path id="Vector_14_2_" class="st0" d="M851.07,2.59l-4.92,1.27l0.66,2.56l4.92-1.27L851.07,2.59z"/>
		<path id="Vector_15_2_" class="st0" d="M845.87,11.89l-2.36,0.61l0.63,2.45l2.36-0.61L845.87,11.89z"/>
		<path id="Vector_16_2_" class="st0" d="M849.95,8.22l-2.36,0.61l0.63,2.45l2.36-0.61L849.95,8.22z"/>
		<path id="Vector_17_2_" class="st0" d="M852.95,10.06l-2.36,0.61l0.63,2.45l2.36-0.61L852.95,10.06z"/>
		<path id="Vector_18_2_" class="st0" d="M847.72,19.01l-2.36,0.61l0.63,2.45l2.36-0.61L847.72,19.01z"/>
		<path id="Vector_19_2_" class="st0" d="M849.67,26.57l-2.36,0.61l0.65,2.51l2.36-0.61L849.67,26.57z"/>
		<path id="Vector_20_2_" class="st0" d="M861.18,13.13l-2.25,0.58l0.64,2.49l2.25-0.58L861.18,13.13z"/>
		<path id="Vector_21_2_" class="st0" d="M865.69,9.42l-1.94-7.5c-0.16-0.62-0.53-1.16-1.04-1.52c-0.46-0.31-1.09-0.52-1.92-0.33
			l-2.74,0.71l0.65,2.51l-2.32,0.6l0.65,2.49l4.98-1.29l0.63,2.44l-2.7,0.7l0.65,2.49l2.7-0.7l0.04,0.15l0.01,0
			c0.55,1.63,1.8,1.74,1.8,1.74c-0.32,0.37-0.55,0.83-0.66,1.31c-0.11,0.49-0.1,1,0.02,1.49l0.05,0.2l-2.73,0.71l1.29,4.98
			l-2.19,0.57l0.61,2.34l-2.37,0.61l0.66,2.57l7.29-1.89c0.86-0.22,1.33-0.73,1.58-1.24c0.28-0.57,0.34-1.22,0.17-1.84l-1.97-7.63
			c-0.35-1.37,1.09-1.54,1.09-1.54l-0.65-2.5C866.12,10.53,865.69,9.42,865.69,9.42z M866.45,22.23l-2.61,0.68l-0.61-2.34l2.61-0.68
			L866.45,22.23z"/>
	</g>
</g>
<g>
	<g>
		<path id="Vector_22_2_" class="st0" d="M728.36,557.78l-1.37,3.3l3.12,1.29l-1.34,3.24l-6.23-2.58l-1.45,3.49
			c-0.27,0.64-0.68,1.21-1.21,1.66c-0.53,0.45-1.15,0.76-1.82,0.9c0,0,1.29,1.16,0.54,3.41l0.01,0.01l0.02-0.05l3.12,1.29l-2.86,6.9
			l-3.12-1.29l-1.25,3.01l3.12,1.29l-1.41,3.41l-3.12-1.29c-1.14-0.47-1.68-1.25-1.93-1.99c-0.27-0.83-0.23-1.74,0.11-2.55
			l4.09-9.86c0,0,0.44-1.57-1.29-2.07l1.37-3.29c0,0,1.72,1.02,2.47-0.79l4.16-10.03c0.33-0.82,0.95-1.49,1.73-1.88
			c0.7-0.35,1.63-0.51,2.77-0.04l6.23,2.59l-1.34,3.24L728.36,557.78z"/>
		<path id="Vector_23_2_" class="st0" d="M727.37,568.97l-3.12-1.29l-2.51,6.05l3.12,1.29L727.37,568.97z"/>
		<path id="Vector_24_2_" class="st0" d="M722,581.92l-3.12-1.29l-1.28,3.09l3.12,1.29L722,581.92z"/>
		<path id="Vector_25_2_" class="st0" d="M734.58,560.4l-3.12-1.29l-1.34,3.24l3.12,1.29L734.58,560.4z"/>
		<path id="Vector_26_2_" class="st0" d="M745.69,568.84l-3.12-1.29l-1.34,3.24l3.12,1.29L745.69,568.84z"/>
		<path id="Vector_27_2_" class="st0" d="M741.66,578.54l-3.12-1.29l-1.34,3.24l3.12,1.29L741.66,578.54z"/>
		<path id="Vector_28_2_" class="st0" d="M751.51,563.59l-3.12-1.29l-1.34,3.24l3.12,1.29L751.51,563.59z"/>
		<path id="Vector_29_2_" class="st0" d="M747.46,573.36l-3.12-1.29l-1.34,3.24l3.12,1.29L747.46,573.36z"/>
		<path id="Vector_30_2_" class="st0" d="M742.11,586.28l-3.12-1.29l-1.34,3.24l3.12,1.29L742.11,586.28z"/>
		<path id="Vector_31_2_" class="st0" d="M737.7,588.27l-3.12-1.29l-1.33,3.2l3.12,1.29L737.7,588.27z"/>
		<path id="Vector_32_2_" class="st0" d="M732.44,574.37l-3.12-1.29l-1.34,3.24l3.12,1.29L732.44,574.37z"/>
		<path id="Vector_33_2_" class="st0" d="M735.93,583.74l-1.34,3.24l-9.41-3.9l1.34-3.24l3.12,1.29l1.43-3.45l3.12,1.29l-1.43,3.45
			L735.93,583.74z"/>
		<path id="Vector_34_2_" class="st0" d="M733.25,590.21l-6.5-2.7l-1.41,3.39l6.5,2.7L733.25,590.21z"/>
		<path id="Vector_35_2_" class="st0" d="M745.38,560.96l-6.5-2.7l-1.41,3.39l6.5,2.7L745.38,560.96z"/>
		<path id="Vector_36_2_" class="st0" d="M731.88,566.9l-3.12-1.29l-1.34,3.24l3.12,1.29L731.88,566.9z"/>
		<path id="Vector_37_2_" class="st0" d="M739.45,566.25l-3.12-1.29l-1.34,3.24l3.12,1.29L739.45,566.25z"/>
		<path id="Vector_38_2_" class="st0" d="M741.23,570.78l-3.12-1.29l-1.34,3.24l3.12,1.29L741.23,570.78z"/>
		<path id="Vector_39_2_" class="st0" d="M727.98,576.31l-3.12-1.29l-1.34,3.24l3.12,1.29L727.98,576.31z"/>
		<path id="Vector_40_2_" class="st0" d="M723.83,586.31l-3.12-1.29l-1.38,3.32l3.12,1.29L723.83,586.31z"/>
		<path id="Vector_41_2_" class="st0" d="M747.76,581.04l-2.98-1.23l-1.36,3.29l2.98,1.23L747.76,581.04z"/>
		<path id="Vector_42_2_" class="st0" d="M755.84,580.71l4.11-9.9c0.34-0.82,0.39-1.73,0.12-2.55c-0.24-0.73-0.76-1.48-1.84-1.96
			l-3.62-1.5l-1.37,3.31l-3.06-1.27l-1.36,3.29l6.59,2.73l-1.33,3.22l-3.57-1.48l-1.36,3.29l3.57,1.48l-0.08,0.2l0.01,0.01
			c-0.75,2.26,0.54,3.42,0.54,3.42c-0.67,0.15-1.29,0.46-1.83,0.9c-0.53,0.45-0.95,1.02-1.22,1.67l-0.11,0.26l-3.61-1.49l-2.73,6.58
			l-2.89-1.2l-1.28,3.09l-3.13-1.3l-1.41,3.39l9.63,3.99c1.14,0.47,2.08,0.3,2.78-0.05c0.78-0.4,1.39-1.07,1.73-1.89l4.18-10.08
			c0.75-1.81,2.49-0.79,2.49-0.79l1.37-3.3C755.4,582.29,755.84,580.71,755.84,580.71z M746,595.5l-3.45-1.43l1.28-3.09l3.45,1.43
			L746,595.5z"/>
	</g>
</g>
<path id="Vector_43_2_" class="st0" d="M1020.3,236.53c1.77,0,3.21-1.44,3.21-3.21c0-1.77-1.44-3.21-3.21-3.21s-3.21,1.44-3.21,3.21
	C1017.09,235.09,1018.53,236.53,1020.3,236.53z"/>
<path id="Vector_44_2_" class="st3" d="M833.3,339.53c1.77,0,3.21-1.44,3.21-3.21c0-1.77-1.44-3.21-3.21-3.21s-3.21,1.44-3.21,3.21
	C830.09,338.09,831.53,339.53,833.3,339.53z"/>
<path id="Vector_45_2_" class="st0" d="M958.3,172.53c1.77,0,3.21-1.44,3.21-3.21c0-1.77-1.44-3.21-3.21-3.21s-3.21,1.44-3.21,3.21
	C955.09,171.09,956.53,172.53,958.3,172.53z"/>
<path id="Vector_46_2_" class="st0" d="M791.3,178.53c1.77,0,3.21-1.44,3.21-3.21c0-1.77-1.44-3.21-3.21-3.21
	c-1.77,0-3.21,1.44-3.21,3.21C788.09,177.09,789.53,178.53,791.3,178.53z"/>
<path id="Vector_47_2_" class="st0" d="M899.3,239.53c1.77,0,3.21-1.44,3.21-3.21c0-1.77-1.44-3.21-3.21-3.21s-3.21,1.44-3.21,3.21
	C896.09,238.09,897.53,239.53,899.3,239.53z"/>
<path id="Vector_48_2_" class="st0" d="M879.3,487.53c1.77,0,3.21-1.44,3.21-3.21c0-1.77-1.44-3.21-3.21-3.21s-3.21,1.44-3.21,3.21
	C876.09,486.09,877.53,487.53,879.3,487.53z"/>
<path id="Vector_49_2_" class="st0" d="M893.3,770.53c1.77,0,3.21-1.44,3.21-3.21c0-1.77-1.44-3.21-3.21-3.21s-3.21,1.44-3.21,3.21
	C890.09,769.09,891.53,770.53,893.3,770.53z"/>
<path id="Vector_50_2_" class="st0" d="M1008.3,972.53c1.77,0,3.21-1.44,3.21-3.21c0-1.77-1.44-3.21-3.21-3.21s-3.21,1.44-3.21,3.21
	C1005.09,971.09,1006.53,972.53,1008.3,972.53z"/>
<path id="Vector_51_2_" class="st0" d="M785.3,547.53c1.77,0,3.21-1.44,3.21-3.21c0-1.77-1.44-3.21-3.21-3.21
	c-1.77,0-3.21,1.44-3.21,3.21C782.09,546.09,783.53,547.53,785.3,547.53z"/>
<path id="Vector_52_2_" class="st0" d="M747.3,679.53c1.77,0,3.21-1.44,3.21-3.21c0-1.77-1.44-3.21-3.21-3.21
	c-1.77,0-3.21,1.44-3.21,3.21C744.09,678.09,745.53,679.53,747.3,679.53z"/>
<path id="Vector_53_2_" class="st1" d="M767.09,289.11c5.52,0,10-4.48,10-10s-4.48-10-10-10c-5.52,0-10,4.48-10,10
	S761.57,289.11,767.09,289.11z"/>
<path id="Vector_54_2_" class="st1" d="M879.09,405.11c5.52,0,10-4.48,10-10s-4.48-10-10-10c-5.52,0-10,4.48-10,10
	S873.57,405.11,879.09,405.11z"/>
<path id="Vector_55_2_" class="st1" d="M1011.09,643.11c5.52,0,10-4.48,10-10s-4.48-10-10-10s-10,4.48-10,10
	S1005.57,643.11,1011.09,643.11z"/>
<path id="Vector_56_2_" class="st1" d="M798.09,809.11c5.52,0,10-4.48,10-10s-4.48-10-10-10c-5.52,0-10,4.48-10,10
	S792.57,809.11,798.09,809.11z"/>
<path id="Vector_57_2_" class="st1" d="M932.09,112.11c5.52,0,10-4.48,10-10s-4.48-10-10-10c-5.52,0-10,4.48-10,10
	S926.57,112.11,932.09,112.11z"/>
<path id="Vector_58_2_" class="st1" d="M754.09,92.11c5.52,0,10-4.48,10-10s-4.48-10-10-10c-5.52,0-10,4.48-10,10
	S748.57,92.11,754.09,92.11z"/>
<path id="Vector_59_2_" class="st2" d="M1045.09,351.11c8.28,0,15-6.72,15-15s-6.72-15-15-15c-8.28,0-15,6.72-15,15
	S1036.81,351.11,1045.09,351.11z"/>
<path id="Vector_60_2_" class="st2" d="M1002.09,544.11c8.28,0,15-6.72,15-15s-6.72-15-15-15s-15,6.72-15,15
	S993.81,544.11,1002.09,544.11z"/>
<path id="Vector_61_2_" class="st2" d="M1026.09,809.11c8.28,0,15-6.72,15-15s-6.72-15-15-15c-8.28,0-15,6.72-15,15
	S1017.81,809.11,1026.09,809.11z"/>
<path id="Vector_62_2_" class="st0" d="M858.11,964.15c-7.59-11.17-15.67-12.63-16.98-13.91c-1.02-0.76-1.98-1.61-2.85-2.54
	l0.05,0.12l-0.12,0.05l-0.29,0.11l-0.63,0.24l-0.12,0.05l-0.14,0.06l-0.27,0.52c-0.24,0.46-0.5,1.06-0.82,1.74
	c-2.94,7.42-3.06,15.67-0.33,23.19c0.27,0.82,0.59,1.63,0.95,2.42c1.68,3.6,4.15,6.77,7.23,9.27c1.04,0.83,2.13,1.6,3.26,2.3
	c2.39,1.49,4.98,2.63,7.68,3.41c1.4,1.73,2.51,3.68,3.26,5.78l1.61-0.08c-0.88-1.79-1.57-3.67-2.06-5.6
	c-0.09-0.6-0.03-1.21,0.17-1.77c0.46-0.66,0.86-1.36,1.21-2.09l-0.05-0.12c1.59-3.67,2.35-7.65,2.21-11.65
	C860.96,971.64,859.94,967.72,858.11,964.15z"/>
<path id="Vector_63_2_" class="st0" d="M866.6,123.97l-8.92-27.31c-0.25-0.76-0.79-1.38-1.5-1.74c-0.71-0.36-1.54-0.43-2.3-0.19
	l-5.7,1.9l2.31,7.2c0.66,0.09,1.28,0.37,1.79,0.8c0.51,0.43,0.89,0.99,1.09,1.63s0.22,1.32,0.06,1.96c-0.17,0.65-0.51,1.24-0.99,1.7
	l2.22,6.92c0.66,0.1,1.29,0.38,1.8,0.81c0.51,0.43,0.89,1,1.1,1.64c0.2,0.61,0.22,1.27,0.07,1.9c-0.15,0.63-0.47,1.21-0.92,1.67
	c-0.45,0.46-1.02,0.8-1.65,0.97c-0.63,0.17-1.28,0.16-1.91-0.01c-0.62-0.18-1.18-0.52-1.62-0.99c-0.44-0.47-0.74-1.05-0.88-1.69
	s-0.09-1.29,0.12-1.9c0.21-0.61,0.59-1.16,1.08-1.57l-2.12-6.48l-5.81,11.32c0.22,0.32,0.39,0.66,0.52,1.02
	c0.22,0.68,0.24,1.41,0.05,2.1c-0.19,0.69-0.59,1.31-1.13,1.77c-0.54,0.47-1.21,0.77-1.92,0.85c-0.71,0.09-1.43-0.04-2.07-0.36
	c-0.64-0.32-1.16-0.82-1.51-1.45c-0.35-0.62-0.5-1.33-0.44-2.05c0.06-0.71,0.33-1.39,0.77-1.95c0.45-0.56,1.05-0.98,1.73-1.2
	c0.45-0.15,0.92-0.21,1.4-0.17l5.89-11.43c-0.3-0.37-0.53-0.78-0.69-1.23c-0.22-0.7-0.22-1.44,0-2.14c0.22-0.7,0.65-1.32,1.22-1.77
	l-2.29-7.12l-18.81,6.14c-0.76,0.25-1.4,0.79-1.77,1.5c-0.37,0.72-0.44,1.54-0.2,2.31l8.92,27.31c0.12,0.38,0.31,0.72,0.57,1.02
	c0.26,0.3,0.57,0.54,0.92,0.72c0.35,0.18,0.73,0.28,1.13,0.31c0.39,0.03,0.79-0.02,1.17-0.15l27.29-8.99
	c0.38-0.12,0.72-0.32,1.03-0.57c0.3-0.26,0.55-0.57,0.73-0.92c0.18-0.35,0.29-0.74,0.32-1.13c0.03-0.39-0.02-0.79-0.14-1.16
	L866.6,123.97z"/>
<path id="Vector_64_2_" class="st0" d="M845.33,681.71l-8.92-27.31c-0.25-0.76-0.79-1.38-1.5-1.74c-0.71-0.36-1.54-0.43-2.3-0.19
	l-5.7,1.91l2.31,7.2c0.66,0.09,1.28,0.37,1.79,0.8c0.51,0.43,0.89,0.99,1.09,1.63c0.2,0.64,0.22,1.32,0.06,1.96
	c-0.16,0.65-0.51,1.24-0.99,1.7l2.22,6.92c0.66,0.1,1.29,0.38,1.8,0.81c0.51,0.43,0.89,1,1.1,1.64c0.2,0.61,0.22,1.27,0.07,1.9
	c-0.15,0.63-0.47,1.21-0.92,1.67c-0.45,0.47-1.02,0.8-1.65,0.97c-0.63,0.17-1.28,0.16-1.91-0.01c-0.62-0.18-1.18-0.52-1.62-0.99
	c-0.44-0.47-0.74-1.05-0.88-1.69c-0.13-0.63-0.09-1.29,0.12-1.9s0.59-1.16,1.08-1.57l-2.12-6.48l-5.81,11.32
	c0.22,0.32,0.39,0.66,0.52,1.02c0.22,0.68,0.24,1.41,0.05,2.09c-0.19,0.69-0.58,1.31-1.13,1.78c-0.54,0.47-1.21,0.77-1.92,0.85
	c-0.71,0.09-1.43-0.04-2.07-0.36c-0.64-0.32-1.16-0.82-1.51-1.45c-0.35-0.62-0.5-1.33-0.44-2.05c0.06-0.71,0.33-1.39,0.77-1.95
	c0.45-0.56,1.05-0.98,1.73-1.2c0.45-0.15,0.92-0.21,1.4-0.17l5.89-11.43c-0.3-0.37-0.53-0.78-0.69-1.23c-0.22-0.7-0.21-1.44,0-2.14
	c0.22-0.7,0.65-1.32,1.22-1.77l-2.29-7.12l-18.81,6.14c-0.76,0.25-1.4,0.79-1.77,1.51c-0.37,0.71-0.44,1.54-0.19,2.31l8.92,27.31
	c0.12,0.38,0.31,0.72,0.57,1.02s0.57,0.54,0.92,0.72c0.35,0.18,0.74,0.28,1.13,0.31c0.39,0.03,0.79-0.02,1.17-0.15l27.29-8.99
	c0.38-0.12,0.72-0.32,1.03-0.57c0.3-0.26,0.55-0.57,0.73-0.92c0.18-0.35,0.29-0.74,0.32-1.13c0.03-0.39-0.02-0.79-0.14-1.16
	L845.33,681.71z"/>
<path id="Vector_65_2_" class="st0" d="M904.09,846.88l31.25-5.77l5.75,31.25l-31.23,5.75L904.09,846.88z M937.13,865.37
	c-0.49-1.39-1.63-2.4-4.6-3.02c-1.03-0.28-2.16-0.39-2.61-1.05c-0.17-0.27-0.25-0.59-0.23-0.91c0-0.88,0.98-1.32,1.76-1.23
	c0.3,0.04,0.59,0.15,0.85,0.31c0.26,0.16,0.48,0.38,0.64,0.64l2.02-1.9c-0.28-0.32-0.6-0.61-0.95-0.86
	c-0.56-0.41-1.21-0.69-1.89-0.8c-0.69-0.12-1.39-0.07-2.05,0.14l-0.9,0.28c-0.83,0.36-1.52,0.97-1.98,1.75
	c-0.27,0.49-0.43,1.02-0.49,1.57c-0.06,0.55,0,1.11,0.16,1.64c0.16,0.53,0.43,1.02,0.79,1.45c0.36,0.42,0.8,0.77,1.29,1.02
	c2.02,1,4.67,0.81,5.26,2c0.6,1.19-0.75,2.21-2.23,2.3c-0.5-0.02-0.99-0.15-1.44-0.38s-0.84-0.55-1.16-0.94l-2.12,1.75
	c0.36,0.49,0.8,0.92,1.32,1.25c2.68,1.88,8.32,0.72,8.77-2.95c0.08-0.74-0.02-1.48-0.3-2.17L937.13,865.37z M923.69,858.09
	l-2.91,0.54c0.46,2.53,0.91,5.03,1.39,7.56c0.32,1.14,0.47,2.32,0.46,3.51c-0.26,0.98-1.39,1.07-1.91,1
	c-0.52-0.16-0.96-0.48-1.28-0.91c-0.12-0.12-0.19-0.23-0.23-0.23l-2.09,1.91c0.52,0.74,1.24,1.31,2.07,1.65
	c1.38,0.46,2.88,0.39,4.21-0.19c0.48-0.21,0.91-0.52,1.25-0.91c0.35-0.39,0.61-0.85,0.76-1.35c0.27-1.48,0.18-3.01-0.26-4.46
	c-0.49-2.67-1-5.26-1.49-8.03L923.69,858.09z"/>
<path id="Vector_66_2_" class="st0" d="M985.3,411.86l26.05,5.46l-5.48,26.05l-26.04-5.47L985.3,411.86z M1005.03,436.7
	c0.06-1.23-0.5-2.38-2.6-3.8c-0.71-0.55-1.55-0.99-1.69-1.65c-0.04-0.26,0-0.54,0.11-0.78c0.28-0.68,1.18-0.71,1.75-0.39
	c0.22,0.13,0.41,0.3,0.56,0.51c0.15,0.21,0.25,0.45,0.3,0.7l2.17-0.83c-0.11-0.34-0.27-0.67-0.46-0.97c-0.3-0.5-0.72-0.92-1.21-1.22
	c-0.49-0.31-1.05-0.49-1.63-0.55l-0.78-0.07c-0.76,0.01-1.49,0.27-2.09,0.73c-0.36,0.29-0.66,0.65-0.88,1.06
	c-0.22,0.41-0.35,0.86-0.4,1.32c-0.04,0.46,0.01,0.93,0.15,1.37c0.14,0.44,0.37,0.85,0.68,1.2c1.25,1.42,3.36,2.11,3.44,3.22
	c0.08,1.11-1.29,1.47-2.46,1.07c-0.38-0.18-0.72-0.43-1-0.75s-0.48-0.69-0.6-1.1l-2.2,0.68c0.12,0.5,0.33,0.96,0.62,1.38
	c1.48,2.31,6.22,3.2,7.74,0.51c0.3-0.55,0.46-1.16,0.46-1.78L1005.03,436.7z M996.93,426.78l-2.43-0.51
	c-0.45,2.1-0.89,4.19-1.33,6.3c-0.11,0.99-0.37,1.95-0.76,2.86c-0.52,0.68-1.41,0.39-1.8,0.17c-0.35-0.28-0.6-0.68-0.7-1.11
	c-0.06-0.13-0.08-0.24-0.1-0.25l-2.23,0.82c0.17,0.74,0.54,1.41,1.08,1.94c0.92,0.8,2.11,1.22,3.33,1.19
	c0.44-0.01,0.87-0.12,1.26-0.31c0.39-0.19,0.74-0.47,1.02-0.8c0.68-1.07,1.1-2.28,1.21-3.54c0.47-2.22,0.9-4.4,1.4-6.7
	L996.93,426.78z"/>
<path id="Vector_67_2_" class="st0" d="M744.63,900.1c-0.92,0-1.81,0.37-2.46,1.03c-0.65,0.66-1.02,1.55-1.02,2.48
	s0.37,1.82,1.02,2.48c0.65,0.66,1.54,1.03,2.46,1.03c0.92,0,1.81-0.37,2.46-1.03c0.65-0.66,1.02-1.55,1.02-2.48
	s-0.37-1.82-1.02-2.48C746.44,900.47,745.55,900.1,744.63,900.1z M734.87,910.58l-0.76-0.2c-5.65-1.46-9.02-3.93-9.02-6.77
	s3.37-5.33,9.02-6.77l0.76-0.19l0.22,0.76c0.6,2.09,1.38,4.13,2.32,6.09l-0.1-0.24l0.17,0.36l-0.17,0.35
	c-0.86,1.79-1.57,3.66-2.12,5.57v0.27L734.87,910.58z M733.74,898.62c-4.34,1.23-6.97,3.06-6.97,4.99s2.68,3.76,7.02,5.08
	c0.53-1.82,1.19-3.59,1.99-5.32l-0.1,0.25c-0.73-1.52-1.35-3.1-1.85-4.71l-0.08-0.29V898.62z M754.39,910.58l-0.22-0.76
	c-0.61-2.09-1.38-4.13-2.32-6.09l0.1,0.24l-0.17-0.36l0.17-0.36c0.86-1.8,1.58-3.67,2.15-5.59v-0.27l0.22-0.76l0.76,0.19
	c5.74,1.46,9.02,3.93,9.02,6.77s-3.28,5.32-9.02,6.77L754.39,910.58z M753.58,903.61c0.76,1.65,1.41,3.34,1.93,5.08
	c4.34-1.24,7.02-3.11,7.02-5.08c0-1.96-2.68-3.76-7.02-4.99c-0.56,1.79-1.24,3.55-2.04,5.25L753.58,903.61z M733.74,898.62
	l-0.24-0.76c-1.68-5.72-1.13-9.8,1.33-11.24c2.46-1.44,6.29,0.25,10.36,4.45l0.56,0.58l-0.56,0.58c-1.41,1.47-2.7,3.05-3.87,4.72
	l-0.08,0.14l-0.22,0.3h-0.37c-2.17,0.17-4.32,0.53-6.43,1.07h0.25L733.74,898.62z M736.87,887.75c-0.4-0.01-0.79,0.09-1.14,0.29
	c-1.68,0.95-1.9,4.2-0.79,8.6c1.66-0.37,3.35-0.64,5.05-0.79h0.25c1.03-1.47,2.15-2.87,3.36-4.2
	C740.94,889.17,738.55,887.75,736.87,887.75z M752.49,921.09c-2.32,0-5.3-1.69-8.41-4.94l-0.56-0.58l0.56-0.58
	c1.41-1.47,2.69-3.05,3.85-4.72v-0.14l0.22-0.3h0.39c2.17-0.17,4.32-0.53,6.43-1.07h-0.27l0.77-0.2l0.22,0.76
	c1.68,5.7,1.13,9.8-1.35,11.24c-0.58,0.33-1.24,0.49-1.9,0.49L752.49,921.09z M745.76,915.56c2.52,2.49,4.93,3.91,6.73,3.91
	c0.4,0.01,0.79-0.09,1.14-0.29c1.68-0.95,1.9-4.2,0.79-8.6c-1.66,0.37-3.35,0.64-5.05,0.8h-0.15c-1.03,1.47-2.15,2.87-3.36,4.2
	L745.76,915.56z M755.5,898.63l-0.76-0.2c-1.98-0.5-4-0.82-6.04-0.98h-0.05h-0.39l-0.22-0.3c-1.18-1.73-2.5-3.36-3.94-4.88
	l-0.56-0.58l0.56-0.58c4.05-4.2,7.94-5.84,10.35-4.45c2.41,1.39,2.96,5.52,1.35,11.24L755.5,898.63z M749.09,895.84
	c1.77,0.15,3.53,0.43,5.27,0.81c1.11-4.4,0.82-7.67-0.79-8.6c-1.62-0.93-4.63,0.49-7.81,3.62c1.16,1.27,2.25,2.62,3.25,4.03
	L749.09,895.84z M736.87,921.09c-0.68,0-1.34-0.17-1.93-0.51c-2.46-1.44-2.94-5.52-1.33-11.24l0.22-0.76l0.76,0.2
	c2.02,0.5,4.08,0.83,6.16,1h0.39l0.22,0.3c1.18,1.75,2.49,3.4,3.94,4.92l0.56,0.58l-0.56,0.58c-3.08,3.18-6.06,4.94-8.41,4.94
	V921.09z M734.94,910.58c-1.11,4.4-0.82,7.65,0.79,8.6c1.62,0.95,4.51-0.58,7.76-3.62c-1.17-1.28-2.25-2.63-3.25-4.04v-0.12
	c-1.86-0.17-3.71-0.46-5.54-0.88h0.27L734.94,910.58z M744.68,911.6c-1.35,0-2.73,0-4.11-0.17h-0.37l-0.22-0.32
	c-0.74-1.04-1.43-2.12-2.07-3.23l-0.13-0.24c-0.56-0.93-1.18-2.13-1.68-3.39l-0.13-0.29l-0.15-0.36l0.15-0.36
	c0.72-1.52,1.35-2.71,2.04-3.88l-0.13,0.24c0.67-1.17,1.41-2.35,2.2-3.47l0.22-0.32h0.37c1.23-0.12,2.66-0.17,4.11-0.17
	c1.45,0,2.86,0,4.27,0.19h-0.39h0.39l0.22,0.32c1.5,2.15,2.83,4.41,3.97,6.77l0.13,0.29l0.15,0.35l-0.15,0.36
	c-1.19,2.54-2.6,4.98-4.21,7.28l0.1-0.15l-0.22,0.3h-0.39c-1.38,0.12-2.76,0.17-4.09,0.17L744.68,911.6z M741.09,909.82
	c2.39,0.19,4.78,0.19,7.17,0c1.26-1.89,2.38-3.87,3.36-5.92l0.12-0.29c-1.06-2.22-2.29-4.35-3.67-6.38l0.1,0.17
	c-1.08-0.1-2.32-0.15-3.58-0.15c-1.26,0-2.51,0-3.74,0.15h0.15c-1.28,1.9-2.43,3.9-3.42,5.97l-0.12,0.27
	c1.06,2.22,2.29,4.35,3.68,6.38l-0.12-0.17L741.09,909.82z"/>
<path id="Vector_68_2_" class="st0" d="M889.63,555.1c-0.92,0-1.81,0.37-2.46,1.03c-0.65,0.66-1.02,1.55-1.02,2.48
	s0.37,1.82,1.02,2.48c0.65,0.66,1.54,1.03,2.46,1.03c0.92,0,1.81-0.37,2.46-1.03c0.65-0.66,1.02-1.55,1.02-2.48
	s-0.37-1.82-1.02-2.48C891.44,555.47,890.55,555.1,889.63,555.1z M879.87,565.58l-0.76-0.2c-5.65-1.46-9.02-3.93-9.02-6.77
	s3.37-5.33,9.02-6.77l0.76-0.19l0.22,0.76c0.6,2.09,1.38,4.13,2.32,6.09l-0.1-0.24l0.17,0.36l-0.17,0.35
	c-0.86,1.79-1.57,3.66-2.12,5.57v0.27L879.87,565.58z M878.74,553.62c-4.34,1.23-6.97,3.06-6.97,4.99s2.68,3.76,7.02,5.08
	c0.53-1.82,1.2-3.59,1.99-5.32l-0.1,0.25c-0.73-1.52-1.35-3.1-1.85-4.71l-0.08-0.29V553.62z M899.39,565.58l-0.22-0.76
	c-0.61-2.09-1.38-4.13-2.32-6.09l0.1,0.24l-0.17-0.36l0.17-0.36c0.86-1.8,1.58-3.67,2.15-5.59v-0.27l0.22-0.76l0.76,0.19
	c5.74,1.46,9.02,3.93,9.02,6.77s-3.28,5.32-9.02,6.77L899.39,565.58z M898.58,558.61c0.76,1.65,1.41,3.34,1.93,5.08
	c4.34-1.24,7.02-3.11,7.02-5.08c0-1.96-2.67-3.76-7.02-4.99c-0.56,1.79-1.24,3.55-2.03,5.25L898.58,558.61z M878.74,553.62
	l-0.24-0.76c-1.68-5.72-1.13-9.8,1.33-11.24c2.46-1.44,6.29,0.25,10.36,4.45l0.55,0.58l-0.55,0.58c-1.41,1.47-2.7,3.05-3.87,4.72
	l-0.08,0.14l-0.22,0.3h-0.37c-2.17,0.17-4.32,0.53-6.43,1.07h0.25L878.74,553.62z M881.87,542.75c-0.4-0.01-0.79,0.09-1.14,0.29
	c-1.68,0.95-1.9,4.2-0.79,8.6c1.66-0.37,3.35-0.64,5.05-0.79h0.25c1.03-1.47,2.15-2.87,3.36-4.2
	C885.94,544.17,883.55,542.75,881.87,542.75z M897.49,576.09c-2.32,0-5.3-1.69-8.41-4.94l-0.55-0.58l0.55-0.58
	c1.41-1.47,2.7-3.05,3.85-4.72v-0.14l0.22-0.3h0.39c2.17-0.17,4.32-0.53,6.43-1.07h-0.27l0.77-0.2l0.22,0.76
	c1.68,5.7,1.13,9.8-1.35,11.24c-0.58,0.33-1.24,0.49-1.9,0.49L897.49,576.09z M890.76,570.56c2.52,2.49,4.93,3.91,6.73,3.91
	c0.4,0.01,0.79-0.09,1.14-0.29c1.68-0.95,1.9-4.2,0.79-8.6c-1.66,0.37-3.35,0.64-5.05,0.8h-0.15c-1.03,1.47-2.15,2.87-3.36,4.2
	L890.76,570.56z M900.5,553.63l-0.76-0.2c-1.98-0.5-4-0.82-6.04-0.98h-0.05h-0.39l-0.22-0.3c-1.18-1.73-2.5-3.36-3.94-4.88
	l-0.55-0.58l0.55-0.58c4.05-4.2,7.94-5.84,10.35-4.45s2.96,5.52,1.35,11.24L900.5,553.63z M894.09,550.84
	c1.77,0.15,3.53,0.43,5.27,0.81c1.11-4.4,0.83-7.67-0.79-8.6c-1.62-0.93-4.63,0.49-7.81,3.62c1.16,1.27,2.25,2.62,3.25,4.03
	L894.09,550.84z M881.87,576.09c-0.68,0-1.34-0.17-1.93-0.51c-2.46-1.44-2.95-5.52-1.33-11.24l0.22-0.76l0.76,0.2
	c2.02,0.5,4.08,0.83,6.16,1h0.39l0.22,0.3c1.17,1.75,2.49,3.4,3.94,4.92l0.55,0.58l-0.55,0.58c-3.08,3.18-6.06,4.94-8.41,4.94
	V576.09z M879.94,565.58c-1.11,4.4-0.83,7.65,0.79,8.6c1.62,0.95,4.51-0.58,7.76-3.62c-1.17-1.28-2.25-2.63-3.25-4.04v-0.12
	c-1.86-0.17-3.71-0.46-5.54-0.88h0.27L879.94,565.58z M889.68,566.6c-1.35,0-2.73,0-4.11-0.17h-0.37l-0.22-0.32
	c-0.74-1.04-1.43-2.12-2.07-3.23l-0.14-0.24c-0.55-0.93-1.18-2.13-1.68-3.39l-0.13-0.29l-0.15-0.36l0.15-0.36
	c0.72-1.52,1.35-2.71,2.04-3.88l-0.14,0.24c0.67-1.17,1.41-2.35,2.2-3.47l0.22-0.32h0.37c1.23-0.12,2.66-0.17,4.1-0.17
	s2.86,0,4.27,0.19h-0.39h0.39l0.22,0.32c1.51,2.15,2.83,4.41,3.97,6.77l0.14,0.29l0.15,0.35l-0.15,0.36
	c-1.19,2.54-2.6,4.98-4.21,7.28l0.1-0.15l-0.22,0.3h-0.39c-1.38,0.12-2.76,0.17-4.09,0.17L889.68,566.6z M886.09,564.82
	c2.39,0.19,4.78,0.19,7.17,0c1.26-1.89,2.38-3.87,3.36-5.92l0.12-0.29c-1.06-2.22-2.29-4.35-3.67-6.38l0.1,0.17
	c-1.08-0.1-2.32-0.15-3.58-0.15c-1.26,0-2.51,0-3.73,0.15h0.15c-1.28,1.9-2.42,3.9-3.41,5.97l-0.12,0.27
	c1.06,2.22,2.29,4.35,3.68,6.38l-0.12-0.17L886.09,564.82z"/>
<path id="Vector_69_2_" class="st0" d="M1006.04,684.09c1.39,0.47,2.54,1.46,3.2,2.77c0.66,1.3,0.77,2.81,0.32,4.21l-16.27,44.14
	l-3.81-6.62l-2.03-3.83l-2.25-4.02l-0.28,5l-28.95-10.29c-0.69-0.22-1.32-0.58-1.87-1.06c-0.54-0.47-0.99-1.05-1.3-1.7
	c-0.31-0.65-0.49-1.35-0.52-2.07c-0.03-0.72,0.08-1.44,0.33-2.12l12.26-33.29c0.55-1.34,1.59-2.43,2.92-3.03
	c1.33-0.6,2.83-0.68,4.2-0.21L1006.04,684.09z M989.12,691.24l-0.63,0.24c2.09,1.42,3.84,3.27,5.13,5.42
	c-1.96-2.08-4.28-3.8-6.85-5.08c-1.63-0.79-3.35-1.4-5.12-1.8l-0.39-0.15c-2.05-0.52-4.17-0.71-6.29-0.57l-1.76,0.14
	c2.49-0.9,5.17-1.18,7.79-0.8l-0.14-0.36c-2.64-0.8-5.48-0.75-8.11,0.14c-3.99,3.61-7.08,8.09-9.01,13.08
	c0.42,1.54,1.22,2.94,2.34,4.09c1.11,1.14,2.51,1.98,4.04,2.44c0,0,1.21-0.8,2.46-1.49c-1.58-1.07-2.76-2.63-3.35-4.43
	c0.2,0.19,0.38,0.4,0.55,0.63c0.02,0.02,0.03,0.04,0.04,0.06c0.01,0.02,0.01,0.05,0.01,0.07c0.57,0.53,1.16,1.05,1.61,1.5
	c1.01,0.93,2.12,1.75,3.31,2.44c2.07,1.12,4.3,1.91,6.61,2.36c1.36,0.22,2.74,0.29,4.11,0.21c1.16-0.09,2.32-0.25,3.46-0.47
	c-1.68,1.02-3.64,1.45-5.59,1.23c0.31,1.2,0.88,2.66,0.88,2.66c1.51,0.55,3.12,0.78,4.73,0.68c1.61-0.11,3.18-0.55,4.61-1.3
	c1.74-5.02,2.29-10.36,1.6-15.61c-1.46-2.3-3.6-4.09-6.14-5.12L989.12,691.24z M986.13,700.43c0.52,0.18,0.98,0.51,1.31,0.95
	c0.33,0.44,0.52,0.96,0.56,1.51s-0.1,1.1-0.38,1.57c-0.28,0.48-0.7,0.86-1.19,1.11c-0.5,0.25-1.06,0.34-1.61,0.28
	c-0.55-0.07-1.07-0.29-1.49-0.65c-0.42-0.36-0.72-0.83-0.87-1.36c-0.15-0.53-0.14-1.09,0.03-1.61c0.12-0.36,0.3-0.69,0.55-0.97
	c0.25-0.29,0.55-0.52,0.89-0.69c0.34-0.17,0.71-0.27,1.09-0.29C985.4,700.26,985.78,700.31,986.13,700.43z M976.76,697.07
	c0.52,0.18,0.98,0.51,1.31,0.94c0.33,0.44,0.53,0.96,0.57,1.51c0.03,0.55-0.1,1.1-0.37,1.58s-0.69,0.87-1.18,1.12
	c-0.5,0.25-1.05,0.35-1.6,0.29c-0.55-0.06-1.07-0.29-1.49-0.64c-0.42-0.35-0.73-0.82-0.88-1.35c-0.15-0.53-0.15-1.09,0.02-1.62
	c0.11-0.36,0.3-0.69,0.55-0.98c0.25-0.29,0.55-0.52,0.89-0.69s0.71-0.27,1.09-0.3C976.03,696.9,976.41,696.95,976.76,697.07z"/>
<path id="Vector_70_2_" class="st0" d="M941.58,294.8c0.91,0.31,1.66,0.96,2.09,1.81c0.43,0.85,0.51,1.84,0.21,2.75l-10.65,28.88
	l-2.49-4.33l-1.33-2.51l-1.47-2.63l-0.18,3.27l-18.94-6.73c-0.45-0.15-0.87-0.38-1.22-0.69c-0.36-0.31-0.64-0.69-0.85-1.11
	c-0.21-0.42-0.32-0.88-0.34-1.36s0.05-0.94,0.22-1.39l8.02-21.78c0.36-0.88,1.04-1.59,1.91-1.98c0.87-0.39,1.85-0.44,2.75-0.14
	L941.58,294.8z M930.51,299.47l-0.41,0.16c1.36,0.93,2.51,2.14,3.36,3.54c-1.28-1.36-2.8-2.49-4.48-3.32
	c-1.07-0.52-2.19-0.91-3.35-1.17l-0.26-0.1c-1.34-0.34-2.73-0.47-4.11-0.37l-1.15,0.09c1.63-0.59,3.38-0.77,5.1-0.52l-0.09-0.24
	c-1.73-0.52-3.58-0.49-5.3,0.09c-2.61,2.36-4.63,5.29-5.89,8.56c0.27,1.01,0.8,1.92,1.53,2.67c0.73,0.75,1.64,1.3,2.65,1.6
	c0,0,0.79-0.52,1.61-0.98c-1.03-0.7-1.8-1.72-2.19-2.9c0.13,0.13,0.25,0.26,0.36,0.41c0.01,0.01,0.02,0.02,0.03,0.04
	c0.01,0.01,0.01,0.03,0.01,0.05c0.37,0.35,0.76,0.69,1.05,0.98c0.66,0.61,1.39,1.14,2.16,1.59c1.35,0.73,2.81,1.25,4.33,1.54
	c0.89,0.14,1.79,0.19,2.69,0.14c0.76-0.06,1.52-0.16,2.26-0.31c-1.1,0.67-2.38,0.95-3.66,0.81c0.2,0.78,0.57,1.74,0.57,1.74
	c0.99,0.36,2.04,0.51,3.1,0.44c1.05-0.07,2.08-0.36,3.02-0.85c1.14-3.28,1.5-6.78,1.05-10.21c-0.95-1.5-2.36-2.67-4.01-3.35
	L930.51,299.47z M928.56,305.49c0.34,0.12,0.64,0.34,0.86,0.62c0.22,0.29,0.34,0.63,0.36,0.99c0.02,0.36-0.07,0.72-0.25,1.03
	c-0.18,0.31-0.45,0.57-0.78,0.73c-0.33,0.16-0.69,0.22-1.05,0.18c-0.36-0.04-0.7-0.19-0.97-0.42c-0.28-0.23-0.47-0.54-0.57-0.89
	c-0.1-0.35-0.09-0.71,0.02-1.06c0.08-0.23,0.2-0.45,0.36-0.64c0.16-0.19,0.36-0.34,0.58-0.45c0.22-0.11,0.46-0.17,0.71-0.19
	C928.08,305.37,928.32,305.41,928.56,305.49z M922.43,303.29c0.34,0.12,0.64,0.33,0.86,0.62c0.22,0.29,0.35,0.63,0.37,0.99
	c0.02,0.36-0.06,0.72-0.24,1.03c-0.18,0.31-0.45,0.57-0.78,0.73c-0.32,0.16-0.69,0.23-1.05,0.19c-0.36-0.04-0.7-0.19-0.97-0.42
	c-0.28-0.23-0.48-0.54-0.58-0.88c-0.1-0.35-0.1-0.71,0.01-1.06c0.08-0.23,0.2-0.45,0.36-0.64c0.16-0.19,0.36-0.34,0.58-0.45
	c0.22-0.11,0.46-0.18,0.71-0.2C921.95,303.18,922.19,303.21,922.43,303.29z"/>
<path id="Vector_71_2_" class="st0" d="M1033.6,28.87c-4.57-3.4-10.19-5.07-15.88-4.72c-5.68,0.35-11.06,2.7-15.18,6.63
	c-4.11,3.93-6.71,9.19-7.31,14.85c-0.6,5.66,0.82,11.34,4.01,16.06c0.11,0.17,0.26,0.3,0.44,0.39c0.18,0.09,0.37,0.14,0.57,0.14
	c0.2,0,0.4-0.05,0.57-0.14c0.17-0.09,0.32-0.23,0.44-0.39l2.32-3.22c-6.22-2.88-4.53-7.46-4.53-7.46c0.49-1.4,0.49-2.93,0-4.33
	c-0.85-2.51,1.02-1.08,1.02-1.08c0.56,0.56,0.98,1.24,1.23,1.99c0.25,0.75,0.33,1.55,0.22,2.33c-0.1,0.67-0.06,1.35,0.1,2
	c0.16,0.65,0.46,1.27,0.86,1.81c0.4,0.54,0.91,1,1.49,1.34c0.58,0.35,1.22,0.57,1.89,0.67c0.83-0.9,1.95-1.48,3.16-1.64
	c-3.9-3.7-7.13-8.76-1.56-16.12c1.42-1.92,3.52-3.23,5.87-3.66c0.66-2.1,2.1-3.88,4.03-4.95c0,0,1.99,0.71,3.79,5.97
	c1.89,0.76,3.68,1.76,5.31,2.99c1.62,1.25,3.08,2.7,4.33,4.33c5.52,0.28,6.76,2.01,6.76,2.01c-0.56,2.05-1.86,3.82-3.64,4.98
	c0.23,2.38-0.47,4.76-1.95,6.64c-5.59,7.38-11.31,5.6-15.94,2.86c0.11,0.81,0.04,1.63-0.2,2.41c-0.24,0.78-0.64,1.5-1.18,2.11
	c-1.95,2.57-3.53,4.61-4.01,5.24c-0.48,0.63-0.5,1.36,0.63,1.93c5.42,1.84,11.32,1.7,16.64-0.41c5.32-2.11,9.72-6.03,12.4-11.08
	c2.68-5.05,3.48-10.89,2.25-16.47c-1.23-5.58-4.42-10.54-8.98-14H1033.6z"/>
<path id="Vector_72_2_" class="st0" d="M777.19,397.63c-5.06,2.61-9.03,6.93-11.22,12.19c-2.18,5.26-2.44,11.12-0.72,16.55
	c1.72,5.43,5.31,10.07,10.12,13.09c4.82,3.03,10.55,4.25,16.18,3.46c0.2-0.03,0.38-0.1,0.55-0.22c0.16-0.12,0.29-0.27,0.38-0.45
	c0.09-0.18,0.13-0.38,0.12-0.58s-0.06-0.39-0.16-0.57l-1.88-3.5c-5.32,4.32-8.69,0.78-8.69,0.78c-1.04-1.06-2.41-1.73-3.89-1.9
	c-2.63-0.35-0.52-1.39-0.52-1.39c0.75-0.26,1.55-0.34,2.33-0.23c0.78,0.1,1.54,0.39,2.19,0.83c0.56,0.38,1.18,0.65,1.84,0.79
	c0.66,0.14,1.34,0.15,2,0.02c0.66-0.12,1.29-0.38,1.86-0.74c0.56-0.37,1.05-0.84,1.43-1.4c-0.45-1.14-0.48-2.4-0.09-3.56
	c-5.04,1.88-11,2.55-15.16-5.69c-1.11-2.12-1.36-4.58-0.7-6.88c-1.6-1.52-2.56-3.59-2.68-5.8c0,0,1.52-1.48,7.03-0.78
	c1.51-1.37,3.2-2.53,5.02-3.45c1.84-0.91,3.78-1.58,5.79-1.99c2.68-4.84,4.78-5.18,4.78-5.18c1.59,1.4,2.61,3.35,2.87,5.46
	c2.24,0.84,4.07,2.51,5.11,4.67c4.17,8.26,0.06,12.62-4.44,15.57c0.77,0.26,1.48,0.68,2.08,1.24c0.6,0.56,1.06,1.24,1.38,1.99
	c1.46,2.88,2.59,5.2,2.94,5.9c0.35,0.7,1.01,1.05,2.01,0.28c4.04-4.05,6.5-9.41,6.95-15.12c0.45-5.7-1.15-11.38-4.5-16.01
	c-3.35-4.63-8.25-7.91-13.8-9.26c-5.56-1.35-11.41-0.67-16.52,1.91L777.19,397.63z"/>
<path id="Vector_73_2_" class="st0" d="M932.09,1029.11c8.28,0,15-6.72,15-15s-6.72-15-15-15s-15,6.72-15,15
	S923.81,1029.11,932.09,1029.11z"/>
</svg>
