<svg width="433" height="325" viewBox="0 0 433 325" fill="none" xmlns="http://www.w3.org/2000/svg">
<g id="welcome_padawan" clip-path="url(#clip0)">
<g id="email">
<path id="Vector" d="M341.35 182.36C341.261 182.359 341.173 182.332 341.1 182.28L216.89 95.7801C216.514 95.5163 216.065 95.3748 215.605 95.3748C215.145 95.3748 214.697 95.5163 214.32 95.7801L91.0002 182.28C90.902 182.34 90.7844 182.361 90.6717 182.337C90.559 182.313 90.4598 182.247 90.3944 182.152C90.329 182.057 90.3025 181.941 90.3204 181.827C90.3382 181.713 90.399 181.61 90.4902 181.54L213.8 95.0501C214.328 94.6809 214.956 94.4829 215.6 94.4829C216.244 94.4829 216.873 94.6809 217.4 95.0501L341.61 181.55C341.707 181.62 341.772 181.725 341.793 181.843C341.813 181.96 341.787 182.081 341.72 182.18C341.679 182.24 341.624 182.288 341.559 182.322C341.495 182.355 341.423 182.371 341.35 182.37V182.36Z" fill="#585490"/>
<path id="Vector_2" d="M98.0498 185.43L215.72 98.21L334.29 191.63L221.79 258.33L160.71 244.4L98.0498 185.43Z" fill="#D3D3D3"/>
<path id="Vector_3" d="M165.86 299.52H107.73C107.038 299.478 106.389 299.174 105.914 298.669C105.439 298.164 105.175 297.498 105.175 296.805C105.175 296.112 105.439 295.445 105.914 294.941C106.389 294.436 107.038 294.132 107.73 294.09H165.87C166.562 294.132 167.211 294.436 167.686 294.941C168.161 295.445 168.425 296.112 168.425 296.805C168.425 297.498 168.161 298.164 167.686 298.669C167.211 299.174 166.562 299.478 165.87 299.52H165.86Z" fill="#C4D043"/>
<path id="Vector_4" d="M128.58 287.84H107.73C107.038 287.798 106.389 287.493 105.914 286.989C105.439 286.484 105.175 285.818 105.175 285.125C105.175 284.432 105.439 283.765 105.914 283.261C106.389 282.756 107.038 282.452 107.73 282.41H128.59C128.96 282.387 129.331 282.441 129.68 282.567C130.029 282.693 130.349 282.89 130.619 283.144C130.889 283.398 131.104 283.705 131.252 284.046C131.399 284.387 131.475 284.754 131.475 285.125C131.475 285.496 131.399 285.863 131.252 286.204C131.104 286.544 130.889 286.851 130.619 287.106C130.349 287.36 130.029 287.556 129.68 287.682C129.331 287.809 128.96 287.862 128.59 287.84H128.58Z" fill="#C4D043"/>
<path id="Vector_5" d="M217.38 234C216.938 234.002 216.499 233.917 216.09 233.75L143.52 203.64V109.38C143.52 108.546 143.851 107.747 144.439 107.156C145.028 106.566 145.826 106.233 146.66 106.23H285.89C286.724 106.233 287.522 106.566 288.111 107.156C288.7 107.747 289.03 108.546 289.03 109.38V203.7L288.89 203.76L218.71 233.76C218.287 233.928 217.835 234.01 217.38 234Z" fill="white"/>
<path id="Vector_6" d="M217.38 234.23C216.91 234.243 216.441 234.165 216 234L143.29 203.83V109.38C143.29 108.937 143.377 108.499 143.547 108.09C143.716 107.681 143.964 107.31 144.277 106.997C144.59 106.684 144.962 106.436 145.37 106.266C145.779 106.097 146.217 106.01 146.66 106.01H285.89C286.783 106.012 287.639 106.368 288.27 107C288.902 107.631 289.257 108.487 289.26 109.38V203.85L218.79 233.94C218.344 234.131 217.865 234.229 217.38 234.23ZM144.19 203.23L216.35 233.17C216.681 233.308 217.036 233.379 217.395 233.379C217.754 233.379 218.109 233.308 218.44 233.17L288.36 203.32V109.38C288.36 108.725 288.1 108.096 287.637 107.633C287.173 107.17 286.545 106.91 285.89 106.91H146.66C146.005 106.91 145.377 107.17 144.913 107.633C144.45 108.096 144.19 108.725 144.19 109.38V203.23Z" fill="#585490"/>
<path id="Vector_7" d="M340.46 181.46H340.37L288.81 203.46L218.26 233.6C217.703 233.83 217.077 233.83 216.52 233.6L143.74 203.4L90.9101 181.5H90.8301H90.7401C89.9064 181.503 89.1078 181.836 88.5192 182.426C87.9306 183.017 87.6001 183.816 87.6001 184.65V321.14C87.6027 321.972 87.9344 322.769 88.5227 323.357C89.111 323.946 89.9081 324.277 90.7401 324.28H340.46C341.292 324.277 342.089 323.946 342.678 323.357C343.266 322.769 343.597 321.972 343.6 321.14V184.61C343.6 183.776 343.27 182.977 342.681 182.386C342.092 181.796 341.294 181.463 340.46 181.46ZM342.7 321.14C342.7 321.734 342.464 322.304 342.044 322.724C341.624 323.144 341.054 323.38 340.46 323.38H90.7401C90.146 323.38 89.5763 323.144 89.1562 322.724C88.7361 322.304 88.5001 321.734 88.5001 321.14V184.61C88.4996 184.028 88.7243 183.469 89.127 183.05C89.5297 182.63 90.0791 182.383 90.6601 182.36L143.74 204.36L216.17 234.42C216.956 234.74 217.835 234.74 218.62 234.42L288.81 204.42L340.55 182.33C341.129 182.356 341.676 182.604 342.077 183.023C342.477 183.442 342.701 184 342.7 184.58V321.14Z" fill="#585490"/>
<path id="Vector_8" d="M307.1 301C306.437 300.997 305.793 300.783 305.26 300.39L298.36 295.11C297.753 294.602 297.366 293.879 297.278 293.093C297.191 292.306 297.411 291.517 297.893 290.888C298.374 290.26 299.079 289.842 299.861 289.721C300.643 289.6 301.442 289.786 302.09 290.24L306.56 293.67L317.13 279.88C317.625 279.235 318.356 278.812 319.162 278.705C319.968 278.598 320.784 278.816 321.43 279.31L321.36 279.4L321.43 279.32C322.075 279.815 322.497 280.546 322.604 281.352C322.711 282.158 322.494 282.974 322 283.62L309.57 299.83C309.276 300.201 308.9 300.5 308.471 300.703C308.043 300.906 307.574 301.007 307.1 301Z" fill="#C4D043"/>
<g id="logo_hackademy">
<path id="Vector_9" d="M200.21 197.7H199.21V195.26H196.55V197.7H195.55V192.14H196.55V194.42H199.21V192.14H200.21V197.7Z" fill="#C4D043"/>
<path id="Vector_10" d="M204 197.7L203.94 197.17C203.775 197.372 203.562 197.53 203.32 197.63C203.069 197.745 202.796 197.806 202.52 197.81C202.214 197.819 201.916 197.707 201.69 197.5C201.586 197.392 201.505 197.263 201.453 197.122C201.402 196.981 201.38 196.83 201.39 196.68C201.385 196.464 201.437 196.25 201.54 196.06C201.638 195.876 201.778 195.718 201.95 195.6C202.152 195.461 202.38 195.363 202.62 195.31C202.904 195.238 203.197 195.201 203.49 195.2H203.85V195.08C203.856 194.989 203.84 194.898 203.803 194.815C203.767 194.731 203.711 194.658 203.64 194.6C203.434 194.482 203.197 194.43 202.96 194.45C202.572 194.442 202.188 194.539 201.85 194.73L201.67 194.03C202.089 193.799 202.561 193.681 203.04 193.69C203.494 193.658 203.946 193.781 204.32 194.04C204.469 194.161 204.588 194.313 204.669 194.486C204.751 194.659 204.792 194.849 204.79 195.04V197.68L204 197.7ZM202.85 197.05C203.038 197.052 203.224 197.008 203.39 196.92C203.563 196.846 203.713 196.725 203.82 196.57V195.81H203.66C203.318 195.783 202.974 195.841 202.66 195.98C202.558 196.035 202.474 196.118 202.417 196.219C202.361 196.32 202.334 196.435 202.34 196.55C202.326 196.669 202.358 196.789 202.431 196.884C202.504 196.98 202.611 197.043 202.73 197.06L202.85 197.05Z" fill="#C4D043"/>
<path id="Vector_11" d="M208.89 194.78C208.817 194.731 208.74 194.687 208.66 194.65C208.462 194.56 208.254 194.492 208.04 194.45H207.71C207.543 194.446 207.378 194.484 207.23 194.56C207.1 194.622 206.989 194.719 206.91 194.84C206.821 194.959 206.759 195.095 206.73 195.24C206.694 195.394 206.674 195.552 206.67 195.71C206.673 195.892 206.697 196.073 206.74 196.25C206.789 196.403 206.86 196.547 206.95 196.68C207.045 196.807 207.169 196.91 207.312 196.979C207.454 197.049 207.611 197.083 207.77 197.08C207.989 197.081 208.206 197.04 208.41 196.96C208.623 196.891 208.818 196.775 208.98 196.62L209.15 197.41C208.95 197.535 208.735 197.633 208.51 197.7C208.229 197.791 207.935 197.838 207.64 197.84C207.344 197.845 207.051 197.787 206.78 197.67C206.545 197.564 206.336 197.407 206.17 197.21C206.006 197.021 205.884 196.799 205.81 196.56C205.65 196.049 205.65 195.501 205.81 194.99C205.879 194.749 206.003 194.527 206.17 194.34C206.338 194.143 206.55 193.989 206.79 193.89C207.078 193.773 207.389 193.718 207.7 193.73C207.966 193.73 208.231 193.76 208.49 193.82C208.71 193.87 208.922 193.951 209.12 194.06L208.89 194.78Z" fill="#C4D043"/>
<path id="Vector_12" d="M211.9 195.19L213.56 197.7H212.56L211.31 195.8L210.98 196.13V197.7H210V191.47H211V195.07L212.29 193.82H213.29L211.9 195.19Z" fill="#C4D043"/>
<path id="Vector_13" d="M216.52 197.7L216.45 197.17C216.285 197.372 216.072 197.53 215.83 197.63C215.579 197.745 215.306 197.806 215.03 197.81C214.724 197.819 214.426 197.707 214.2 197.5C214.096 197.392 214.016 197.263 213.964 197.122C213.913 196.98 213.891 196.83 213.9 196.68C213.895 196.464 213.947 196.25 214.05 196.06C214.146 195.872 214.291 195.713 214.47 195.6C214.672 195.461 214.9 195.363 215.14 195.31C215.424 195.238 215.717 195.201 216.01 195.2H216.37V195.08C216.381 194.989 216.367 194.896 216.33 194.812C216.293 194.727 216.234 194.654 216.16 194.6C215.955 194.48 215.717 194.428 215.48 194.45C215.092 194.438 214.709 194.532 214.37 194.72L214.19 194.02C214.61 193.792 215.082 193.678 215.56 193.69C216.014 193.663 216.463 193.786 216.84 194.04C216.986 194.162 217.103 194.315 217.183 194.488C217.263 194.661 217.303 194.85 217.3 195.04V197.68L216.52 197.7ZM215.36 197.05C215.548 197.052 215.734 197.008 215.9 196.92C216.073 196.846 216.223 196.725 216.33 196.57V195.81H216.17C215.828 195.783 215.484 195.841 215.17 195.98C215.067 196.033 214.983 196.116 214.928 196.218C214.873 196.319 214.849 196.435 214.86 196.55C214.85 196.608 214.852 196.668 214.866 196.725C214.88 196.782 214.906 196.836 214.942 196.883C214.977 196.929 215.022 196.969 215.073 196.997C215.125 197.026 215.181 197.044 215.24 197.05H215.37H215.36Z" fill="#585490"/>
<path id="Vector_14" d="M219.92 197.81C219.671 197.808 219.426 197.754 219.2 197.65C218.985 197.543 218.794 197.394 218.64 197.21C218.478 197.016 218.356 196.791 218.28 196.55C218.192 196.282 218.148 196.002 218.15 195.72C218.151 195.459 218.189 195.2 218.26 194.95C218.321 194.717 218.43 194.499 218.58 194.31C218.735 194.108 218.935 193.946 219.164 193.836C219.394 193.727 219.646 193.673 219.9 193.68C220.147 193.682 220.391 193.729 220.62 193.82C220.822 193.901 221.001 194.032 221.14 194.2V191.46H222.06V197.7H221.32L221.25 197.16C221.1 197.339 220.921 197.491 220.72 197.61C220.478 197.753 220.2 197.823 219.92 197.81ZM220.04 197.11C220.136 197.12 220.234 197.12 220.33 197.11C220.537 197.052 220.732 196.96 220.91 196.84C220.999 196.776 221.076 196.699 221.14 196.61V195C221.003 194.821 220.824 194.677 220.62 194.58C220.462 194.511 220.292 194.47 220.12 194.46C219.965 194.453 219.811 194.486 219.672 194.556C219.534 194.626 219.416 194.731 219.33 194.86C219.237 194.99 219.17 195.136 219.13 195.29C219.05 195.618 219.05 195.961 219.13 196.29C219.16 196.447 219.221 196.597 219.31 196.73C219.386 196.854 219.489 196.96 219.61 197.04C219.743 197.12 219.895 197.162 220.05 197.16L220.04 197.11Z" fill="#585490"/>
<path id="Vector_15" d="M225 193.69C225.414 193.668 225.822 193.804 226.14 194.07C226.279 194.208 226.388 194.374 226.458 194.557C226.529 194.739 226.56 194.935 226.55 195.13C226.55 195.2 226.55 195.27 226.55 195.34C226.556 195.407 226.556 195.474 226.55 195.54C226.539 195.605 226.522 195.669 226.5 195.73L226.44 195.86H223.98C223.988 196.021 224.022 196.18 224.08 196.33C224.121 196.476 224.196 196.61 224.3 196.72C224.393 196.831 224.509 196.919 224.64 196.98C224.794 197.048 224.961 197.082 225.13 197.08C225.355 197.081 225.579 197.04 225.79 196.96C226.001 196.888 226.202 196.791 226.39 196.67L226.54 197.36L226.27 197.51L225.91 197.65C225.766 197.7 225.619 197.74 225.47 197.77C225.31 197.785 225.15 197.785 224.99 197.77C224.702 197.778 224.415 197.724 224.15 197.61C223.918 197.508 223.713 197.354 223.55 197.16C223.38 196.974 223.253 196.752 223.18 196.51C223 196.002 223 195.448 223.18 194.94C223.261 194.697 223.39 194.472 223.56 194.28C223.73 194.085 223.942 193.932 224.18 193.83C224.442 193.732 224.72 193.684 225 193.69ZM225 194.42C224.781 194.413 224.567 194.488 224.4 194.63C224.228 194.778 224.103 194.972 224.04 195.19H225.65C225.655 195.171 225.655 195.15 225.65 195.13V195.05C225.655 194.967 225.641 194.883 225.61 194.805C225.579 194.727 225.531 194.657 225.47 194.6C225.338 194.482 225.167 194.417 224.99 194.42H225Z" fill="#585490"/>
<path id="Vector_16" d="M230 197.7V195.15C230 194.69 229.81 194.46 229.45 194.46C229.354 194.445 229.256 194.445 229.16 194.46C228.934 194.533 228.733 194.668 228.58 194.85C228.498 194.942 228.44 195.051 228.41 195.17V197.67H227.48V193.77H228.21V194.35C228.319 194.114 228.511 193.925 228.75 193.82C228.996 193.702 229.266 193.64 229.54 193.64C229.789 193.642 230.034 193.697 230.26 193.8C230.485 193.912 230.66 194.105 230.75 194.34C230.859 194.109 231.047 193.925 231.28 193.82C231.679 193.628 232.136 193.592 232.56 193.72C232.722 193.764 232.87 193.846 232.994 193.959C233.117 194.072 233.212 194.213 233.27 194.37C233.347 194.575 233.384 194.792 233.38 195.01V197.65H232.45V195.1C232.45 194.64 232.27 194.41 231.9 194.41C231.804 194.395 231.706 194.395 231.61 194.41C231.503 194.44 231.402 194.487 231.31 194.55C231.208 194.62 231.117 194.704 231.04 194.8C230.959 194.894 230.898 195.002 230.86 195.12V197.62L230 197.7Z" fill="#585490"/>
<path id="Vector_17" d="M236.17 196.58L237.25 193.82H238.13L236.53 197.74C236.44 197.97 236.33 198.191 236.2 198.4C236.067 198.65 235.902 198.882 235.71 199.09C235.529 199.305 235.317 199.49 235.08 199.64C234.852 199.791 234.583 199.868 234.31 199.86H234.21H234.13L233.97 199.14H234.17C234.276 199.151 234.383 199.151 234.49 199.14C234.603 199.116 234.712 199.072 234.81 199.01C235.02 198.869 235.197 198.685 235.33 198.47C235.506 198.2 235.653 197.911 235.77 197.61L233.84 193.86H234.84L236.17 196.58Z" fill="#585490"/>
<path id="Vector_18" d="M197.3 145.61V150.29H201.89V154.89H192.7V159.89C192.697 160.806 192.469 161.707 192.036 162.514C191.604 163.321 190.98 164.01 190.22 164.52C190.96 164.856 191.587 165.399 192.024 166.085C192.46 166.77 192.688 167.568 192.68 168.38V168.3H197.27V178.11H192.7V182.38H197.29V187.22H192.7C192.052 187.247 191.405 187.131 190.806 186.883C190.207 186.634 189.669 186.258 189.23 185.78C188.458 184.913 188.034 183.791 188.04 182.63V168.63C187.995 168.326 187.888 168.034 187.725 167.773C187.563 167.512 187.348 167.287 187.095 167.113C186.841 166.938 186.555 166.818 186.253 166.759C185.951 166.7 185.64 166.704 185.34 166.77V162C185.34 162 188.04 162.37 188.04 159.81V145.6C188.034 144.439 188.458 143.317 189.23 142.45C189.668 141.971 190.206 141.593 190.805 141.343C191.404 141.092 192.051 140.975 192.7 141H201.89V145.6L197.3 145.61Z" fill="#C4D043"/>
<path id="Vector_19" d="M201.89 159.66H197.29V168.26H201.89V159.66Z" fill="#C4D043"/>
<path id="Vector_20" d="M201.89 178.06H197.29V182.45H201.89V178.06Z" fill="#C4D043"/>
<path id="Vector_21" d="M206.49 145.65H201.89V150.25H206.49V145.65Z" fill="#C4D043"/>
<path id="Vector_22" d="M224.89 150.29H220.29V154.89H224.89V150.29Z" fill="#585490"/>
<path id="Vector_23" d="M224.89 164.08H220.29V168.68H224.89V164.08Z" fill="#585490"/>
<path id="Vector_24" d="M229.49 141.01H224.89V145.61H229.49V141.01Z" fill="#585490"/>
<path id="Vector_25" d="M229.49 154.89H224.89V159.49H229.49V154.89Z" fill="#585490"/>
<path id="Vector_26" d="M229.49 173.23H224.89V177.83H229.49V173.23Z" fill="#585490"/>
<path id="Vector_27" d="M224.98 177.87H220.38V182.42H224.98V177.87Z" fill="#585490"/>
<path id="Vector_28" d="M211.09 163.66H206.49V168.26H211.09V163.66Z" fill="#C4D043"/>
<path id="Vector_29" d="M220.38 173.27V177.87H206.49V173.27H211.09V168.37H215.69V173.27H220.38Z" fill="#C4D043"/>
<path id="Vector_30" d="M220.39 182.45H210.79V187.26H220.39V182.45Z" fill="#C4D043"/>
<path id="Vector_31" d="M220.39 140.9H210.79V145.71H220.39V140.9Z" fill="#585490"/>
<path id="Vector_32" d="M206.49 154.89H201.89V159.49H206.49V154.89Z" fill="#C4D043"/>
<path id="Vector_33" d="M215.69 150.29H211.09V154.89H215.69V150.29Z" fill="#C4D043"/>
<path id="Vector_34" d="M220.29 154.89H215.69V159.49H220.29V154.89Z" fill="#585490"/>
<path id="Vector_35" d="M206.49 168.26H201.89V172.86H206.49V168.26Z" fill="#C4D043"/>
<path id="Vector_36" d="M206.49 182.45H201.89V187.17H206.49V182.45Z" fill="#C4D043"/>
<path id="Vector_37" d="M233.88 164.04H229.49V168.71H233.88V164.04Z" fill="#585490"/>
<path id="Vector_38" d="M243.88 159.58V145.51C243.881 144.35 243.458 143.23 242.69 142.36C242.268 141.895 241.752 141.524 241.176 141.272C240.601 141.021 239.978 140.894 239.35 140.9H234V145.61H229.48V150.28H239.2V154.85H233.93V159.53H239.2V159.82C239.192 160.635 239.421 161.435 239.859 162.122C240.298 162.81 240.927 163.354 241.67 163.69C240.904 164.201 240.275 164.892 239.839 165.703C239.403 166.514 239.173 167.419 239.17 168.34V168.71H233.85V178.06H229.58V182.45H225V187.27H239.22C239.871 187.295 240.52 187.178 241.122 186.925C241.723 186.673 242.261 186.293 242.7 185.81C243.474 184.941 243.898 183.814 243.89 182.65V168.34C243.89 165.77 246.61 166.13 246.61 166.13V161.44C246.308 161.511 245.994 161.519 245.688 161.462C245.383 161.405 245.092 161.286 244.836 161.111C244.579 160.936 244.361 160.71 244.197 160.446C244.032 160.182 243.924 159.888 243.88 159.58ZM239.21 182.45H234.12V178.06H239.21V182.45Z" fill="#585490"/>
</g>
</g>
<path id="line1" d="M44.4702 81.2402C44.4702 81.2402 71.4702 100 77.9002 107.71" stroke="#585490" stroke-width="6" stroke-linecap="round" stroke-linejoin="round"/>
<path id="line2" d="M403.1 145C403.1 145 387.54 151.74 382.42 152.46" stroke="#C4D043" stroke-width="4" stroke-linecap="round" stroke-linejoin="round"/>
<path id="line3" d="M198.77 19.7402C198.77 19.7402 204.88 38.3302 205.18 44.3002" stroke="#C4D043" stroke-width="4" stroke-linecap="round" stroke-linejoin="round"/>
<path id="line4" d="M329.17 54.4502C326.923 57.6369 324.59 60.8735 322.17 64.1602C320.13 66.9002 318.093 69.5669 316.06 72.1602" stroke="#585490" stroke-width="3" stroke-linecap="round" stroke-linejoin="round"/>
<path id="circle1" d="M120.94 42.5001C122.713 42.5001 124.15 41.0629 124.15 39.2901C124.15 37.5172 122.713 36.0801 120.94 36.0801C119.167 36.0801 117.73 37.5172 117.73 39.2901C117.73 41.0629 119.167 42.5001 120.94 42.5001Z" fill="#585490"/>
<path id="circle2" d="M119.34 78.2098C120.218 78.2098 120.93 77.4979 120.93 76.6198C120.93 75.7417 120.218 75.0298 119.34 75.0298C118.462 75.0298 117.75 75.7417 117.75 76.6198C117.75 77.4979 118.462 78.2098 119.34 78.2098Z" fill="#C4D043"/>
<path id="circle3" d="M285 86.97C285.878 86.97 286.59 86.2582 286.59 85.38C286.59 84.5019 285.878 83.79 285 83.79C284.122 83.79 283.41 84.5019 283.41 85.38C283.41 86.2582 284.122 86.97 285 86.97Z" fill="#C4D043"/>
<path id="circle4" d="M80.3698 142.6C81.2479 142.6 81.9598 141.888 81.9598 141.01C81.9598 140.132 81.2479 139.42 80.3698 139.42C79.4917 139.42 78.7798 140.132 78.7798 141.01C78.7798 141.888 79.4917 142.6 80.3698 142.6Z" fill="#585490"/>
<path id="circle5" d="M44.4699 273.16C45.348 273.16 46.0599 272.448 46.0599 271.57C46.0599 270.692 45.348 269.98 44.4699 269.98C43.5918 269.98 42.8799 270.692 42.8799 271.57C42.8799 272.448 43.5918 273.16 44.4699 273.16Z" fill="#585490"/>
<path id="circle6" d="M229.49 62.45C230.368 62.45 231.08 61.7382 231.08 60.86C231.08 59.9819 230.368 59.27 229.49 59.27C228.612 59.27 227.9 59.9819 227.9 60.86C227.9 61.7382 228.612 62.45 229.49 62.45Z" fill="#585490"/>
<path id="circle7" d="M163.19 67.1502C164.068 67.1502 164.78 66.4383 164.78 65.5602C164.78 64.6821 164.068 63.9702 163.19 63.9702C162.312 63.9702 161.6 64.6821 161.6 65.5602C161.6 66.4383 162.312 67.1502 163.19 67.1502Z" fill="#585490"/>
<path id="circle8" d="M33.0998 186.4C33.9779 186.4 34.6898 185.688 34.6898 184.81C34.6898 183.932 33.9779 183.22 33.0998 183.22C32.2216 183.22 31.5098 183.932 31.5098 184.81C31.5098 185.688 32.2216 186.4 33.0998 186.4Z" fill="#C4D043"/>
<path id="circle9" d="M343.75 143.99C344.628 143.99 345.34 143.278 345.34 142.4C345.34 141.522 344.628 140.81 343.75 140.81C342.872 140.81 342.16 141.522 342.16 142.4C342.16 143.278 342.872 143.99 343.75 143.99Z" fill="#C4D043"/>
<path id="circle10" d="M23.2198 148.17C24.9926 148.17 26.4298 146.733 26.4298 144.96C26.4298 143.187 24.9926 141.75 23.2198 141.75C21.4469 141.75 20.0098 143.187 20.0098 144.96C20.0098 146.733 21.4469 148.17 23.2198 148.17Z" fill="#C4D043"/>
<path id="circle11" d="M13.68 88.4102C17.1152 88.4102 19.9 85.6254 19.9 82.1902C19.9 78.755 17.1152 75.9702 13.68 75.9702C10.2448 75.9702 7.45996 78.755 7.45996 82.1902C7.45996 85.6254 10.2448 88.4102 13.68 88.4102Z" stroke="#C4D043" stroke-width="2" stroke-miterlimit="10"/>
<path id="circle12" d="M425.75 126.1C429.185 126.1 431.97 123.315 431.97 119.88C431.97 116.445 429.185 113.66 425.75 113.66C422.315 113.66 419.53 116.445 419.53 119.88C419.53 123.315 422.315 126.1 425.75 126.1Z" stroke="#585490" stroke-width="2" stroke-miterlimit="10"/>
<path id="circle13" d="M248.5 6.42C250.273 6.42 251.71 4.98283 251.71 3.21C251.71 1.43717 250.273 0 248.5 0C246.727 0 245.29 1.43717 245.29 3.21C245.29 4.98283 246.727 6.42 248.5 6.42Z" fill="#585490"/>
<path id="circle14" d="M379.93 106.21C381.703 106.21 383.14 104.773 383.14 103C383.14 101.227 381.703 99.79 379.93 99.79C378.157 99.79 376.72 101.227 376.72 103C376.72 104.773 378.157 106.21 379.93 106.21Z" fill="#585490"/>
<path id="circle15" d="M333.1 105.04C334.873 105.04 336.31 103.603 336.31 101.83C336.31 100.057 334.873 98.6201 333.1 98.6201C331.327 98.6201 329.89 100.057 329.89 101.83C329.89 103.603 331.327 105.04 333.1 105.04Z" fill="#C4D043"/>
<path id="circle16" d="M364.92 223.98C366.693 223.98 368.13 222.543 368.13 220.77C368.13 218.997 366.693 217.56 364.92 217.56C363.147 217.56 361.71 218.997 361.71 220.77C361.71 222.543 363.147 223.98 364.92 223.98Z" fill="#C4D043"/>
<path id="js" d="M58 28.6601L75.81 25.3701L79.09 43.1801L61.29 46.4601L58 28.6601ZM76.83 39.2001C76.55 38.4101 75.9 37.8301 74.21 37.4801C73.62 37.3201 72.98 37.2601 72.72 36.8801C72.6249 36.724 72.5795 36.5426 72.59 36.3601C72.59 35.8601 73.15 35.6101 73.59 35.6601C73.7619 35.6844 73.9267 35.7452 74.0733 35.8383C74.2199 35.9314 74.3449 36.0548 74.44 36.2001L75.59 35.1201C75.4312 34.9349 75.2498 34.7702 75.05 34.6301C74.7306 34.3957 74.3608 34.2392 73.9701 34.1732C73.5794 34.1072 73.1787 34.1336 72.8 34.2501L72.29 34.4101C71.8168 34.6151 71.421 34.9653 71.16 35.4101C71.0078 35.6874 70.9128 35.9924 70.8808 36.3071C70.8488 36.6218 70.8804 36.9397 70.9737 37.242C71.0669 37.5442 71.22 37.8246 71.4238 38.0665C71.6276 38.3084 71.878 38.5069 72.16 38.6501C73.31 39.2201 74.82 39.1101 75.16 39.7901C75.5 40.4701 74.73 41.0501 73.89 41.1001C73.604 41.0883 73.3239 41.0152 73.0686 40.8858C72.8132 40.7564 72.5887 40.5738 72.41 40.3501L71.2 41.3501C71.4043 41.6308 71.6586 41.8715 71.95 42.0601C73.48 43.1301 76.69 42.4701 76.95 40.3801C76.9956 39.9591 76.9372 39.5333 76.78 39.1401L76.83 39.2001ZM69.17 35.0501L67.51 35.3601C67.77 36.8001 68.03 38.2301 68.3 39.6701C68.4828 40.3207 68.5703 40.9944 68.56 41.6701C68.41 42.2301 67.77 42.2801 67.47 42.2401C67.1763 42.1515 66.9198 41.9688 66.74 41.7201C66.67 41.6501 66.63 41.5901 66.61 41.5901L65.42 42.6801C65.7156 43.0996 66.1251 43.4258 66.6 43.6201C67.3857 43.8843 68.2418 43.8451 69 43.5101C69.2726 43.3895 69.5162 43.212 69.7146 42.9895C69.9129 42.7671 70.0614 42.5047 70.15 42.2201C70.3046 41.3737 70.2531 40.5025 70 39.6801C69.72 38.1601 69.43 36.6801 69.15 35.1001L69.17 35.0501Z" fill="#F7DF1E"/>
<path id="mongo" d="M266 41.9998C264.84 36.9298 262.13 35.2698 261.84 34.6298C261.579 34.2138 261.354 33.7754 261.17 33.3198V33.3698H261.12H261H260.74H260.69H260.63L260.46 33.5198C260.31 33.6498 260.13 33.8298 259.92 34.0298C257.813 36.2771 256.607 39.2206 256.53 42.2998C256.511 42.6329 256.511 42.9667 256.53 43.2998C256.628 44.8264 257.073 46.3105 257.83 47.6398C258.088 48.083 258.372 48.5104 258.68 48.9198C259.333 49.7889 260.104 50.563 260.97 51.2198C261.232 52.0368 261.354 52.8922 261.33 53.7498L261.92 53.9498C261.855 53.1836 261.872 52.4125 261.97 51.6498C262.022 51.4241 262.128 51.2146 262.28 51.0398C262.539 50.8665 262.783 50.6725 263.01 50.4598V50.4098C264.101 49.3178 264.936 47.9966 265.453 46.5419C265.97 45.0872 266.157 43.5357 266 41.9998Z" fill="#47A248"/>
<path id="react" d="M11.61 206.07C11.061 206.07 10.5345 206.288 10.1463 206.676C9.75809 207.064 9.54 207.591 9.54 208.14C9.54 208.689 9.75809 209.215 10.1463 209.604C10.5345 209.992 11.061 210.21 11.61 210.21C12.159 210.21 12.6855 209.992 13.0737 209.604C13.4619 209.215 13.68 208.689 13.68 208.14C13.68 207.591 13.4619 207.064 13.0737 206.676C12.6855 206.288 12.159 206.07 11.61 206.07ZM5.81 212.26L5.36 212.14C2 211.28 0 209.82 0 208.14C0 206.46 2 204.99 5.36 204.14L5.81 204.03L5.94 204.48C6.2962 205.717 6.75789 206.921 7.32 208.08L7.26 207.94L7.36 208.15L7.26 208.36C6.74614 209.418 6.32458 210.519 6 211.65V211.81L5.81 212.26ZM5.14 205.19C2.56 205.92 1 207 1 208.14C1 209.28 2.59 210.36 5.17 211.14C5.4857 210.066 5.8801 209.016 6.35 208L6.29 208.15C5.8575 207.251 5.4899 206.322 5.19 205.37L5.14 205.2V205.19ZM17.41 212.26L17.28 211.81C16.9193 210.574 16.4578 209.37 15.9 208.21L15.96 208.35L15.86 208.14L15.96 207.93C16.4727 206.865 16.9007 205.762 17.24 204.63V204.47L17.37 204.02L17.82 204.13C21.23 204.99 23.18 206.45 23.18 208.13C23.18 209.81 21.23 211.27 17.82 212.13L17.41 212.26ZM16.93 208.14C17.3821 209.112 17.7663 210.114 18.08 211.14C20.66 210.41 22.25 209.3 22.25 208.14C22.25 206.98 20.66 205.92 18.08 205.19C17.7466 206.249 17.3423 207.285 16.87 208.29L16.93 208.14ZM5.14 205.19L5 204.74C4 201.36 4.33 198.95 5.79 198.1C7.25 197.25 9.53 198.25 11.95 200.73L12.28 201.07L11.95 201.41C11.1138 202.28 10.345 203.213 9.65 204.2L9.6 204.28L9.47 204.46H9.25C7.96087 204.559 6.68276 204.77 5.43 205.09H5.58L5.14 205.19ZM7 198.77C6.76226 198.765 6.52757 198.824 6.32 198.94C5.32 199.5 5.19 201.42 5.85 204.02C6.83902 203.8 7.84105 203.643 8.85 203.55H9C9.61168 202.68 10.2798 201.852 11 201.07C9.42 199.61 8 198.77 7 198.77ZM16.28 218.47C14.9 218.47 13.13 217.47 11.28 215.55L10.95 215.21L11.28 214.87C12.1158 214.002 12.8816 213.069 13.57 212.08V212L13.7 211.82H13.93C15.219 211.72 16.4971 211.509 17.75 211.19H17.59L18.05 211.07L18.18 211.52C19.18 214.89 18.85 217.31 17.38 218.16C17.0343 218.352 16.6453 218.451 16.25 218.45L16.28 218.47ZM12.28 215.2C13.78 216.67 15.21 217.51 16.28 217.51C16.5177 217.514 16.7524 217.456 16.96 217.34C17.96 216.78 18.09 214.86 17.43 212.26C16.4409 212.479 15.4389 212.636 14.43 212.73H14.34C13.7283 213.599 13.0602 214.428 12.34 215.21L12.28 215.2ZM18.07 205.2L17.62 205.08C16.4416 204.786 15.2408 204.592 14.03 204.5H14H13.77L13.64 204.32C12.9373 203.299 12.1549 202.336 11.3 201.44L10.97 201.1L11.3 200.76C13.71 198.28 16.02 197.31 17.45 198.13C18.88 198.95 19.21 201.39 18.25 204.77L18.07 205.2ZM14.26 203.55C15.3127 203.641 16.3583 203.802 17.39 204.03C18.05 201.43 17.88 199.5 16.92 198.95C15.96 198.4 14.17 199.24 12.28 201.09C12.9714 201.843 13.6159 202.638 14.21 203.47L14.26 203.55ZM7 218.47C6.59729 218.47 6.2013 218.367 5.85 218.17C4.39 217.32 4.1 214.91 5.06 211.53L5.19 211.08L5.64 211.2C6.84226 211.494 8.06618 211.691 9.3 211.79H9.53L9.66 211.97C10.3585 213.003 11.1411 213.976 12 214.88L12.33 215.22L12 215.56C10.17 217.44 8.4 218.48 7 218.48V218.47ZM5.85 212.26C5.19 214.86 5.36 216.78 6.32 217.34C7.28 217.9 9 217 10.93 215.2C10.2363 214.445 9.59163 213.647 9 212.81V212.74C7.89285 212.641 6.79367 212.467 5.71 212.22H5.87L5.85 212.26ZM11.64 212.86C10.84 212.86 10.02 212.86 9.2 212.76H8.98L8.85 212.57C8.40835 211.954 7.99784 211.317 7.62 210.66L7.54 210.52C7.21 209.97 6.84 209.26 6.54 208.52L6.46 208.35L6.37 208.14L6.46 207.93C6.89 207.03 7.26 206.33 7.67 205.64L7.59 205.78C7.99 205.09 8.43 204.39 8.9 203.73L9.03 203.54H9.25C9.98 203.47 10.83 203.44 11.69 203.44C12.55 203.44 13.39 203.44 14.23 203.55H14H14.23L14.36 203.74C15.2543 205.007 16.0436 206.344 16.72 207.74L16.8 207.91L16.89 208.12L16.8 208.33C16.094 209.833 15.2574 211.272 14.3 212.63L14.36 212.54L14.23 212.72H14C13.18 212.79 12.36 212.82 11.57 212.82L11.64 212.86ZM9.51 211.81C10.9279 211.92 12.3521 211.92 13.77 211.81C14.5184 210.692 15.1867 209.522 15.77 208.31L15.84 208.14C15.2105 206.829 14.4817 205.569 13.66 204.37L13.72 204.47C13.08 204.41 12.34 204.38 11.59 204.38C10.84 204.38 10.1 204.38 9.37 204.47H9.46C8.69684 205.595 8.0183 206.774 7.43 208L7.36 208.16C7.99058 209.472 8.72281 210.732 9.55 211.93L9.48 211.83L9.51 211.81Z" fill="#61DAFB"/>
<path id="discord" d="M417.1 205.76C417.499 206.096 417.75 206.575 417.8 207.095C417.851 207.614 417.696 208.133 417.37 208.54L406.37 221.16L405.96 218.46L405.78 216.92L405.55 215.29L404.82 216.92L396.59 209.75C396.391 209.586 396.228 209.384 396.109 209.156C395.99 208.928 395.918 208.678 395.897 208.421C395.877 208.165 395.908 207.907 395.989 207.663C396.07 207.418 396.2 207.193 396.37 207L404.66 197.48C405.011 197.103 405.494 196.876 406.008 196.846C406.522 196.816 407.028 196.986 407.42 197.32L417.1 205.76ZM410.61 205.96H410.37C410.877 206.702 411.218 207.544 411.37 208.43C410.989 207.482 410.444 206.608 409.76 205.85C409.324 205.375 408.834 204.952 408.3 204.59L408.19 204.49C407.581 204.051 406.906 203.714 406.19 203.49L405.59 203.31C406.528 203.331 407.445 203.585 408.26 204.05V203.91C407.491 203.302 406.549 202.952 405.57 202.91C403.793 203.597 402.204 204.694 400.93 206.11C400.871 206.676 400.956 207.249 401.178 207.773C401.4 208.298 401.752 208.758 402.2 209.11C402.2 209.11 402.7 209 403.2 208.93C402.816 208.369 402.626 207.698 402.66 207.02C402.701 207.11 402.735 207.204 402.76 207.3C402.763 207.308 402.765 207.316 402.765 207.325C402.765 207.333 402.763 207.342 402.76 207.35C402.88 207.6 403.01 207.85 403.1 208.06C403.313 208.501 403.575 208.917 403.88 209.3C404.419 209.94 405.053 210.493 405.76 210.94C406.18 211.188 406.626 211.389 407.09 211.54C407.484 211.658 407.885 211.755 408.29 211.83C407.607 211.954 406.903 211.845 406.29 211.52C406.24 211.96 406.24 212.52 406.24 212.52C406.667 212.899 407.169 213.184 407.713 213.356C408.258 213.528 408.832 213.584 409.4 213.52C410.615 212.07 411.478 210.359 411.92 208.52C411.733 207.565 411.254 206.691 410.55 206.02L410.61 205.96ZM408.45 208.64C408.599 208.768 408.707 208.937 408.76 209.126C408.814 209.315 408.81 209.516 408.75 209.703C408.69 209.89 408.577 210.055 408.423 210.178C408.27 210.301 408.084 210.376 407.888 210.394C407.693 210.412 407.496 210.371 407.323 210.278C407.15 210.185 407.009 210.043 406.916 209.87C406.823 209.696 406.784 209.5 406.802 209.304C406.821 209.108 406.896 208.923 407.02 208.77C407.104 208.666 407.208 208.579 407.326 208.516C407.444 208.453 407.574 208.414 407.707 208.402C407.841 208.39 407.975 208.405 408.103 208.446C408.23 208.486 408.348 208.552 408.45 208.64ZM405.79 206.31C405.94 206.437 406.049 206.605 406.103 206.794C406.158 206.983 406.156 207.183 406.097 207.371C406.038 207.558 405.926 207.724 405.773 207.848C405.621 207.972 405.436 208.048 405.24 208.067C405.045 208.086 404.848 208.048 404.674 207.956C404.501 207.864 404.358 207.723 404.264 207.55C404.17 207.378 404.129 207.181 404.146 206.986C404.163 206.79 404.238 206.604 404.36 206.45C404.443 206.345 404.547 206.258 404.665 206.194C404.782 206.13 404.912 206.09 405.045 206.077C405.179 206.064 405.313 206.078 405.441 206.118C405.569 206.158 405.688 206.223 405.79 206.31Z" fill="#7289DA"/>
<path id="github" d="M374.86 48.1398C372.75 46.5701 370.153 45.798 367.529 45.9602C364.905 46.1224 362.422 47.2084 360.522 49.0259C358.622 50.8433 357.427 53.2748 357.148 55.8893C356.869 58.5039 357.525 61.1327 359 63.3098C359.051 63.3861 359.12 63.4487 359.201 63.4919C359.282 63.5351 359.373 63.5578 359.465 63.5578C359.557 63.5578 359.647 63.5351 359.728 63.4919C359.809 63.4487 359.879 63.3861 359.93 63.3098L361 61.8198C358.13 60.4898 358.91 58.3698 358.91 58.3698C359.139 57.7228 359.139 57.0169 358.91 56.3698C358.52 55.2098 359.38 55.8698 359.38 55.8698C359.638 56.1288 359.833 56.4442 359.95 56.7912C360.066 57.1382 360.1 57.5073 360.05 57.8698C360.004 58.1778 360.02 58.4916 360.096 58.7935C360.172 59.0954 360.307 59.3793 360.493 59.6291C360.678 59.8789 360.911 60.0896 361.179 60.2493C361.446 60.409 361.742 60.5145 362.05 60.5598C362.432 60.143 362.949 59.874 363.51 59.7998C361.71 58.0898 360.22 55.7498 362.79 52.3498C363.443 51.4602 364.413 50.8553 365.5 50.6598C365.805 49.6874 366.471 48.8683 367.36 48.3698C367.36 48.3698 368.28 48.6998 369.11 51.1298C369.984 51.4791 370.808 51.9431 371.56 52.5098C372.31 53.0876 372.982 53.7599 373.56 54.5098C376.11 54.6398 376.68 55.4398 376.68 55.4398C376.421 56.3866 375.823 57.2052 375 57.7398C375.106 58.8408 374.783 59.9403 374.1 60.8098C371.52 64.2198 368.88 63.3998 366.74 62.1298C366.789 62.5037 366.757 62.8836 366.646 63.2442C366.536 63.6047 366.35 63.9373 366.1 64.2198C365.2 65.4098 364.47 66.3498 364.25 66.6398C364.03 66.9298 364.02 67.2698 364.54 67.5298C367.041 68.3817 369.763 68.3152 372.22 67.3423C374.676 66.3694 376.706 64.5536 377.946 62.2203C379.185 59.887 379.553 57.1885 378.984 54.6085C378.415 52.0284 376.946 49.7352 374.84 48.1398H374.86Z" fill="black"/>
<path id="git" d="M175.34 23.31L167.42 20.31C167.2 20.228 166.956 20.2354 166.741 20.3307C166.526 20.426 166.357 20.6016 166.27 20.82L165.65 22.47L167.73 23.27C167.874 23.1363 168.053 23.0458 168.246 23.0088C168.439 22.9717 168.639 22.9897 168.822 23.0605C169.006 23.1314 169.166 23.2524 169.284 23.4096C169.402 23.5668 169.473 23.7541 169.49 23.95L171.49 24.72C171.636 24.5868 171.816 24.4967 172.01 24.4596C172.205 24.4225 172.405 24.44 172.59 24.51C172.767 24.5789 172.923 24.6946 173.039 24.8449C173.156 24.9952 173.23 25.1743 173.252 25.3632C173.275 25.552 173.246 25.7435 173.168 25.9172C173.091 26.0909 172.967 26.2402 172.812 26.3492C172.656 26.4582 172.473 26.5228 172.283 26.5362C172.094 26.5495 171.904 26.511 171.734 26.4248C171.565 26.3386 171.422 26.208 171.32 26.0469C171.219 25.8857 171.164 25.7002 171.16 25.51L169.28 24.8L170.8 28.21C170.913 28.2189 171.024 28.2424 171.13 28.28C171.327 28.3536 171.497 28.4842 171.62 28.6549C171.742 28.8257 171.811 29.029 171.818 29.2391C171.825 29.4491 171.769 29.6564 171.657 29.8346C171.546 30.0128 171.384 30.1539 171.192 30.2399C171.001 30.3259 170.788 30.353 170.58 30.3177C170.373 30.2824 170.181 30.1863 170.029 30.0416C169.876 29.8969 169.77 29.7102 169.724 29.5051C169.678 29.3001 169.694 29.086 169.77 28.89C169.818 28.7593 169.893 28.6401 169.99 28.54L168.46 25.09C168.32 25.0911 168.182 25.0674 168.05 25.02C167.85 24.9409 167.679 24.8029 167.559 24.6243C167.44 24.4457 167.377 24.235 167.38 24.02L165.32 23.23L163.24 28.65C163.155 28.8701 163.161 29.1149 163.257 29.3305C163.353 29.5462 163.53 29.715 163.75 29.8L171.67 32.8C171.778 32.8418 171.894 32.8617 172.01 32.8587C172.126 32.8556 172.24 32.8297 172.346 32.7823C172.452 32.7349 172.548 32.667 172.627 32.5825C172.707 32.498 172.769 32.3986 172.81 32.29L175.81 24.41C175.852 24.3017 175.872 24.1862 175.869 24.0701C175.866 23.9541 175.84 23.8398 175.792 23.7338C175.745 23.6279 175.677 23.5323 175.593 23.4527C175.508 23.3731 175.409 23.311 175.3 23.27L175.34 23.31Z" fill="#F05032"/>
</g>
<defs>
<clipPath id="clip0">
<rect width="432.97" height="324.28" fill="white"/>
</clipPath>
</defs>
</svg>
